%TF.GenerationSoftware,KiCad,Pcbnew,(5.1.8)-1*%
%TF.CreationDate,2021-03-09T15:18:23+01:00*%
%TF.ProjectId,schema_v1,73636865-6d61-45f7-9631-2e6b69636164,rev?*%
%TF.SameCoordinates,Original*%
%TF.FileFunction,Legend,Top*%
%TF.FilePolarity,Positive*%
%FSLAX46Y46*%
G04 Gerber Fmt 4.6, Leading zero omitted, Abs format (unit mm)*
G04 Created by KiCad (PCBNEW (5.1.8)-1) date 2021-03-09 15:18:23*
%MOMM*%
%LPD*%
G01*
G04 APERTURE LIST*
%ADD10C,0.300000*%
%ADD11C,0.120000*%
%ADD12C,0.150000*%
G04 APERTURE END LIST*
D10*
X123087142Y-54082142D02*
X124230000Y-54082142D01*
X123658571Y-54653571D02*
X123658571Y-53510714D01*
X124801428Y-53153571D02*
X125730000Y-53153571D01*
X125230000Y-53725000D01*
X125444285Y-53725000D01*
X125587142Y-53796428D01*
X125658571Y-53867857D01*
X125730000Y-54010714D01*
X125730000Y-54367857D01*
X125658571Y-54510714D01*
X125587142Y-54582142D01*
X125444285Y-54653571D01*
X125015714Y-54653571D01*
X124872857Y-54582142D01*
X124801428Y-54510714D01*
X126158571Y-53153571D02*
X126658571Y-54653571D01*
X127158571Y-53153571D01*
X127515714Y-53153571D02*
X128444285Y-53153571D01*
X127944285Y-53725000D01*
X128158571Y-53725000D01*
X128301428Y-53796428D01*
X128372857Y-53867857D01*
X128444285Y-54010714D01*
X128444285Y-54367857D01*
X128372857Y-54510714D01*
X128301428Y-54582142D01*
X128158571Y-54653571D01*
X127730000Y-54653571D01*
X127587142Y-54582142D01*
X127515714Y-54510714D01*
X120463571Y-54919285D02*
X121677857Y-54919285D01*
X121820714Y-54847857D01*
X121892142Y-54776428D01*
X121963571Y-54633571D01*
X121963571Y-54347857D01*
X121892142Y-54205000D01*
X121820714Y-54133571D01*
X121677857Y-54062142D01*
X120463571Y-54062142D01*
X121963571Y-53347857D02*
X120463571Y-53347857D01*
X121035000Y-53347857D02*
X120963571Y-53205000D01*
X120963571Y-52919285D01*
X121035000Y-52776428D01*
X121106428Y-52705000D01*
X121249285Y-52633571D01*
X121677857Y-52633571D01*
X121820714Y-52705000D01*
X121892142Y-52776428D01*
X121963571Y-52919285D01*
X121963571Y-53205000D01*
X121892142Y-53347857D01*
X121963571Y-51347857D02*
X121177857Y-51347857D01*
X121035000Y-51419285D01*
X120963571Y-51562142D01*
X120963571Y-51847857D01*
X121035000Y-51990714D01*
X121892142Y-51347857D02*
X121963571Y-51490714D01*
X121963571Y-51847857D01*
X121892142Y-51990714D01*
X121749285Y-52062142D01*
X121606428Y-52062142D01*
X121463571Y-51990714D01*
X121392142Y-51847857D01*
X121392142Y-51490714D01*
X121320714Y-51347857D01*
X120963571Y-50847857D02*
X120963571Y-50276428D01*
X120463571Y-50633571D02*
X121749285Y-50633571D01*
X121892142Y-50562142D01*
X121963571Y-50419285D01*
X121963571Y-50276428D01*
X114911428Y-54082142D02*
X116054285Y-54082142D01*
X115482857Y-54653571D02*
X115482857Y-53510714D01*
X117482857Y-53153571D02*
X116768571Y-53153571D01*
X116697142Y-53867857D01*
X116768571Y-53796428D01*
X116911428Y-53725000D01*
X117268571Y-53725000D01*
X117411428Y-53796428D01*
X117482857Y-53867857D01*
X117554285Y-54010714D01*
X117554285Y-54367857D01*
X117482857Y-54510714D01*
X117411428Y-54582142D01*
X117268571Y-54653571D01*
X116911428Y-54653571D01*
X116768571Y-54582142D01*
X116697142Y-54510714D01*
X117982857Y-53153571D02*
X118482857Y-54653571D01*
X118982857Y-53153571D01*
X102997142Y-53225000D02*
X102854285Y-53153571D01*
X102640000Y-53153571D01*
X102425714Y-53225000D01*
X102282857Y-53367857D01*
X102211428Y-53510714D01*
X102140000Y-53796428D01*
X102140000Y-54010714D01*
X102211428Y-54296428D01*
X102282857Y-54439285D01*
X102425714Y-54582142D01*
X102640000Y-54653571D01*
X102782857Y-54653571D01*
X102997142Y-54582142D01*
X103068571Y-54510714D01*
X103068571Y-54010714D01*
X102782857Y-54010714D01*
X103711428Y-54653571D02*
X103711428Y-53153571D01*
X104568571Y-54653571D01*
X104568571Y-53153571D01*
X105282857Y-54653571D02*
X105282857Y-53153571D01*
X105640000Y-53153571D01*
X105854285Y-53225000D01*
X105997142Y-53367857D01*
X106068571Y-53510714D01*
X106140000Y-53796428D01*
X106140000Y-54010714D01*
X106068571Y-54296428D01*
X105997142Y-54439285D01*
X105854285Y-54582142D01*
X105640000Y-54653571D01*
X105282857Y-54653571D01*
D11*
%TO.C,R10*%
X191796936Y-109955000D02*
X192251064Y-109955000D01*
X191796936Y-108485000D02*
X192251064Y-108485000D01*
%TO.C,R9*%
X195807000Y-110463064D02*
X195807000Y-110008936D01*
X194337000Y-110463064D02*
X194337000Y-110008936D01*
%TO.C,R8*%
X189256936Y-114527000D02*
X189711064Y-114527000D01*
X189256936Y-113057000D02*
X189711064Y-113057000D01*
%TO.C,R5*%
X193775064Y-113057000D02*
X193320936Y-113057000D01*
X193775064Y-114527000D02*
X193320936Y-114527000D01*
%TO.C,R3*%
X185192936Y-114527000D02*
X185647064Y-114527000D01*
X185192936Y-113057000D02*
X185647064Y-113057000D01*
%TO.C,D26*%
X187162000Y-117332000D02*
X183262000Y-117332000D01*
X187162000Y-115332000D02*
X183262000Y-115332000D01*
X187162000Y-117332000D02*
X187162000Y-115332000D01*
%TO.C,L8*%
X169481500Y-60134500D02*
X178435000Y-60134500D01*
X178435000Y-60134500D02*
X178435000Y-66675000D01*
X178435000Y-66675000D02*
X169545000Y-66675000D01*
X169481500Y-66675000D02*
X169481500Y-60134500D01*
%TO.C,REF\u002A\u002A*%
X102690000Y-59235000D02*
X102690000Y-56335000D01*
X105590000Y-59235000D02*
X102690000Y-59235000D01*
X105590000Y-56335000D02*
X105590000Y-59235000D01*
X102690000Y-56335000D02*
X105590000Y-56335000D01*
%TO.C,U1*%
X186182000Y-109601000D02*
X188468000Y-109601000D01*
X188468000Y-109601000D02*
X188468000Y-110617000D01*
X188468000Y-110617000D02*
X186182000Y-110617000D01*
X186182000Y-110617000D02*
X186182000Y-109601000D01*
%TO.C,J2*%
X159435000Y-46840000D02*
X159435000Y-48450000D01*
X151715000Y-52660000D02*
X153775000Y-52660000D01*
X151715000Y-50950000D02*
X151715000Y-52660000D01*
X159435000Y-52660000D02*
X157375000Y-52660000D01*
X159435000Y-50950000D02*
X159435000Y-52660000D01*
X159435000Y-46840000D02*
X151715000Y-46840000D01*
X151715000Y-46840000D02*
X151715000Y-48450000D01*
X157375000Y-52660000D02*
X157375000Y-53250000D01*
%TO.C,U14*%
X162295000Y-65110000D02*
X164095000Y-65110000D01*
X164095000Y-61890000D02*
X161645000Y-61890000D01*
%TO.C,U12*%
X177390000Y-52500000D02*
X178115000Y-52500000D01*
X178115000Y-52500000D02*
X178115000Y-53225000D01*
X174620000Y-56720000D02*
X173895000Y-56720000D01*
X173895000Y-56720000D02*
X173895000Y-55995000D01*
X177390000Y-56720000D02*
X178115000Y-56720000D01*
X178115000Y-56720000D02*
X178115000Y-55995000D01*
X174620000Y-52500000D02*
X173895000Y-52500000D01*
%TO.C,U11*%
X164338000Y-97663000D02*
X174180500Y-97663000D01*
X174180500Y-97663000D02*
X174180500Y-93154500D01*
X174180500Y-93154500D02*
X164338000Y-93154500D01*
X164338000Y-93154500D02*
X164338000Y-97663000D01*
X164973000Y-97663000D02*
X164973000Y-97028000D01*
X164973000Y-97028000D02*
X164338000Y-97028000D01*
%TO.C,U10*%
X148325000Y-82255000D02*
X150125000Y-82255000D01*
X150125000Y-79035000D02*
X147675000Y-79035000D01*
%TO.C,U9*%
X104715000Y-106740000D02*
X107375000Y-106740000D01*
X104715000Y-73660000D02*
X104715000Y-106740000D01*
X107375000Y-73660000D02*
X107375000Y-106740000D01*
X104715000Y-73660000D02*
X107375000Y-73660000D01*
X104715000Y-72390000D02*
X104715000Y-71060000D01*
X104715000Y-71060000D02*
X106045000Y-71060000D01*
%TO.C,U8*%
X196596000Y-109537500D02*
X196596000Y-126555500D01*
X196596000Y-109537500D02*
X227330000Y-109474000D01*
X196596000Y-126555500D02*
X227330000Y-126492000D01*
X227330000Y-109474000D02*
X227330000Y-126492000D01*
%TO.C,U6*%
X177673000Y-105283000D02*
X184467500Y-105283000D01*
X184467500Y-105283000D02*
X184467500Y-102679500D01*
X184467500Y-102679500D02*
X177673000Y-102679500D01*
X177673000Y-102679500D02*
X177673000Y-105283000D01*
D12*
%TO.C,U5*%
X149525000Y-63890000D02*
X149525000Y-64465000D01*
X155275000Y-63890000D02*
X155275000Y-64540000D01*
X155275000Y-74540000D02*
X155275000Y-73890000D01*
X149525000Y-74540000D02*
X149525000Y-73890000D01*
X149525000Y-63890000D02*
X155275000Y-63890000D01*
X149525000Y-74540000D02*
X155275000Y-74540000D01*
X149525000Y-64465000D02*
X147925000Y-64465000D01*
D11*
%TO.C,U2*%
X128270000Y-86930000D02*
X132130000Y-86930000D01*
X132130000Y-86930000D02*
X132130000Y-86285000D01*
X128270000Y-86930000D02*
X124410000Y-86930000D01*
X124410000Y-86930000D02*
X124410000Y-86285000D01*
X128270000Y-68010000D02*
X132130000Y-68010000D01*
X132130000Y-68010000D02*
X132130000Y-68655000D01*
X128270000Y-68010000D02*
X124410000Y-68010000D01*
X124410000Y-68010000D02*
X124410000Y-68655000D01*
X124410000Y-68655000D02*
X122570000Y-68655000D01*
%TO.C,TP7*%
X115390000Y-56335000D02*
X118290000Y-56335000D01*
X118290000Y-56335000D02*
X118290000Y-59235000D01*
X118290000Y-59235000D02*
X115390000Y-59235000D01*
X115390000Y-59235000D02*
X115390000Y-56335000D01*
%TO.C,TP6*%
X119835000Y-56335000D02*
X122735000Y-56335000D01*
X122735000Y-56335000D02*
X122735000Y-59235000D01*
X122735000Y-59235000D02*
X119835000Y-59235000D01*
X119835000Y-59235000D02*
X119835000Y-56335000D01*
%TO.C,TP2*%
X124280000Y-56335000D02*
X127180000Y-56335000D01*
X127180000Y-56335000D02*
X127180000Y-59235000D01*
X127180000Y-59235000D02*
X124280000Y-59235000D01*
X124280000Y-59235000D02*
X124280000Y-56335000D01*
%TO.C,SW9*%
X193120000Y-60980000D02*
X199090000Y-60980000D01*
X199090000Y-60980000D02*
X199090000Y-53360000D01*
X199090000Y-53360000D02*
X193120000Y-53360000D01*
X193120000Y-53360000D02*
X193120000Y-60980000D01*
X193130000Y-57670000D02*
X193880000Y-57670000D01*
X193880000Y-57670000D02*
X193880000Y-56670000D01*
X193880000Y-56670000D02*
X193130000Y-56670000D01*
X193130000Y-56670000D02*
X193130000Y-57670000D01*
X193130000Y-60970000D02*
X193880000Y-60970000D01*
X193880000Y-60970000D02*
X193880000Y-59170000D01*
X193880000Y-59170000D02*
X193130000Y-59170000D01*
X193130000Y-59170000D02*
X193130000Y-60970000D01*
X193130000Y-55170000D02*
X193880000Y-55170000D01*
X193880000Y-55170000D02*
X193880000Y-53370000D01*
X193880000Y-53370000D02*
X193130000Y-53370000D01*
X193130000Y-53370000D02*
X193130000Y-55170000D01*
X195380000Y-60970000D02*
X195380000Y-60220000D01*
X195380000Y-60220000D02*
X198330000Y-60220000D01*
X198330000Y-60220000D02*
X198330000Y-57170000D01*
X195380000Y-53370000D02*
X195380000Y-54120000D01*
X195380000Y-54120000D02*
X198330000Y-54120000D01*
X198330000Y-54120000D02*
X198330000Y-57170000D01*
X192830000Y-60020000D02*
X192830000Y-61270000D01*
X192830000Y-61270000D02*
X194080000Y-61270000D01*
%TO.C,SW7*%
X162290000Y-121705000D02*
X166790000Y-121705000D01*
X161040000Y-117705000D02*
X161040000Y-119205000D01*
X166790000Y-115205000D02*
X162290000Y-115205000D01*
X168040000Y-119205000D02*
X168040000Y-117705000D01*
%TO.C,SW6*%
X119110000Y-121705000D02*
X123610000Y-121705000D01*
X117860000Y-117705000D02*
X117860000Y-119205000D01*
X123610000Y-115205000D02*
X119110000Y-115205000D01*
X124860000Y-119205000D02*
X124860000Y-117705000D01*
%TO.C,SW5*%
X129905000Y-121705000D02*
X134405000Y-121705000D01*
X128655000Y-117705000D02*
X128655000Y-119205000D01*
X134405000Y-115205000D02*
X129905000Y-115205000D01*
X135655000Y-119205000D02*
X135655000Y-117705000D01*
%TO.C,SW4*%
X140700000Y-121705000D02*
X145200000Y-121705000D01*
X139450000Y-117705000D02*
X139450000Y-119205000D01*
X145200000Y-115205000D02*
X140700000Y-115205000D01*
X146450000Y-119205000D02*
X146450000Y-117705000D01*
%TO.C,SW3*%
X151495000Y-121705000D02*
X155995000Y-121705000D01*
X150245000Y-117705000D02*
X150245000Y-119205000D01*
X155995000Y-115205000D02*
X151495000Y-115205000D01*
X157245000Y-119205000D02*
X157245000Y-117705000D01*
%TO.C,SW1*%
X101330000Y-121705000D02*
X105830000Y-121705000D01*
X100080000Y-117705000D02*
X100080000Y-119205000D01*
X105830000Y-115205000D02*
X101330000Y-115205000D01*
X107080000Y-119205000D02*
X107080000Y-117705000D01*
%TO.C,R37*%
X167232064Y-71220000D02*
X166777936Y-71220000D01*
X167232064Y-69750000D02*
X166777936Y-69750000D01*
%TO.C,R36*%
X171677064Y-71220000D02*
X171222936Y-71220000D01*
X171677064Y-69750000D02*
X171222936Y-69750000D01*
%TO.C,R32*%
X162967936Y-65940000D02*
X163422064Y-65940000D01*
X162967936Y-67410000D02*
X163422064Y-67410000D01*
%TO.C,R31*%
X117575000Y-74067936D02*
X117575000Y-74522064D01*
X116105000Y-74067936D02*
X116105000Y-74522064D01*
%TO.C,R30*%
X120115000Y-69622936D02*
X120115000Y-70077064D01*
X118645000Y-69622936D02*
X118645000Y-70077064D01*
%TO.C,R29*%
X181710000Y-95022936D02*
X181710000Y-95477064D01*
X180240000Y-95022936D02*
X180240000Y-95477064D01*
%TO.C,R28*%
X162152064Y-99795000D02*
X161697936Y-99795000D01*
X162152064Y-98325000D02*
X161697936Y-98325000D01*
%TO.C,R27*%
X174090000Y-102007936D02*
X174090000Y-102462064D01*
X172620000Y-102007936D02*
X172620000Y-102462064D01*
%TO.C,R26*%
X169010000Y-102007936D02*
X169010000Y-102462064D01*
X167540000Y-102007936D02*
X167540000Y-102462064D01*
%TO.C,R25*%
X170080000Y-102462064D02*
X170080000Y-102007936D01*
X171550000Y-102462064D02*
X171550000Y-102007936D01*
%TO.C,R24*%
X171550000Y-106452936D02*
X171550000Y-106907064D01*
X170080000Y-106452936D02*
X170080000Y-106907064D01*
%TO.C,R23*%
X169010000Y-106452936D02*
X169010000Y-106907064D01*
X167540000Y-106452936D02*
X167540000Y-106907064D01*
%TO.C,R22*%
X164237936Y-109120000D02*
X164692064Y-109120000D01*
X164237936Y-110590000D02*
X164692064Y-110590000D01*
%TO.C,R20*%
X121057936Y-109120000D02*
X121512064Y-109120000D01*
X121057936Y-110590000D02*
X121512064Y-110590000D01*
%TO.C,R16*%
X131852936Y-109120000D02*
X132307064Y-109120000D01*
X131852936Y-110590000D02*
X132307064Y-110590000D01*
%TO.C,R14*%
X181837064Y-53440000D02*
X181382936Y-53440000D01*
X181837064Y-51970000D02*
X181382936Y-51970000D01*
%TO.C,R13*%
X142647936Y-109120000D02*
X143102064Y-109120000D01*
X142647936Y-110590000D02*
X143102064Y-110590000D01*
%TO.C,R11*%
X153442936Y-109120000D02*
X153897064Y-109120000D01*
X153442936Y-110590000D02*
X153897064Y-110590000D01*
%TO.C,R7*%
X111860000Y-85497936D02*
X111860000Y-85952064D01*
X110390000Y-85497936D02*
X110390000Y-85952064D01*
%TO.C,R6*%
X111860000Y-75972936D02*
X111860000Y-76427064D01*
X110390000Y-75972936D02*
X110390000Y-76427064D01*
%TO.C,R4*%
X111860000Y-99467936D02*
X111860000Y-99922064D01*
X110390000Y-99467936D02*
X110390000Y-99922064D01*
%TO.C,R2*%
X111860000Y-103912936D02*
X111860000Y-104367064D01*
X110390000Y-103912936D02*
X110390000Y-104367064D01*
%TO.C,R1*%
X187282064Y-53440000D02*
X186827936Y-53440000D01*
X187282064Y-51970000D02*
X186827936Y-51970000D01*
%TO.C,LS2*%
X174565000Y-73085000D02*
X177225000Y-73085000D01*
X174565000Y-70485000D02*
X174565000Y-73085000D01*
X177225000Y-70485000D02*
X177225000Y-73085000D01*
X174565000Y-70485000D02*
X177225000Y-70485000D01*
X174565000Y-69215000D02*
X174565000Y-67885000D01*
X174565000Y-67885000D02*
X175895000Y-67885000D01*
%TO.C,LS1*%
X163890000Y-68520000D02*
X161230000Y-68520000D01*
X163890000Y-71120000D02*
X163890000Y-68520000D01*
X161230000Y-71120000D02*
X161230000Y-68520000D01*
X163890000Y-71120000D02*
X161230000Y-71120000D01*
X163890000Y-72390000D02*
X163890000Y-73720000D01*
X163890000Y-73720000D02*
X162560000Y-73720000D01*
%TO.C,L6*%
X165645000Y-55212064D02*
X165645000Y-54007936D01*
X168365000Y-55212064D02*
X168365000Y-54007936D01*
%TO.C,L4*%
X172010000Y-79636252D02*
X172010000Y-79113748D01*
X173430000Y-79636252D02*
X173430000Y-79113748D01*
%TO.C,L3*%
X169470000Y-79636252D02*
X169470000Y-79113748D01*
X170890000Y-79636252D02*
X170890000Y-79113748D01*
%TO.C,L2*%
X166930000Y-79636252D02*
X166930000Y-79113748D01*
X168350000Y-79636252D02*
X168350000Y-79113748D01*
%TO.C,L1*%
X164390000Y-79636252D02*
X164390000Y-79113748D01*
X165810000Y-79636252D02*
X165810000Y-79113748D01*
%TO.C,JP1*%
X107445000Y-109555000D02*
X107445000Y-110155000D01*
X105345000Y-108855000D02*
X106745000Y-108855000D01*
X104645000Y-110155000D02*
X104645000Y-109555000D01*
X106745000Y-110855000D02*
X105345000Y-110855000D01*
X107445000Y-110155000D02*
G75*
G02*
X106745000Y-110855000I-700000J0D01*
G01*
X106745000Y-108855000D02*
G75*
G02*
X107445000Y-109555000I0J-700000D01*
G01*
X104645000Y-109555000D02*
G75*
G02*
X105345000Y-108855000I700000J0D01*
G01*
X105345000Y-110855000D02*
G75*
G02*
X104645000Y-110155000I0J700000D01*
G01*
%TO.C,J1*%
X146110000Y-57725000D02*
X146110000Y-59055000D01*
X144780000Y-57725000D02*
X146110000Y-57725000D01*
X143510000Y-57725000D02*
X143510000Y-60385000D01*
X143510000Y-60385000D02*
X133290000Y-60385000D01*
X143510000Y-57725000D02*
X133290000Y-57725000D01*
X133290000Y-57725000D02*
X133290000Y-60385000D01*
%TO.C,D25*%
X91600000Y-67100000D02*
X98900000Y-67100000D01*
X91600000Y-72600000D02*
X98900000Y-72600000D01*
X98900000Y-72600000D02*
X98900000Y-71450000D01*
%TO.C,D24*%
X82075000Y-67100000D02*
X89375000Y-67100000D01*
X82075000Y-72600000D02*
X89375000Y-72600000D01*
X89375000Y-72600000D02*
X89375000Y-71450000D01*
%TO.C,D23*%
X203360000Y-67100000D02*
X210660000Y-67100000D01*
X203360000Y-72600000D02*
X210660000Y-72600000D01*
X210660000Y-72600000D02*
X210660000Y-71450000D01*
%TO.C,D22*%
X193835000Y-67100000D02*
X201135000Y-67100000D01*
X193835000Y-72600000D02*
X201135000Y-72600000D01*
X201135000Y-72600000D02*
X201135000Y-71450000D01*
%TO.C,D21*%
X91690000Y-74415000D02*
X98990000Y-74415000D01*
X91690000Y-79915000D02*
X98990000Y-79915000D01*
X98990000Y-79915000D02*
X98990000Y-78765000D01*
%TO.C,D20*%
X82075000Y-74085000D02*
X89375000Y-74085000D01*
X82075000Y-79585000D02*
X89375000Y-79585000D01*
X89375000Y-79585000D02*
X89375000Y-78435000D01*
%TO.C,D19*%
X203360000Y-74085000D02*
X210660000Y-74085000D01*
X203360000Y-79585000D02*
X210660000Y-79585000D01*
X210660000Y-79585000D02*
X210660000Y-78435000D01*
%TO.C,D18*%
X193835000Y-74085000D02*
X201135000Y-74085000D01*
X193835000Y-79585000D02*
X201135000Y-79585000D01*
X201135000Y-79585000D02*
X201135000Y-78435000D01*
%TO.C,D17*%
X91600000Y-81070000D02*
X98900000Y-81070000D01*
X91600000Y-86570000D02*
X98900000Y-86570000D01*
X98900000Y-86570000D02*
X98900000Y-85420000D01*
%TO.C,D16*%
X82075000Y-81070000D02*
X89375000Y-81070000D01*
X82075000Y-86570000D02*
X89375000Y-86570000D01*
X89375000Y-86570000D02*
X89375000Y-85420000D01*
%TO.C,D15*%
X203360000Y-81070000D02*
X210660000Y-81070000D01*
X203360000Y-86570000D02*
X210660000Y-86570000D01*
X210660000Y-86570000D02*
X210660000Y-85420000D01*
%TO.C,D14*%
X193835000Y-81070000D02*
X201135000Y-81070000D01*
X193835000Y-86570000D02*
X201135000Y-86570000D01*
X201135000Y-86570000D02*
X201135000Y-85420000D01*
%TO.C,D13*%
X91600000Y-88055000D02*
X98900000Y-88055000D01*
X91600000Y-93555000D02*
X98900000Y-93555000D01*
X98900000Y-93555000D02*
X98900000Y-92405000D01*
%TO.C,D12*%
X82075000Y-88055000D02*
X89375000Y-88055000D01*
X82075000Y-93555000D02*
X89375000Y-93555000D01*
X89375000Y-93555000D02*
X89375000Y-92405000D01*
%TO.C,D11*%
X203360000Y-88055000D02*
X210660000Y-88055000D01*
X203360000Y-93555000D02*
X210660000Y-93555000D01*
X210660000Y-93555000D02*
X210660000Y-92405000D01*
%TO.C,D10*%
X193835000Y-88055000D02*
X201135000Y-88055000D01*
X193835000Y-93555000D02*
X201135000Y-93555000D01*
X201135000Y-93555000D02*
X201135000Y-92405000D01*
%TO.C,D9*%
X91600000Y-95040000D02*
X98900000Y-95040000D01*
X91600000Y-100540000D02*
X98900000Y-100540000D01*
X98900000Y-100540000D02*
X98900000Y-99390000D01*
%TO.C,D8*%
X82075000Y-95040000D02*
X89375000Y-95040000D01*
X82075000Y-100540000D02*
X89375000Y-100540000D01*
X89375000Y-100540000D02*
X89375000Y-99390000D01*
%TO.C,D7*%
X203360000Y-95040000D02*
X210660000Y-95040000D01*
X203360000Y-100540000D02*
X210660000Y-100540000D01*
X210660000Y-100540000D02*
X210660000Y-99390000D01*
%TO.C,D6*%
X193835000Y-95040000D02*
X201135000Y-95040000D01*
X193835000Y-100540000D02*
X201135000Y-100540000D01*
X201135000Y-100540000D02*
X201135000Y-99390000D01*
%TO.C,D5*%
X91600000Y-102025000D02*
X98900000Y-102025000D01*
X91600000Y-107525000D02*
X98900000Y-107525000D01*
X98900000Y-107525000D02*
X98900000Y-106375000D01*
%TO.C,D4*%
X82075000Y-102025000D02*
X89375000Y-102025000D01*
X82075000Y-107525000D02*
X89375000Y-107525000D01*
X89375000Y-107525000D02*
X89375000Y-106375000D01*
%TO.C,D3*%
X203360000Y-102025000D02*
X210660000Y-102025000D01*
X203360000Y-107525000D02*
X210660000Y-107525000D01*
X210660000Y-107525000D02*
X210660000Y-106375000D01*
%TO.C,D2*%
X193835000Y-102025000D02*
X201135000Y-102025000D01*
X193835000Y-107525000D02*
X201135000Y-107525000D01*
X201135000Y-107525000D02*
X201135000Y-106375000D01*
%TO.C,D1*%
X184745000Y-57150000D02*
G75*
G03*
X184745000Y-57150000I-2500000J0D01*
G01*
X179685000Y-55605000D02*
X179685000Y-58695000D01*
X185235000Y-57149538D02*
G75*
G02*
X179685000Y-58694830I-2990000J-462D01*
G01*
X185235000Y-57150462D02*
G75*
G03*
X179685000Y-55605170I-2990000J462D01*
G01*
%TO.C,C47*%
X173728748Y-74830000D02*
X174251252Y-74830000D01*
X173728748Y-76300000D02*
X174251252Y-76300000D01*
%TO.C,C46*%
X170915000Y-74668748D02*
X170915000Y-75191252D01*
X169445000Y-74668748D02*
X169445000Y-75191252D01*
%TO.C,C45*%
X166905000Y-75191252D02*
X166905000Y-74668748D01*
X168375000Y-75191252D02*
X168375000Y-74668748D01*
%TO.C,C44*%
X163166248Y-74830000D02*
X163688752Y-74830000D01*
X163166248Y-76300000D02*
X163688752Y-76300000D01*
%TO.C,C43*%
X163435000Y-87445000D02*
X163435000Y-84495000D01*
X163435000Y-78925000D02*
X163435000Y-81875000D01*
X155979437Y-78925000D02*
X163435000Y-78925000D01*
X155979437Y-87445000D02*
X163435000Y-87445000D01*
X154915000Y-86380563D02*
X154915000Y-84495000D01*
X154915000Y-79989437D02*
X154915000Y-81875000D01*
X154915000Y-79989437D02*
X155979437Y-78925000D01*
X154915000Y-86380563D02*
X155979437Y-87445000D01*
%TO.C,C42*%
X174810000Y-78925000D02*
X174810000Y-81875000D01*
X174810000Y-87445000D02*
X174810000Y-84495000D01*
X182265563Y-87445000D02*
X174810000Y-87445000D01*
X182265563Y-78925000D02*
X174810000Y-78925000D01*
X183330000Y-79989437D02*
X183330000Y-81875000D01*
X183330000Y-86380563D02*
X183330000Y-84495000D01*
X183330000Y-86380563D02*
X182265563Y-87445000D01*
X183330000Y-79989437D02*
X182265563Y-78925000D01*
%TO.C,C41*%
X159123748Y-88165000D02*
X159646252Y-88165000D01*
X159123748Y-89635000D02*
X159646252Y-89635000D01*
%TO.C,C40*%
X179331252Y-89635000D02*
X178808748Y-89635000D01*
X179331252Y-88165000D02*
X178808748Y-88165000D01*
%TO.C,C39*%
X159123748Y-90705000D02*
X159646252Y-90705000D01*
X159123748Y-92175000D02*
X159646252Y-92175000D01*
%TO.C,C38*%
X164203748Y-88165000D02*
X164726252Y-88165000D01*
X164203748Y-89635000D02*
X164726252Y-89635000D01*
%TO.C,C37*%
X174251252Y-89635000D02*
X173728748Y-89635000D01*
X174251252Y-88165000D02*
X173728748Y-88165000D01*
%TO.C,C36*%
X171188748Y-85625000D02*
X171711252Y-85625000D01*
X171188748Y-87095000D02*
X171711252Y-87095000D01*
%TO.C,C35*%
X167266252Y-87095000D02*
X166743748Y-87095000D01*
X167266252Y-85625000D02*
X166743748Y-85625000D01*
%TO.C,C34*%
X179563752Y-92175000D02*
X179041248Y-92175000D01*
X179563752Y-90705000D02*
X179041248Y-90705000D01*
%TO.C,C33*%
X177700000Y-95511252D02*
X177700000Y-94988748D01*
X179170000Y-95511252D02*
X179170000Y-94988748D01*
%TO.C,C32*%
X176630000Y-94988748D02*
X176630000Y-95511252D01*
X175160000Y-94988748D02*
X175160000Y-95511252D01*
%TO.C,C31*%
X176903748Y-98325000D02*
X177426252Y-98325000D01*
X176903748Y-99795000D02*
X177426252Y-99795000D01*
%TO.C,C30*%
X163930000Y-101973748D02*
X163930000Y-102496252D01*
X162460000Y-101973748D02*
X162460000Y-102496252D01*
%TO.C,C29*%
X176630000Y-101973748D02*
X176630000Y-102496252D01*
X175160000Y-101973748D02*
X175160000Y-102496252D01*
%TO.C,C28*%
X166470000Y-101973748D02*
X166470000Y-102496252D01*
X165000000Y-101973748D02*
X165000000Y-102496252D01*
%TO.C,C27*%
X101065000Y-69588748D02*
X101065000Y-70111252D01*
X99595000Y-69588748D02*
X99595000Y-70111252D01*
%TO.C,C26*%
X81380000Y-69588748D02*
X81380000Y-70111252D01*
X79910000Y-69588748D02*
X79910000Y-70111252D01*
%TO.C,C25*%
X212825000Y-69588748D02*
X212825000Y-70111252D01*
X211355000Y-69588748D02*
X211355000Y-70111252D01*
%TO.C,C24*%
X193140000Y-69588748D02*
X193140000Y-70111252D01*
X191670000Y-69588748D02*
X191670000Y-70111252D01*
%TO.C,C23*%
X101065000Y-77208748D02*
X101065000Y-77731252D01*
X99595000Y-77208748D02*
X99595000Y-77731252D01*
%TO.C,C22*%
X81380000Y-76573748D02*
X81380000Y-77096252D01*
X79910000Y-76573748D02*
X79910000Y-77096252D01*
%TO.C,C21*%
X212825000Y-76573748D02*
X212825000Y-77096252D01*
X211355000Y-76573748D02*
X211355000Y-77096252D01*
%TO.C,C20*%
X193140000Y-76573748D02*
X193140000Y-77096252D01*
X191670000Y-76573748D02*
X191670000Y-77096252D01*
%TO.C,C19*%
X193140000Y-83558748D02*
X193140000Y-84081252D01*
X191670000Y-83558748D02*
X191670000Y-84081252D01*
%TO.C,C18*%
X101065000Y-83558748D02*
X101065000Y-84081252D01*
X99595000Y-83558748D02*
X99595000Y-84081252D01*
%TO.C,C17*%
X81380000Y-83558748D02*
X81380000Y-84081252D01*
X79910000Y-83558748D02*
X79910000Y-84081252D01*
%TO.C,C16*%
X212825000Y-83558748D02*
X212825000Y-84081252D01*
X211355000Y-83558748D02*
X211355000Y-84081252D01*
%TO.C,C15*%
X101065000Y-90543748D02*
X101065000Y-91066252D01*
X99595000Y-90543748D02*
X99595000Y-91066252D01*
%TO.C,C14*%
X81380000Y-90543748D02*
X81380000Y-91066252D01*
X79910000Y-90543748D02*
X79910000Y-91066252D01*
%TO.C,C13*%
X212825000Y-90543748D02*
X212825000Y-91066252D01*
X211355000Y-90543748D02*
X211355000Y-91066252D01*
%TO.C,C12*%
X193140000Y-90543748D02*
X193140000Y-91066252D01*
X191670000Y-90543748D02*
X191670000Y-91066252D01*
%TO.C,C11*%
X101065000Y-97528748D02*
X101065000Y-98051252D01*
X99595000Y-97528748D02*
X99595000Y-98051252D01*
%TO.C,c10*%
X171550000Y-55618748D02*
X171550000Y-56141252D01*
X170080000Y-55618748D02*
X170080000Y-56141252D01*
%TO.C,C10*%
X81380000Y-97528748D02*
X81380000Y-98051252D01*
X79910000Y-97528748D02*
X79910000Y-98051252D01*
%TO.C,c9*%
X176903748Y-50065000D02*
X177426252Y-50065000D01*
X176903748Y-51535000D02*
X177426252Y-51535000D01*
%TO.C,C9*%
X212825000Y-97528748D02*
X212825000Y-98051252D01*
X211355000Y-97528748D02*
X211355000Y-98051252D01*
%TO.C,C8*%
X193140000Y-97528748D02*
X193140000Y-98051252D01*
X191670000Y-97528748D02*
X191670000Y-98051252D01*
%TO.C,c8*%
X170080000Y-51696252D02*
X170080000Y-51173748D01*
X171550000Y-51696252D02*
X171550000Y-51173748D01*
%TO.C,C7*%
X101065000Y-104513748D02*
X101065000Y-105036252D01*
X99595000Y-104513748D02*
X99595000Y-105036252D01*
%TO.C,c7*%
X176791252Y-59155000D02*
X176268748Y-59155000D01*
X176791252Y-57685000D02*
X176268748Y-57685000D01*
%TO.C,C6*%
X81380000Y-104513748D02*
X81380000Y-105036252D01*
X79910000Y-104513748D02*
X79910000Y-105036252D01*
%TO.C,C5*%
X212825000Y-104513748D02*
X212825000Y-105036252D01*
X211355000Y-104513748D02*
X211355000Y-105036252D01*
%TO.C,C4*%
X193140000Y-104513748D02*
X193140000Y-105036252D01*
X191670000Y-104513748D02*
X191670000Y-105036252D01*
%TO.C,C3*%
X147770000Y-84640000D02*
X144820000Y-84640000D01*
X139250000Y-84640000D02*
X142200000Y-84640000D01*
X139250000Y-92095563D02*
X139250000Y-84640000D01*
X147770000Y-92095563D02*
X147770000Y-84640000D01*
X146705563Y-93160000D02*
X144820000Y-93160000D01*
X140314437Y-93160000D02*
X142200000Y-93160000D01*
X140314437Y-93160000D02*
X139250000Y-92095563D01*
X146705563Y-93160000D02*
X147770000Y-92095563D01*
%TO.C,BT3*%
X191040000Y-54455000D02*
X186320000Y-54455000D01*
X186320000Y-54455000D02*
X186320000Y-60575000D01*
X186320000Y-60575000D02*
X191040000Y-60575000D01*
X191040000Y-60575000D02*
X191040000Y-54455000D01*
X191040000Y-56215000D02*
X191240000Y-56215000D01*
X191240000Y-56215000D02*
X191240000Y-55915000D01*
X191240000Y-55915000D02*
X191040000Y-55915000D01*
X191140000Y-56215000D02*
X191140000Y-55915000D01*
X191040000Y-57015000D02*
X190430000Y-57015000D01*
X190430000Y-57015000D02*
X190430000Y-55065000D01*
X190430000Y-55065000D02*
X186930000Y-55065000D01*
X186930000Y-55065000D02*
X186930000Y-59965000D01*
X186930000Y-59965000D02*
X190430000Y-59965000D01*
X190430000Y-59965000D02*
X190430000Y-58015000D01*
X190430000Y-58015000D02*
X191040000Y-58015000D01*
X189730000Y-54455000D02*
X189730000Y-55065000D01*
X188430000Y-54455000D02*
X188430000Y-55065000D01*
X189730000Y-60575000D02*
X189730000Y-59965000D01*
X188430000Y-60575000D02*
X188430000Y-59965000D01*
X186930000Y-57415000D02*
X187430000Y-57415000D01*
X187430000Y-57415000D02*
X187430000Y-57615000D01*
X187430000Y-57615000D02*
X186930000Y-57615000D01*
X186930000Y-57515000D02*
X187430000Y-57515000D01*
X191340000Y-55405000D02*
X191340000Y-54155000D01*
X191340000Y-54155000D02*
X190090000Y-54155000D01*
%TO.C,10uF11*%
X186590000Y-64396252D02*
X186590000Y-63873748D01*
X188060000Y-64396252D02*
X188060000Y-63873748D01*
%TO.C,10uF10*%
X183415000Y-64396252D02*
X183415000Y-63873748D01*
X184885000Y-64396252D02*
X184885000Y-63873748D01*
%TO.C,10uF9*%
X167266252Y-59155000D02*
X166743748Y-59155000D01*
X167266252Y-57685000D02*
X166743748Y-57685000D01*
%TO.C,10uF8*%
X158015000Y-63761252D02*
X158015000Y-63238748D01*
X159485000Y-63761252D02*
X159485000Y-63238748D01*
%TO.C,10uF7*%
X155836252Y-62965000D02*
X155313748Y-62965000D01*
X155836252Y-61495000D02*
X155313748Y-61495000D01*
%TO.C,10uF1*%
X181236252Y-109955000D02*
X180713748Y-109955000D01*
X181236252Y-108485000D02*
X180713748Y-108485000D01*
%TO.C,100nF7*%
X176630000Y-106418748D02*
X176630000Y-106941252D01*
X175160000Y-106418748D02*
X175160000Y-106941252D01*
%TO.C,100nF5*%
X158015000Y-72016252D02*
X158015000Y-71493748D01*
X159485000Y-72016252D02*
X159485000Y-71493748D01*
%TO.C,100nF3*%
X99595000Y-109481252D02*
X99595000Y-108958748D01*
X101065000Y-109481252D02*
X101065000Y-108958748D01*
%TO.C,100nF2*%
X138530000Y-79748748D02*
X138530000Y-80271252D01*
X137060000Y-79748748D02*
X137060000Y-80271252D01*
%TO.C,100nF1*%
X120115000Y-74033748D02*
X120115000Y-74556252D01*
X118645000Y-74033748D02*
X118645000Y-74556252D01*
%TO.C,R10*%
D12*
X191381142Y-108022380D02*
X191047809Y-107546190D01*
X190809714Y-108022380D02*
X190809714Y-107022380D01*
X191190666Y-107022380D01*
X191285904Y-107070000D01*
X191333523Y-107117619D01*
X191381142Y-107212857D01*
X191381142Y-107355714D01*
X191333523Y-107450952D01*
X191285904Y-107498571D01*
X191190666Y-107546190D01*
X190809714Y-107546190D01*
X192333523Y-108022380D02*
X191762095Y-108022380D01*
X192047809Y-108022380D02*
X192047809Y-107022380D01*
X191952571Y-107165238D01*
X191857333Y-107260476D01*
X191762095Y-107308095D01*
X192952571Y-107022380D02*
X193047809Y-107022380D01*
X193143047Y-107070000D01*
X193190666Y-107117619D01*
X193238285Y-107212857D01*
X193285904Y-107403333D01*
X193285904Y-107641428D01*
X193238285Y-107831904D01*
X193190666Y-107927142D01*
X193143047Y-107974761D01*
X193047809Y-108022380D01*
X192952571Y-108022380D01*
X192857333Y-107974761D01*
X192809714Y-107927142D01*
X192762095Y-107831904D01*
X192714476Y-107641428D01*
X192714476Y-107403333D01*
X192762095Y-107212857D01*
X192809714Y-107117619D01*
X192857333Y-107070000D01*
X192952571Y-107022380D01*
%TO.C,R9*%
X193874380Y-110402666D02*
X193398190Y-110736000D01*
X193874380Y-110974095D02*
X192874380Y-110974095D01*
X192874380Y-110593142D01*
X192922000Y-110497904D01*
X192969619Y-110450285D01*
X193064857Y-110402666D01*
X193207714Y-110402666D01*
X193302952Y-110450285D01*
X193350571Y-110497904D01*
X193398190Y-110593142D01*
X193398190Y-110974095D01*
X193874380Y-109926476D02*
X193874380Y-109736000D01*
X193826761Y-109640761D01*
X193779142Y-109593142D01*
X193636285Y-109497904D01*
X193445809Y-109450285D01*
X193064857Y-109450285D01*
X192969619Y-109497904D01*
X192922000Y-109545523D01*
X192874380Y-109640761D01*
X192874380Y-109831238D01*
X192922000Y-109926476D01*
X192969619Y-109974095D01*
X193064857Y-110021714D01*
X193302952Y-110021714D01*
X193398190Y-109974095D01*
X193445809Y-109926476D01*
X193493428Y-109831238D01*
X193493428Y-109640761D01*
X193445809Y-109545523D01*
X193398190Y-109497904D01*
X193302952Y-109450285D01*
%TO.C,R8*%
X189317333Y-112594380D02*
X188984000Y-112118190D01*
X188745904Y-112594380D02*
X188745904Y-111594380D01*
X189126857Y-111594380D01*
X189222095Y-111642000D01*
X189269714Y-111689619D01*
X189317333Y-111784857D01*
X189317333Y-111927714D01*
X189269714Y-112022952D01*
X189222095Y-112070571D01*
X189126857Y-112118190D01*
X188745904Y-112118190D01*
X189888761Y-112022952D02*
X189793523Y-111975333D01*
X189745904Y-111927714D01*
X189698285Y-111832476D01*
X189698285Y-111784857D01*
X189745904Y-111689619D01*
X189793523Y-111642000D01*
X189888761Y-111594380D01*
X190079238Y-111594380D01*
X190174476Y-111642000D01*
X190222095Y-111689619D01*
X190269714Y-111784857D01*
X190269714Y-111832476D01*
X190222095Y-111927714D01*
X190174476Y-111975333D01*
X190079238Y-112022952D01*
X189888761Y-112022952D01*
X189793523Y-112070571D01*
X189745904Y-112118190D01*
X189698285Y-112213428D01*
X189698285Y-112403904D01*
X189745904Y-112499142D01*
X189793523Y-112546761D01*
X189888761Y-112594380D01*
X190079238Y-112594380D01*
X190174476Y-112546761D01*
X190222095Y-112499142D01*
X190269714Y-112403904D01*
X190269714Y-112213428D01*
X190222095Y-112118190D01*
X190174476Y-112070571D01*
X190079238Y-112022952D01*
%TO.C,R5*%
X193381333Y-115894380D02*
X193048000Y-115418190D01*
X192809904Y-115894380D02*
X192809904Y-114894380D01*
X193190857Y-114894380D01*
X193286095Y-114942000D01*
X193333714Y-114989619D01*
X193381333Y-115084857D01*
X193381333Y-115227714D01*
X193333714Y-115322952D01*
X193286095Y-115370571D01*
X193190857Y-115418190D01*
X192809904Y-115418190D01*
X194286095Y-114894380D02*
X193809904Y-114894380D01*
X193762285Y-115370571D01*
X193809904Y-115322952D01*
X193905142Y-115275333D01*
X194143238Y-115275333D01*
X194238476Y-115322952D01*
X194286095Y-115370571D01*
X194333714Y-115465809D01*
X194333714Y-115703904D01*
X194286095Y-115799142D01*
X194238476Y-115846761D01*
X194143238Y-115894380D01*
X193905142Y-115894380D01*
X193809904Y-115846761D01*
X193762285Y-115799142D01*
%TO.C,R3*%
X185253333Y-112594380D02*
X184920000Y-112118190D01*
X184681904Y-112594380D02*
X184681904Y-111594380D01*
X185062857Y-111594380D01*
X185158095Y-111642000D01*
X185205714Y-111689619D01*
X185253333Y-111784857D01*
X185253333Y-111927714D01*
X185205714Y-112022952D01*
X185158095Y-112070571D01*
X185062857Y-112118190D01*
X184681904Y-112118190D01*
X185586666Y-111594380D02*
X186205714Y-111594380D01*
X185872380Y-111975333D01*
X186015238Y-111975333D01*
X186110476Y-112022952D01*
X186158095Y-112070571D01*
X186205714Y-112165809D01*
X186205714Y-112403904D01*
X186158095Y-112499142D01*
X186110476Y-112546761D01*
X186015238Y-112594380D01*
X185729523Y-112594380D01*
X185634285Y-112546761D01*
X185586666Y-112499142D01*
%TO.C,D26*%
X183697714Y-118784380D02*
X183697714Y-117784380D01*
X183935809Y-117784380D01*
X184078666Y-117832000D01*
X184173904Y-117927238D01*
X184221523Y-118022476D01*
X184269142Y-118212952D01*
X184269142Y-118355809D01*
X184221523Y-118546285D01*
X184173904Y-118641523D01*
X184078666Y-118736761D01*
X183935809Y-118784380D01*
X183697714Y-118784380D01*
X184650095Y-117879619D02*
X184697714Y-117832000D01*
X184792952Y-117784380D01*
X185031047Y-117784380D01*
X185126285Y-117832000D01*
X185173904Y-117879619D01*
X185221523Y-117974857D01*
X185221523Y-118070095D01*
X185173904Y-118212952D01*
X184602476Y-118784380D01*
X185221523Y-118784380D01*
X186078666Y-117784380D02*
X185888190Y-117784380D01*
X185792952Y-117832000D01*
X185745333Y-117879619D01*
X185650095Y-118022476D01*
X185602476Y-118212952D01*
X185602476Y-118593904D01*
X185650095Y-118689142D01*
X185697714Y-118736761D01*
X185792952Y-118784380D01*
X185983428Y-118784380D01*
X186078666Y-118736761D01*
X186126285Y-118689142D01*
X186173904Y-118593904D01*
X186173904Y-118355809D01*
X186126285Y-118260571D01*
X186078666Y-118212952D01*
X185983428Y-118165333D01*
X185792952Y-118165333D01*
X185697714Y-118212952D01*
X185650095Y-118260571D01*
X185602476Y-118355809D01*
%TO.C,L8*%
X166203333Y-59372380D02*
X165727142Y-59372380D01*
X165727142Y-58372380D01*
X166679523Y-58800952D02*
X166584285Y-58753333D01*
X166536666Y-58705714D01*
X166489047Y-58610476D01*
X166489047Y-58562857D01*
X166536666Y-58467619D01*
X166584285Y-58420000D01*
X166679523Y-58372380D01*
X166870000Y-58372380D01*
X166965238Y-58420000D01*
X167012857Y-58467619D01*
X167060476Y-58562857D01*
X167060476Y-58610476D01*
X167012857Y-58705714D01*
X166965238Y-58753333D01*
X166870000Y-58800952D01*
X166679523Y-58800952D01*
X166584285Y-58848571D01*
X166536666Y-58896190D01*
X166489047Y-58991428D01*
X166489047Y-59181904D01*
X166536666Y-59277142D01*
X166584285Y-59324761D01*
X166679523Y-59372380D01*
X166870000Y-59372380D01*
X166965238Y-59324761D01*
X167012857Y-59277142D01*
X167060476Y-59181904D01*
X167060476Y-58991428D01*
X167012857Y-58896190D01*
X166965238Y-58848571D01*
X166870000Y-58800952D01*
%TO.C,REF\u002A\u002A*%
X102806666Y-56089380D02*
X102473333Y-55613190D01*
X102235238Y-56089380D02*
X102235238Y-55089380D01*
X102616190Y-55089380D01*
X102711428Y-55137000D01*
X102759047Y-55184619D01*
X102806666Y-55279857D01*
X102806666Y-55422714D01*
X102759047Y-55517952D01*
X102711428Y-55565571D01*
X102616190Y-55613190D01*
X102235238Y-55613190D01*
X103235238Y-55565571D02*
X103568571Y-55565571D01*
X103711428Y-56089380D02*
X103235238Y-56089380D01*
X103235238Y-55089380D01*
X103711428Y-55089380D01*
X104473333Y-55565571D02*
X104140000Y-55565571D01*
X104140000Y-56089380D02*
X104140000Y-55089380D01*
X104616190Y-55089380D01*
X105140000Y-55089380D02*
X105140000Y-55327476D01*
X104901904Y-55232238D02*
X105140000Y-55327476D01*
X105378095Y-55232238D01*
X104997142Y-55517952D02*
X105140000Y-55327476D01*
X105282857Y-55517952D01*
X105901904Y-55089380D02*
X105901904Y-55327476D01*
X105663809Y-55232238D02*
X105901904Y-55327476D01*
X106140000Y-55232238D01*
X105759047Y-55517952D02*
X105901904Y-55327476D01*
X106044761Y-55517952D01*
%TO.C,U1*%
X184150095Y-107140380D02*
X184150095Y-107949904D01*
X184197714Y-108045142D01*
X184245333Y-108092761D01*
X184340571Y-108140380D01*
X184531047Y-108140380D01*
X184626285Y-108092761D01*
X184673904Y-108045142D01*
X184721523Y-107949904D01*
X184721523Y-107140380D01*
X185721523Y-108140380D02*
X185150095Y-108140380D01*
X185435809Y-108140380D02*
X185435809Y-107140380D01*
X185340571Y-107283238D01*
X185245333Y-107378476D01*
X185150095Y-107426095D01*
%TO.C,REF\u002A\u002A*%
X79946666Y-48957380D02*
X79613333Y-48481190D01*
X79375238Y-48957380D02*
X79375238Y-47957380D01*
X79756190Y-47957380D01*
X79851428Y-48005000D01*
X79899047Y-48052619D01*
X79946666Y-48147857D01*
X79946666Y-48290714D01*
X79899047Y-48385952D01*
X79851428Y-48433571D01*
X79756190Y-48481190D01*
X79375238Y-48481190D01*
X80375238Y-48433571D02*
X80708571Y-48433571D01*
X80851428Y-48957380D02*
X80375238Y-48957380D01*
X80375238Y-47957380D01*
X80851428Y-47957380D01*
X81613333Y-48433571D02*
X81280000Y-48433571D01*
X81280000Y-48957380D02*
X81280000Y-47957380D01*
X81756190Y-47957380D01*
X82280000Y-47957380D02*
X82280000Y-48195476D01*
X82041904Y-48100238D02*
X82280000Y-48195476D01*
X82518095Y-48100238D01*
X82137142Y-48385952D02*
X82280000Y-48195476D01*
X82422857Y-48385952D01*
X83041904Y-47957380D02*
X83041904Y-48195476D01*
X82803809Y-48100238D02*
X83041904Y-48195476D01*
X83280000Y-48100238D01*
X82899047Y-48385952D02*
X83041904Y-48195476D01*
X83184761Y-48385952D01*
X79946666Y-127697380D02*
X79613333Y-127221190D01*
X79375238Y-127697380D02*
X79375238Y-126697380D01*
X79756190Y-126697380D01*
X79851428Y-126745000D01*
X79899047Y-126792619D01*
X79946666Y-126887857D01*
X79946666Y-127030714D01*
X79899047Y-127125952D01*
X79851428Y-127173571D01*
X79756190Y-127221190D01*
X79375238Y-127221190D01*
X80375238Y-127173571D02*
X80708571Y-127173571D01*
X80851428Y-127697380D02*
X80375238Y-127697380D01*
X80375238Y-126697380D01*
X80851428Y-126697380D01*
X81613333Y-127173571D02*
X81280000Y-127173571D01*
X81280000Y-127697380D02*
X81280000Y-126697380D01*
X81756190Y-126697380D01*
X82280000Y-126697380D02*
X82280000Y-126935476D01*
X82041904Y-126840238D02*
X82280000Y-126935476D01*
X82518095Y-126840238D01*
X82137142Y-127125952D02*
X82280000Y-126935476D01*
X82422857Y-127125952D01*
X83041904Y-126697380D02*
X83041904Y-126935476D01*
X82803809Y-126840238D02*
X83041904Y-126935476D01*
X83280000Y-126840238D01*
X82899047Y-127125952D02*
X83041904Y-126935476D01*
X83184761Y-127125952D01*
X212026666Y-127697380D02*
X211693333Y-127221190D01*
X211455238Y-127697380D02*
X211455238Y-126697380D01*
X211836190Y-126697380D01*
X211931428Y-126745000D01*
X211979047Y-126792619D01*
X212026666Y-126887857D01*
X212026666Y-127030714D01*
X211979047Y-127125952D01*
X211931428Y-127173571D01*
X211836190Y-127221190D01*
X211455238Y-127221190D01*
X212455238Y-127173571D02*
X212788571Y-127173571D01*
X212931428Y-127697380D02*
X212455238Y-127697380D01*
X212455238Y-126697380D01*
X212931428Y-126697380D01*
X213693333Y-127173571D02*
X213360000Y-127173571D01*
X213360000Y-127697380D02*
X213360000Y-126697380D01*
X213836190Y-126697380D01*
X214360000Y-126697380D02*
X214360000Y-126935476D01*
X214121904Y-126840238D02*
X214360000Y-126935476D01*
X214598095Y-126840238D01*
X214217142Y-127125952D02*
X214360000Y-126935476D01*
X214502857Y-127125952D01*
X215121904Y-126697380D02*
X215121904Y-126935476D01*
X214883809Y-126840238D02*
X215121904Y-126935476D01*
X215360000Y-126840238D01*
X214979047Y-127125952D02*
X215121904Y-126935476D01*
X215264761Y-127125952D01*
X212026666Y-48957380D02*
X211693333Y-48481190D01*
X211455238Y-48957380D02*
X211455238Y-47957380D01*
X211836190Y-47957380D01*
X211931428Y-48005000D01*
X211979047Y-48052619D01*
X212026666Y-48147857D01*
X212026666Y-48290714D01*
X211979047Y-48385952D01*
X211931428Y-48433571D01*
X211836190Y-48481190D01*
X211455238Y-48481190D01*
X212455238Y-48433571D02*
X212788571Y-48433571D01*
X212931428Y-48957380D02*
X212455238Y-48957380D01*
X212455238Y-47957380D01*
X212931428Y-47957380D01*
X213693333Y-48433571D02*
X213360000Y-48433571D01*
X213360000Y-48957380D02*
X213360000Y-47957380D01*
X213836190Y-47957380D01*
X214360000Y-47957380D02*
X214360000Y-48195476D01*
X214121904Y-48100238D02*
X214360000Y-48195476D01*
X214598095Y-48100238D01*
X214217142Y-48385952D02*
X214360000Y-48195476D01*
X214502857Y-48385952D01*
X215121904Y-47957380D02*
X215121904Y-48195476D01*
X214883809Y-48100238D02*
X215121904Y-48195476D01*
X215360000Y-48100238D01*
X214979047Y-48385952D02*
X215121904Y-48195476D01*
X215264761Y-48385952D01*
%TO.C,J2*%
X155241666Y-54002380D02*
X155241666Y-54716666D01*
X155194047Y-54859523D01*
X155098809Y-54954761D01*
X154955952Y-55002380D01*
X154860714Y-55002380D01*
X155670238Y-54097619D02*
X155717857Y-54050000D01*
X155813095Y-54002380D01*
X156051190Y-54002380D01*
X156146428Y-54050000D01*
X156194047Y-54097619D01*
X156241666Y-54192857D01*
X156241666Y-54288095D01*
X156194047Y-54430952D01*
X155622619Y-55002380D01*
X156241666Y-55002380D01*
%TO.C,U14*%
X161956904Y-60052380D02*
X161956904Y-60861904D01*
X162004523Y-60957142D01*
X162052142Y-61004761D01*
X162147380Y-61052380D01*
X162337857Y-61052380D01*
X162433095Y-61004761D01*
X162480714Y-60957142D01*
X162528333Y-60861904D01*
X162528333Y-60052380D01*
X163528333Y-61052380D02*
X162956904Y-61052380D01*
X163242619Y-61052380D02*
X163242619Y-60052380D01*
X163147380Y-60195238D01*
X163052142Y-60290476D01*
X162956904Y-60338095D01*
X164385476Y-60385714D02*
X164385476Y-61052380D01*
X164147380Y-60004761D02*
X163909285Y-60719047D01*
X164528333Y-60719047D01*
%TO.C,U12*%
X174766904Y-50742380D02*
X174766904Y-51551904D01*
X174814523Y-51647142D01*
X174862142Y-51694761D01*
X174957380Y-51742380D01*
X175147857Y-51742380D01*
X175243095Y-51694761D01*
X175290714Y-51647142D01*
X175338333Y-51551904D01*
X175338333Y-50742380D01*
X176338333Y-51742380D02*
X175766904Y-51742380D01*
X176052619Y-51742380D02*
X176052619Y-50742380D01*
X175957380Y-50885238D01*
X175862142Y-50980476D01*
X175766904Y-51028095D01*
X176719285Y-50837619D02*
X176766904Y-50790000D01*
X176862142Y-50742380D01*
X177100238Y-50742380D01*
X177195476Y-50790000D01*
X177243095Y-50837619D01*
X177290714Y-50932857D01*
X177290714Y-51028095D01*
X177243095Y-51170952D01*
X176671666Y-51742380D01*
X177290714Y-51742380D01*
%TO.C,U11*%
X159972380Y-100933095D02*
X160781904Y-100933095D01*
X160877142Y-100885476D01*
X160924761Y-100837857D01*
X160972380Y-100742619D01*
X160972380Y-100552142D01*
X160924761Y-100456904D01*
X160877142Y-100409285D01*
X160781904Y-100361666D01*
X159972380Y-100361666D01*
X160972380Y-99361666D02*
X160972380Y-99933095D01*
X160972380Y-99647380D02*
X159972380Y-99647380D01*
X160115238Y-99742619D01*
X160210476Y-99837857D01*
X160258095Y-99933095D01*
X160972380Y-98409285D02*
X160972380Y-98980714D01*
X160972380Y-98695000D02*
X159972380Y-98695000D01*
X160115238Y-98790238D01*
X160210476Y-98885476D01*
X160258095Y-98980714D01*
%TO.C,U10*%
X147986904Y-77197380D02*
X147986904Y-78006904D01*
X148034523Y-78102142D01*
X148082142Y-78149761D01*
X148177380Y-78197380D01*
X148367857Y-78197380D01*
X148463095Y-78149761D01*
X148510714Y-78102142D01*
X148558333Y-78006904D01*
X148558333Y-77197380D01*
X149558333Y-78197380D02*
X148986904Y-78197380D01*
X149272619Y-78197380D02*
X149272619Y-77197380D01*
X149177380Y-77340238D01*
X149082142Y-77435476D01*
X148986904Y-77483095D01*
X150177380Y-77197380D02*
X150272619Y-77197380D01*
X150367857Y-77245000D01*
X150415476Y-77292619D01*
X150463095Y-77387857D01*
X150510714Y-77578333D01*
X150510714Y-77816428D01*
X150463095Y-78006904D01*
X150415476Y-78102142D01*
X150367857Y-78149761D01*
X150272619Y-78197380D01*
X150177380Y-78197380D01*
X150082142Y-78149761D01*
X150034523Y-78102142D01*
X149986904Y-78006904D01*
X149939285Y-77816428D01*
X149939285Y-77578333D01*
X149986904Y-77387857D01*
X150034523Y-77292619D01*
X150082142Y-77245000D01*
X150177380Y-77197380D01*
%TO.C,U9*%
X105283095Y-69512380D02*
X105283095Y-70321904D01*
X105330714Y-70417142D01*
X105378333Y-70464761D01*
X105473571Y-70512380D01*
X105664047Y-70512380D01*
X105759285Y-70464761D01*
X105806904Y-70417142D01*
X105854523Y-70321904D01*
X105854523Y-69512380D01*
X106378333Y-70512380D02*
X106568809Y-70512380D01*
X106664047Y-70464761D01*
X106711666Y-70417142D01*
X106806904Y-70274285D01*
X106854523Y-70083809D01*
X106854523Y-69702857D01*
X106806904Y-69607619D01*
X106759285Y-69560000D01*
X106664047Y-69512380D01*
X106473571Y-69512380D01*
X106378333Y-69560000D01*
X106330714Y-69607619D01*
X106283095Y-69702857D01*
X106283095Y-69940952D01*
X106330714Y-70036190D01*
X106378333Y-70083809D01*
X106473571Y-70131428D01*
X106664047Y-70131428D01*
X106759285Y-70083809D01*
X106806904Y-70036190D01*
X106854523Y-69940952D01*
%TO.C,U8*%
X216122380Y-109346904D02*
X216931904Y-109346904D01*
X217027142Y-109299285D01*
X217074761Y-109251666D01*
X217122380Y-109156428D01*
X217122380Y-108965952D01*
X217074761Y-108870714D01*
X217027142Y-108823095D01*
X216931904Y-108775476D01*
X216122380Y-108775476D01*
X216550952Y-108156428D02*
X216503333Y-108251666D01*
X216455714Y-108299285D01*
X216360476Y-108346904D01*
X216312857Y-108346904D01*
X216217619Y-108299285D01*
X216170000Y-108251666D01*
X216122380Y-108156428D01*
X216122380Y-107965952D01*
X216170000Y-107870714D01*
X216217619Y-107823095D01*
X216312857Y-107775476D01*
X216360476Y-107775476D01*
X216455714Y-107823095D01*
X216503333Y-107870714D01*
X216550952Y-107965952D01*
X216550952Y-108156428D01*
X216598571Y-108251666D01*
X216646190Y-108299285D01*
X216741428Y-108346904D01*
X216931904Y-108346904D01*
X217027142Y-108299285D01*
X217074761Y-108251666D01*
X217122380Y-108156428D01*
X217122380Y-107965952D01*
X217074761Y-107870714D01*
X217027142Y-107823095D01*
X216931904Y-107775476D01*
X216741428Y-107775476D01*
X216646190Y-107823095D01*
X216598571Y-107870714D01*
X216550952Y-107965952D01*
%TO.C,U6*%
X177038095Y-100917380D02*
X177038095Y-101726904D01*
X177085714Y-101822142D01*
X177133333Y-101869761D01*
X177228571Y-101917380D01*
X177419047Y-101917380D01*
X177514285Y-101869761D01*
X177561904Y-101822142D01*
X177609523Y-101726904D01*
X177609523Y-100917380D01*
X178514285Y-100917380D02*
X178323809Y-100917380D01*
X178228571Y-100965000D01*
X178180952Y-101012619D01*
X178085714Y-101155476D01*
X178038095Y-101345952D01*
X178038095Y-101726904D01*
X178085714Y-101822142D01*
X178133333Y-101869761D01*
X178228571Y-101917380D01*
X178419047Y-101917380D01*
X178514285Y-101869761D01*
X178561904Y-101822142D01*
X178609523Y-101726904D01*
X178609523Y-101488809D01*
X178561904Y-101393571D01*
X178514285Y-101345952D01*
X178419047Y-101298333D01*
X178228571Y-101298333D01*
X178133333Y-101345952D01*
X178085714Y-101393571D01*
X178038095Y-101488809D01*
%TO.C,U5*%
X151638095Y-62417380D02*
X151638095Y-63226904D01*
X151685714Y-63322142D01*
X151733333Y-63369761D01*
X151828571Y-63417380D01*
X152019047Y-63417380D01*
X152114285Y-63369761D01*
X152161904Y-63322142D01*
X152209523Y-63226904D01*
X152209523Y-62417380D01*
X153161904Y-62417380D02*
X152685714Y-62417380D01*
X152638095Y-62893571D01*
X152685714Y-62845952D01*
X152780952Y-62798333D01*
X153019047Y-62798333D01*
X153114285Y-62845952D01*
X153161904Y-62893571D01*
X153209523Y-62988809D01*
X153209523Y-63226904D01*
X153161904Y-63322142D01*
X153114285Y-63369761D01*
X153019047Y-63417380D01*
X152780952Y-63417380D01*
X152685714Y-63369761D01*
X152638095Y-63322142D01*
%TO.C,U2*%
X127508095Y-66622380D02*
X127508095Y-67431904D01*
X127555714Y-67527142D01*
X127603333Y-67574761D01*
X127698571Y-67622380D01*
X127889047Y-67622380D01*
X127984285Y-67574761D01*
X128031904Y-67527142D01*
X128079523Y-67431904D01*
X128079523Y-66622380D01*
X128508095Y-66717619D02*
X128555714Y-66670000D01*
X128650952Y-66622380D01*
X128889047Y-66622380D01*
X128984285Y-66670000D01*
X129031904Y-66717619D01*
X129079523Y-66812857D01*
X129079523Y-66908095D01*
X129031904Y-67050952D01*
X128460476Y-67622380D01*
X129079523Y-67622380D01*
%TO.C,TP7*%
X115578095Y-55089380D02*
X116149523Y-55089380D01*
X115863809Y-56089380D02*
X115863809Y-55089380D01*
X116482857Y-56089380D02*
X116482857Y-55089380D01*
X116863809Y-55089380D01*
X116959047Y-55137000D01*
X117006666Y-55184619D01*
X117054285Y-55279857D01*
X117054285Y-55422714D01*
X117006666Y-55517952D01*
X116959047Y-55565571D01*
X116863809Y-55613190D01*
X116482857Y-55613190D01*
X117387619Y-55089380D02*
X118054285Y-55089380D01*
X117625714Y-56089380D01*
%TO.C,TP6*%
X120023095Y-55089380D02*
X120594523Y-55089380D01*
X120308809Y-56089380D02*
X120308809Y-55089380D01*
X120927857Y-56089380D02*
X120927857Y-55089380D01*
X121308809Y-55089380D01*
X121404047Y-55137000D01*
X121451666Y-55184619D01*
X121499285Y-55279857D01*
X121499285Y-55422714D01*
X121451666Y-55517952D01*
X121404047Y-55565571D01*
X121308809Y-55613190D01*
X120927857Y-55613190D01*
X122356428Y-55089380D02*
X122165952Y-55089380D01*
X122070714Y-55137000D01*
X122023095Y-55184619D01*
X121927857Y-55327476D01*
X121880238Y-55517952D01*
X121880238Y-55898904D01*
X121927857Y-55994142D01*
X121975476Y-56041761D01*
X122070714Y-56089380D01*
X122261190Y-56089380D01*
X122356428Y-56041761D01*
X122404047Y-55994142D01*
X122451666Y-55898904D01*
X122451666Y-55660809D01*
X122404047Y-55565571D01*
X122356428Y-55517952D01*
X122261190Y-55470333D01*
X122070714Y-55470333D01*
X121975476Y-55517952D01*
X121927857Y-55565571D01*
X121880238Y-55660809D01*
%TO.C,TP2*%
X124468095Y-55089380D02*
X125039523Y-55089380D01*
X124753809Y-56089380D02*
X124753809Y-55089380D01*
X125372857Y-56089380D02*
X125372857Y-55089380D01*
X125753809Y-55089380D01*
X125849047Y-55137000D01*
X125896666Y-55184619D01*
X125944285Y-55279857D01*
X125944285Y-55422714D01*
X125896666Y-55517952D01*
X125849047Y-55565571D01*
X125753809Y-55613190D01*
X125372857Y-55613190D01*
X126325238Y-55184619D02*
X126372857Y-55137000D01*
X126468095Y-55089380D01*
X126706190Y-55089380D01*
X126801428Y-55137000D01*
X126849047Y-55184619D01*
X126896666Y-55279857D01*
X126896666Y-55375095D01*
X126849047Y-55517952D01*
X126277619Y-56089380D01*
X126896666Y-56089380D01*
%TO.C,SW9*%
X192434761Y-58503333D02*
X192482380Y-58360476D01*
X192482380Y-58122380D01*
X192434761Y-58027142D01*
X192387142Y-57979523D01*
X192291904Y-57931904D01*
X192196666Y-57931904D01*
X192101428Y-57979523D01*
X192053809Y-58027142D01*
X192006190Y-58122380D01*
X191958571Y-58312857D01*
X191910952Y-58408095D01*
X191863333Y-58455714D01*
X191768095Y-58503333D01*
X191672857Y-58503333D01*
X191577619Y-58455714D01*
X191530000Y-58408095D01*
X191482380Y-58312857D01*
X191482380Y-58074761D01*
X191530000Y-57931904D01*
X191482380Y-57598571D02*
X192482380Y-57360476D01*
X191768095Y-57170000D01*
X192482380Y-56979523D01*
X191482380Y-56741428D01*
X192482380Y-56312857D02*
X192482380Y-56122380D01*
X192434761Y-56027142D01*
X192387142Y-55979523D01*
X192244285Y-55884285D01*
X192053809Y-55836666D01*
X191672857Y-55836666D01*
X191577619Y-55884285D01*
X191530000Y-55931904D01*
X191482380Y-56027142D01*
X191482380Y-56217619D01*
X191530000Y-56312857D01*
X191577619Y-56360476D01*
X191672857Y-56408095D01*
X191910952Y-56408095D01*
X192006190Y-56360476D01*
X192053809Y-56312857D01*
X192101428Y-56217619D01*
X192101428Y-56027142D01*
X192053809Y-55931904D01*
X192006190Y-55884285D01*
X191910952Y-55836666D01*
%TO.C,SW7*%
X163206666Y-114609761D02*
X163349523Y-114657380D01*
X163587619Y-114657380D01*
X163682857Y-114609761D01*
X163730476Y-114562142D01*
X163778095Y-114466904D01*
X163778095Y-114371666D01*
X163730476Y-114276428D01*
X163682857Y-114228809D01*
X163587619Y-114181190D01*
X163397142Y-114133571D01*
X163301904Y-114085952D01*
X163254285Y-114038333D01*
X163206666Y-113943095D01*
X163206666Y-113847857D01*
X163254285Y-113752619D01*
X163301904Y-113705000D01*
X163397142Y-113657380D01*
X163635238Y-113657380D01*
X163778095Y-113705000D01*
X164111428Y-113657380D02*
X164349523Y-114657380D01*
X164540000Y-113943095D01*
X164730476Y-114657380D01*
X164968571Y-113657380D01*
X165254285Y-113657380D02*
X165920952Y-113657380D01*
X165492380Y-114657380D01*
%TO.C,SW6*%
X120026666Y-114609761D02*
X120169523Y-114657380D01*
X120407619Y-114657380D01*
X120502857Y-114609761D01*
X120550476Y-114562142D01*
X120598095Y-114466904D01*
X120598095Y-114371666D01*
X120550476Y-114276428D01*
X120502857Y-114228809D01*
X120407619Y-114181190D01*
X120217142Y-114133571D01*
X120121904Y-114085952D01*
X120074285Y-114038333D01*
X120026666Y-113943095D01*
X120026666Y-113847857D01*
X120074285Y-113752619D01*
X120121904Y-113705000D01*
X120217142Y-113657380D01*
X120455238Y-113657380D01*
X120598095Y-113705000D01*
X120931428Y-113657380D02*
X121169523Y-114657380D01*
X121360000Y-113943095D01*
X121550476Y-114657380D01*
X121788571Y-113657380D01*
X122598095Y-113657380D02*
X122407619Y-113657380D01*
X122312380Y-113705000D01*
X122264761Y-113752619D01*
X122169523Y-113895476D01*
X122121904Y-114085952D01*
X122121904Y-114466904D01*
X122169523Y-114562142D01*
X122217142Y-114609761D01*
X122312380Y-114657380D01*
X122502857Y-114657380D01*
X122598095Y-114609761D01*
X122645714Y-114562142D01*
X122693333Y-114466904D01*
X122693333Y-114228809D01*
X122645714Y-114133571D01*
X122598095Y-114085952D01*
X122502857Y-114038333D01*
X122312380Y-114038333D01*
X122217142Y-114085952D01*
X122169523Y-114133571D01*
X122121904Y-114228809D01*
%TO.C,SW5*%
X130821666Y-114609761D02*
X130964523Y-114657380D01*
X131202619Y-114657380D01*
X131297857Y-114609761D01*
X131345476Y-114562142D01*
X131393095Y-114466904D01*
X131393095Y-114371666D01*
X131345476Y-114276428D01*
X131297857Y-114228809D01*
X131202619Y-114181190D01*
X131012142Y-114133571D01*
X130916904Y-114085952D01*
X130869285Y-114038333D01*
X130821666Y-113943095D01*
X130821666Y-113847857D01*
X130869285Y-113752619D01*
X130916904Y-113705000D01*
X131012142Y-113657380D01*
X131250238Y-113657380D01*
X131393095Y-113705000D01*
X131726428Y-113657380D02*
X131964523Y-114657380D01*
X132155000Y-113943095D01*
X132345476Y-114657380D01*
X132583571Y-113657380D01*
X133440714Y-113657380D02*
X132964523Y-113657380D01*
X132916904Y-114133571D01*
X132964523Y-114085952D01*
X133059761Y-114038333D01*
X133297857Y-114038333D01*
X133393095Y-114085952D01*
X133440714Y-114133571D01*
X133488333Y-114228809D01*
X133488333Y-114466904D01*
X133440714Y-114562142D01*
X133393095Y-114609761D01*
X133297857Y-114657380D01*
X133059761Y-114657380D01*
X132964523Y-114609761D01*
X132916904Y-114562142D01*
%TO.C,SW4*%
X141616666Y-114609761D02*
X141759523Y-114657380D01*
X141997619Y-114657380D01*
X142092857Y-114609761D01*
X142140476Y-114562142D01*
X142188095Y-114466904D01*
X142188095Y-114371666D01*
X142140476Y-114276428D01*
X142092857Y-114228809D01*
X141997619Y-114181190D01*
X141807142Y-114133571D01*
X141711904Y-114085952D01*
X141664285Y-114038333D01*
X141616666Y-113943095D01*
X141616666Y-113847857D01*
X141664285Y-113752619D01*
X141711904Y-113705000D01*
X141807142Y-113657380D01*
X142045238Y-113657380D01*
X142188095Y-113705000D01*
X142521428Y-113657380D02*
X142759523Y-114657380D01*
X142950000Y-113943095D01*
X143140476Y-114657380D01*
X143378571Y-113657380D01*
X144188095Y-113990714D02*
X144188095Y-114657380D01*
X143950000Y-113609761D02*
X143711904Y-114324047D01*
X144330952Y-114324047D01*
%TO.C,SW3*%
X152411666Y-114609761D02*
X152554523Y-114657380D01*
X152792619Y-114657380D01*
X152887857Y-114609761D01*
X152935476Y-114562142D01*
X152983095Y-114466904D01*
X152983095Y-114371666D01*
X152935476Y-114276428D01*
X152887857Y-114228809D01*
X152792619Y-114181190D01*
X152602142Y-114133571D01*
X152506904Y-114085952D01*
X152459285Y-114038333D01*
X152411666Y-113943095D01*
X152411666Y-113847857D01*
X152459285Y-113752619D01*
X152506904Y-113705000D01*
X152602142Y-113657380D01*
X152840238Y-113657380D01*
X152983095Y-113705000D01*
X153316428Y-113657380D02*
X153554523Y-114657380D01*
X153745000Y-113943095D01*
X153935476Y-114657380D01*
X154173571Y-113657380D01*
X154459285Y-113657380D02*
X155078333Y-113657380D01*
X154745000Y-114038333D01*
X154887857Y-114038333D01*
X154983095Y-114085952D01*
X155030714Y-114133571D01*
X155078333Y-114228809D01*
X155078333Y-114466904D01*
X155030714Y-114562142D01*
X154983095Y-114609761D01*
X154887857Y-114657380D01*
X154602142Y-114657380D01*
X154506904Y-114609761D01*
X154459285Y-114562142D01*
%TO.C,SW1*%
X102246666Y-114609761D02*
X102389523Y-114657380D01*
X102627619Y-114657380D01*
X102722857Y-114609761D01*
X102770476Y-114562142D01*
X102818095Y-114466904D01*
X102818095Y-114371666D01*
X102770476Y-114276428D01*
X102722857Y-114228809D01*
X102627619Y-114181190D01*
X102437142Y-114133571D01*
X102341904Y-114085952D01*
X102294285Y-114038333D01*
X102246666Y-113943095D01*
X102246666Y-113847857D01*
X102294285Y-113752619D01*
X102341904Y-113705000D01*
X102437142Y-113657380D01*
X102675238Y-113657380D01*
X102818095Y-113705000D01*
X103151428Y-113657380D02*
X103389523Y-114657380D01*
X103580000Y-113943095D01*
X103770476Y-114657380D01*
X104008571Y-113657380D01*
X104913333Y-114657380D02*
X104341904Y-114657380D01*
X104627619Y-114657380D02*
X104627619Y-113657380D01*
X104532380Y-113800238D01*
X104437142Y-113895476D01*
X104341904Y-113943095D01*
%TO.C,R37*%
X166362142Y-72587380D02*
X166028809Y-72111190D01*
X165790714Y-72587380D02*
X165790714Y-71587380D01*
X166171666Y-71587380D01*
X166266904Y-71635000D01*
X166314523Y-71682619D01*
X166362142Y-71777857D01*
X166362142Y-71920714D01*
X166314523Y-72015952D01*
X166266904Y-72063571D01*
X166171666Y-72111190D01*
X165790714Y-72111190D01*
X166695476Y-71587380D02*
X167314523Y-71587380D01*
X166981190Y-71968333D01*
X167124047Y-71968333D01*
X167219285Y-72015952D01*
X167266904Y-72063571D01*
X167314523Y-72158809D01*
X167314523Y-72396904D01*
X167266904Y-72492142D01*
X167219285Y-72539761D01*
X167124047Y-72587380D01*
X166838333Y-72587380D01*
X166743095Y-72539761D01*
X166695476Y-72492142D01*
X167647857Y-71587380D02*
X168314523Y-71587380D01*
X167885952Y-72587380D01*
%TO.C,R36*%
X170807142Y-72587380D02*
X170473809Y-72111190D01*
X170235714Y-72587380D02*
X170235714Y-71587380D01*
X170616666Y-71587380D01*
X170711904Y-71635000D01*
X170759523Y-71682619D01*
X170807142Y-71777857D01*
X170807142Y-71920714D01*
X170759523Y-72015952D01*
X170711904Y-72063571D01*
X170616666Y-72111190D01*
X170235714Y-72111190D01*
X171140476Y-71587380D02*
X171759523Y-71587380D01*
X171426190Y-71968333D01*
X171569047Y-71968333D01*
X171664285Y-72015952D01*
X171711904Y-72063571D01*
X171759523Y-72158809D01*
X171759523Y-72396904D01*
X171711904Y-72492142D01*
X171664285Y-72539761D01*
X171569047Y-72587380D01*
X171283333Y-72587380D01*
X171188095Y-72539761D01*
X171140476Y-72492142D01*
X172616666Y-71587380D02*
X172426190Y-71587380D01*
X172330952Y-71635000D01*
X172283333Y-71682619D01*
X172188095Y-71825476D01*
X172140476Y-72015952D01*
X172140476Y-72396904D01*
X172188095Y-72492142D01*
X172235714Y-72539761D01*
X172330952Y-72587380D01*
X172521428Y-72587380D01*
X172616666Y-72539761D01*
X172664285Y-72492142D01*
X172711904Y-72396904D01*
X172711904Y-72158809D01*
X172664285Y-72063571D01*
X172616666Y-72015952D01*
X172521428Y-71968333D01*
X172330952Y-71968333D01*
X172235714Y-72015952D01*
X172188095Y-72063571D01*
X172140476Y-72158809D01*
%TO.C,R32*%
X162552142Y-65477380D02*
X162218809Y-65001190D01*
X161980714Y-65477380D02*
X161980714Y-64477380D01*
X162361666Y-64477380D01*
X162456904Y-64525000D01*
X162504523Y-64572619D01*
X162552142Y-64667857D01*
X162552142Y-64810714D01*
X162504523Y-64905952D01*
X162456904Y-64953571D01*
X162361666Y-65001190D01*
X161980714Y-65001190D01*
X162885476Y-64477380D02*
X163504523Y-64477380D01*
X163171190Y-64858333D01*
X163314047Y-64858333D01*
X163409285Y-64905952D01*
X163456904Y-64953571D01*
X163504523Y-65048809D01*
X163504523Y-65286904D01*
X163456904Y-65382142D01*
X163409285Y-65429761D01*
X163314047Y-65477380D01*
X163028333Y-65477380D01*
X162933095Y-65429761D01*
X162885476Y-65382142D01*
X163885476Y-64572619D02*
X163933095Y-64525000D01*
X164028333Y-64477380D01*
X164266428Y-64477380D01*
X164361666Y-64525000D01*
X164409285Y-64572619D01*
X164456904Y-64667857D01*
X164456904Y-64763095D01*
X164409285Y-64905952D01*
X163837857Y-65477380D01*
X164456904Y-65477380D01*
%TO.C,R31*%
X118942380Y-74937857D02*
X118466190Y-75271190D01*
X118942380Y-75509285D02*
X117942380Y-75509285D01*
X117942380Y-75128333D01*
X117990000Y-75033095D01*
X118037619Y-74985476D01*
X118132857Y-74937857D01*
X118275714Y-74937857D01*
X118370952Y-74985476D01*
X118418571Y-75033095D01*
X118466190Y-75128333D01*
X118466190Y-75509285D01*
X117942380Y-74604523D02*
X117942380Y-73985476D01*
X118323333Y-74318809D01*
X118323333Y-74175952D01*
X118370952Y-74080714D01*
X118418571Y-74033095D01*
X118513809Y-73985476D01*
X118751904Y-73985476D01*
X118847142Y-74033095D01*
X118894761Y-74080714D01*
X118942380Y-74175952D01*
X118942380Y-74461666D01*
X118894761Y-74556904D01*
X118847142Y-74604523D01*
X118942380Y-73033095D02*
X118942380Y-73604523D01*
X118942380Y-73318809D02*
X117942380Y-73318809D01*
X118085238Y-73414047D01*
X118180476Y-73509285D01*
X118228095Y-73604523D01*
%TO.C,R30*%
X121482380Y-70492857D02*
X121006190Y-70826190D01*
X121482380Y-71064285D02*
X120482380Y-71064285D01*
X120482380Y-70683333D01*
X120530000Y-70588095D01*
X120577619Y-70540476D01*
X120672857Y-70492857D01*
X120815714Y-70492857D01*
X120910952Y-70540476D01*
X120958571Y-70588095D01*
X121006190Y-70683333D01*
X121006190Y-71064285D01*
X120482380Y-70159523D02*
X120482380Y-69540476D01*
X120863333Y-69873809D01*
X120863333Y-69730952D01*
X120910952Y-69635714D01*
X120958571Y-69588095D01*
X121053809Y-69540476D01*
X121291904Y-69540476D01*
X121387142Y-69588095D01*
X121434761Y-69635714D01*
X121482380Y-69730952D01*
X121482380Y-70016666D01*
X121434761Y-70111904D01*
X121387142Y-70159523D01*
X120482380Y-68921428D02*
X120482380Y-68826190D01*
X120530000Y-68730952D01*
X120577619Y-68683333D01*
X120672857Y-68635714D01*
X120863333Y-68588095D01*
X121101428Y-68588095D01*
X121291904Y-68635714D01*
X121387142Y-68683333D01*
X121434761Y-68730952D01*
X121482380Y-68826190D01*
X121482380Y-68921428D01*
X121434761Y-69016666D01*
X121387142Y-69064285D01*
X121291904Y-69111904D01*
X121101428Y-69159523D01*
X120863333Y-69159523D01*
X120672857Y-69111904D01*
X120577619Y-69064285D01*
X120530000Y-69016666D01*
X120482380Y-68921428D01*
%TO.C,R29*%
X183077380Y-95892857D02*
X182601190Y-96226190D01*
X183077380Y-96464285D02*
X182077380Y-96464285D01*
X182077380Y-96083333D01*
X182125000Y-95988095D01*
X182172619Y-95940476D01*
X182267857Y-95892857D01*
X182410714Y-95892857D01*
X182505952Y-95940476D01*
X182553571Y-95988095D01*
X182601190Y-96083333D01*
X182601190Y-96464285D01*
X182172619Y-95511904D02*
X182125000Y-95464285D01*
X182077380Y-95369047D01*
X182077380Y-95130952D01*
X182125000Y-95035714D01*
X182172619Y-94988095D01*
X182267857Y-94940476D01*
X182363095Y-94940476D01*
X182505952Y-94988095D01*
X183077380Y-95559523D01*
X183077380Y-94940476D01*
X183077380Y-94464285D02*
X183077380Y-94273809D01*
X183029761Y-94178571D01*
X182982142Y-94130952D01*
X182839285Y-94035714D01*
X182648809Y-93988095D01*
X182267857Y-93988095D01*
X182172619Y-94035714D01*
X182125000Y-94083333D01*
X182077380Y-94178571D01*
X182077380Y-94369047D01*
X182125000Y-94464285D01*
X182172619Y-94511904D01*
X182267857Y-94559523D01*
X182505952Y-94559523D01*
X182601190Y-94511904D01*
X182648809Y-94464285D01*
X182696428Y-94369047D01*
X182696428Y-94178571D01*
X182648809Y-94083333D01*
X182601190Y-94035714D01*
X182505952Y-93988095D01*
%TO.C,R28*%
X161282142Y-101162380D02*
X160948809Y-100686190D01*
X160710714Y-101162380D02*
X160710714Y-100162380D01*
X161091666Y-100162380D01*
X161186904Y-100210000D01*
X161234523Y-100257619D01*
X161282142Y-100352857D01*
X161282142Y-100495714D01*
X161234523Y-100590952D01*
X161186904Y-100638571D01*
X161091666Y-100686190D01*
X160710714Y-100686190D01*
X161663095Y-100257619D02*
X161710714Y-100210000D01*
X161805952Y-100162380D01*
X162044047Y-100162380D01*
X162139285Y-100210000D01*
X162186904Y-100257619D01*
X162234523Y-100352857D01*
X162234523Y-100448095D01*
X162186904Y-100590952D01*
X161615476Y-101162380D01*
X162234523Y-101162380D01*
X162805952Y-100590952D02*
X162710714Y-100543333D01*
X162663095Y-100495714D01*
X162615476Y-100400476D01*
X162615476Y-100352857D01*
X162663095Y-100257619D01*
X162710714Y-100210000D01*
X162805952Y-100162380D01*
X162996428Y-100162380D01*
X163091666Y-100210000D01*
X163139285Y-100257619D01*
X163186904Y-100352857D01*
X163186904Y-100400476D01*
X163139285Y-100495714D01*
X163091666Y-100543333D01*
X162996428Y-100590952D01*
X162805952Y-100590952D01*
X162710714Y-100638571D01*
X162663095Y-100686190D01*
X162615476Y-100781428D01*
X162615476Y-100971904D01*
X162663095Y-101067142D01*
X162710714Y-101114761D01*
X162805952Y-101162380D01*
X162996428Y-101162380D01*
X163091666Y-101114761D01*
X163139285Y-101067142D01*
X163186904Y-100971904D01*
X163186904Y-100781428D01*
X163139285Y-100686190D01*
X163091666Y-100638571D01*
X162996428Y-100590952D01*
%TO.C,R27*%
X175457380Y-102877857D02*
X174981190Y-103211190D01*
X175457380Y-103449285D02*
X174457380Y-103449285D01*
X174457380Y-103068333D01*
X174505000Y-102973095D01*
X174552619Y-102925476D01*
X174647857Y-102877857D01*
X174790714Y-102877857D01*
X174885952Y-102925476D01*
X174933571Y-102973095D01*
X174981190Y-103068333D01*
X174981190Y-103449285D01*
X174552619Y-102496904D02*
X174505000Y-102449285D01*
X174457380Y-102354047D01*
X174457380Y-102115952D01*
X174505000Y-102020714D01*
X174552619Y-101973095D01*
X174647857Y-101925476D01*
X174743095Y-101925476D01*
X174885952Y-101973095D01*
X175457380Y-102544523D01*
X175457380Y-101925476D01*
X174457380Y-101592142D02*
X174457380Y-100925476D01*
X175457380Y-101354047D01*
%TO.C,R26*%
X170377380Y-102877857D02*
X169901190Y-103211190D01*
X170377380Y-103449285D02*
X169377380Y-103449285D01*
X169377380Y-103068333D01*
X169425000Y-102973095D01*
X169472619Y-102925476D01*
X169567857Y-102877857D01*
X169710714Y-102877857D01*
X169805952Y-102925476D01*
X169853571Y-102973095D01*
X169901190Y-103068333D01*
X169901190Y-103449285D01*
X169472619Y-102496904D02*
X169425000Y-102449285D01*
X169377380Y-102354047D01*
X169377380Y-102115952D01*
X169425000Y-102020714D01*
X169472619Y-101973095D01*
X169567857Y-101925476D01*
X169663095Y-101925476D01*
X169805952Y-101973095D01*
X170377380Y-102544523D01*
X170377380Y-101925476D01*
X169377380Y-101068333D02*
X169377380Y-101258809D01*
X169425000Y-101354047D01*
X169472619Y-101401666D01*
X169615476Y-101496904D01*
X169805952Y-101544523D01*
X170186904Y-101544523D01*
X170282142Y-101496904D01*
X170329761Y-101449285D01*
X170377380Y-101354047D01*
X170377380Y-101163571D01*
X170329761Y-101068333D01*
X170282142Y-101020714D01*
X170186904Y-100973095D01*
X169948809Y-100973095D01*
X169853571Y-101020714D01*
X169805952Y-101068333D01*
X169758333Y-101163571D01*
X169758333Y-101354047D01*
X169805952Y-101449285D01*
X169853571Y-101496904D01*
X169948809Y-101544523D01*
%TO.C,R25*%
X169617380Y-102877857D02*
X169141190Y-103211190D01*
X169617380Y-103449285D02*
X168617380Y-103449285D01*
X168617380Y-103068333D01*
X168665000Y-102973095D01*
X168712619Y-102925476D01*
X168807857Y-102877857D01*
X168950714Y-102877857D01*
X169045952Y-102925476D01*
X169093571Y-102973095D01*
X169141190Y-103068333D01*
X169141190Y-103449285D01*
X168712619Y-102496904D02*
X168665000Y-102449285D01*
X168617380Y-102354047D01*
X168617380Y-102115952D01*
X168665000Y-102020714D01*
X168712619Y-101973095D01*
X168807857Y-101925476D01*
X168903095Y-101925476D01*
X169045952Y-101973095D01*
X169617380Y-102544523D01*
X169617380Y-101925476D01*
X168617380Y-101020714D02*
X168617380Y-101496904D01*
X169093571Y-101544523D01*
X169045952Y-101496904D01*
X168998333Y-101401666D01*
X168998333Y-101163571D01*
X169045952Y-101068333D01*
X169093571Y-101020714D01*
X169188809Y-100973095D01*
X169426904Y-100973095D01*
X169522142Y-101020714D01*
X169569761Y-101068333D01*
X169617380Y-101163571D01*
X169617380Y-101401666D01*
X169569761Y-101496904D01*
X169522142Y-101544523D01*
%TO.C,R24*%
X172917380Y-107322857D02*
X172441190Y-107656190D01*
X172917380Y-107894285D02*
X171917380Y-107894285D01*
X171917380Y-107513333D01*
X171965000Y-107418095D01*
X172012619Y-107370476D01*
X172107857Y-107322857D01*
X172250714Y-107322857D01*
X172345952Y-107370476D01*
X172393571Y-107418095D01*
X172441190Y-107513333D01*
X172441190Y-107894285D01*
X172012619Y-106941904D02*
X171965000Y-106894285D01*
X171917380Y-106799047D01*
X171917380Y-106560952D01*
X171965000Y-106465714D01*
X172012619Y-106418095D01*
X172107857Y-106370476D01*
X172203095Y-106370476D01*
X172345952Y-106418095D01*
X172917380Y-106989523D01*
X172917380Y-106370476D01*
X172250714Y-105513333D02*
X172917380Y-105513333D01*
X171869761Y-105751428D02*
X172584047Y-105989523D01*
X172584047Y-105370476D01*
%TO.C,R23*%
X170377380Y-107322857D02*
X169901190Y-107656190D01*
X170377380Y-107894285D02*
X169377380Y-107894285D01*
X169377380Y-107513333D01*
X169425000Y-107418095D01*
X169472619Y-107370476D01*
X169567857Y-107322857D01*
X169710714Y-107322857D01*
X169805952Y-107370476D01*
X169853571Y-107418095D01*
X169901190Y-107513333D01*
X169901190Y-107894285D01*
X169472619Y-106941904D02*
X169425000Y-106894285D01*
X169377380Y-106799047D01*
X169377380Y-106560952D01*
X169425000Y-106465714D01*
X169472619Y-106418095D01*
X169567857Y-106370476D01*
X169663095Y-106370476D01*
X169805952Y-106418095D01*
X170377380Y-106989523D01*
X170377380Y-106370476D01*
X169377380Y-106037142D02*
X169377380Y-105418095D01*
X169758333Y-105751428D01*
X169758333Y-105608571D01*
X169805952Y-105513333D01*
X169853571Y-105465714D01*
X169948809Y-105418095D01*
X170186904Y-105418095D01*
X170282142Y-105465714D01*
X170329761Y-105513333D01*
X170377380Y-105608571D01*
X170377380Y-105894285D01*
X170329761Y-105989523D01*
X170282142Y-106037142D01*
%TO.C,R22*%
X163822142Y-108657380D02*
X163488809Y-108181190D01*
X163250714Y-108657380D02*
X163250714Y-107657380D01*
X163631666Y-107657380D01*
X163726904Y-107705000D01*
X163774523Y-107752619D01*
X163822142Y-107847857D01*
X163822142Y-107990714D01*
X163774523Y-108085952D01*
X163726904Y-108133571D01*
X163631666Y-108181190D01*
X163250714Y-108181190D01*
X164203095Y-107752619D02*
X164250714Y-107705000D01*
X164345952Y-107657380D01*
X164584047Y-107657380D01*
X164679285Y-107705000D01*
X164726904Y-107752619D01*
X164774523Y-107847857D01*
X164774523Y-107943095D01*
X164726904Y-108085952D01*
X164155476Y-108657380D01*
X164774523Y-108657380D01*
X165155476Y-107752619D02*
X165203095Y-107705000D01*
X165298333Y-107657380D01*
X165536428Y-107657380D01*
X165631666Y-107705000D01*
X165679285Y-107752619D01*
X165726904Y-107847857D01*
X165726904Y-107943095D01*
X165679285Y-108085952D01*
X165107857Y-108657380D01*
X165726904Y-108657380D01*
%TO.C,R20*%
X120642142Y-108657380D02*
X120308809Y-108181190D01*
X120070714Y-108657380D02*
X120070714Y-107657380D01*
X120451666Y-107657380D01*
X120546904Y-107705000D01*
X120594523Y-107752619D01*
X120642142Y-107847857D01*
X120642142Y-107990714D01*
X120594523Y-108085952D01*
X120546904Y-108133571D01*
X120451666Y-108181190D01*
X120070714Y-108181190D01*
X121023095Y-107752619D02*
X121070714Y-107705000D01*
X121165952Y-107657380D01*
X121404047Y-107657380D01*
X121499285Y-107705000D01*
X121546904Y-107752619D01*
X121594523Y-107847857D01*
X121594523Y-107943095D01*
X121546904Y-108085952D01*
X120975476Y-108657380D01*
X121594523Y-108657380D01*
X122213571Y-107657380D02*
X122308809Y-107657380D01*
X122404047Y-107705000D01*
X122451666Y-107752619D01*
X122499285Y-107847857D01*
X122546904Y-108038333D01*
X122546904Y-108276428D01*
X122499285Y-108466904D01*
X122451666Y-108562142D01*
X122404047Y-108609761D01*
X122308809Y-108657380D01*
X122213571Y-108657380D01*
X122118333Y-108609761D01*
X122070714Y-108562142D01*
X122023095Y-108466904D01*
X121975476Y-108276428D01*
X121975476Y-108038333D01*
X122023095Y-107847857D01*
X122070714Y-107752619D01*
X122118333Y-107705000D01*
X122213571Y-107657380D01*
%TO.C,R16*%
X131437142Y-108657380D02*
X131103809Y-108181190D01*
X130865714Y-108657380D02*
X130865714Y-107657380D01*
X131246666Y-107657380D01*
X131341904Y-107705000D01*
X131389523Y-107752619D01*
X131437142Y-107847857D01*
X131437142Y-107990714D01*
X131389523Y-108085952D01*
X131341904Y-108133571D01*
X131246666Y-108181190D01*
X130865714Y-108181190D01*
X132389523Y-108657380D02*
X131818095Y-108657380D01*
X132103809Y-108657380D02*
X132103809Y-107657380D01*
X132008571Y-107800238D01*
X131913333Y-107895476D01*
X131818095Y-107943095D01*
X133246666Y-107657380D02*
X133056190Y-107657380D01*
X132960952Y-107705000D01*
X132913333Y-107752619D01*
X132818095Y-107895476D01*
X132770476Y-108085952D01*
X132770476Y-108466904D01*
X132818095Y-108562142D01*
X132865714Y-108609761D01*
X132960952Y-108657380D01*
X133151428Y-108657380D01*
X133246666Y-108609761D01*
X133294285Y-108562142D01*
X133341904Y-108466904D01*
X133341904Y-108228809D01*
X133294285Y-108133571D01*
X133246666Y-108085952D01*
X133151428Y-108038333D01*
X132960952Y-108038333D01*
X132865714Y-108085952D01*
X132818095Y-108133571D01*
X132770476Y-108228809D01*
%TO.C,R14*%
X180967142Y-54807380D02*
X180633809Y-54331190D01*
X180395714Y-54807380D02*
X180395714Y-53807380D01*
X180776666Y-53807380D01*
X180871904Y-53855000D01*
X180919523Y-53902619D01*
X180967142Y-53997857D01*
X180967142Y-54140714D01*
X180919523Y-54235952D01*
X180871904Y-54283571D01*
X180776666Y-54331190D01*
X180395714Y-54331190D01*
X181919523Y-54807380D02*
X181348095Y-54807380D01*
X181633809Y-54807380D02*
X181633809Y-53807380D01*
X181538571Y-53950238D01*
X181443333Y-54045476D01*
X181348095Y-54093095D01*
X182776666Y-54140714D02*
X182776666Y-54807380D01*
X182538571Y-53759761D02*
X182300476Y-54474047D01*
X182919523Y-54474047D01*
%TO.C,R13*%
X142232142Y-108657380D02*
X141898809Y-108181190D01*
X141660714Y-108657380D02*
X141660714Y-107657380D01*
X142041666Y-107657380D01*
X142136904Y-107705000D01*
X142184523Y-107752619D01*
X142232142Y-107847857D01*
X142232142Y-107990714D01*
X142184523Y-108085952D01*
X142136904Y-108133571D01*
X142041666Y-108181190D01*
X141660714Y-108181190D01*
X143184523Y-108657380D02*
X142613095Y-108657380D01*
X142898809Y-108657380D02*
X142898809Y-107657380D01*
X142803571Y-107800238D01*
X142708333Y-107895476D01*
X142613095Y-107943095D01*
X143517857Y-107657380D02*
X144136904Y-107657380D01*
X143803571Y-108038333D01*
X143946428Y-108038333D01*
X144041666Y-108085952D01*
X144089285Y-108133571D01*
X144136904Y-108228809D01*
X144136904Y-108466904D01*
X144089285Y-108562142D01*
X144041666Y-108609761D01*
X143946428Y-108657380D01*
X143660714Y-108657380D01*
X143565476Y-108609761D01*
X143517857Y-108562142D01*
%TO.C,R11*%
X153027142Y-108657380D02*
X152693809Y-108181190D01*
X152455714Y-108657380D02*
X152455714Y-107657380D01*
X152836666Y-107657380D01*
X152931904Y-107705000D01*
X152979523Y-107752619D01*
X153027142Y-107847857D01*
X153027142Y-107990714D01*
X152979523Y-108085952D01*
X152931904Y-108133571D01*
X152836666Y-108181190D01*
X152455714Y-108181190D01*
X153979523Y-108657380D02*
X153408095Y-108657380D01*
X153693809Y-108657380D02*
X153693809Y-107657380D01*
X153598571Y-107800238D01*
X153503333Y-107895476D01*
X153408095Y-107943095D01*
X154931904Y-108657380D02*
X154360476Y-108657380D01*
X154646190Y-108657380D02*
X154646190Y-107657380D01*
X154550952Y-107800238D01*
X154455714Y-107895476D01*
X154360476Y-107943095D01*
%TO.C,R7*%
X113227380Y-85891666D02*
X112751190Y-86225000D01*
X113227380Y-86463095D02*
X112227380Y-86463095D01*
X112227380Y-86082142D01*
X112275000Y-85986904D01*
X112322619Y-85939285D01*
X112417857Y-85891666D01*
X112560714Y-85891666D01*
X112655952Y-85939285D01*
X112703571Y-85986904D01*
X112751190Y-86082142D01*
X112751190Y-86463095D01*
X112227380Y-85558333D02*
X112227380Y-84891666D01*
X113227380Y-85320238D01*
%TO.C,R6*%
X113227380Y-76366666D02*
X112751190Y-76700000D01*
X113227380Y-76938095D02*
X112227380Y-76938095D01*
X112227380Y-76557142D01*
X112275000Y-76461904D01*
X112322619Y-76414285D01*
X112417857Y-76366666D01*
X112560714Y-76366666D01*
X112655952Y-76414285D01*
X112703571Y-76461904D01*
X112751190Y-76557142D01*
X112751190Y-76938095D01*
X112227380Y-75509523D02*
X112227380Y-75700000D01*
X112275000Y-75795238D01*
X112322619Y-75842857D01*
X112465476Y-75938095D01*
X112655952Y-75985714D01*
X113036904Y-75985714D01*
X113132142Y-75938095D01*
X113179761Y-75890476D01*
X113227380Y-75795238D01*
X113227380Y-75604761D01*
X113179761Y-75509523D01*
X113132142Y-75461904D01*
X113036904Y-75414285D01*
X112798809Y-75414285D01*
X112703571Y-75461904D01*
X112655952Y-75509523D01*
X112608333Y-75604761D01*
X112608333Y-75795238D01*
X112655952Y-75890476D01*
X112703571Y-75938095D01*
X112798809Y-75985714D01*
%TO.C,R4*%
X113227380Y-99861666D02*
X112751190Y-100195000D01*
X113227380Y-100433095D02*
X112227380Y-100433095D01*
X112227380Y-100052142D01*
X112275000Y-99956904D01*
X112322619Y-99909285D01*
X112417857Y-99861666D01*
X112560714Y-99861666D01*
X112655952Y-99909285D01*
X112703571Y-99956904D01*
X112751190Y-100052142D01*
X112751190Y-100433095D01*
X112560714Y-99004523D02*
X113227380Y-99004523D01*
X112179761Y-99242619D02*
X112894047Y-99480714D01*
X112894047Y-98861666D01*
%TO.C,R2*%
X113227380Y-104306666D02*
X112751190Y-104640000D01*
X113227380Y-104878095D02*
X112227380Y-104878095D01*
X112227380Y-104497142D01*
X112275000Y-104401904D01*
X112322619Y-104354285D01*
X112417857Y-104306666D01*
X112560714Y-104306666D01*
X112655952Y-104354285D01*
X112703571Y-104401904D01*
X112751190Y-104497142D01*
X112751190Y-104878095D01*
X112322619Y-103925714D02*
X112275000Y-103878095D01*
X112227380Y-103782857D01*
X112227380Y-103544761D01*
X112275000Y-103449523D01*
X112322619Y-103401904D01*
X112417857Y-103354285D01*
X112513095Y-103354285D01*
X112655952Y-103401904D01*
X113227380Y-103973333D01*
X113227380Y-103354285D01*
%TO.C,R1*%
X186888333Y-54807380D02*
X186555000Y-54331190D01*
X186316904Y-54807380D02*
X186316904Y-53807380D01*
X186697857Y-53807380D01*
X186793095Y-53855000D01*
X186840714Y-53902619D01*
X186888333Y-53997857D01*
X186888333Y-54140714D01*
X186840714Y-54235952D01*
X186793095Y-54283571D01*
X186697857Y-54331190D01*
X186316904Y-54331190D01*
X187840714Y-54807380D02*
X187269285Y-54807380D01*
X187555000Y-54807380D02*
X187555000Y-53807380D01*
X187459761Y-53950238D01*
X187364523Y-54045476D01*
X187269285Y-54093095D01*
%TO.C,LS2*%
X175252142Y-67337380D02*
X174775952Y-67337380D01*
X174775952Y-66337380D01*
X175537857Y-67289761D02*
X175680714Y-67337380D01*
X175918809Y-67337380D01*
X176014047Y-67289761D01*
X176061666Y-67242142D01*
X176109285Y-67146904D01*
X176109285Y-67051666D01*
X176061666Y-66956428D01*
X176014047Y-66908809D01*
X175918809Y-66861190D01*
X175728333Y-66813571D01*
X175633095Y-66765952D01*
X175585476Y-66718333D01*
X175537857Y-66623095D01*
X175537857Y-66527857D01*
X175585476Y-66432619D01*
X175633095Y-66385000D01*
X175728333Y-66337380D01*
X175966428Y-66337380D01*
X176109285Y-66385000D01*
X176490238Y-66432619D02*
X176537857Y-66385000D01*
X176633095Y-66337380D01*
X176871190Y-66337380D01*
X176966428Y-66385000D01*
X177014047Y-66432619D01*
X177061666Y-66527857D01*
X177061666Y-66623095D01*
X177014047Y-66765952D01*
X176442619Y-67337380D01*
X177061666Y-67337380D01*
%TO.C,LS1*%
X161917142Y-75172380D02*
X161440952Y-75172380D01*
X161440952Y-74172380D01*
X162202857Y-75124761D02*
X162345714Y-75172380D01*
X162583809Y-75172380D01*
X162679047Y-75124761D01*
X162726666Y-75077142D01*
X162774285Y-74981904D01*
X162774285Y-74886666D01*
X162726666Y-74791428D01*
X162679047Y-74743809D01*
X162583809Y-74696190D01*
X162393333Y-74648571D01*
X162298095Y-74600952D01*
X162250476Y-74553333D01*
X162202857Y-74458095D01*
X162202857Y-74362857D01*
X162250476Y-74267619D01*
X162298095Y-74220000D01*
X162393333Y-74172380D01*
X162631428Y-74172380D01*
X162774285Y-74220000D01*
X163726666Y-75172380D02*
X163155238Y-75172380D01*
X163440952Y-75172380D02*
X163440952Y-74172380D01*
X163345714Y-74315238D01*
X163250476Y-74410476D01*
X163155238Y-74458095D01*
%TO.C,L6*%
X165177380Y-54776666D02*
X165177380Y-55252857D01*
X164177380Y-55252857D01*
X164177380Y-54014761D02*
X164177380Y-54205238D01*
X164225000Y-54300476D01*
X164272619Y-54348095D01*
X164415476Y-54443333D01*
X164605952Y-54490952D01*
X164986904Y-54490952D01*
X165082142Y-54443333D01*
X165129761Y-54395714D01*
X165177380Y-54300476D01*
X165177380Y-54110000D01*
X165129761Y-54014761D01*
X165082142Y-53967142D01*
X164986904Y-53919523D01*
X164748809Y-53919523D01*
X164653571Y-53967142D01*
X164605952Y-54014761D01*
X164558333Y-54110000D01*
X164558333Y-54300476D01*
X164605952Y-54395714D01*
X164653571Y-54443333D01*
X164748809Y-54490952D01*
%TO.C,L4*%
X171522380Y-79541666D02*
X171522380Y-80017857D01*
X170522380Y-80017857D01*
X170855714Y-78779761D02*
X171522380Y-78779761D01*
X170474761Y-79017857D02*
X171189047Y-79255952D01*
X171189047Y-78636904D01*
%TO.C,L3*%
X168982380Y-79541666D02*
X168982380Y-80017857D01*
X167982380Y-80017857D01*
X167982380Y-79303571D02*
X167982380Y-78684523D01*
X168363333Y-79017857D01*
X168363333Y-78875000D01*
X168410952Y-78779761D01*
X168458571Y-78732142D01*
X168553809Y-78684523D01*
X168791904Y-78684523D01*
X168887142Y-78732142D01*
X168934761Y-78779761D01*
X168982380Y-78875000D01*
X168982380Y-79160714D01*
X168934761Y-79255952D01*
X168887142Y-79303571D01*
%TO.C,L2*%
X166442380Y-79541666D02*
X166442380Y-80017857D01*
X165442380Y-80017857D01*
X165537619Y-79255952D02*
X165490000Y-79208333D01*
X165442380Y-79113095D01*
X165442380Y-78875000D01*
X165490000Y-78779761D01*
X165537619Y-78732142D01*
X165632857Y-78684523D01*
X165728095Y-78684523D01*
X165870952Y-78732142D01*
X166442380Y-79303571D01*
X166442380Y-78684523D01*
%TO.C,L1*%
X163902380Y-79541666D02*
X163902380Y-80017857D01*
X162902380Y-80017857D01*
X163902380Y-78684523D02*
X163902380Y-79255952D01*
X163902380Y-78970238D02*
X162902380Y-78970238D01*
X163045238Y-79065476D01*
X163140476Y-79160714D01*
X163188095Y-79255952D01*
%TO.C,JP1*%
X105211666Y-111107380D02*
X105211666Y-111821666D01*
X105164047Y-111964523D01*
X105068809Y-112059761D01*
X104925952Y-112107380D01*
X104830714Y-112107380D01*
X105687857Y-112107380D02*
X105687857Y-111107380D01*
X106068809Y-111107380D01*
X106164047Y-111155000D01*
X106211666Y-111202619D01*
X106259285Y-111297857D01*
X106259285Y-111440714D01*
X106211666Y-111535952D01*
X106164047Y-111583571D01*
X106068809Y-111631190D01*
X105687857Y-111631190D01*
X107211666Y-112107380D02*
X106640238Y-112107380D01*
X106925952Y-112107380D02*
X106925952Y-111107380D01*
X106830714Y-111250238D01*
X106735476Y-111345476D01*
X106640238Y-111393095D01*
%TO.C,J1*%
X146562380Y-59388333D02*
X147276666Y-59388333D01*
X147419523Y-59435952D01*
X147514761Y-59531190D01*
X147562380Y-59674047D01*
X147562380Y-59769285D01*
X147562380Y-58388333D02*
X147562380Y-58959761D01*
X147562380Y-58674047D02*
X146562380Y-58674047D01*
X146705238Y-58769285D01*
X146800476Y-58864523D01*
X146848095Y-58959761D01*
%TO.C,D25*%
X94035714Y-66802380D02*
X94035714Y-65802380D01*
X94273809Y-65802380D01*
X94416666Y-65850000D01*
X94511904Y-65945238D01*
X94559523Y-66040476D01*
X94607142Y-66230952D01*
X94607142Y-66373809D01*
X94559523Y-66564285D01*
X94511904Y-66659523D01*
X94416666Y-66754761D01*
X94273809Y-66802380D01*
X94035714Y-66802380D01*
X94988095Y-65897619D02*
X95035714Y-65850000D01*
X95130952Y-65802380D01*
X95369047Y-65802380D01*
X95464285Y-65850000D01*
X95511904Y-65897619D01*
X95559523Y-65992857D01*
X95559523Y-66088095D01*
X95511904Y-66230952D01*
X94940476Y-66802380D01*
X95559523Y-66802380D01*
X96464285Y-65802380D02*
X95988095Y-65802380D01*
X95940476Y-66278571D01*
X95988095Y-66230952D01*
X96083333Y-66183333D01*
X96321428Y-66183333D01*
X96416666Y-66230952D01*
X96464285Y-66278571D01*
X96511904Y-66373809D01*
X96511904Y-66611904D01*
X96464285Y-66707142D01*
X96416666Y-66754761D01*
X96321428Y-66802380D01*
X96083333Y-66802380D01*
X95988095Y-66754761D01*
X95940476Y-66707142D01*
X91385714Y-68702380D02*
X90814285Y-68702380D01*
X91100000Y-68702380D02*
X91100000Y-67702380D01*
X91004761Y-67845238D01*
X90909523Y-67940476D01*
X90814285Y-67988095D01*
%TO.C,D24*%
X84510714Y-66802380D02*
X84510714Y-65802380D01*
X84748809Y-65802380D01*
X84891666Y-65850000D01*
X84986904Y-65945238D01*
X85034523Y-66040476D01*
X85082142Y-66230952D01*
X85082142Y-66373809D01*
X85034523Y-66564285D01*
X84986904Y-66659523D01*
X84891666Y-66754761D01*
X84748809Y-66802380D01*
X84510714Y-66802380D01*
X85463095Y-65897619D02*
X85510714Y-65850000D01*
X85605952Y-65802380D01*
X85844047Y-65802380D01*
X85939285Y-65850000D01*
X85986904Y-65897619D01*
X86034523Y-65992857D01*
X86034523Y-66088095D01*
X85986904Y-66230952D01*
X85415476Y-66802380D01*
X86034523Y-66802380D01*
X86891666Y-66135714D02*
X86891666Y-66802380D01*
X86653571Y-65754761D02*
X86415476Y-66469047D01*
X87034523Y-66469047D01*
X81860714Y-68702380D02*
X81289285Y-68702380D01*
X81575000Y-68702380D02*
X81575000Y-67702380D01*
X81479761Y-67845238D01*
X81384523Y-67940476D01*
X81289285Y-67988095D01*
%TO.C,D23*%
X205795714Y-66802380D02*
X205795714Y-65802380D01*
X206033809Y-65802380D01*
X206176666Y-65850000D01*
X206271904Y-65945238D01*
X206319523Y-66040476D01*
X206367142Y-66230952D01*
X206367142Y-66373809D01*
X206319523Y-66564285D01*
X206271904Y-66659523D01*
X206176666Y-66754761D01*
X206033809Y-66802380D01*
X205795714Y-66802380D01*
X206748095Y-65897619D02*
X206795714Y-65850000D01*
X206890952Y-65802380D01*
X207129047Y-65802380D01*
X207224285Y-65850000D01*
X207271904Y-65897619D01*
X207319523Y-65992857D01*
X207319523Y-66088095D01*
X207271904Y-66230952D01*
X206700476Y-66802380D01*
X207319523Y-66802380D01*
X207652857Y-65802380D02*
X208271904Y-65802380D01*
X207938571Y-66183333D01*
X208081428Y-66183333D01*
X208176666Y-66230952D01*
X208224285Y-66278571D01*
X208271904Y-66373809D01*
X208271904Y-66611904D01*
X208224285Y-66707142D01*
X208176666Y-66754761D01*
X208081428Y-66802380D01*
X207795714Y-66802380D01*
X207700476Y-66754761D01*
X207652857Y-66707142D01*
X203145714Y-68702380D02*
X202574285Y-68702380D01*
X202860000Y-68702380D02*
X202860000Y-67702380D01*
X202764761Y-67845238D01*
X202669523Y-67940476D01*
X202574285Y-67988095D01*
%TO.C,D22*%
X196270714Y-66802380D02*
X196270714Y-65802380D01*
X196508809Y-65802380D01*
X196651666Y-65850000D01*
X196746904Y-65945238D01*
X196794523Y-66040476D01*
X196842142Y-66230952D01*
X196842142Y-66373809D01*
X196794523Y-66564285D01*
X196746904Y-66659523D01*
X196651666Y-66754761D01*
X196508809Y-66802380D01*
X196270714Y-66802380D01*
X197223095Y-65897619D02*
X197270714Y-65850000D01*
X197365952Y-65802380D01*
X197604047Y-65802380D01*
X197699285Y-65850000D01*
X197746904Y-65897619D01*
X197794523Y-65992857D01*
X197794523Y-66088095D01*
X197746904Y-66230952D01*
X197175476Y-66802380D01*
X197794523Y-66802380D01*
X198175476Y-65897619D02*
X198223095Y-65850000D01*
X198318333Y-65802380D01*
X198556428Y-65802380D01*
X198651666Y-65850000D01*
X198699285Y-65897619D01*
X198746904Y-65992857D01*
X198746904Y-66088095D01*
X198699285Y-66230952D01*
X198127857Y-66802380D01*
X198746904Y-66802380D01*
X193620714Y-68702380D02*
X193049285Y-68702380D01*
X193335000Y-68702380D02*
X193335000Y-67702380D01*
X193239761Y-67845238D01*
X193144523Y-67940476D01*
X193049285Y-67988095D01*
%TO.C,D21*%
X94125714Y-74117380D02*
X94125714Y-73117380D01*
X94363809Y-73117380D01*
X94506666Y-73165000D01*
X94601904Y-73260238D01*
X94649523Y-73355476D01*
X94697142Y-73545952D01*
X94697142Y-73688809D01*
X94649523Y-73879285D01*
X94601904Y-73974523D01*
X94506666Y-74069761D01*
X94363809Y-74117380D01*
X94125714Y-74117380D01*
X95078095Y-73212619D02*
X95125714Y-73165000D01*
X95220952Y-73117380D01*
X95459047Y-73117380D01*
X95554285Y-73165000D01*
X95601904Y-73212619D01*
X95649523Y-73307857D01*
X95649523Y-73403095D01*
X95601904Y-73545952D01*
X95030476Y-74117380D01*
X95649523Y-74117380D01*
X96601904Y-74117380D02*
X96030476Y-74117380D01*
X96316190Y-74117380D02*
X96316190Y-73117380D01*
X96220952Y-73260238D01*
X96125714Y-73355476D01*
X96030476Y-73403095D01*
X91475714Y-76017380D02*
X90904285Y-76017380D01*
X91190000Y-76017380D02*
X91190000Y-75017380D01*
X91094761Y-75160238D01*
X90999523Y-75255476D01*
X90904285Y-75303095D01*
%TO.C,D20*%
X84510714Y-73787380D02*
X84510714Y-72787380D01*
X84748809Y-72787380D01*
X84891666Y-72835000D01*
X84986904Y-72930238D01*
X85034523Y-73025476D01*
X85082142Y-73215952D01*
X85082142Y-73358809D01*
X85034523Y-73549285D01*
X84986904Y-73644523D01*
X84891666Y-73739761D01*
X84748809Y-73787380D01*
X84510714Y-73787380D01*
X85463095Y-72882619D02*
X85510714Y-72835000D01*
X85605952Y-72787380D01*
X85844047Y-72787380D01*
X85939285Y-72835000D01*
X85986904Y-72882619D01*
X86034523Y-72977857D01*
X86034523Y-73073095D01*
X85986904Y-73215952D01*
X85415476Y-73787380D01*
X86034523Y-73787380D01*
X86653571Y-72787380D02*
X86748809Y-72787380D01*
X86844047Y-72835000D01*
X86891666Y-72882619D01*
X86939285Y-72977857D01*
X86986904Y-73168333D01*
X86986904Y-73406428D01*
X86939285Y-73596904D01*
X86891666Y-73692142D01*
X86844047Y-73739761D01*
X86748809Y-73787380D01*
X86653571Y-73787380D01*
X86558333Y-73739761D01*
X86510714Y-73692142D01*
X86463095Y-73596904D01*
X86415476Y-73406428D01*
X86415476Y-73168333D01*
X86463095Y-72977857D01*
X86510714Y-72882619D01*
X86558333Y-72835000D01*
X86653571Y-72787380D01*
X81860714Y-75687380D02*
X81289285Y-75687380D01*
X81575000Y-75687380D02*
X81575000Y-74687380D01*
X81479761Y-74830238D01*
X81384523Y-74925476D01*
X81289285Y-74973095D01*
%TO.C,D19*%
X205795714Y-73787380D02*
X205795714Y-72787380D01*
X206033809Y-72787380D01*
X206176666Y-72835000D01*
X206271904Y-72930238D01*
X206319523Y-73025476D01*
X206367142Y-73215952D01*
X206367142Y-73358809D01*
X206319523Y-73549285D01*
X206271904Y-73644523D01*
X206176666Y-73739761D01*
X206033809Y-73787380D01*
X205795714Y-73787380D01*
X207319523Y-73787380D02*
X206748095Y-73787380D01*
X207033809Y-73787380D02*
X207033809Y-72787380D01*
X206938571Y-72930238D01*
X206843333Y-73025476D01*
X206748095Y-73073095D01*
X207795714Y-73787380D02*
X207986190Y-73787380D01*
X208081428Y-73739761D01*
X208129047Y-73692142D01*
X208224285Y-73549285D01*
X208271904Y-73358809D01*
X208271904Y-72977857D01*
X208224285Y-72882619D01*
X208176666Y-72835000D01*
X208081428Y-72787380D01*
X207890952Y-72787380D01*
X207795714Y-72835000D01*
X207748095Y-72882619D01*
X207700476Y-72977857D01*
X207700476Y-73215952D01*
X207748095Y-73311190D01*
X207795714Y-73358809D01*
X207890952Y-73406428D01*
X208081428Y-73406428D01*
X208176666Y-73358809D01*
X208224285Y-73311190D01*
X208271904Y-73215952D01*
X203145714Y-75687380D02*
X202574285Y-75687380D01*
X202860000Y-75687380D02*
X202860000Y-74687380D01*
X202764761Y-74830238D01*
X202669523Y-74925476D01*
X202574285Y-74973095D01*
%TO.C,D18*%
X196270714Y-73787380D02*
X196270714Y-72787380D01*
X196508809Y-72787380D01*
X196651666Y-72835000D01*
X196746904Y-72930238D01*
X196794523Y-73025476D01*
X196842142Y-73215952D01*
X196842142Y-73358809D01*
X196794523Y-73549285D01*
X196746904Y-73644523D01*
X196651666Y-73739761D01*
X196508809Y-73787380D01*
X196270714Y-73787380D01*
X197794523Y-73787380D02*
X197223095Y-73787380D01*
X197508809Y-73787380D02*
X197508809Y-72787380D01*
X197413571Y-72930238D01*
X197318333Y-73025476D01*
X197223095Y-73073095D01*
X198365952Y-73215952D02*
X198270714Y-73168333D01*
X198223095Y-73120714D01*
X198175476Y-73025476D01*
X198175476Y-72977857D01*
X198223095Y-72882619D01*
X198270714Y-72835000D01*
X198365952Y-72787380D01*
X198556428Y-72787380D01*
X198651666Y-72835000D01*
X198699285Y-72882619D01*
X198746904Y-72977857D01*
X198746904Y-73025476D01*
X198699285Y-73120714D01*
X198651666Y-73168333D01*
X198556428Y-73215952D01*
X198365952Y-73215952D01*
X198270714Y-73263571D01*
X198223095Y-73311190D01*
X198175476Y-73406428D01*
X198175476Y-73596904D01*
X198223095Y-73692142D01*
X198270714Y-73739761D01*
X198365952Y-73787380D01*
X198556428Y-73787380D01*
X198651666Y-73739761D01*
X198699285Y-73692142D01*
X198746904Y-73596904D01*
X198746904Y-73406428D01*
X198699285Y-73311190D01*
X198651666Y-73263571D01*
X198556428Y-73215952D01*
X193620714Y-75687380D02*
X193049285Y-75687380D01*
X193335000Y-75687380D02*
X193335000Y-74687380D01*
X193239761Y-74830238D01*
X193144523Y-74925476D01*
X193049285Y-74973095D01*
%TO.C,D17*%
X94035714Y-80772380D02*
X94035714Y-79772380D01*
X94273809Y-79772380D01*
X94416666Y-79820000D01*
X94511904Y-79915238D01*
X94559523Y-80010476D01*
X94607142Y-80200952D01*
X94607142Y-80343809D01*
X94559523Y-80534285D01*
X94511904Y-80629523D01*
X94416666Y-80724761D01*
X94273809Y-80772380D01*
X94035714Y-80772380D01*
X95559523Y-80772380D02*
X94988095Y-80772380D01*
X95273809Y-80772380D02*
X95273809Y-79772380D01*
X95178571Y-79915238D01*
X95083333Y-80010476D01*
X94988095Y-80058095D01*
X95892857Y-79772380D02*
X96559523Y-79772380D01*
X96130952Y-80772380D01*
X91385714Y-82672380D02*
X90814285Y-82672380D01*
X91100000Y-82672380D02*
X91100000Y-81672380D01*
X91004761Y-81815238D01*
X90909523Y-81910476D01*
X90814285Y-81958095D01*
%TO.C,D16*%
X84510714Y-80772380D02*
X84510714Y-79772380D01*
X84748809Y-79772380D01*
X84891666Y-79820000D01*
X84986904Y-79915238D01*
X85034523Y-80010476D01*
X85082142Y-80200952D01*
X85082142Y-80343809D01*
X85034523Y-80534285D01*
X84986904Y-80629523D01*
X84891666Y-80724761D01*
X84748809Y-80772380D01*
X84510714Y-80772380D01*
X86034523Y-80772380D02*
X85463095Y-80772380D01*
X85748809Y-80772380D02*
X85748809Y-79772380D01*
X85653571Y-79915238D01*
X85558333Y-80010476D01*
X85463095Y-80058095D01*
X86891666Y-79772380D02*
X86701190Y-79772380D01*
X86605952Y-79820000D01*
X86558333Y-79867619D01*
X86463095Y-80010476D01*
X86415476Y-80200952D01*
X86415476Y-80581904D01*
X86463095Y-80677142D01*
X86510714Y-80724761D01*
X86605952Y-80772380D01*
X86796428Y-80772380D01*
X86891666Y-80724761D01*
X86939285Y-80677142D01*
X86986904Y-80581904D01*
X86986904Y-80343809D01*
X86939285Y-80248571D01*
X86891666Y-80200952D01*
X86796428Y-80153333D01*
X86605952Y-80153333D01*
X86510714Y-80200952D01*
X86463095Y-80248571D01*
X86415476Y-80343809D01*
X81860714Y-82672380D02*
X81289285Y-82672380D01*
X81575000Y-82672380D02*
X81575000Y-81672380D01*
X81479761Y-81815238D01*
X81384523Y-81910476D01*
X81289285Y-81958095D01*
%TO.C,D15*%
X205795714Y-80772380D02*
X205795714Y-79772380D01*
X206033809Y-79772380D01*
X206176666Y-79820000D01*
X206271904Y-79915238D01*
X206319523Y-80010476D01*
X206367142Y-80200952D01*
X206367142Y-80343809D01*
X206319523Y-80534285D01*
X206271904Y-80629523D01*
X206176666Y-80724761D01*
X206033809Y-80772380D01*
X205795714Y-80772380D01*
X207319523Y-80772380D02*
X206748095Y-80772380D01*
X207033809Y-80772380D02*
X207033809Y-79772380D01*
X206938571Y-79915238D01*
X206843333Y-80010476D01*
X206748095Y-80058095D01*
X208224285Y-79772380D02*
X207748095Y-79772380D01*
X207700476Y-80248571D01*
X207748095Y-80200952D01*
X207843333Y-80153333D01*
X208081428Y-80153333D01*
X208176666Y-80200952D01*
X208224285Y-80248571D01*
X208271904Y-80343809D01*
X208271904Y-80581904D01*
X208224285Y-80677142D01*
X208176666Y-80724761D01*
X208081428Y-80772380D01*
X207843333Y-80772380D01*
X207748095Y-80724761D01*
X207700476Y-80677142D01*
X203145714Y-82672380D02*
X202574285Y-82672380D01*
X202860000Y-82672380D02*
X202860000Y-81672380D01*
X202764761Y-81815238D01*
X202669523Y-81910476D01*
X202574285Y-81958095D01*
%TO.C,D14*%
X196270714Y-80772380D02*
X196270714Y-79772380D01*
X196508809Y-79772380D01*
X196651666Y-79820000D01*
X196746904Y-79915238D01*
X196794523Y-80010476D01*
X196842142Y-80200952D01*
X196842142Y-80343809D01*
X196794523Y-80534285D01*
X196746904Y-80629523D01*
X196651666Y-80724761D01*
X196508809Y-80772380D01*
X196270714Y-80772380D01*
X197794523Y-80772380D02*
X197223095Y-80772380D01*
X197508809Y-80772380D02*
X197508809Y-79772380D01*
X197413571Y-79915238D01*
X197318333Y-80010476D01*
X197223095Y-80058095D01*
X198651666Y-80105714D02*
X198651666Y-80772380D01*
X198413571Y-79724761D02*
X198175476Y-80439047D01*
X198794523Y-80439047D01*
X193620714Y-82672380D02*
X193049285Y-82672380D01*
X193335000Y-82672380D02*
X193335000Y-81672380D01*
X193239761Y-81815238D01*
X193144523Y-81910476D01*
X193049285Y-81958095D01*
%TO.C,D13*%
X94035714Y-87757380D02*
X94035714Y-86757380D01*
X94273809Y-86757380D01*
X94416666Y-86805000D01*
X94511904Y-86900238D01*
X94559523Y-86995476D01*
X94607142Y-87185952D01*
X94607142Y-87328809D01*
X94559523Y-87519285D01*
X94511904Y-87614523D01*
X94416666Y-87709761D01*
X94273809Y-87757380D01*
X94035714Y-87757380D01*
X95559523Y-87757380D02*
X94988095Y-87757380D01*
X95273809Y-87757380D02*
X95273809Y-86757380D01*
X95178571Y-86900238D01*
X95083333Y-86995476D01*
X94988095Y-87043095D01*
X95892857Y-86757380D02*
X96511904Y-86757380D01*
X96178571Y-87138333D01*
X96321428Y-87138333D01*
X96416666Y-87185952D01*
X96464285Y-87233571D01*
X96511904Y-87328809D01*
X96511904Y-87566904D01*
X96464285Y-87662142D01*
X96416666Y-87709761D01*
X96321428Y-87757380D01*
X96035714Y-87757380D01*
X95940476Y-87709761D01*
X95892857Y-87662142D01*
X91385714Y-89657380D02*
X90814285Y-89657380D01*
X91100000Y-89657380D02*
X91100000Y-88657380D01*
X91004761Y-88800238D01*
X90909523Y-88895476D01*
X90814285Y-88943095D01*
%TO.C,D12*%
X84510714Y-87757380D02*
X84510714Y-86757380D01*
X84748809Y-86757380D01*
X84891666Y-86805000D01*
X84986904Y-86900238D01*
X85034523Y-86995476D01*
X85082142Y-87185952D01*
X85082142Y-87328809D01*
X85034523Y-87519285D01*
X84986904Y-87614523D01*
X84891666Y-87709761D01*
X84748809Y-87757380D01*
X84510714Y-87757380D01*
X86034523Y-87757380D02*
X85463095Y-87757380D01*
X85748809Y-87757380D02*
X85748809Y-86757380D01*
X85653571Y-86900238D01*
X85558333Y-86995476D01*
X85463095Y-87043095D01*
X86415476Y-86852619D02*
X86463095Y-86805000D01*
X86558333Y-86757380D01*
X86796428Y-86757380D01*
X86891666Y-86805000D01*
X86939285Y-86852619D01*
X86986904Y-86947857D01*
X86986904Y-87043095D01*
X86939285Y-87185952D01*
X86367857Y-87757380D01*
X86986904Y-87757380D01*
X81860714Y-89657380D02*
X81289285Y-89657380D01*
X81575000Y-89657380D02*
X81575000Y-88657380D01*
X81479761Y-88800238D01*
X81384523Y-88895476D01*
X81289285Y-88943095D01*
%TO.C,D11*%
X205795714Y-87757380D02*
X205795714Y-86757380D01*
X206033809Y-86757380D01*
X206176666Y-86805000D01*
X206271904Y-86900238D01*
X206319523Y-86995476D01*
X206367142Y-87185952D01*
X206367142Y-87328809D01*
X206319523Y-87519285D01*
X206271904Y-87614523D01*
X206176666Y-87709761D01*
X206033809Y-87757380D01*
X205795714Y-87757380D01*
X207319523Y-87757380D02*
X206748095Y-87757380D01*
X207033809Y-87757380D02*
X207033809Y-86757380D01*
X206938571Y-86900238D01*
X206843333Y-86995476D01*
X206748095Y-87043095D01*
X208271904Y-87757380D02*
X207700476Y-87757380D01*
X207986190Y-87757380D02*
X207986190Y-86757380D01*
X207890952Y-86900238D01*
X207795714Y-86995476D01*
X207700476Y-87043095D01*
X203145714Y-89657380D02*
X202574285Y-89657380D01*
X202860000Y-89657380D02*
X202860000Y-88657380D01*
X202764761Y-88800238D01*
X202669523Y-88895476D01*
X202574285Y-88943095D01*
%TO.C,D10*%
X196270714Y-87757380D02*
X196270714Y-86757380D01*
X196508809Y-86757380D01*
X196651666Y-86805000D01*
X196746904Y-86900238D01*
X196794523Y-86995476D01*
X196842142Y-87185952D01*
X196842142Y-87328809D01*
X196794523Y-87519285D01*
X196746904Y-87614523D01*
X196651666Y-87709761D01*
X196508809Y-87757380D01*
X196270714Y-87757380D01*
X197794523Y-87757380D02*
X197223095Y-87757380D01*
X197508809Y-87757380D02*
X197508809Y-86757380D01*
X197413571Y-86900238D01*
X197318333Y-86995476D01*
X197223095Y-87043095D01*
X198413571Y-86757380D02*
X198508809Y-86757380D01*
X198604047Y-86805000D01*
X198651666Y-86852619D01*
X198699285Y-86947857D01*
X198746904Y-87138333D01*
X198746904Y-87376428D01*
X198699285Y-87566904D01*
X198651666Y-87662142D01*
X198604047Y-87709761D01*
X198508809Y-87757380D01*
X198413571Y-87757380D01*
X198318333Y-87709761D01*
X198270714Y-87662142D01*
X198223095Y-87566904D01*
X198175476Y-87376428D01*
X198175476Y-87138333D01*
X198223095Y-86947857D01*
X198270714Y-86852619D01*
X198318333Y-86805000D01*
X198413571Y-86757380D01*
X193620714Y-89657380D02*
X193049285Y-89657380D01*
X193335000Y-89657380D02*
X193335000Y-88657380D01*
X193239761Y-88800238D01*
X193144523Y-88895476D01*
X193049285Y-88943095D01*
%TO.C,D9*%
X94511904Y-94742380D02*
X94511904Y-93742380D01*
X94750000Y-93742380D01*
X94892857Y-93790000D01*
X94988095Y-93885238D01*
X95035714Y-93980476D01*
X95083333Y-94170952D01*
X95083333Y-94313809D01*
X95035714Y-94504285D01*
X94988095Y-94599523D01*
X94892857Y-94694761D01*
X94750000Y-94742380D01*
X94511904Y-94742380D01*
X95559523Y-94742380D02*
X95750000Y-94742380D01*
X95845238Y-94694761D01*
X95892857Y-94647142D01*
X95988095Y-94504285D01*
X96035714Y-94313809D01*
X96035714Y-93932857D01*
X95988095Y-93837619D01*
X95940476Y-93790000D01*
X95845238Y-93742380D01*
X95654761Y-93742380D01*
X95559523Y-93790000D01*
X95511904Y-93837619D01*
X95464285Y-93932857D01*
X95464285Y-94170952D01*
X95511904Y-94266190D01*
X95559523Y-94313809D01*
X95654761Y-94361428D01*
X95845238Y-94361428D01*
X95940476Y-94313809D01*
X95988095Y-94266190D01*
X96035714Y-94170952D01*
X91385714Y-96642380D02*
X90814285Y-96642380D01*
X91100000Y-96642380D02*
X91100000Y-95642380D01*
X91004761Y-95785238D01*
X90909523Y-95880476D01*
X90814285Y-95928095D01*
%TO.C,D8*%
X84986904Y-94742380D02*
X84986904Y-93742380D01*
X85225000Y-93742380D01*
X85367857Y-93790000D01*
X85463095Y-93885238D01*
X85510714Y-93980476D01*
X85558333Y-94170952D01*
X85558333Y-94313809D01*
X85510714Y-94504285D01*
X85463095Y-94599523D01*
X85367857Y-94694761D01*
X85225000Y-94742380D01*
X84986904Y-94742380D01*
X86129761Y-94170952D02*
X86034523Y-94123333D01*
X85986904Y-94075714D01*
X85939285Y-93980476D01*
X85939285Y-93932857D01*
X85986904Y-93837619D01*
X86034523Y-93790000D01*
X86129761Y-93742380D01*
X86320238Y-93742380D01*
X86415476Y-93790000D01*
X86463095Y-93837619D01*
X86510714Y-93932857D01*
X86510714Y-93980476D01*
X86463095Y-94075714D01*
X86415476Y-94123333D01*
X86320238Y-94170952D01*
X86129761Y-94170952D01*
X86034523Y-94218571D01*
X85986904Y-94266190D01*
X85939285Y-94361428D01*
X85939285Y-94551904D01*
X85986904Y-94647142D01*
X86034523Y-94694761D01*
X86129761Y-94742380D01*
X86320238Y-94742380D01*
X86415476Y-94694761D01*
X86463095Y-94647142D01*
X86510714Y-94551904D01*
X86510714Y-94361428D01*
X86463095Y-94266190D01*
X86415476Y-94218571D01*
X86320238Y-94170952D01*
X81860714Y-96642380D02*
X81289285Y-96642380D01*
X81575000Y-96642380D02*
X81575000Y-95642380D01*
X81479761Y-95785238D01*
X81384523Y-95880476D01*
X81289285Y-95928095D01*
%TO.C,D7*%
X206271904Y-94742380D02*
X206271904Y-93742380D01*
X206510000Y-93742380D01*
X206652857Y-93790000D01*
X206748095Y-93885238D01*
X206795714Y-93980476D01*
X206843333Y-94170952D01*
X206843333Y-94313809D01*
X206795714Y-94504285D01*
X206748095Y-94599523D01*
X206652857Y-94694761D01*
X206510000Y-94742380D01*
X206271904Y-94742380D01*
X207176666Y-93742380D02*
X207843333Y-93742380D01*
X207414761Y-94742380D01*
X203145714Y-96642380D02*
X202574285Y-96642380D01*
X202860000Y-96642380D02*
X202860000Y-95642380D01*
X202764761Y-95785238D01*
X202669523Y-95880476D01*
X202574285Y-95928095D01*
%TO.C,D6*%
X196746904Y-94742380D02*
X196746904Y-93742380D01*
X196985000Y-93742380D01*
X197127857Y-93790000D01*
X197223095Y-93885238D01*
X197270714Y-93980476D01*
X197318333Y-94170952D01*
X197318333Y-94313809D01*
X197270714Y-94504285D01*
X197223095Y-94599523D01*
X197127857Y-94694761D01*
X196985000Y-94742380D01*
X196746904Y-94742380D01*
X198175476Y-93742380D02*
X197985000Y-93742380D01*
X197889761Y-93790000D01*
X197842142Y-93837619D01*
X197746904Y-93980476D01*
X197699285Y-94170952D01*
X197699285Y-94551904D01*
X197746904Y-94647142D01*
X197794523Y-94694761D01*
X197889761Y-94742380D01*
X198080238Y-94742380D01*
X198175476Y-94694761D01*
X198223095Y-94647142D01*
X198270714Y-94551904D01*
X198270714Y-94313809D01*
X198223095Y-94218571D01*
X198175476Y-94170952D01*
X198080238Y-94123333D01*
X197889761Y-94123333D01*
X197794523Y-94170952D01*
X197746904Y-94218571D01*
X197699285Y-94313809D01*
X193620714Y-96642380D02*
X193049285Y-96642380D01*
X193335000Y-96642380D02*
X193335000Y-95642380D01*
X193239761Y-95785238D01*
X193144523Y-95880476D01*
X193049285Y-95928095D01*
%TO.C,D5*%
X94511904Y-101727380D02*
X94511904Y-100727380D01*
X94750000Y-100727380D01*
X94892857Y-100775000D01*
X94988095Y-100870238D01*
X95035714Y-100965476D01*
X95083333Y-101155952D01*
X95083333Y-101298809D01*
X95035714Y-101489285D01*
X94988095Y-101584523D01*
X94892857Y-101679761D01*
X94750000Y-101727380D01*
X94511904Y-101727380D01*
X95988095Y-100727380D02*
X95511904Y-100727380D01*
X95464285Y-101203571D01*
X95511904Y-101155952D01*
X95607142Y-101108333D01*
X95845238Y-101108333D01*
X95940476Y-101155952D01*
X95988095Y-101203571D01*
X96035714Y-101298809D01*
X96035714Y-101536904D01*
X95988095Y-101632142D01*
X95940476Y-101679761D01*
X95845238Y-101727380D01*
X95607142Y-101727380D01*
X95511904Y-101679761D01*
X95464285Y-101632142D01*
X91385714Y-103627380D02*
X90814285Y-103627380D01*
X91100000Y-103627380D02*
X91100000Y-102627380D01*
X91004761Y-102770238D01*
X90909523Y-102865476D01*
X90814285Y-102913095D01*
%TO.C,D4*%
X84986904Y-101727380D02*
X84986904Y-100727380D01*
X85225000Y-100727380D01*
X85367857Y-100775000D01*
X85463095Y-100870238D01*
X85510714Y-100965476D01*
X85558333Y-101155952D01*
X85558333Y-101298809D01*
X85510714Y-101489285D01*
X85463095Y-101584523D01*
X85367857Y-101679761D01*
X85225000Y-101727380D01*
X84986904Y-101727380D01*
X86415476Y-101060714D02*
X86415476Y-101727380D01*
X86177380Y-100679761D02*
X85939285Y-101394047D01*
X86558333Y-101394047D01*
X81860714Y-103627380D02*
X81289285Y-103627380D01*
X81575000Y-103627380D02*
X81575000Y-102627380D01*
X81479761Y-102770238D01*
X81384523Y-102865476D01*
X81289285Y-102913095D01*
%TO.C,D3*%
X206271904Y-101727380D02*
X206271904Y-100727380D01*
X206510000Y-100727380D01*
X206652857Y-100775000D01*
X206748095Y-100870238D01*
X206795714Y-100965476D01*
X206843333Y-101155952D01*
X206843333Y-101298809D01*
X206795714Y-101489285D01*
X206748095Y-101584523D01*
X206652857Y-101679761D01*
X206510000Y-101727380D01*
X206271904Y-101727380D01*
X207176666Y-100727380D02*
X207795714Y-100727380D01*
X207462380Y-101108333D01*
X207605238Y-101108333D01*
X207700476Y-101155952D01*
X207748095Y-101203571D01*
X207795714Y-101298809D01*
X207795714Y-101536904D01*
X207748095Y-101632142D01*
X207700476Y-101679761D01*
X207605238Y-101727380D01*
X207319523Y-101727380D01*
X207224285Y-101679761D01*
X207176666Y-101632142D01*
X203145714Y-103627380D02*
X202574285Y-103627380D01*
X202860000Y-103627380D02*
X202860000Y-102627380D01*
X202764761Y-102770238D01*
X202669523Y-102865476D01*
X202574285Y-102913095D01*
%TO.C,D2*%
X196746904Y-101727380D02*
X196746904Y-100727380D01*
X196985000Y-100727380D01*
X197127857Y-100775000D01*
X197223095Y-100870238D01*
X197270714Y-100965476D01*
X197318333Y-101155952D01*
X197318333Y-101298809D01*
X197270714Y-101489285D01*
X197223095Y-101584523D01*
X197127857Y-101679761D01*
X196985000Y-101727380D01*
X196746904Y-101727380D01*
X197699285Y-100822619D02*
X197746904Y-100775000D01*
X197842142Y-100727380D01*
X198080238Y-100727380D01*
X198175476Y-100775000D01*
X198223095Y-100822619D01*
X198270714Y-100917857D01*
X198270714Y-101013095D01*
X198223095Y-101155952D01*
X197651666Y-101727380D01*
X198270714Y-101727380D01*
X193620714Y-103627380D02*
X193049285Y-103627380D01*
X193335000Y-103627380D02*
X193335000Y-102627380D01*
X193239761Y-102770238D01*
X193144523Y-102865476D01*
X193049285Y-102913095D01*
%TO.C,D1*%
X181506904Y-53642380D02*
X181506904Y-52642380D01*
X181745000Y-52642380D01*
X181887857Y-52690000D01*
X181983095Y-52785238D01*
X182030714Y-52880476D01*
X182078333Y-53070952D01*
X182078333Y-53213809D01*
X182030714Y-53404285D01*
X181983095Y-53499523D01*
X181887857Y-53594761D01*
X181745000Y-53642380D01*
X181506904Y-53642380D01*
X183030714Y-53642380D02*
X182459285Y-53642380D01*
X182745000Y-53642380D02*
X182745000Y-52642380D01*
X182649761Y-52785238D01*
X182554523Y-52880476D01*
X182459285Y-52928095D01*
%TO.C,C47*%
X173347142Y-74242142D02*
X173299523Y-74289761D01*
X173156666Y-74337380D01*
X173061428Y-74337380D01*
X172918571Y-74289761D01*
X172823333Y-74194523D01*
X172775714Y-74099285D01*
X172728095Y-73908809D01*
X172728095Y-73765952D01*
X172775714Y-73575476D01*
X172823333Y-73480238D01*
X172918571Y-73385000D01*
X173061428Y-73337380D01*
X173156666Y-73337380D01*
X173299523Y-73385000D01*
X173347142Y-73432619D01*
X174204285Y-73670714D02*
X174204285Y-74337380D01*
X173966190Y-73289761D02*
X173728095Y-74004047D01*
X174347142Y-74004047D01*
X174632857Y-73337380D02*
X175299523Y-73337380D01*
X174870952Y-74337380D01*
%TO.C,C46*%
X172217142Y-75572857D02*
X172264761Y-75620476D01*
X172312380Y-75763333D01*
X172312380Y-75858571D01*
X172264761Y-76001428D01*
X172169523Y-76096666D01*
X172074285Y-76144285D01*
X171883809Y-76191904D01*
X171740952Y-76191904D01*
X171550476Y-76144285D01*
X171455238Y-76096666D01*
X171360000Y-76001428D01*
X171312380Y-75858571D01*
X171312380Y-75763333D01*
X171360000Y-75620476D01*
X171407619Y-75572857D01*
X171645714Y-74715714D02*
X172312380Y-74715714D01*
X171264761Y-74953809D02*
X171979047Y-75191904D01*
X171979047Y-74572857D01*
X171312380Y-73763333D02*
X171312380Y-73953809D01*
X171360000Y-74049047D01*
X171407619Y-74096666D01*
X171550476Y-74191904D01*
X171740952Y-74239523D01*
X172121904Y-74239523D01*
X172217142Y-74191904D01*
X172264761Y-74144285D01*
X172312380Y-74049047D01*
X172312380Y-73858571D01*
X172264761Y-73763333D01*
X172217142Y-73715714D01*
X172121904Y-73668095D01*
X171883809Y-73668095D01*
X171788571Y-73715714D01*
X171740952Y-73763333D01*
X171693333Y-73858571D01*
X171693333Y-74049047D01*
X171740952Y-74144285D01*
X171788571Y-74191904D01*
X171883809Y-74239523D01*
%TO.C,C45*%
X166317142Y-75572857D02*
X166364761Y-75620476D01*
X166412380Y-75763333D01*
X166412380Y-75858571D01*
X166364761Y-76001428D01*
X166269523Y-76096666D01*
X166174285Y-76144285D01*
X165983809Y-76191904D01*
X165840952Y-76191904D01*
X165650476Y-76144285D01*
X165555238Y-76096666D01*
X165460000Y-76001428D01*
X165412380Y-75858571D01*
X165412380Y-75763333D01*
X165460000Y-75620476D01*
X165507619Y-75572857D01*
X165745714Y-74715714D02*
X166412380Y-74715714D01*
X165364761Y-74953809D02*
X166079047Y-75191904D01*
X166079047Y-74572857D01*
X165412380Y-73715714D02*
X165412380Y-74191904D01*
X165888571Y-74239523D01*
X165840952Y-74191904D01*
X165793333Y-74096666D01*
X165793333Y-73858571D01*
X165840952Y-73763333D01*
X165888571Y-73715714D01*
X165983809Y-73668095D01*
X166221904Y-73668095D01*
X166317142Y-73715714D01*
X166364761Y-73763333D01*
X166412380Y-73858571D01*
X166412380Y-74096666D01*
X166364761Y-74191904D01*
X166317142Y-74239523D01*
%TO.C,C44*%
X162784642Y-74242142D02*
X162737023Y-74289761D01*
X162594166Y-74337380D01*
X162498928Y-74337380D01*
X162356071Y-74289761D01*
X162260833Y-74194523D01*
X162213214Y-74099285D01*
X162165595Y-73908809D01*
X162165595Y-73765952D01*
X162213214Y-73575476D01*
X162260833Y-73480238D01*
X162356071Y-73385000D01*
X162498928Y-73337380D01*
X162594166Y-73337380D01*
X162737023Y-73385000D01*
X162784642Y-73432619D01*
X163641785Y-73670714D02*
X163641785Y-74337380D01*
X163403690Y-73289761D02*
X163165595Y-74004047D01*
X163784642Y-74004047D01*
X164594166Y-73670714D02*
X164594166Y-74337380D01*
X164356071Y-73289761D02*
X164117976Y-74004047D01*
X164737023Y-74004047D01*
%TO.C,C43*%
X158532142Y-78342142D02*
X158484523Y-78389761D01*
X158341666Y-78437380D01*
X158246428Y-78437380D01*
X158103571Y-78389761D01*
X158008333Y-78294523D01*
X157960714Y-78199285D01*
X157913095Y-78008809D01*
X157913095Y-77865952D01*
X157960714Y-77675476D01*
X158008333Y-77580238D01*
X158103571Y-77485000D01*
X158246428Y-77437380D01*
X158341666Y-77437380D01*
X158484523Y-77485000D01*
X158532142Y-77532619D01*
X159389285Y-77770714D02*
X159389285Y-78437380D01*
X159151190Y-77389761D02*
X158913095Y-78104047D01*
X159532142Y-78104047D01*
X159817857Y-77437380D02*
X160436904Y-77437380D01*
X160103571Y-77818333D01*
X160246428Y-77818333D01*
X160341666Y-77865952D01*
X160389285Y-77913571D01*
X160436904Y-78008809D01*
X160436904Y-78246904D01*
X160389285Y-78342142D01*
X160341666Y-78389761D01*
X160246428Y-78437380D01*
X159960714Y-78437380D01*
X159865476Y-78389761D01*
X159817857Y-78342142D01*
%TO.C,C42*%
X178427142Y-88742142D02*
X178379523Y-88789761D01*
X178236666Y-88837380D01*
X178141428Y-88837380D01*
X177998571Y-88789761D01*
X177903333Y-88694523D01*
X177855714Y-88599285D01*
X177808095Y-88408809D01*
X177808095Y-88265952D01*
X177855714Y-88075476D01*
X177903333Y-87980238D01*
X177998571Y-87885000D01*
X178141428Y-87837380D01*
X178236666Y-87837380D01*
X178379523Y-87885000D01*
X178427142Y-87932619D01*
X179284285Y-88170714D02*
X179284285Y-88837380D01*
X179046190Y-87789761D02*
X178808095Y-88504047D01*
X179427142Y-88504047D01*
X179760476Y-87932619D02*
X179808095Y-87885000D01*
X179903333Y-87837380D01*
X180141428Y-87837380D01*
X180236666Y-87885000D01*
X180284285Y-87932619D01*
X180331904Y-88027857D01*
X180331904Y-88123095D01*
X180284285Y-88265952D01*
X179712857Y-88837380D01*
X180331904Y-88837380D01*
%TO.C,C41*%
X158742142Y-87577142D02*
X158694523Y-87624761D01*
X158551666Y-87672380D01*
X158456428Y-87672380D01*
X158313571Y-87624761D01*
X158218333Y-87529523D01*
X158170714Y-87434285D01*
X158123095Y-87243809D01*
X158123095Y-87100952D01*
X158170714Y-86910476D01*
X158218333Y-86815238D01*
X158313571Y-86720000D01*
X158456428Y-86672380D01*
X158551666Y-86672380D01*
X158694523Y-86720000D01*
X158742142Y-86767619D01*
X159599285Y-87005714D02*
X159599285Y-87672380D01*
X159361190Y-86624761D02*
X159123095Y-87339047D01*
X159742142Y-87339047D01*
X160646904Y-87672380D02*
X160075476Y-87672380D01*
X160361190Y-87672380D02*
X160361190Y-86672380D01*
X160265952Y-86815238D01*
X160170714Y-86910476D01*
X160075476Y-86958095D01*
%TO.C,C40*%
X178427142Y-90937142D02*
X178379523Y-90984761D01*
X178236666Y-91032380D01*
X178141428Y-91032380D01*
X177998571Y-90984761D01*
X177903333Y-90889523D01*
X177855714Y-90794285D01*
X177808095Y-90603809D01*
X177808095Y-90460952D01*
X177855714Y-90270476D01*
X177903333Y-90175238D01*
X177998571Y-90080000D01*
X178141428Y-90032380D01*
X178236666Y-90032380D01*
X178379523Y-90080000D01*
X178427142Y-90127619D01*
X179284285Y-90365714D02*
X179284285Y-91032380D01*
X179046190Y-89984761D02*
X178808095Y-90699047D01*
X179427142Y-90699047D01*
X179998571Y-90032380D02*
X180093809Y-90032380D01*
X180189047Y-90080000D01*
X180236666Y-90127619D01*
X180284285Y-90222857D01*
X180331904Y-90413333D01*
X180331904Y-90651428D01*
X180284285Y-90841904D01*
X180236666Y-90937142D01*
X180189047Y-90984761D01*
X180093809Y-91032380D01*
X179998571Y-91032380D01*
X179903333Y-90984761D01*
X179855714Y-90937142D01*
X179808095Y-90841904D01*
X179760476Y-90651428D01*
X179760476Y-90413333D01*
X179808095Y-90222857D01*
X179855714Y-90127619D01*
X179903333Y-90080000D01*
X179998571Y-90032380D01*
%TO.C,C39*%
X158742142Y-90117142D02*
X158694523Y-90164761D01*
X158551666Y-90212380D01*
X158456428Y-90212380D01*
X158313571Y-90164761D01*
X158218333Y-90069523D01*
X158170714Y-89974285D01*
X158123095Y-89783809D01*
X158123095Y-89640952D01*
X158170714Y-89450476D01*
X158218333Y-89355238D01*
X158313571Y-89260000D01*
X158456428Y-89212380D01*
X158551666Y-89212380D01*
X158694523Y-89260000D01*
X158742142Y-89307619D01*
X159075476Y-89212380D02*
X159694523Y-89212380D01*
X159361190Y-89593333D01*
X159504047Y-89593333D01*
X159599285Y-89640952D01*
X159646904Y-89688571D01*
X159694523Y-89783809D01*
X159694523Y-90021904D01*
X159646904Y-90117142D01*
X159599285Y-90164761D01*
X159504047Y-90212380D01*
X159218333Y-90212380D01*
X159123095Y-90164761D01*
X159075476Y-90117142D01*
X160170714Y-90212380D02*
X160361190Y-90212380D01*
X160456428Y-90164761D01*
X160504047Y-90117142D01*
X160599285Y-89974285D01*
X160646904Y-89783809D01*
X160646904Y-89402857D01*
X160599285Y-89307619D01*
X160551666Y-89260000D01*
X160456428Y-89212380D01*
X160265952Y-89212380D01*
X160170714Y-89260000D01*
X160123095Y-89307619D01*
X160075476Y-89402857D01*
X160075476Y-89640952D01*
X160123095Y-89736190D01*
X160170714Y-89783809D01*
X160265952Y-89831428D01*
X160456428Y-89831428D01*
X160551666Y-89783809D01*
X160599285Y-89736190D01*
X160646904Y-89640952D01*
%TO.C,C38*%
X163822142Y-87577142D02*
X163774523Y-87624761D01*
X163631666Y-87672380D01*
X163536428Y-87672380D01*
X163393571Y-87624761D01*
X163298333Y-87529523D01*
X163250714Y-87434285D01*
X163203095Y-87243809D01*
X163203095Y-87100952D01*
X163250714Y-86910476D01*
X163298333Y-86815238D01*
X163393571Y-86720000D01*
X163536428Y-86672380D01*
X163631666Y-86672380D01*
X163774523Y-86720000D01*
X163822142Y-86767619D01*
X164155476Y-86672380D02*
X164774523Y-86672380D01*
X164441190Y-87053333D01*
X164584047Y-87053333D01*
X164679285Y-87100952D01*
X164726904Y-87148571D01*
X164774523Y-87243809D01*
X164774523Y-87481904D01*
X164726904Y-87577142D01*
X164679285Y-87624761D01*
X164584047Y-87672380D01*
X164298333Y-87672380D01*
X164203095Y-87624761D01*
X164155476Y-87577142D01*
X165345952Y-87100952D02*
X165250714Y-87053333D01*
X165203095Y-87005714D01*
X165155476Y-86910476D01*
X165155476Y-86862857D01*
X165203095Y-86767619D01*
X165250714Y-86720000D01*
X165345952Y-86672380D01*
X165536428Y-86672380D01*
X165631666Y-86720000D01*
X165679285Y-86767619D01*
X165726904Y-86862857D01*
X165726904Y-86910476D01*
X165679285Y-87005714D01*
X165631666Y-87053333D01*
X165536428Y-87100952D01*
X165345952Y-87100952D01*
X165250714Y-87148571D01*
X165203095Y-87196190D01*
X165155476Y-87291428D01*
X165155476Y-87481904D01*
X165203095Y-87577142D01*
X165250714Y-87624761D01*
X165345952Y-87672380D01*
X165536428Y-87672380D01*
X165631666Y-87624761D01*
X165679285Y-87577142D01*
X165726904Y-87481904D01*
X165726904Y-87291428D01*
X165679285Y-87196190D01*
X165631666Y-87148571D01*
X165536428Y-87100952D01*
%TO.C,C37*%
X173347142Y-90937142D02*
X173299523Y-90984761D01*
X173156666Y-91032380D01*
X173061428Y-91032380D01*
X172918571Y-90984761D01*
X172823333Y-90889523D01*
X172775714Y-90794285D01*
X172728095Y-90603809D01*
X172728095Y-90460952D01*
X172775714Y-90270476D01*
X172823333Y-90175238D01*
X172918571Y-90080000D01*
X173061428Y-90032380D01*
X173156666Y-90032380D01*
X173299523Y-90080000D01*
X173347142Y-90127619D01*
X173680476Y-90032380D02*
X174299523Y-90032380D01*
X173966190Y-90413333D01*
X174109047Y-90413333D01*
X174204285Y-90460952D01*
X174251904Y-90508571D01*
X174299523Y-90603809D01*
X174299523Y-90841904D01*
X174251904Y-90937142D01*
X174204285Y-90984761D01*
X174109047Y-91032380D01*
X173823333Y-91032380D01*
X173728095Y-90984761D01*
X173680476Y-90937142D01*
X174632857Y-90032380D02*
X175299523Y-90032380D01*
X174870952Y-91032380D01*
%TO.C,C36*%
X170807142Y-85037142D02*
X170759523Y-85084761D01*
X170616666Y-85132380D01*
X170521428Y-85132380D01*
X170378571Y-85084761D01*
X170283333Y-84989523D01*
X170235714Y-84894285D01*
X170188095Y-84703809D01*
X170188095Y-84560952D01*
X170235714Y-84370476D01*
X170283333Y-84275238D01*
X170378571Y-84180000D01*
X170521428Y-84132380D01*
X170616666Y-84132380D01*
X170759523Y-84180000D01*
X170807142Y-84227619D01*
X171140476Y-84132380D02*
X171759523Y-84132380D01*
X171426190Y-84513333D01*
X171569047Y-84513333D01*
X171664285Y-84560952D01*
X171711904Y-84608571D01*
X171759523Y-84703809D01*
X171759523Y-84941904D01*
X171711904Y-85037142D01*
X171664285Y-85084761D01*
X171569047Y-85132380D01*
X171283333Y-85132380D01*
X171188095Y-85084761D01*
X171140476Y-85037142D01*
X172616666Y-84132380D02*
X172426190Y-84132380D01*
X172330952Y-84180000D01*
X172283333Y-84227619D01*
X172188095Y-84370476D01*
X172140476Y-84560952D01*
X172140476Y-84941904D01*
X172188095Y-85037142D01*
X172235714Y-85084761D01*
X172330952Y-85132380D01*
X172521428Y-85132380D01*
X172616666Y-85084761D01*
X172664285Y-85037142D01*
X172711904Y-84941904D01*
X172711904Y-84703809D01*
X172664285Y-84608571D01*
X172616666Y-84560952D01*
X172521428Y-84513333D01*
X172330952Y-84513333D01*
X172235714Y-84560952D01*
X172188095Y-84608571D01*
X172140476Y-84703809D01*
%TO.C,C35*%
X166362142Y-88397142D02*
X166314523Y-88444761D01*
X166171666Y-88492380D01*
X166076428Y-88492380D01*
X165933571Y-88444761D01*
X165838333Y-88349523D01*
X165790714Y-88254285D01*
X165743095Y-88063809D01*
X165743095Y-87920952D01*
X165790714Y-87730476D01*
X165838333Y-87635238D01*
X165933571Y-87540000D01*
X166076428Y-87492380D01*
X166171666Y-87492380D01*
X166314523Y-87540000D01*
X166362142Y-87587619D01*
X166695476Y-87492380D02*
X167314523Y-87492380D01*
X166981190Y-87873333D01*
X167124047Y-87873333D01*
X167219285Y-87920952D01*
X167266904Y-87968571D01*
X167314523Y-88063809D01*
X167314523Y-88301904D01*
X167266904Y-88397142D01*
X167219285Y-88444761D01*
X167124047Y-88492380D01*
X166838333Y-88492380D01*
X166743095Y-88444761D01*
X166695476Y-88397142D01*
X168219285Y-87492380D02*
X167743095Y-87492380D01*
X167695476Y-87968571D01*
X167743095Y-87920952D01*
X167838333Y-87873333D01*
X168076428Y-87873333D01*
X168171666Y-87920952D01*
X168219285Y-87968571D01*
X168266904Y-88063809D01*
X168266904Y-88301904D01*
X168219285Y-88397142D01*
X168171666Y-88444761D01*
X168076428Y-88492380D01*
X167838333Y-88492380D01*
X167743095Y-88444761D01*
X167695476Y-88397142D01*
%TO.C,C34*%
X178659642Y-93477142D02*
X178612023Y-93524761D01*
X178469166Y-93572380D01*
X178373928Y-93572380D01*
X178231071Y-93524761D01*
X178135833Y-93429523D01*
X178088214Y-93334285D01*
X178040595Y-93143809D01*
X178040595Y-93000952D01*
X178088214Y-92810476D01*
X178135833Y-92715238D01*
X178231071Y-92620000D01*
X178373928Y-92572380D01*
X178469166Y-92572380D01*
X178612023Y-92620000D01*
X178659642Y-92667619D01*
X178992976Y-92572380D02*
X179612023Y-92572380D01*
X179278690Y-92953333D01*
X179421547Y-92953333D01*
X179516785Y-93000952D01*
X179564404Y-93048571D01*
X179612023Y-93143809D01*
X179612023Y-93381904D01*
X179564404Y-93477142D01*
X179516785Y-93524761D01*
X179421547Y-93572380D01*
X179135833Y-93572380D01*
X179040595Y-93524761D01*
X178992976Y-93477142D01*
X180469166Y-92905714D02*
X180469166Y-93572380D01*
X180231071Y-92524761D02*
X179992976Y-93239047D01*
X180612023Y-93239047D01*
%TO.C,C33*%
X177112142Y-95892857D02*
X177159761Y-95940476D01*
X177207380Y-96083333D01*
X177207380Y-96178571D01*
X177159761Y-96321428D01*
X177064523Y-96416666D01*
X176969285Y-96464285D01*
X176778809Y-96511904D01*
X176635952Y-96511904D01*
X176445476Y-96464285D01*
X176350238Y-96416666D01*
X176255000Y-96321428D01*
X176207380Y-96178571D01*
X176207380Y-96083333D01*
X176255000Y-95940476D01*
X176302619Y-95892857D01*
X176207380Y-95559523D02*
X176207380Y-94940476D01*
X176588333Y-95273809D01*
X176588333Y-95130952D01*
X176635952Y-95035714D01*
X176683571Y-94988095D01*
X176778809Y-94940476D01*
X177016904Y-94940476D01*
X177112142Y-94988095D01*
X177159761Y-95035714D01*
X177207380Y-95130952D01*
X177207380Y-95416666D01*
X177159761Y-95511904D01*
X177112142Y-95559523D01*
X176207380Y-94607142D02*
X176207380Y-93988095D01*
X176588333Y-94321428D01*
X176588333Y-94178571D01*
X176635952Y-94083333D01*
X176683571Y-94035714D01*
X176778809Y-93988095D01*
X177016904Y-93988095D01*
X177112142Y-94035714D01*
X177159761Y-94083333D01*
X177207380Y-94178571D01*
X177207380Y-94464285D01*
X177159761Y-94559523D01*
X177112142Y-94607142D01*
%TO.C,C32*%
X177932142Y-95892857D02*
X177979761Y-95940476D01*
X178027380Y-96083333D01*
X178027380Y-96178571D01*
X177979761Y-96321428D01*
X177884523Y-96416666D01*
X177789285Y-96464285D01*
X177598809Y-96511904D01*
X177455952Y-96511904D01*
X177265476Y-96464285D01*
X177170238Y-96416666D01*
X177075000Y-96321428D01*
X177027380Y-96178571D01*
X177027380Y-96083333D01*
X177075000Y-95940476D01*
X177122619Y-95892857D01*
X177027380Y-95559523D02*
X177027380Y-94940476D01*
X177408333Y-95273809D01*
X177408333Y-95130952D01*
X177455952Y-95035714D01*
X177503571Y-94988095D01*
X177598809Y-94940476D01*
X177836904Y-94940476D01*
X177932142Y-94988095D01*
X177979761Y-95035714D01*
X178027380Y-95130952D01*
X178027380Y-95416666D01*
X177979761Y-95511904D01*
X177932142Y-95559523D01*
X177122619Y-94559523D02*
X177075000Y-94511904D01*
X177027380Y-94416666D01*
X177027380Y-94178571D01*
X177075000Y-94083333D01*
X177122619Y-94035714D01*
X177217857Y-93988095D01*
X177313095Y-93988095D01*
X177455952Y-94035714D01*
X178027380Y-94607142D01*
X178027380Y-93988095D01*
%TO.C,C31*%
X176522142Y-97737142D02*
X176474523Y-97784761D01*
X176331666Y-97832380D01*
X176236428Y-97832380D01*
X176093571Y-97784761D01*
X175998333Y-97689523D01*
X175950714Y-97594285D01*
X175903095Y-97403809D01*
X175903095Y-97260952D01*
X175950714Y-97070476D01*
X175998333Y-96975238D01*
X176093571Y-96880000D01*
X176236428Y-96832380D01*
X176331666Y-96832380D01*
X176474523Y-96880000D01*
X176522142Y-96927619D01*
X176855476Y-96832380D02*
X177474523Y-96832380D01*
X177141190Y-97213333D01*
X177284047Y-97213333D01*
X177379285Y-97260952D01*
X177426904Y-97308571D01*
X177474523Y-97403809D01*
X177474523Y-97641904D01*
X177426904Y-97737142D01*
X177379285Y-97784761D01*
X177284047Y-97832380D01*
X176998333Y-97832380D01*
X176903095Y-97784761D01*
X176855476Y-97737142D01*
X178426904Y-97832380D02*
X177855476Y-97832380D01*
X178141190Y-97832380D02*
X178141190Y-96832380D01*
X178045952Y-96975238D01*
X177950714Y-97070476D01*
X177855476Y-97118095D01*
%TO.C,C30*%
X165232142Y-102877857D02*
X165279761Y-102925476D01*
X165327380Y-103068333D01*
X165327380Y-103163571D01*
X165279761Y-103306428D01*
X165184523Y-103401666D01*
X165089285Y-103449285D01*
X164898809Y-103496904D01*
X164755952Y-103496904D01*
X164565476Y-103449285D01*
X164470238Y-103401666D01*
X164375000Y-103306428D01*
X164327380Y-103163571D01*
X164327380Y-103068333D01*
X164375000Y-102925476D01*
X164422619Y-102877857D01*
X164327380Y-102544523D02*
X164327380Y-101925476D01*
X164708333Y-102258809D01*
X164708333Y-102115952D01*
X164755952Y-102020714D01*
X164803571Y-101973095D01*
X164898809Y-101925476D01*
X165136904Y-101925476D01*
X165232142Y-101973095D01*
X165279761Y-102020714D01*
X165327380Y-102115952D01*
X165327380Y-102401666D01*
X165279761Y-102496904D01*
X165232142Y-102544523D01*
X164327380Y-101306428D02*
X164327380Y-101211190D01*
X164375000Y-101115952D01*
X164422619Y-101068333D01*
X164517857Y-101020714D01*
X164708333Y-100973095D01*
X164946428Y-100973095D01*
X165136904Y-101020714D01*
X165232142Y-101068333D01*
X165279761Y-101115952D01*
X165327380Y-101211190D01*
X165327380Y-101306428D01*
X165279761Y-101401666D01*
X165232142Y-101449285D01*
X165136904Y-101496904D01*
X164946428Y-101544523D01*
X164708333Y-101544523D01*
X164517857Y-101496904D01*
X164422619Y-101449285D01*
X164375000Y-101401666D01*
X164327380Y-101306428D01*
%TO.C,C29*%
X177932142Y-102877857D02*
X177979761Y-102925476D01*
X178027380Y-103068333D01*
X178027380Y-103163571D01*
X177979761Y-103306428D01*
X177884523Y-103401666D01*
X177789285Y-103449285D01*
X177598809Y-103496904D01*
X177455952Y-103496904D01*
X177265476Y-103449285D01*
X177170238Y-103401666D01*
X177075000Y-103306428D01*
X177027380Y-103163571D01*
X177027380Y-103068333D01*
X177075000Y-102925476D01*
X177122619Y-102877857D01*
X177122619Y-102496904D02*
X177075000Y-102449285D01*
X177027380Y-102354047D01*
X177027380Y-102115952D01*
X177075000Y-102020714D01*
X177122619Y-101973095D01*
X177217857Y-101925476D01*
X177313095Y-101925476D01*
X177455952Y-101973095D01*
X178027380Y-102544523D01*
X178027380Y-101925476D01*
X178027380Y-101449285D02*
X178027380Y-101258809D01*
X177979761Y-101163571D01*
X177932142Y-101115952D01*
X177789285Y-101020714D01*
X177598809Y-100973095D01*
X177217857Y-100973095D01*
X177122619Y-101020714D01*
X177075000Y-101068333D01*
X177027380Y-101163571D01*
X177027380Y-101354047D01*
X177075000Y-101449285D01*
X177122619Y-101496904D01*
X177217857Y-101544523D01*
X177455952Y-101544523D01*
X177551190Y-101496904D01*
X177598809Y-101449285D01*
X177646428Y-101354047D01*
X177646428Y-101163571D01*
X177598809Y-101068333D01*
X177551190Y-101020714D01*
X177455952Y-100973095D01*
%TO.C,C28*%
X167772142Y-102877857D02*
X167819761Y-102925476D01*
X167867380Y-103068333D01*
X167867380Y-103163571D01*
X167819761Y-103306428D01*
X167724523Y-103401666D01*
X167629285Y-103449285D01*
X167438809Y-103496904D01*
X167295952Y-103496904D01*
X167105476Y-103449285D01*
X167010238Y-103401666D01*
X166915000Y-103306428D01*
X166867380Y-103163571D01*
X166867380Y-103068333D01*
X166915000Y-102925476D01*
X166962619Y-102877857D01*
X166962619Y-102496904D02*
X166915000Y-102449285D01*
X166867380Y-102354047D01*
X166867380Y-102115952D01*
X166915000Y-102020714D01*
X166962619Y-101973095D01*
X167057857Y-101925476D01*
X167153095Y-101925476D01*
X167295952Y-101973095D01*
X167867380Y-102544523D01*
X167867380Y-101925476D01*
X167295952Y-101354047D02*
X167248333Y-101449285D01*
X167200714Y-101496904D01*
X167105476Y-101544523D01*
X167057857Y-101544523D01*
X166962619Y-101496904D01*
X166915000Y-101449285D01*
X166867380Y-101354047D01*
X166867380Y-101163571D01*
X166915000Y-101068333D01*
X166962619Y-101020714D01*
X167057857Y-100973095D01*
X167105476Y-100973095D01*
X167200714Y-101020714D01*
X167248333Y-101068333D01*
X167295952Y-101163571D01*
X167295952Y-101354047D01*
X167343571Y-101449285D01*
X167391190Y-101496904D01*
X167486428Y-101544523D01*
X167676904Y-101544523D01*
X167772142Y-101496904D01*
X167819761Y-101449285D01*
X167867380Y-101354047D01*
X167867380Y-101163571D01*
X167819761Y-101068333D01*
X167772142Y-101020714D01*
X167676904Y-100973095D01*
X167486428Y-100973095D01*
X167391190Y-101020714D01*
X167343571Y-101068333D01*
X167295952Y-101163571D01*
%TO.C,C27*%
X102367142Y-70492857D02*
X102414761Y-70540476D01*
X102462380Y-70683333D01*
X102462380Y-70778571D01*
X102414761Y-70921428D01*
X102319523Y-71016666D01*
X102224285Y-71064285D01*
X102033809Y-71111904D01*
X101890952Y-71111904D01*
X101700476Y-71064285D01*
X101605238Y-71016666D01*
X101510000Y-70921428D01*
X101462380Y-70778571D01*
X101462380Y-70683333D01*
X101510000Y-70540476D01*
X101557619Y-70492857D01*
X101557619Y-70111904D02*
X101510000Y-70064285D01*
X101462380Y-69969047D01*
X101462380Y-69730952D01*
X101510000Y-69635714D01*
X101557619Y-69588095D01*
X101652857Y-69540476D01*
X101748095Y-69540476D01*
X101890952Y-69588095D01*
X102462380Y-70159523D01*
X102462380Y-69540476D01*
X101462380Y-69207142D02*
X101462380Y-68540476D01*
X102462380Y-68969047D01*
%TO.C,C26*%
X82682142Y-70492857D02*
X82729761Y-70540476D01*
X82777380Y-70683333D01*
X82777380Y-70778571D01*
X82729761Y-70921428D01*
X82634523Y-71016666D01*
X82539285Y-71064285D01*
X82348809Y-71111904D01*
X82205952Y-71111904D01*
X82015476Y-71064285D01*
X81920238Y-71016666D01*
X81825000Y-70921428D01*
X81777380Y-70778571D01*
X81777380Y-70683333D01*
X81825000Y-70540476D01*
X81872619Y-70492857D01*
X81872619Y-70111904D02*
X81825000Y-70064285D01*
X81777380Y-69969047D01*
X81777380Y-69730952D01*
X81825000Y-69635714D01*
X81872619Y-69588095D01*
X81967857Y-69540476D01*
X82063095Y-69540476D01*
X82205952Y-69588095D01*
X82777380Y-70159523D01*
X82777380Y-69540476D01*
X81777380Y-68683333D02*
X81777380Y-68873809D01*
X81825000Y-68969047D01*
X81872619Y-69016666D01*
X82015476Y-69111904D01*
X82205952Y-69159523D01*
X82586904Y-69159523D01*
X82682142Y-69111904D01*
X82729761Y-69064285D01*
X82777380Y-68969047D01*
X82777380Y-68778571D01*
X82729761Y-68683333D01*
X82682142Y-68635714D01*
X82586904Y-68588095D01*
X82348809Y-68588095D01*
X82253571Y-68635714D01*
X82205952Y-68683333D01*
X82158333Y-68778571D01*
X82158333Y-68969047D01*
X82205952Y-69064285D01*
X82253571Y-69111904D01*
X82348809Y-69159523D01*
%TO.C,C25*%
X214127142Y-70492857D02*
X214174761Y-70540476D01*
X214222380Y-70683333D01*
X214222380Y-70778571D01*
X214174761Y-70921428D01*
X214079523Y-71016666D01*
X213984285Y-71064285D01*
X213793809Y-71111904D01*
X213650952Y-71111904D01*
X213460476Y-71064285D01*
X213365238Y-71016666D01*
X213270000Y-70921428D01*
X213222380Y-70778571D01*
X213222380Y-70683333D01*
X213270000Y-70540476D01*
X213317619Y-70492857D01*
X213317619Y-70111904D02*
X213270000Y-70064285D01*
X213222380Y-69969047D01*
X213222380Y-69730952D01*
X213270000Y-69635714D01*
X213317619Y-69588095D01*
X213412857Y-69540476D01*
X213508095Y-69540476D01*
X213650952Y-69588095D01*
X214222380Y-70159523D01*
X214222380Y-69540476D01*
X213222380Y-68635714D02*
X213222380Y-69111904D01*
X213698571Y-69159523D01*
X213650952Y-69111904D01*
X213603333Y-69016666D01*
X213603333Y-68778571D01*
X213650952Y-68683333D01*
X213698571Y-68635714D01*
X213793809Y-68588095D01*
X214031904Y-68588095D01*
X214127142Y-68635714D01*
X214174761Y-68683333D01*
X214222380Y-68778571D01*
X214222380Y-69016666D01*
X214174761Y-69111904D01*
X214127142Y-69159523D01*
%TO.C,C24*%
X194442142Y-70492857D02*
X194489761Y-70540476D01*
X194537380Y-70683333D01*
X194537380Y-70778571D01*
X194489761Y-70921428D01*
X194394523Y-71016666D01*
X194299285Y-71064285D01*
X194108809Y-71111904D01*
X193965952Y-71111904D01*
X193775476Y-71064285D01*
X193680238Y-71016666D01*
X193585000Y-70921428D01*
X193537380Y-70778571D01*
X193537380Y-70683333D01*
X193585000Y-70540476D01*
X193632619Y-70492857D01*
X193632619Y-70111904D02*
X193585000Y-70064285D01*
X193537380Y-69969047D01*
X193537380Y-69730952D01*
X193585000Y-69635714D01*
X193632619Y-69588095D01*
X193727857Y-69540476D01*
X193823095Y-69540476D01*
X193965952Y-69588095D01*
X194537380Y-70159523D01*
X194537380Y-69540476D01*
X193870714Y-68683333D02*
X194537380Y-68683333D01*
X193489761Y-68921428D02*
X194204047Y-69159523D01*
X194204047Y-68540476D01*
%TO.C,C23*%
X102367142Y-78112857D02*
X102414761Y-78160476D01*
X102462380Y-78303333D01*
X102462380Y-78398571D01*
X102414761Y-78541428D01*
X102319523Y-78636666D01*
X102224285Y-78684285D01*
X102033809Y-78731904D01*
X101890952Y-78731904D01*
X101700476Y-78684285D01*
X101605238Y-78636666D01*
X101510000Y-78541428D01*
X101462380Y-78398571D01*
X101462380Y-78303333D01*
X101510000Y-78160476D01*
X101557619Y-78112857D01*
X101557619Y-77731904D02*
X101510000Y-77684285D01*
X101462380Y-77589047D01*
X101462380Y-77350952D01*
X101510000Y-77255714D01*
X101557619Y-77208095D01*
X101652857Y-77160476D01*
X101748095Y-77160476D01*
X101890952Y-77208095D01*
X102462380Y-77779523D01*
X102462380Y-77160476D01*
X101462380Y-76827142D02*
X101462380Y-76208095D01*
X101843333Y-76541428D01*
X101843333Y-76398571D01*
X101890952Y-76303333D01*
X101938571Y-76255714D01*
X102033809Y-76208095D01*
X102271904Y-76208095D01*
X102367142Y-76255714D01*
X102414761Y-76303333D01*
X102462380Y-76398571D01*
X102462380Y-76684285D01*
X102414761Y-76779523D01*
X102367142Y-76827142D01*
%TO.C,C22*%
X82682142Y-77477857D02*
X82729761Y-77525476D01*
X82777380Y-77668333D01*
X82777380Y-77763571D01*
X82729761Y-77906428D01*
X82634523Y-78001666D01*
X82539285Y-78049285D01*
X82348809Y-78096904D01*
X82205952Y-78096904D01*
X82015476Y-78049285D01*
X81920238Y-78001666D01*
X81825000Y-77906428D01*
X81777380Y-77763571D01*
X81777380Y-77668333D01*
X81825000Y-77525476D01*
X81872619Y-77477857D01*
X81872619Y-77096904D02*
X81825000Y-77049285D01*
X81777380Y-76954047D01*
X81777380Y-76715952D01*
X81825000Y-76620714D01*
X81872619Y-76573095D01*
X81967857Y-76525476D01*
X82063095Y-76525476D01*
X82205952Y-76573095D01*
X82777380Y-77144523D01*
X82777380Y-76525476D01*
X81872619Y-76144523D02*
X81825000Y-76096904D01*
X81777380Y-76001666D01*
X81777380Y-75763571D01*
X81825000Y-75668333D01*
X81872619Y-75620714D01*
X81967857Y-75573095D01*
X82063095Y-75573095D01*
X82205952Y-75620714D01*
X82777380Y-76192142D01*
X82777380Y-75573095D01*
%TO.C,C21*%
X214127142Y-77477857D02*
X214174761Y-77525476D01*
X214222380Y-77668333D01*
X214222380Y-77763571D01*
X214174761Y-77906428D01*
X214079523Y-78001666D01*
X213984285Y-78049285D01*
X213793809Y-78096904D01*
X213650952Y-78096904D01*
X213460476Y-78049285D01*
X213365238Y-78001666D01*
X213270000Y-77906428D01*
X213222380Y-77763571D01*
X213222380Y-77668333D01*
X213270000Y-77525476D01*
X213317619Y-77477857D01*
X213317619Y-77096904D02*
X213270000Y-77049285D01*
X213222380Y-76954047D01*
X213222380Y-76715952D01*
X213270000Y-76620714D01*
X213317619Y-76573095D01*
X213412857Y-76525476D01*
X213508095Y-76525476D01*
X213650952Y-76573095D01*
X214222380Y-77144523D01*
X214222380Y-76525476D01*
X214222380Y-75573095D02*
X214222380Y-76144523D01*
X214222380Y-75858809D02*
X213222380Y-75858809D01*
X213365238Y-75954047D01*
X213460476Y-76049285D01*
X213508095Y-76144523D01*
%TO.C,C20*%
X194442142Y-77477857D02*
X194489761Y-77525476D01*
X194537380Y-77668333D01*
X194537380Y-77763571D01*
X194489761Y-77906428D01*
X194394523Y-78001666D01*
X194299285Y-78049285D01*
X194108809Y-78096904D01*
X193965952Y-78096904D01*
X193775476Y-78049285D01*
X193680238Y-78001666D01*
X193585000Y-77906428D01*
X193537380Y-77763571D01*
X193537380Y-77668333D01*
X193585000Y-77525476D01*
X193632619Y-77477857D01*
X193632619Y-77096904D02*
X193585000Y-77049285D01*
X193537380Y-76954047D01*
X193537380Y-76715952D01*
X193585000Y-76620714D01*
X193632619Y-76573095D01*
X193727857Y-76525476D01*
X193823095Y-76525476D01*
X193965952Y-76573095D01*
X194537380Y-77144523D01*
X194537380Y-76525476D01*
X193537380Y-75906428D02*
X193537380Y-75811190D01*
X193585000Y-75715952D01*
X193632619Y-75668333D01*
X193727857Y-75620714D01*
X193918333Y-75573095D01*
X194156428Y-75573095D01*
X194346904Y-75620714D01*
X194442142Y-75668333D01*
X194489761Y-75715952D01*
X194537380Y-75811190D01*
X194537380Y-75906428D01*
X194489761Y-76001666D01*
X194442142Y-76049285D01*
X194346904Y-76096904D01*
X194156428Y-76144523D01*
X193918333Y-76144523D01*
X193727857Y-76096904D01*
X193632619Y-76049285D01*
X193585000Y-76001666D01*
X193537380Y-75906428D01*
%TO.C,C19*%
X194442142Y-84462857D02*
X194489761Y-84510476D01*
X194537380Y-84653333D01*
X194537380Y-84748571D01*
X194489761Y-84891428D01*
X194394523Y-84986666D01*
X194299285Y-85034285D01*
X194108809Y-85081904D01*
X193965952Y-85081904D01*
X193775476Y-85034285D01*
X193680238Y-84986666D01*
X193585000Y-84891428D01*
X193537380Y-84748571D01*
X193537380Y-84653333D01*
X193585000Y-84510476D01*
X193632619Y-84462857D01*
X194537380Y-83510476D02*
X194537380Y-84081904D01*
X194537380Y-83796190D02*
X193537380Y-83796190D01*
X193680238Y-83891428D01*
X193775476Y-83986666D01*
X193823095Y-84081904D01*
X194537380Y-83034285D02*
X194537380Y-82843809D01*
X194489761Y-82748571D01*
X194442142Y-82700952D01*
X194299285Y-82605714D01*
X194108809Y-82558095D01*
X193727857Y-82558095D01*
X193632619Y-82605714D01*
X193585000Y-82653333D01*
X193537380Y-82748571D01*
X193537380Y-82939047D01*
X193585000Y-83034285D01*
X193632619Y-83081904D01*
X193727857Y-83129523D01*
X193965952Y-83129523D01*
X194061190Y-83081904D01*
X194108809Y-83034285D01*
X194156428Y-82939047D01*
X194156428Y-82748571D01*
X194108809Y-82653333D01*
X194061190Y-82605714D01*
X193965952Y-82558095D01*
%TO.C,C18*%
X102367142Y-84462857D02*
X102414761Y-84510476D01*
X102462380Y-84653333D01*
X102462380Y-84748571D01*
X102414761Y-84891428D01*
X102319523Y-84986666D01*
X102224285Y-85034285D01*
X102033809Y-85081904D01*
X101890952Y-85081904D01*
X101700476Y-85034285D01*
X101605238Y-84986666D01*
X101510000Y-84891428D01*
X101462380Y-84748571D01*
X101462380Y-84653333D01*
X101510000Y-84510476D01*
X101557619Y-84462857D01*
X102462380Y-83510476D02*
X102462380Y-84081904D01*
X102462380Y-83796190D02*
X101462380Y-83796190D01*
X101605238Y-83891428D01*
X101700476Y-83986666D01*
X101748095Y-84081904D01*
X101890952Y-82939047D02*
X101843333Y-83034285D01*
X101795714Y-83081904D01*
X101700476Y-83129523D01*
X101652857Y-83129523D01*
X101557619Y-83081904D01*
X101510000Y-83034285D01*
X101462380Y-82939047D01*
X101462380Y-82748571D01*
X101510000Y-82653333D01*
X101557619Y-82605714D01*
X101652857Y-82558095D01*
X101700476Y-82558095D01*
X101795714Y-82605714D01*
X101843333Y-82653333D01*
X101890952Y-82748571D01*
X101890952Y-82939047D01*
X101938571Y-83034285D01*
X101986190Y-83081904D01*
X102081428Y-83129523D01*
X102271904Y-83129523D01*
X102367142Y-83081904D01*
X102414761Y-83034285D01*
X102462380Y-82939047D01*
X102462380Y-82748571D01*
X102414761Y-82653333D01*
X102367142Y-82605714D01*
X102271904Y-82558095D01*
X102081428Y-82558095D01*
X101986190Y-82605714D01*
X101938571Y-82653333D01*
X101890952Y-82748571D01*
%TO.C,C17*%
X82682142Y-84462857D02*
X82729761Y-84510476D01*
X82777380Y-84653333D01*
X82777380Y-84748571D01*
X82729761Y-84891428D01*
X82634523Y-84986666D01*
X82539285Y-85034285D01*
X82348809Y-85081904D01*
X82205952Y-85081904D01*
X82015476Y-85034285D01*
X81920238Y-84986666D01*
X81825000Y-84891428D01*
X81777380Y-84748571D01*
X81777380Y-84653333D01*
X81825000Y-84510476D01*
X81872619Y-84462857D01*
X82777380Y-83510476D02*
X82777380Y-84081904D01*
X82777380Y-83796190D02*
X81777380Y-83796190D01*
X81920238Y-83891428D01*
X82015476Y-83986666D01*
X82063095Y-84081904D01*
X81777380Y-83177142D02*
X81777380Y-82510476D01*
X82777380Y-82939047D01*
%TO.C,C16*%
X214127142Y-84462857D02*
X214174761Y-84510476D01*
X214222380Y-84653333D01*
X214222380Y-84748571D01*
X214174761Y-84891428D01*
X214079523Y-84986666D01*
X213984285Y-85034285D01*
X213793809Y-85081904D01*
X213650952Y-85081904D01*
X213460476Y-85034285D01*
X213365238Y-84986666D01*
X213270000Y-84891428D01*
X213222380Y-84748571D01*
X213222380Y-84653333D01*
X213270000Y-84510476D01*
X213317619Y-84462857D01*
X214222380Y-83510476D02*
X214222380Y-84081904D01*
X214222380Y-83796190D02*
X213222380Y-83796190D01*
X213365238Y-83891428D01*
X213460476Y-83986666D01*
X213508095Y-84081904D01*
X213222380Y-82653333D02*
X213222380Y-82843809D01*
X213270000Y-82939047D01*
X213317619Y-82986666D01*
X213460476Y-83081904D01*
X213650952Y-83129523D01*
X214031904Y-83129523D01*
X214127142Y-83081904D01*
X214174761Y-83034285D01*
X214222380Y-82939047D01*
X214222380Y-82748571D01*
X214174761Y-82653333D01*
X214127142Y-82605714D01*
X214031904Y-82558095D01*
X213793809Y-82558095D01*
X213698571Y-82605714D01*
X213650952Y-82653333D01*
X213603333Y-82748571D01*
X213603333Y-82939047D01*
X213650952Y-83034285D01*
X213698571Y-83081904D01*
X213793809Y-83129523D01*
%TO.C,C15*%
X102367142Y-91447857D02*
X102414761Y-91495476D01*
X102462380Y-91638333D01*
X102462380Y-91733571D01*
X102414761Y-91876428D01*
X102319523Y-91971666D01*
X102224285Y-92019285D01*
X102033809Y-92066904D01*
X101890952Y-92066904D01*
X101700476Y-92019285D01*
X101605238Y-91971666D01*
X101510000Y-91876428D01*
X101462380Y-91733571D01*
X101462380Y-91638333D01*
X101510000Y-91495476D01*
X101557619Y-91447857D01*
X102462380Y-90495476D02*
X102462380Y-91066904D01*
X102462380Y-90781190D02*
X101462380Y-90781190D01*
X101605238Y-90876428D01*
X101700476Y-90971666D01*
X101748095Y-91066904D01*
X101462380Y-89590714D02*
X101462380Y-90066904D01*
X101938571Y-90114523D01*
X101890952Y-90066904D01*
X101843333Y-89971666D01*
X101843333Y-89733571D01*
X101890952Y-89638333D01*
X101938571Y-89590714D01*
X102033809Y-89543095D01*
X102271904Y-89543095D01*
X102367142Y-89590714D01*
X102414761Y-89638333D01*
X102462380Y-89733571D01*
X102462380Y-89971666D01*
X102414761Y-90066904D01*
X102367142Y-90114523D01*
%TO.C,C14*%
X82682142Y-91447857D02*
X82729761Y-91495476D01*
X82777380Y-91638333D01*
X82777380Y-91733571D01*
X82729761Y-91876428D01*
X82634523Y-91971666D01*
X82539285Y-92019285D01*
X82348809Y-92066904D01*
X82205952Y-92066904D01*
X82015476Y-92019285D01*
X81920238Y-91971666D01*
X81825000Y-91876428D01*
X81777380Y-91733571D01*
X81777380Y-91638333D01*
X81825000Y-91495476D01*
X81872619Y-91447857D01*
X82777380Y-90495476D02*
X82777380Y-91066904D01*
X82777380Y-90781190D02*
X81777380Y-90781190D01*
X81920238Y-90876428D01*
X82015476Y-90971666D01*
X82063095Y-91066904D01*
X82110714Y-89638333D02*
X82777380Y-89638333D01*
X81729761Y-89876428D02*
X82444047Y-90114523D01*
X82444047Y-89495476D01*
%TO.C,C13*%
X214127142Y-91447857D02*
X214174761Y-91495476D01*
X214222380Y-91638333D01*
X214222380Y-91733571D01*
X214174761Y-91876428D01*
X214079523Y-91971666D01*
X213984285Y-92019285D01*
X213793809Y-92066904D01*
X213650952Y-92066904D01*
X213460476Y-92019285D01*
X213365238Y-91971666D01*
X213270000Y-91876428D01*
X213222380Y-91733571D01*
X213222380Y-91638333D01*
X213270000Y-91495476D01*
X213317619Y-91447857D01*
X214222380Y-90495476D02*
X214222380Y-91066904D01*
X214222380Y-90781190D02*
X213222380Y-90781190D01*
X213365238Y-90876428D01*
X213460476Y-90971666D01*
X213508095Y-91066904D01*
X213222380Y-90162142D02*
X213222380Y-89543095D01*
X213603333Y-89876428D01*
X213603333Y-89733571D01*
X213650952Y-89638333D01*
X213698571Y-89590714D01*
X213793809Y-89543095D01*
X214031904Y-89543095D01*
X214127142Y-89590714D01*
X214174761Y-89638333D01*
X214222380Y-89733571D01*
X214222380Y-90019285D01*
X214174761Y-90114523D01*
X214127142Y-90162142D01*
%TO.C,C12*%
X194442142Y-91447857D02*
X194489761Y-91495476D01*
X194537380Y-91638333D01*
X194537380Y-91733571D01*
X194489761Y-91876428D01*
X194394523Y-91971666D01*
X194299285Y-92019285D01*
X194108809Y-92066904D01*
X193965952Y-92066904D01*
X193775476Y-92019285D01*
X193680238Y-91971666D01*
X193585000Y-91876428D01*
X193537380Y-91733571D01*
X193537380Y-91638333D01*
X193585000Y-91495476D01*
X193632619Y-91447857D01*
X194537380Y-90495476D02*
X194537380Y-91066904D01*
X194537380Y-90781190D02*
X193537380Y-90781190D01*
X193680238Y-90876428D01*
X193775476Y-90971666D01*
X193823095Y-91066904D01*
X193632619Y-90114523D02*
X193585000Y-90066904D01*
X193537380Y-89971666D01*
X193537380Y-89733571D01*
X193585000Y-89638333D01*
X193632619Y-89590714D01*
X193727857Y-89543095D01*
X193823095Y-89543095D01*
X193965952Y-89590714D01*
X194537380Y-90162142D01*
X194537380Y-89543095D01*
%TO.C,C11*%
X102367142Y-98432857D02*
X102414761Y-98480476D01*
X102462380Y-98623333D01*
X102462380Y-98718571D01*
X102414761Y-98861428D01*
X102319523Y-98956666D01*
X102224285Y-99004285D01*
X102033809Y-99051904D01*
X101890952Y-99051904D01*
X101700476Y-99004285D01*
X101605238Y-98956666D01*
X101510000Y-98861428D01*
X101462380Y-98718571D01*
X101462380Y-98623333D01*
X101510000Y-98480476D01*
X101557619Y-98432857D01*
X102462380Y-97480476D02*
X102462380Y-98051904D01*
X102462380Y-97766190D02*
X101462380Y-97766190D01*
X101605238Y-97861428D01*
X101700476Y-97956666D01*
X101748095Y-98051904D01*
X102462380Y-96528095D02*
X102462380Y-97099523D01*
X102462380Y-96813809D02*
X101462380Y-96813809D01*
X101605238Y-96909047D01*
X101700476Y-97004285D01*
X101748095Y-97099523D01*
%TO.C,c10*%
X172899761Y-56594285D02*
X172947380Y-56689523D01*
X172947380Y-56880000D01*
X172899761Y-56975238D01*
X172852142Y-57022857D01*
X172756904Y-57070476D01*
X172471190Y-57070476D01*
X172375952Y-57022857D01*
X172328333Y-56975238D01*
X172280714Y-56880000D01*
X172280714Y-56689523D01*
X172328333Y-56594285D01*
X172947380Y-55641904D02*
X172947380Y-56213333D01*
X172947380Y-55927619D02*
X171947380Y-55927619D01*
X172090238Y-56022857D01*
X172185476Y-56118095D01*
X172233095Y-56213333D01*
X171947380Y-55022857D02*
X171947380Y-54927619D01*
X171995000Y-54832380D01*
X172042619Y-54784761D01*
X172137857Y-54737142D01*
X172328333Y-54689523D01*
X172566428Y-54689523D01*
X172756904Y-54737142D01*
X172852142Y-54784761D01*
X172899761Y-54832380D01*
X172947380Y-54927619D01*
X172947380Y-55022857D01*
X172899761Y-55118095D01*
X172852142Y-55165714D01*
X172756904Y-55213333D01*
X172566428Y-55260952D01*
X172328333Y-55260952D01*
X172137857Y-55213333D01*
X172042619Y-55165714D01*
X171995000Y-55118095D01*
X171947380Y-55022857D01*
%TO.C,C10*%
X82682142Y-98432857D02*
X82729761Y-98480476D01*
X82777380Y-98623333D01*
X82777380Y-98718571D01*
X82729761Y-98861428D01*
X82634523Y-98956666D01*
X82539285Y-99004285D01*
X82348809Y-99051904D01*
X82205952Y-99051904D01*
X82015476Y-99004285D01*
X81920238Y-98956666D01*
X81825000Y-98861428D01*
X81777380Y-98718571D01*
X81777380Y-98623333D01*
X81825000Y-98480476D01*
X81872619Y-98432857D01*
X82777380Y-97480476D02*
X82777380Y-98051904D01*
X82777380Y-97766190D02*
X81777380Y-97766190D01*
X81920238Y-97861428D01*
X82015476Y-97956666D01*
X82063095Y-98051904D01*
X81777380Y-96861428D02*
X81777380Y-96766190D01*
X81825000Y-96670952D01*
X81872619Y-96623333D01*
X81967857Y-96575714D01*
X82158333Y-96528095D01*
X82396428Y-96528095D01*
X82586904Y-96575714D01*
X82682142Y-96623333D01*
X82729761Y-96670952D01*
X82777380Y-96766190D01*
X82777380Y-96861428D01*
X82729761Y-96956666D01*
X82682142Y-97004285D01*
X82586904Y-97051904D01*
X82396428Y-97099523D01*
X82158333Y-97099523D01*
X81967857Y-97051904D01*
X81872619Y-97004285D01*
X81825000Y-96956666D01*
X81777380Y-96861428D01*
%TO.C,c9*%
X176926904Y-49524761D02*
X176831666Y-49572380D01*
X176641190Y-49572380D01*
X176545952Y-49524761D01*
X176498333Y-49477142D01*
X176450714Y-49381904D01*
X176450714Y-49096190D01*
X176498333Y-49000952D01*
X176545952Y-48953333D01*
X176641190Y-48905714D01*
X176831666Y-48905714D01*
X176926904Y-48953333D01*
X177403095Y-49572380D02*
X177593571Y-49572380D01*
X177688809Y-49524761D01*
X177736428Y-49477142D01*
X177831666Y-49334285D01*
X177879285Y-49143809D01*
X177879285Y-48762857D01*
X177831666Y-48667619D01*
X177784047Y-48620000D01*
X177688809Y-48572380D01*
X177498333Y-48572380D01*
X177403095Y-48620000D01*
X177355476Y-48667619D01*
X177307857Y-48762857D01*
X177307857Y-49000952D01*
X177355476Y-49096190D01*
X177403095Y-49143809D01*
X177498333Y-49191428D01*
X177688809Y-49191428D01*
X177784047Y-49143809D01*
X177831666Y-49096190D01*
X177879285Y-49000952D01*
%TO.C,C9*%
X214127142Y-97956666D02*
X214174761Y-98004285D01*
X214222380Y-98147142D01*
X214222380Y-98242380D01*
X214174761Y-98385238D01*
X214079523Y-98480476D01*
X213984285Y-98528095D01*
X213793809Y-98575714D01*
X213650952Y-98575714D01*
X213460476Y-98528095D01*
X213365238Y-98480476D01*
X213270000Y-98385238D01*
X213222380Y-98242380D01*
X213222380Y-98147142D01*
X213270000Y-98004285D01*
X213317619Y-97956666D01*
X214222380Y-97480476D02*
X214222380Y-97290000D01*
X214174761Y-97194761D01*
X214127142Y-97147142D01*
X213984285Y-97051904D01*
X213793809Y-97004285D01*
X213412857Y-97004285D01*
X213317619Y-97051904D01*
X213270000Y-97099523D01*
X213222380Y-97194761D01*
X213222380Y-97385238D01*
X213270000Y-97480476D01*
X213317619Y-97528095D01*
X213412857Y-97575714D01*
X213650952Y-97575714D01*
X213746190Y-97528095D01*
X213793809Y-97480476D01*
X213841428Y-97385238D01*
X213841428Y-97194761D01*
X213793809Y-97099523D01*
X213746190Y-97051904D01*
X213650952Y-97004285D01*
%TO.C,C8*%
X194442142Y-97956666D02*
X194489761Y-98004285D01*
X194537380Y-98147142D01*
X194537380Y-98242380D01*
X194489761Y-98385238D01*
X194394523Y-98480476D01*
X194299285Y-98528095D01*
X194108809Y-98575714D01*
X193965952Y-98575714D01*
X193775476Y-98528095D01*
X193680238Y-98480476D01*
X193585000Y-98385238D01*
X193537380Y-98242380D01*
X193537380Y-98147142D01*
X193585000Y-98004285D01*
X193632619Y-97956666D01*
X193965952Y-97385238D02*
X193918333Y-97480476D01*
X193870714Y-97528095D01*
X193775476Y-97575714D01*
X193727857Y-97575714D01*
X193632619Y-97528095D01*
X193585000Y-97480476D01*
X193537380Y-97385238D01*
X193537380Y-97194761D01*
X193585000Y-97099523D01*
X193632619Y-97051904D01*
X193727857Y-97004285D01*
X193775476Y-97004285D01*
X193870714Y-97051904D01*
X193918333Y-97099523D01*
X193965952Y-97194761D01*
X193965952Y-97385238D01*
X194013571Y-97480476D01*
X194061190Y-97528095D01*
X194156428Y-97575714D01*
X194346904Y-97575714D01*
X194442142Y-97528095D01*
X194489761Y-97480476D01*
X194537380Y-97385238D01*
X194537380Y-97194761D01*
X194489761Y-97099523D01*
X194442142Y-97051904D01*
X194346904Y-97004285D01*
X194156428Y-97004285D01*
X194061190Y-97051904D01*
X194013571Y-97099523D01*
X193965952Y-97194761D01*
%TO.C,c8*%
X169539761Y-51673095D02*
X169587380Y-51768333D01*
X169587380Y-51958809D01*
X169539761Y-52054047D01*
X169492142Y-52101666D01*
X169396904Y-52149285D01*
X169111190Y-52149285D01*
X169015952Y-52101666D01*
X168968333Y-52054047D01*
X168920714Y-51958809D01*
X168920714Y-51768333D01*
X168968333Y-51673095D01*
X169015952Y-51101666D02*
X168968333Y-51196904D01*
X168920714Y-51244523D01*
X168825476Y-51292142D01*
X168777857Y-51292142D01*
X168682619Y-51244523D01*
X168635000Y-51196904D01*
X168587380Y-51101666D01*
X168587380Y-50911190D01*
X168635000Y-50815952D01*
X168682619Y-50768333D01*
X168777857Y-50720714D01*
X168825476Y-50720714D01*
X168920714Y-50768333D01*
X168968333Y-50815952D01*
X169015952Y-50911190D01*
X169015952Y-51101666D01*
X169063571Y-51196904D01*
X169111190Y-51244523D01*
X169206428Y-51292142D01*
X169396904Y-51292142D01*
X169492142Y-51244523D01*
X169539761Y-51196904D01*
X169587380Y-51101666D01*
X169587380Y-50911190D01*
X169539761Y-50815952D01*
X169492142Y-50768333D01*
X169396904Y-50720714D01*
X169206428Y-50720714D01*
X169111190Y-50768333D01*
X169063571Y-50815952D01*
X169015952Y-50911190D01*
%TO.C,C7*%
X102367142Y-104941666D02*
X102414761Y-104989285D01*
X102462380Y-105132142D01*
X102462380Y-105227380D01*
X102414761Y-105370238D01*
X102319523Y-105465476D01*
X102224285Y-105513095D01*
X102033809Y-105560714D01*
X101890952Y-105560714D01*
X101700476Y-105513095D01*
X101605238Y-105465476D01*
X101510000Y-105370238D01*
X101462380Y-105227380D01*
X101462380Y-105132142D01*
X101510000Y-104989285D01*
X101557619Y-104941666D01*
X101462380Y-104608333D02*
X101462380Y-103941666D01*
X102462380Y-104370238D01*
%TO.C,c7*%
X176291904Y-60504761D02*
X176196666Y-60552380D01*
X176006190Y-60552380D01*
X175910952Y-60504761D01*
X175863333Y-60457142D01*
X175815714Y-60361904D01*
X175815714Y-60076190D01*
X175863333Y-59980952D01*
X175910952Y-59933333D01*
X176006190Y-59885714D01*
X176196666Y-59885714D01*
X176291904Y-59933333D01*
X176625238Y-59552380D02*
X177291904Y-59552380D01*
X176863333Y-60552380D01*
%TO.C,C6*%
X82682142Y-104941666D02*
X82729761Y-104989285D01*
X82777380Y-105132142D01*
X82777380Y-105227380D01*
X82729761Y-105370238D01*
X82634523Y-105465476D01*
X82539285Y-105513095D01*
X82348809Y-105560714D01*
X82205952Y-105560714D01*
X82015476Y-105513095D01*
X81920238Y-105465476D01*
X81825000Y-105370238D01*
X81777380Y-105227380D01*
X81777380Y-105132142D01*
X81825000Y-104989285D01*
X81872619Y-104941666D01*
X81777380Y-104084523D02*
X81777380Y-104275000D01*
X81825000Y-104370238D01*
X81872619Y-104417857D01*
X82015476Y-104513095D01*
X82205952Y-104560714D01*
X82586904Y-104560714D01*
X82682142Y-104513095D01*
X82729761Y-104465476D01*
X82777380Y-104370238D01*
X82777380Y-104179761D01*
X82729761Y-104084523D01*
X82682142Y-104036904D01*
X82586904Y-103989285D01*
X82348809Y-103989285D01*
X82253571Y-104036904D01*
X82205952Y-104084523D01*
X82158333Y-104179761D01*
X82158333Y-104370238D01*
X82205952Y-104465476D01*
X82253571Y-104513095D01*
X82348809Y-104560714D01*
%TO.C,C5*%
X214127142Y-104941666D02*
X214174761Y-104989285D01*
X214222380Y-105132142D01*
X214222380Y-105227380D01*
X214174761Y-105370238D01*
X214079523Y-105465476D01*
X213984285Y-105513095D01*
X213793809Y-105560714D01*
X213650952Y-105560714D01*
X213460476Y-105513095D01*
X213365238Y-105465476D01*
X213270000Y-105370238D01*
X213222380Y-105227380D01*
X213222380Y-105132142D01*
X213270000Y-104989285D01*
X213317619Y-104941666D01*
X213222380Y-104036904D02*
X213222380Y-104513095D01*
X213698571Y-104560714D01*
X213650952Y-104513095D01*
X213603333Y-104417857D01*
X213603333Y-104179761D01*
X213650952Y-104084523D01*
X213698571Y-104036904D01*
X213793809Y-103989285D01*
X214031904Y-103989285D01*
X214127142Y-104036904D01*
X214174761Y-104084523D01*
X214222380Y-104179761D01*
X214222380Y-104417857D01*
X214174761Y-104513095D01*
X214127142Y-104560714D01*
%TO.C,C4*%
X194442142Y-104941666D02*
X194489761Y-104989285D01*
X194537380Y-105132142D01*
X194537380Y-105227380D01*
X194489761Y-105370238D01*
X194394523Y-105465476D01*
X194299285Y-105513095D01*
X194108809Y-105560714D01*
X193965952Y-105560714D01*
X193775476Y-105513095D01*
X193680238Y-105465476D01*
X193585000Y-105370238D01*
X193537380Y-105227380D01*
X193537380Y-105132142D01*
X193585000Y-104989285D01*
X193632619Y-104941666D01*
X193870714Y-104084523D02*
X194537380Y-104084523D01*
X193489761Y-104322619D02*
X194204047Y-104560714D01*
X194204047Y-103941666D01*
%TO.C,C3*%
X138667142Y-89066666D02*
X138714761Y-89114285D01*
X138762380Y-89257142D01*
X138762380Y-89352380D01*
X138714761Y-89495238D01*
X138619523Y-89590476D01*
X138524285Y-89638095D01*
X138333809Y-89685714D01*
X138190952Y-89685714D01*
X138000476Y-89638095D01*
X137905238Y-89590476D01*
X137810000Y-89495238D01*
X137762380Y-89352380D01*
X137762380Y-89257142D01*
X137810000Y-89114285D01*
X137857619Y-89066666D01*
X137762380Y-88733333D02*
X137762380Y-88114285D01*
X138143333Y-88447619D01*
X138143333Y-88304761D01*
X138190952Y-88209523D01*
X138238571Y-88161904D01*
X138333809Y-88114285D01*
X138571904Y-88114285D01*
X138667142Y-88161904D01*
X138714761Y-88209523D01*
X138762380Y-88304761D01*
X138762380Y-88590476D01*
X138714761Y-88685714D01*
X138667142Y-88733333D01*
%TO.C,BT3*%
X192058571Y-58300714D02*
X192106190Y-58157857D01*
X192153809Y-58110238D01*
X192249047Y-58062619D01*
X192391904Y-58062619D01*
X192487142Y-58110238D01*
X192534761Y-58157857D01*
X192582380Y-58253095D01*
X192582380Y-58634047D01*
X191582380Y-58634047D01*
X191582380Y-58300714D01*
X191630000Y-58205476D01*
X191677619Y-58157857D01*
X191772857Y-58110238D01*
X191868095Y-58110238D01*
X191963333Y-58157857D01*
X192010952Y-58205476D01*
X192058571Y-58300714D01*
X192058571Y-58634047D01*
X191582380Y-57776904D02*
X191582380Y-57205476D01*
X192582380Y-57491190D02*
X191582380Y-57491190D01*
X191582380Y-56967380D02*
X191582380Y-56348333D01*
X191963333Y-56681666D01*
X191963333Y-56538809D01*
X192010952Y-56443571D01*
X192058571Y-56395952D01*
X192153809Y-56348333D01*
X192391904Y-56348333D01*
X192487142Y-56395952D01*
X192534761Y-56443571D01*
X192582380Y-56538809D01*
X192582380Y-56824523D01*
X192534761Y-56919761D01*
X192487142Y-56967380D01*
%TO.C,10uF11*%
X186097380Y-66158809D02*
X186097380Y-66730238D01*
X186097380Y-66444523D02*
X185097380Y-66444523D01*
X185240238Y-66539761D01*
X185335476Y-66635000D01*
X185383095Y-66730238D01*
X185097380Y-65539761D02*
X185097380Y-65444523D01*
X185145000Y-65349285D01*
X185192619Y-65301666D01*
X185287857Y-65254047D01*
X185478333Y-65206428D01*
X185716428Y-65206428D01*
X185906904Y-65254047D01*
X186002142Y-65301666D01*
X186049761Y-65349285D01*
X186097380Y-65444523D01*
X186097380Y-65539761D01*
X186049761Y-65635000D01*
X186002142Y-65682619D01*
X185906904Y-65730238D01*
X185716428Y-65777857D01*
X185478333Y-65777857D01*
X185287857Y-65730238D01*
X185192619Y-65682619D01*
X185145000Y-65635000D01*
X185097380Y-65539761D01*
X185430714Y-64349285D02*
X186097380Y-64349285D01*
X185430714Y-64777857D02*
X185954523Y-64777857D01*
X186049761Y-64730238D01*
X186097380Y-64635000D01*
X186097380Y-64492142D01*
X186049761Y-64396904D01*
X186002142Y-64349285D01*
X185573571Y-63539761D02*
X185573571Y-63873095D01*
X186097380Y-63873095D02*
X185097380Y-63873095D01*
X185097380Y-63396904D01*
X186097380Y-62492142D02*
X186097380Y-63063571D01*
X186097380Y-62777857D02*
X185097380Y-62777857D01*
X185240238Y-62873095D01*
X185335476Y-62968333D01*
X185383095Y-63063571D01*
X186097380Y-61539761D02*
X186097380Y-62111190D01*
X186097380Y-61825476D02*
X185097380Y-61825476D01*
X185240238Y-61920714D01*
X185335476Y-62015952D01*
X185383095Y-62111190D01*
%TO.C,10uF10*%
X182922380Y-66158809D02*
X182922380Y-66730238D01*
X182922380Y-66444523D02*
X181922380Y-66444523D01*
X182065238Y-66539761D01*
X182160476Y-66635000D01*
X182208095Y-66730238D01*
X181922380Y-65539761D02*
X181922380Y-65444523D01*
X181970000Y-65349285D01*
X182017619Y-65301666D01*
X182112857Y-65254047D01*
X182303333Y-65206428D01*
X182541428Y-65206428D01*
X182731904Y-65254047D01*
X182827142Y-65301666D01*
X182874761Y-65349285D01*
X182922380Y-65444523D01*
X182922380Y-65539761D01*
X182874761Y-65635000D01*
X182827142Y-65682619D01*
X182731904Y-65730238D01*
X182541428Y-65777857D01*
X182303333Y-65777857D01*
X182112857Y-65730238D01*
X182017619Y-65682619D01*
X181970000Y-65635000D01*
X181922380Y-65539761D01*
X182255714Y-64349285D02*
X182922380Y-64349285D01*
X182255714Y-64777857D02*
X182779523Y-64777857D01*
X182874761Y-64730238D01*
X182922380Y-64635000D01*
X182922380Y-64492142D01*
X182874761Y-64396904D01*
X182827142Y-64349285D01*
X182398571Y-63539761D02*
X182398571Y-63873095D01*
X182922380Y-63873095D02*
X181922380Y-63873095D01*
X181922380Y-63396904D01*
X182922380Y-62492142D02*
X182922380Y-63063571D01*
X182922380Y-62777857D02*
X181922380Y-62777857D01*
X182065238Y-62873095D01*
X182160476Y-62968333D01*
X182208095Y-63063571D01*
X181922380Y-61873095D02*
X181922380Y-61777857D01*
X181970000Y-61682619D01*
X182017619Y-61635000D01*
X182112857Y-61587380D01*
X182303333Y-61539761D01*
X182541428Y-61539761D01*
X182731904Y-61587380D01*
X182827142Y-61635000D01*
X182874761Y-61682619D01*
X182922380Y-61777857D01*
X182922380Y-61873095D01*
X182874761Y-61968333D01*
X182827142Y-62015952D01*
X182731904Y-62063571D01*
X182541428Y-62111190D01*
X182303333Y-62111190D01*
X182112857Y-62063571D01*
X182017619Y-62015952D01*
X181970000Y-61968333D01*
X181922380Y-61873095D01*
%TO.C,10uF9*%
X165457380Y-60552380D02*
X164885952Y-60552380D01*
X165171666Y-60552380D02*
X165171666Y-59552380D01*
X165076428Y-59695238D01*
X164981190Y-59790476D01*
X164885952Y-59838095D01*
X166076428Y-59552380D02*
X166171666Y-59552380D01*
X166266904Y-59600000D01*
X166314523Y-59647619D01*
X166362142Y-59742857D01*
X166409761Y-59933333D01*
X166409761Y-60171428D01*
X166362142Y-60361904D01*
X166314523Y-60457142D01*
X166266904Y-60504761D01*
X166171666Y-60552380D01*
X166076428Y-60552380D01*
X165981190Y-60504761D01*
X165933571Y-60457142D01*
X165885952Y-60361904D01*
X165838333Y-60171428D01*
X165838333Y-59933333D01*
X165885952Y-59742857D01*
X165933571Y-59647619D01*
X165981190Y-59600000D01*
X166076428Y-59552380D01*
X167266904Y-59885714D02*
X167266904Y-60552380D01*
X166838333Y-59885714D02*
X166838333Y-60409523D01*
X166885952Y-60504761D01*
X166981190Y-60552380D01*
X167124047Y-60552380D01*
X167219285Y-60504761D01*
X167266904Y-60457142D01*
X168076428Y-60028571D02*
X167743095Y-60028571D01*
X167743095Y-60552380D02*
X167743095Y-59552380D01*
X168219285Y-59552380D01*
X168647857Y-60552380D02*
X168838333Y-60552380D01*
X168933571Y-60504761D01*
X168981190Y-60457142D01*
X169076428Y-60314285D01*
X169124047Y-60123809D01*
X169124047Y-59742857D01*
X169076428Y-59647619D01*
X169028809Y-59600000D01*
X168933571Y-59552380D01*
X168743095Y-59552380D01*
X168647857Y-59600000D01*
X168600238Y-59647619D01*
X168552619Y-59742857D01*
X168552619Y-59980952D01*
X168600238Y-60076190D01*
X168647857Y-60123809D01*
X168743095Y-60171428D01*
X168933571Y-60171428D01*
X169028809Y-60123809D01*
X169076428Y-60076190D01*
X169124047Y-59980952D01*
%TO.C,10uF8*%
X157522380Y-65047619D02*
X157522380Y-65619047D01*
X157522380Y-65333333D02*
X156522380Y-65333333D01*
X156665238Y-65428571D01*
X156760476Y-65523809D01*
X156808095Y-65619047D01*
X156522380Y-64428571D02*
X156522380Y-64333333D01*
X156570000Y-64238095D01*
X156617619Y-64190476D01*
X156712857Y-64142857D01*
X156903333Y-64095238D01*
X157141428Y-64095238D01*
X157331904Y-64142857D01*
X157427142Y-64190476D01*
X157474761Y-64238095D01*
X157522380Y-64333333D01*
X157522380Y-64428571D01*
X157474761Y-64523809D01*
X157427142Y-64571428D01*
X157331904Y-64619047D01*
X157141428Y-64666666D01*
X156903333Y-64666666D01*
X156712857Y-64619047D01*
X156617619Y-64571428D01*
X156570000Y-64523809D01*
X156522380Y-64428571D01*
X156855714Y-63238095D02*
X157522380Y-63238095D01*
X156855714Y-63666666D02*
X157379523Y-63666666D01*
X157474761Y-63619047D01*
X157522380Y-63523809D01*
X157522380Y-63380952D01*
X157474761Y-63285714D01*
X157427142Y-63238095D01*
X156998571Y-62428571D02*
X156998571Y-62761904D01*
X157522380Y-62761904D02*
X156522380Y-62761904D01*
X156522380Y-62285714D01*
X156950952Y-61761904D02*
X156903333Y-61857142D01*
X156855714Y-61904761D01*
X156760476Y-61952380D01*
X156712857Y-61952380D01*
X156617619Y-61904761D01*
X156570000Y-61857142D01*
X156522380Y-61761904D01*
X156522380Y-61571428D01*
X156570000Y-61476190D01*
X156617619Y-61428571D01*
X156712857Y-61380952D01*
X156760476Y-61380952D01*
X156855714Y-61428571D01*
X156903333Y-61476190D01*
X156950952Y-61571428D01*
X156950952Y-61761904D01*
X156998571Y-61857142D01*
X157046190Y-61904761D01*
X157141428Y-61952380D01*
X157331904Y-61952380D01*
X157427142Y-61904761D01*
X157474761Y-61857142D01*
X157522380Y-61761904D01*
X157522380Y-61571428D01*
X157474761Y-61476190D01*
X157427142Y-61428571D01*
X157331904Y-61380952D01*
X157141428Y-61380952D01*
X157046190Y-61428571D01*
X156998571Y-61476190D01*
X156950952Y-61571428D01*
%TO.C,10uF7*%
X154027380Y-64362380D02*
X153455952Y-64362380D01*
X153741666Y-64362380D02*
X153741666Y-63362380D01*
X153646428Y-63505238D01*
X153551190Y-63600476D01*
X153455952Y-63648095D01*
X154646428Y-63362380D02*
X154741666Y-63362380D01*
X154836904Y-63410000D01*
X154884523Y-63457619D01*
X154932142Y-63552857D01*
X154979761Y-63743333D01*
X154979761Y-63981428D01*
X154932142Y-64171904D01*
X154884523Y-64267142D01*
X154836904Y-64314761D01*
X154741666Y-64362380D01*
X154646428Y-64362380D01*
X154551190Y-64314761D01*
X154503571Y-64267142D01*
X154455952Y-64171904D01*
X154408333Y-63981428D01*
X154408333Y-63743333D01*
X154455952Y-63552857D01*
X154503571Y-63457619D01*
X154551190Y-63410000D01*
X154646428Y-63362380D01*
X155836904Y-63695714D02*
X155836904Y-64362380D01*
X155408333Y-63695714D02*
X155408333Y-64219523D01*
X155455952Y-64314761D01*
X155551190Y-64362380D01*
X155694047Y-64362380D01*
X155789285Y-64314761D01*
X155836904Y-64267142D01*
X156646428Y-63838571D02*
X156313095Y-63838571D01*
X156313095Y-64362380D02*
X156313095Y-63362380D01*
X156789285Y-63362380D01*
X157075000Y-63362380D02*
X157741666Y-63362380D01*
X157313095Y-64362380D01*
%TO.C,10uF1*%
X179427380Y-111352380D02*
X178855952Y-111352380D01*
X179141666Y-111352380D02*
X179141666Y-110352380D01*
X179046428Y-110495238D01*
X178951190Y-110590476D01*
X178855952Y-110638095D01*
X180046428Y-110352380D02*
X180141666Y-110352380D01*
X180236904Y-110400000D01*
X180284523Y-110447619D01*
X180332142Y-110542857D01*
X180379761Y-110733333D01*
X180379761Y-110971428D01*
X180332142Y-111161904D01*
X180284523Y-111257142D01*
X180236904Y-111304761D01*
X180141666Y-111352380D01*
X180046428Y-111352380D01*
X179951190Y-111304761D01*
X179903571Y-111257142D01*
X179855952Y-111161904D01*
X179808333Y-110971428D01*
X179808333Y-110733333D01*
X179855952Y-110542857D01*
X179903571Y-110447619D01*
X179951190Y-110400000D01*
X180046428Y-110352380D01*
X181236904Y-110685714D02*
X181236904Y-111352380D01*
X180808333Y-110685714D02*
X180808333Y-111209523D01*
X180855952Y-111304761D01*
X180951190Y-111352380D01*
X181094047Y-111352380D01*
X181189285Y-111304761D01*
X181236904Y-111257142D01*
X182046428Y-110828571D02*
X181713095Y-110828571D01*
X181713095Y-111352380D02*
X181713095Y-110352380D01*
X182189285Y-110352380D01*
X183094047Y-111352380D02*
X182522619Y-111352380D01*
X182808333Y-111352380D02*
X182808333Y-110352380D01*
X182713095Y-110495238D01*
X182617857Y-110590476D01*
X182522619Y-110638095D01*
%TO.C,100nF7*%
X178027380Y-108703809D02*
X178027380Y-109275238D01*
X178027380Y-108989523D02*
X177027380Y-108989523D01*
X177170238Y-109084761D01*
X177265476Y-109180000D01*
X177313095Y-109275238D01*
X177027380Y-108084761D02*
X177027380Y-107989523D01*
X177075000Y-107894285D01*
X177122619Y-107846666D01*
X177217857Y-107799047D01*
X177408333Y-107751428D01*
X177646428Y-107751428D01*
X177836904Y-107799047D01*
X177932142Y-107846666D01*
X177979761Y-107894285D01*
X178027380Y-107989523D01*
X178027380Y-108084761D01*
X177979761Y-108180000D01*
X177932142Y-108227619D01*
X177836904Y-108275238D01*
X177646428Y-108322857D01*
X177408333Y-108322857D01*
X177217857Y-108275238D01*
X177122619Y-108227619D01*
X177075000Y-108180000D01*
X177027380Y-108084761D01*
X177027380Y-107132380D02*
X177027380Y-107037142D01*
X177075000Y-106941904D01*
X177122619Y-106894285D01*
X177217857Y-106846666D01*
X177408333Y-106799047D01*
X177646428Y-106799047D01*
X177836904Y-106846666D01*
X177932142Y-106894285D01*
X177979761Y-106941904D01*
X178027380Y-107037142D01*
X178027380Y-107132380D01*
X177979761Y-107227619D01*
X177932142Y-107275238D01*
X177836904Y-107322857D01*
X177646428Y-107370476D01*
X177408333Y-107370476D01*
X177217857Y-107322857D01*
X177122619Y-107275238D01*
X177075000Y-107227619D01*
X177027380Y-107132380D01*
X177360714Y-106370476D02*
X178027380Y-106370476D01*
X177455952Y-106370476D02*
X177408333Y-106322857D01*
X177360714Y-106227619D01*
X177360714Y-106084761D01*
X177408333Y-105989523D01*
X177503571Y-105941904D01*
X178027380Y-105941904D01*
X177503571Y-105132380D02*
X177503571Y-105465714D01*
X178027380Y-105465714D02*
X177027380Y-105465714D01*
X177027380Y-104989523D01*
X177027380Y-104703809D02*
X177027380Y-104037142D01*
X178027380Y-104465714D01*
%TO.C,100nF5*%
X157522380Y-73778809D02*
X157522380Y-74350238D01*
X157522380Y-74064523D02*
X156522380Y-74064523D01*
X156665238Y-74159761D01*
X156760476Y-74255000D01*
X156808095Y-74350238D01*
X156522380Y-73159761D02*
X156522380Y-73064523D01*
X156570000Y-72969285D01*
X156617619Y-72921666D01*
X156712857Y-72874047D01*
X156903333Y-72826428D01*
X157141428Y-72826428D01*
X157331904Y-72874047D01*
X157427142Y-72921666D01*
X157474761Y-72969285D01*
X157522380Y-73064523D01*
X157522380Y-73159761D01*
X157474761Y-73255000D01*
X157427142Y-73302619D01*
X157331904Y-73350238D01*
X157141428Y-73397857D01*
X156903333Y-73397857D01*
X156712857Y-73350238D01*
X156617619Y-73302619D01*
X156570000Y-73255000D01*
X156522380Y-73159761D01*
X156522380Y-72207380D02*
X156522380Y-72112142D01*
X156570000Y-72016904D01*
X156617619Y-71969285D01*
X156712857Y-71921666D01*
X156903333Y-71874047D01*
X157141428Y-71874047D01*
X157331904Y-71921666D01*
X157427142Y-71969285D01*
X157474761Y-72016904D01*
X157522380Y-72112142D01*
X157522380Y-72207380D01*
X157474761Y-72302619D01*
X157427142Y-72350238D01*
X157331904Y-72397857D01*
X157141428Y-72445476D01*
X156903333Y-72445476D01*
X156712857Y-72397857D01*
X156617619Y-72350238D01*
X156570000Y-72302619D01*
X156522380Y-72207380D01*
X156855714Y-71445476D02*
X157522380Y-71445476D01*
X156950952Y-71445476D02*
X156903333Y-71397857D01*
X156855714Y-71302619D01*
X156855714Y-71159761D01*
X156903333Y-71064523D01*
X156998571Y-71016904D01*
X157522380Y-71016904D01*
X156998571Y-70207380D02*
X156998571Y-70540714D01*
X157522380Y-70540714D02*
X156522380Y-70540714D01*
X156522380Y-70064523D01*
X156522380Y-69207380D02*
X156522380Y-69683571D01*
X156998571Y-69731190D01*
X156950952Y-69683571D01*
X156903333Y-69588333D01*
X156903333Y-69350238D01*
X156950952Y-69255000D01*
X156998571Y-69207380D01*
X157093809Y-69159761D01*
X157331904Y-69159761D01*
X157427142Y-69207380D01*
X157474761Y-69255000D01*
X157522380Y-69350238D01*
X157522380Y-69588333D01*
X157474761Y-69683571D01*
X157427142Y-69731190D01*
%TO.C,100nF3*%
X99102380Y-111243809D02*
X99102380Y-111815238D01*
X99102380Y-111529523D02*
X98102380Y-111529523D01*
X98245238Y-111624761D01*
X98340476Y-111720000D01*
X98388095Y-111815238D01*
X98102380Y-110624761D02*
X98102380Y-110529523D01*
X98150000Y-110434285D01*
X98197619Y-110386666D01*
X98292857Y-110339047D01*
X98483333Y-110291428D01*
X98721428Y-110291428D01*
X98911904Y-110339047D01*
X99007142Y-110386666D01*
X99054761Y-110434285D01*
X99102380Y-110529523D01*
X99102380Y-110624761D01*
X99054761Y-110720000D01*
X99007142Y-110767619D01*
X98911904Y-110815238D01*
X98721428Y-110862857D01*
X98483333Y-110862857D01*
X98292857Y-110815238D01*
X98197619Y-110767619D01*
X98150000Y-110720000D01*
X98102380Y-110624761D01*
X98102380Y-109672380D02*
X98102380Y-109577142D01*
X98150000Y-109481904D01*
X98197619Y-109434285D01*
X98292857Y-109386666D01*
X98483333Y-109339047D01*
X98721428Y-109339047D01*
X98911904Y-109386666D01*
X99007142Y-109434285D01*
X99054761Y-109481904D01*
X99102380Y-109577142D01*
X99102380Y-109672380D01*
X99054761Y-109767619D01*
X99007142Y-109815238D01*
X98911904Y-109862857D01*
X98721428Y-109910476D01*
X98483333Y-109910476D01*
X98292857Y-109862857D01*
X98197619Y-109815238D01*
X98150000Y-109767619D01*
X98102380Y-109672380D01*
X98435714Y-108910476D02*
X99102380Y-108910476D01*
X98530952Y-108910476D02*
X98483333Y-108862857D01*
X98435714Y-108767619D01*
X98435714Y-108624761D01*
X98483333Y-108529523D01*
X98578571Y-108481904D01*
X99102380Y-108481904D01*
X98578571Y-107672380D02*
X98578571Y-108005714D01*
X99102380Y-108005714D02*
X98102380Y-108005714D01*
X98102380Y-107529523D01*
X98102380Y-107243809D02*
X98102380Y-106624761D01*
X98483333Y-106958095D01*
X98483333Y-106815238D01*
X98530952Y-106720000D01*
X98578571Y-106672380D01*
X98673809Y-106624761D01*
X98911904Y-106624761D01*
X99007142Y-106672380D01*
X99054761Y-106720000D01*
X99102380Y-106815238D01*
X99102380Y-107100952D01*
X99054761Y-107196190D01*
X99007142Y-107243809D01*
%TO.C,100nF2*%
X139927380Y-82033809D02*
X139927380Y-82605238D01*
X139927380Y-82319523D02*
X138927380Y-82319523D01*
X139070238Y-82414761D01*
X139165476Y-82510000D01*
X139213095Y-82605238D01*
X138927380Y-81414761D02*
X138927380Y-81319523D01*
X138975000Y-81224285D01*
X139022619Y-81176666D01*
X139117857Y-81129047D01*
X139308333Y-81081428D01*
X139546428Y-81081428D01*
X139736904Y-81129047D01*
X139832142Y-81176666D01*
X139879761Y-81224285D01*
X139927380Y-81319523D01*
X139927380Y-81414761D01*
X139879761Y-81510000D01*
X139832142Y-81557619D01*
X139736904Y-81605238D01*
X139546428Y-81652857D01*
X139308333Y-81652857D01*
X139117857Y-81605238D01*
X139022619Y-81557619D01*
X138975000Y-81510000D01*
X138927380Y-81414761D01*
X138927380Y-80462380D02*
X138927380Y-80367142D01*
X138975000Y-80271904D01*
X139022619Y-80224285D01*
X139117857Y-80176666D01*
X139308333Y-80129047D01*
X139546428Y-80129047D01*
X139736904Y-80176666D01*
X139832142Y-80224285D01*
X139879761Y-80271904D01*
X139927380Y-80367142D01*
X139927380Y-80462380D01*
X139879761Y-80557619D01*
X139832142Y-80605238D01*
X139736904Y-80652857D01*
X139546428Y-80700476D01*
X139308333Y-80700476D01*
X139117857Y-80652857D01*
X139022619Y-80605238D01*
X138975000Y-80557619D01*
X138927380Y-80462380D01*
X139260714Y-79700476D02*
X139927380Y-79700476D01*
X139355952Y-79700476D02*
X139308333Y-79652857D01*
X139260714Y-79557619D01*
X139260714Y-79414761D01*
X139308333Y-79319523D01*
X139403571Y-79271904D01*
X139927380Y-79271904D01*
X139403571Y-78462380D02*
X139403571Y-78795714D01*
X139927380Y-78795714D02*
X138927380Y-78795714D01*
X138927380Y-78319523D01*
X139022619Y-77986190D02*
X138975000Y-77938571D01*
X138927380Y-77843333D01*
X138927380Y-77605238D01*
X138975000Y-77510000D01*
X139022619Y-77462380D01*
X139117857Y-77414761D01*
X139213095Y-77414761D01*
X139355952Y-77462380D01*
X139927380Y-78033809D01*
X139927380Y-77414761D01*
%TO.C,100nF1*%
X121512380Y-76318809D02*
X121512380Y-76890238D01*
X121512380Y-76604523D02*
X120512380Y-76604523D01*
X120655238Y-76699761D01*
X120750476Y-76795000D01*
X120798095Y-76890238D01*
X120512380Y-75699761D02*
X120512380Y-75604523D01*
X120560000Y-75509285D01*
X120607619Y-75461666D01*
X120702857Y-75414047D01*
X120893333Y-75366428D01*
X121131428Y-75366428D01*
X121321904Y-75414047D01*
X121417142Y-75461666D01*
X121464761Y-75509285D01*
X121512380Y-75604523D01*
X121512380Y-75699761D01*
X121464761Y-75795000D01*
X121417142Y-75842619D01*
X121321904Y-75890238D01*
X121131428Y-75937857D01*
X120893333Y-75937857D01*
X120702857Y-75890238D01*
X120607619Y-75842619D01*
X120560000Y-75795000D01*
X120512380Y-75699761D01*
X120512380Y-74747380D02*
X120512380Y-74652142D01*
X120560000Y-74556904D01*
X120607619Y-74509285D01*
X120702857Y-74461666D01*
X120893333Y-74414047D01*
X121131428Y-74414047D01*
X121321904Y-74461666D01*
X121417142Y-74509285D01*
X121464761Y-74556904D01*
X121512380Y-74652142D01*
X121512380Y-74747380D01*
X121464761Y-74842619D01*
X121417142Y-74890238D01*
X121321904Y-74937857D01*
X121131428Y-74985476D01*
X120893333Y-74985476D01*
X120702857Y-74937857D01*
X120607619Y-74890238D01*
X120560000Y-74842619D01*
X120512380Y-74747380D01*
X120845714Y-73985476D02*
X121512380Y-73985476D01*
X120940952Y-73985476D02*
X120893333Y-73937857D01*
X120845714Y-73842619D01*
X120845714Y-73699761D01*
X120893333Y-73604523D01*
X120988571Y-73556904D01*
X121512380Y-73556904D01*
X120988571Y-72747380D02*
X120988571Y-73080714D01*
X121512380Y-73080714D02*
X120512380Y-73080714D01*
X120512380Y-72604523D01*
X121512380Y-71699761D02*
X121512380Y-72271190D01*
X121512380Y-71985476D02*
X120512380Y-71985476D01*
X120655238Y-72080714D01*
X120750476Y-72175952D01*
X120798095Y-72271190D01*
%TD*%
M02*
