%TF.GenerationSoftware,KiCad,Pcbnew,(5.1.8)-1*%
%TF.CreationDate,2021-03-09T15:18:23+01:00*%
%TF.ProjectId,schema_v1,73636865-6d61-45f7-9631-2e6b69636164,rev?*%
%TF.SameCoordinates,Original*%
%TF.FileFunction,Soldermask,Bot*%
%TF.FilePolarity,Negative*%
%FSLAX46Y46*%
G04 Gerber Fmt 4.6, Leading zero omitted, Abs format (unit mm)*
G04 Created by KiCad (PCBNEW (5.1.8)-1) date 2021-03-09 15:18:23*
%MOMM*%
%LPD*%
G01*
G04 APERTURE LIST*
%ADD10C,3.200000*%
%ADD11O,1.700000X1.700000*%
%ADD12R,1.700000X1.700000*%
%ADD13O,2.000000X1.700000*%
%ADD14C,2.000000*%
%ADD15C,1.800000*%
%ADD16R,1.800000X1.800000*%
%ADD17O,1.750000X1.200000*%
G04 APERTURE END LIST*
D10*
%TO.C,REF\u002A\u002A*%
X81280000Y-52705000D03*
%TD*%
%TO.C,REF\u002A\u002A*%
X81280000Y-131445000D03*
%TD*%
%TO.C,REF\u002A\u002A*%
X213360000Y-131445000D03*
%TD*%
%TO.C,REF\u002A\u002A*%
X213360000Y-52705000D03*
%TD*%
D11*
%TO.C,U9*%
X106045000Y-105410000D03*
X106045000Y-102870000D03*
X106045000Y-100330000D03*
X106045000Y-97790000D03*
X106045000Y-95250000D03*
X106045000Y-92710000D03*
X106045000Y-90170000D03*
X106045000Y-87630000D03*
X106045000Y-85090000D03*
X106045000Y-82550000D03*
X106045000Y-80010000D03*
X106045000Y-77470000D03*
X106045000Y-74930000D03*
D12*
X106045000Y-72390000D03*
%TD*%
D13*
%TO.C,SW9*%
X195580000Y-55920000D03*
G36*
G01*
X196330000Y-59270000D02*
X194830000Y-59270000D01*
G75*
G02*
X194580000Y-59020000I0J250000D01*
G01*
X194580000Y-57820000D01*
G75*
G02*
X194830000Y-57570000I250000J0D01*
G01*
X196330000Y-57570000D01*
G75*
G02*
X196580000Y-57820000I0J-250000D01*
G01*
X196580000Y-59020000D01*
G75*
G02*
X196330000Y-59270000I-250000J0D01*
G01*
G37*
%TD*%
D14*
%TO.C,SW7*%
X167790000Y-116205000D03*
X167790000Y-120705000D03*
X161290000Y-116205000D03*
X161290000Y-120705000D03*
%TD*%
%TO.C,SW6*%
X124610000Y-116205000D03*
X124610000Y-120705000D03*
X118110000Y-116205000D03*
X118110000Y-120705000D03*
%TD*%
%TO.C,SW5*%
X135405000Y-116205000D03*
X135405000Y-120705000D03*
X128905000Y-116205000D03*
X128905000Y-120705000D03*
%TD*%
%TO.C,SW4*%
X146200000Y-116205000D03*
X146200000Y-120705000D03*
X139700000Y-116205000D03*
X139700000Y-120705000D03*
%TD*%
%TO.C,SW3*%
X156995000Y-116205000D03*
X156995000Y-120705000D03*
X150495000Y-116205000D03*
X150495000Y-120705000D03*
%TD*%
%TO.C,SW1*%
X106830000Y-116205000D03*
X106830000Y-120705000D03*
X100330000Y-116205000D03*
X100330000Y-120705000D03*
%TD*%
D11*
%TO.C,LS2*%
X175895000Y-71755000D03*
D12*
X175895000Y-69215000D03*
%TD*%
D11*
%TO.C,LS1*%
X162560000Y-69850000D03*
D12*
X162560000Y-72390000D03*
%TD*%
%TO.C,J1*%
X144780000Y-59055000D03*
D11*
X142240000Y-59055000D03*
X139700000Y-59055000D03*
X137160000Y-59055000D03*
X134620000Y-59055000D03*
%TD*%
D15*
%TO.C,D1*%
X183515000Y-57150000D03*
D16*
X180975000Y-57150000D03*
%TD*%
D17*
%TO.C,BT3*%
X189230000Y-58515000D03*
G36*
G01*
X188604999Y-55915000D02*
X189855001Y-55915000D01*
G75*
G02*
X190105000Y-56164999I0J-249999D01*
G01*
X190105000Y-56865001D01*
G75*
G02*
X189855001Y-57115000I-249999J0D01*
G01*
X188604999Y-57115000D01*
G75*
G02*
X188355000Y-56865001I0J249999D01*
G01*
X188355000Y-56164999D01*
G75*
G02*
X188604999Y-55915000I249999J0D01*
G01*
G37*
%TD*%
M02*
