%TF.GenerationSoftware,KiCad,Pcbnew,(5.1.8)-1*%
%TF.CreationDate,2021-03-09T15:18:23+01:00*%
%TF.ProjectId,schema_v1,73636865-6d61-45f7-9631-2e6b69636164,rev?*%
%TF.SameCoordinates,Original*%
%TF.FileFunction,Soldermask,Top*%
%TF.FilePolarity,Negative*%
%FSLAX46Y46*%
G04 Gerber Fmt 4.6, Leading zero omitted, Abs format (unit mm)*
G04 Created by KiCad (PCBNEW (5.1.8)-1) date 2021-03-09 15:18:23*
%MOMM*%
%LPD*%
G01*
G04 APERTURE LIST*
%ADD10R,0.900000X1.200000*%
%ADD11R,3.250000X5.000000*%
%ADD12R,2.500000X2.500000*%
%ADD13R,0.470000X1.000000*%
%ADD14C,3.200000*%
%ADD15R,0.400000X1.400000*%
%ADD16R,2.300000X1.900000*%
%ADD17R,1.800000X1.900000*%
%ADD18R,1.060000X0.650000*%
%ADD19R,2.100000X2.100000*%
%ADD20R,0.300000X0.750000*%
%ADD21O,1.700000X1.700000*%
%ADD22R,1.700000X1.700000*%
%ADD23R,0.700000X1.100000*%
%ADD24R,3.800000X2.000000*%
%ADD25R,1.500000X2.000000*%
%ADD26R,1.750000X0.450000*%
%ADD27O,2.000000X1.700000*%
%ADD28C,2.000000*%
%ADD29C,0.100000*%
%ADD30R,1.500000X1.000000*%
%ADD31C,1.800000*%
%ADD32R,1.800000X1.800000*%
%ADD33O,1.750000X1.200000*%
G04 APERTURE END LIST*
%TO.C,R10*%
G36*
G01*
X192424000Y-109670001D02*
X192424000Y-108769999D01*
G75*
G02*
X192673999Y-108520000I249999J0D01*
G01*
X193374001Y-108520000D01*
G75*
G02*
X193624000Y-108769999I0J-249999D01*
G01*
X193624000Y-109670001D01*
G75*
G02*
X193374001Y-109920000I-249999J0D01*
G01*
X192673999Y-109920000D01*
G75*
G02*
X192424000Y-109670001I0J249999D01*
G01*
G37*
G36*
G01*
X190424000Y-109670001D02*
X190424000Y-108769999D01*
G75*
G02*
X190673999Y-108520000I249999J0D01*
G01*
X191374001Y-108520000D01*
G75*
G02*
X191624000Y-108769999I0J-249999D01*
G01*
X191624000Y-109670001D01*
G75*
G02*
X191374001Y-109920000I-249999J0D01*
G01*
X190673999Y-109920000D01*
G75*
G02*
X190424000Y-109670001I0J249999D01*
G01*
G37*
%TD*%
%TO.C,R9*%
G36*
G01*
X195522001Y-109836000D02*
X194621999Y-109836000D01*
G75*
G02*
X194372000Y-109586001I0J249999D01*
G01*
X194372000Y-108885999D01*
G75*
G02*
X194621999Y-108636000I249999J0D01*
G01*
X195522001Y-108636000D01*
G75*
G02*
X195772000Y-108885999I0J-249999D01*
G01*
X195772000Y-109586001D01*
G75*
G02*
X195522001Y-109836000I-249999J0D01*
G01*
G37*
G36*
G01*
X195522001Y-111836000D02*
X194621999Y-111836000D01*
G75*
G02*
X194372000Y-111586001I0J249999D01*
G01*
X194372000Y-110885999D01*
G75*
G02*
X194621999Y-110636000I249999J0D01*
G01*
X195522001Y-110636000D01*
G75*
G02*
X195772000Y-110885999I0J-249999D01*
G01*
X195772000Y-111586001D01*
G75*
G02*
X195522001Y-111836000I-249999J0D01*
G01*
G37*
%TD*%
%TO.C,R8*%
G36*
G01*
X189884000Y-114242001D02*
X189884000Y-113341999D01*
G75*
G02*
X190133999Y-113092000I249999J0D01*
G01*
X190834001Y-113092000D01*
G75*
G02*
X191084000Y-113341999I0J-249999D01*
G01*
X191084000Y-114242001D01*
G75*
G02*
X190834001Y-114492000I-249999J0D01*
G01*
X190133999Y-114492000D01*
G75*
G02*
X189884000Y-114242001I0J249999D01*
G01*
G37*
G36*
G01*
X187884000Y-114242001D02*
X187884000Y-113341999D01*
G75*
G02*
X188133999Y-113092000I249999J0D01*
G01*
X188834001Y-113092000D01*
G75*
G02*
X189084000Y-113341999I0J-249999D01*
G01*
X189084000Y-114242001D01*
G75*
G02*
X188834001Y-114492000I-249999J0D01*
G01*
X188133999Y-114492000D01*
G75*
G02*
X187884000Y-114242001I0J249999D01*
G01*
G37*
%TD*%
%TO.C,R5*%
G36*
G01*
X193148000Y-113341999D02*
X193148000Y-114242001D01*
G75*
G02*
X192898001Y-114492000I-249999J0D01*
G01*
X192197999Y-114492000D01*
G75*
G02*
X191948000Y-114242001I0J249999D01*
G01*
X191948000Y-113341999D01*
G75*
G02*
X192197999Y-113092000I249999J0D01*
G01*
X192898001Y-113092000D01*
G75*
G02*
X193148000Y-113341999I0J-249999D01*
G01*
G37*
G36*
G01*
X195148000Y-113341999D02*
X195148000Y-114242001D01*
G75*
G02*
X194898001Y-114492000I-249999J0D01*
G01*
X194197999Y-114492000D01*
G75*
G02*
X193948000Y-114242001I0J249999D01*
G01*
X193948000Y-113341999D01*
G75*
G02*
X194197999Y-113092000I249999J0D01*
G01*
X194898001Y-113092000D01*
G75*
G02*
X195148000Y-113341999I0J-249999D01*
G01*
G37*
%TD*%
%TO.C,R3*%
G36*
G01*
X185820000Y-114242001D02*
X185820000Y-113341999D01*
G75*
G02*
X186069999Y-113092000I249999J0D01*
G01*
X186770001Y-113092000D01*
G75*
G02*
X187020000Y-113341999I0J-249999D01*
G01*
X187020000Y-114242001D01*
G75*
G02*
X186770001Y-114492000I-249999J0D01*
G01*
X186069999Y-114492000D01*
G75*
G02*
X185820000Y-114242001I0J249999D01*
G01*
G37*
G36*
G01*
X183820000Y-114242001D02*
X183820000Y-113341999D01*
G75*
G02*
X184069999Y-113092000I249999J0D01*
G01*
X184770001Y-113092000D01*
G75*
G02*
X185020000Y-113341999I0J-249999D01*
G01*
X185020000Y-114242001D01*
G75*
G02*
X184770001Y-114492000I-249999J0D01*
G01*
X184069999Y-114492000D01*
G75*
G02*
X183820000Y-114242001I0J249999D01*
G01*
G37*
%TD*%
D10*
%TO.C,D26*%
X183262000Y-116332000D03*
X186562000Y-116332000D03*
%TD*%
D11*
%TO.C,L8*%
X178562000Y-63420000D03*
X169164000Y-63420000D03*
%TD*%
D12*
%TO.C,REF\u002A\u002A*%
X104140000Y-57785000D03*
%TD*%
D13*
%TO.C,U1*%
X186690000Y-111020000D03*
X187990000Y-111020000D03*
X187340000Y-111020000D03*
X186690000Y-109220000D03*
X187340000Y-109220000D03*
X187990000Y-109220000D03*
%TD*%
D14*
%TO.C,REF\u002A\u002A*%
X81280000Y-52705000D03*
%TD*%
%TO.C,REF\u002A\u002A*%
X81280000Y-131445000D03*
%TD*%
%TO.C,REF\u002A\u002A*%
X213360000Y-131445000D03*
%TD*%
%TO.C,REF\u002A\u002A*%
X213360000Y-52705000D03*
%TD*%
D15*
%TO.C,J2*%
X156875000Y-52550000D03*
X156225000Y-52550000D03*
X155575000Y-52550000D03*
X154925000Y-52550000D03*
X154275000Y-52550000D03*
D16*
X159325000Y-49700000D03*
X151825000Y-49700000D03*
D17*
X156725000Y-49700000D03*
X154425000Y-49700000D03*
%TD*%
D18*
%TO.C,U14*%
X164295000Y-63500000D03*
X164295000Y-62550000D03*
X164295000Y-64450000D03*
X162095000Y-64450000D03*
X162095000Y-63500000D03*
X162095000Y-62550000D03*
%TD*%
D19*
%TO.C,U12*%
X176005000Y-54610000D03*
G36*
G01*
X174880000Y-53010000D02*
X174880000Y-52310000D01*
G75*
G02*
X174955000Y-52235000I75000J0D01*
G01*
X175105000Y-52235000D01*
G75*
G02*
X175180000Y-52310000I0J-75000D01*
G01*
X175180000Y-53010000D01*
G75*
G02*
X175105000Y-53085000I-75000J0D01*
G01*
X174955000Y-53085000D01*
G75*
G02*
X174880000Y-53010000I0J75000D01*
G01*
G37*
G36*
G01*
X175530000Y-53010000D02*
X175530000Y-52310000D01*
G75*
G02*
X175605000Y-52235000I75000J0D01*
G01*
X175755000Y-52235000D01*
G75*
G02*
X175830000Y-52310000I0J-75000D01*
G01*
X175830000Y-53010000D01*
G75*
G02*
X175755000Y-53085000I-75000J0D01*
G01*
X175605000Y-53085000D01*
G75*
G02*
X175530000Y-53010000I0J75000D01*
G01*
G37*
G36*
G01*
X176180000Y-53010000D02*
X176180000Y-52310000D01*
G75*
G02*
X176255000Y-52235000I75000J0D01*
G01*
X176405000Y-52235000D01*
G75*
G02*
X176480000Y-52310000I0J-75000D01*
G01*
X176480000Y-53010000D01*
G75*
G02*
X176405000Y-53085000I-75000J0D01*
G01*
X176255000Y-53085000D01*
G75*
G02*
X176180000Y-53010000I0J75000D01*
G01*
G37*
G36*
G01*
X176830000Y-53010000D02*
X176830000Y-52310000D01*
G75*
G02*
X176905000Y-52235000I75000J0D01*
G01*
X177055000Y-52235000D01*
G75*
G02*
X177130000Y-52310000I0J-75000D01*
G01*
X177130000Y-53010000D01*
G75*
G02*
X177055000Y-53085000I-75000J0D01*
G01*
X176905000Y-53085000D01*
G75*
G02*
X176830000Y-53010000I0J75000D01*
G01*
G37*
G36*
G01*
X177530000Y-53710000D02*
X177530000Y-53560000D01*
G75*
G02*
X177605000Y-53485000I75000J0D01*
G01*
X178305000Y-53485000D01*
G75*
G02*
X178380000Y-53560000I0J-75000D01*
G01*
X178380000Y-53710000D01*
G75*
G02*
X178305000Y-53785000I-75000J0D01*
G01*
X177605000Y-53785000D01*
G75*
G02*
X177530000Y-53710000I0J75000D01*
G01*
G37*
G36*
G01*
X177530000Y-54360000D02*
X177530000Y-54210000D01*
G75*
G02*
X177605000Y-54135000I75000J0D01*
G01*
X178305000Y-54135000D01*
G75*
G02*
X178380000Y-54210000I0J-75000D01*
G01*
X178380000Y-54360000D01*
G75*
G02*
X178305000Y-54435000I-75000J0D01*
G01*
X177605000Y-54435000D01*
G75*
G02*
X177530000Y-54360000I0J75000D01*
G01*
G37*
G36*
G01*
X177530000Y-55010000D02*
X177530000Y-54860000D01*
G75*
G02*
X177605000Y-54785000I75000J0D01*
G01*
X178305000Y-54785000D01*
G75*
G02*
X178380000Y-54860000I0J-75000D01*
G01*
X178380000Y-55010000D01*
G75*
G02*
X178305000Y-55085000I-75000J0D01*
G01*
X177605000Y-55085000D01*
G75*
G02*
X177530000Y-55010000I0J75000D01*
G01*
G37*
G36*
G01*
X177530000Y-55660000D02*
X177530000Y-55510000D01*
G75*
G02*
X177605000Y-55435000I75000J0D01*
G01*
X178305000Y-55435000D01*
G75*
G02*
X178380000Y-55510000I0J-75000D01*
G01*
X178380000Y-55660000D01*
G75*
G02*
X178305000Y-55735000I-75000J0D01*
G01*
X177605000Y-55735000D01*
G75*
G02*
X177530000Y-55660000I0J75000D01*
G01*
G37*
G36*
G01*
X176830000Y-56910000D02*
X176830000Y-56210000D01*
G75*
G02*
X176905000Y-56135000I75000J0D01*
G01*
X177055000Y-56135000D01*
G75*
G02*
X177130000Y-56210000I0J-75000D01*
G01*
X177130000Y-56910000D01*
G75*
G02*
X177055000Y-56985000I-75000J0D01*
G01*
X176905000Y-56985000D01*
G75*
G02*
X176830000Y-56910000I0J75000D01*
G01*
G37*
G36*
G01*
X176180000Y-56910000D02*
X176180000Y-56210000D01*
G75*
G02*
X176255000Y-56135000I75000J0D01*
G01*
X176405000Y-56135000D01*
G75*
G02*
X176480000Y-56210000I0J-75000D01*
G01*
X176480000Y-56910000D01*
G75*
G02*
X176405000Y-56985000I-75000J0D01*
G01*
X176255000Y-56985000D01*
G75*
G02*
X176180000Y-56910000I0J75000D01*
G01*
G37*
G36*
G01*
X175530000Y-56910000D02*
X175530000Y-56210000D01*
G75*
G02*
X175605000Y-56135000I75000J0D01*
G01*
X175755000Y-56135000D01*
G75*
G02*
X175830000Y-56210000I0J-75000D01*
G01*
X175830000Y-56910000D01*
G75*
G02*
X175755000Y-56985000I-75000J0D01*
G01*
X175605000Y-56985000D01*
G75*
G02*
X175530000Y-56910000I0J75000D01*
G01*
G37*
G36*
G01*
X174880000Y-56910000D02*
X174880000Y-56210000D01*
G75*
G02*
X174955000Y-56135000I75000J0D01*
G01*
X175105000Y-56135000D01*
G75*
G02*
X175180000Y-56210000I0J-75000D01*
G01*
X175180000Y-56910000D01*
G75*
G02*
X175105000Y-56985000I-75000J0D01*
G01*
X174955000Y-56985000D01*
G75*
G02*
X174880000Y-56910000I0J75000D01*
G01*
G37*
G36*
G01*
X173630000Y-55660000D02*
X173630000Y-55510000D01*
G75*
G02*
X173705000Y-55435000I75000J0D01*
G01*
X174405000Y-55435000D01*
G75*
G02*
X174480000Y-55510000I0J-75000D01*
G01*
X174480000Y-55660000D01*
G75*
G02*
X174405000Y-55735000I-75000J0D01*
G01*
X173705000Y-55735000D01*
G75*
G02*
X173630000Y-55660000I0J75000D01*
G01*
G37*
G36*
G01*
X173630000Y-55010000D02*
X173630000Y-54860000D01*
G75*
G02*
X173705000Y-54785000I75000J0D01*
G01*
X174405000Y-54785000D01*
G75*
G02*
X174480000Y-54860000I0J-75000D01*
G01*
X174480000Y-55010000D01*
G75*
G02*
X174405000Y-55085000I-75000J0D01*
G01*
X173705000Y-55085000D01*
G75*
G02*
X173630000Y-55010000I0J75000D01*
G01*
G37*
G36*
G01*
X173630000Y-54360000D02*
X173630000Y-54210000D01*
G75*
G02*
X173705000Y-54135000I75000J0D01*
G01*
X174405000Y-54135000D01*
G75*
G02*
X174480000Y-54210000I0J-75000D01*
G01*
X174480000Y-54360000D01*
G75*
G02*
X174405000Y-54435000I-75000J0D01*
G01*
X173705000Y-54435000D01*
G75*
G02*
X173630000Y-54360000I0J75000D01*
G01*
G37*
G36*
G01*
X173630000Y-53710000D02*
X173630000Y-53560000D01*
G75*
G02*
X173705000Y-53485000I75000J0D01*
G01*
X174405000Y-53485000D01*
G75*
G02*
X174480000Y-53560000I0J-75000D01*
G01*
X174480000Y-53710000D01*
G75*
G02*
X174405000Y-53785000I-75000J0D01*
G01*
X173705000Y-53785000D01*
G75*
G02*
X173630000Y-53710000I0J75000D01*
G01*
G37*
%TD*%
D20*
%TO.C,U11*%
X167620000Y-92095000D03*
X166320000Y-92095000D03*
X166970000Y-92095000D03*
X168270000Y-92095000D03*
X168920000Y-92095000D03*
X169570000Y-92095000D03*
X165670000Y-92095000D03*
X170870000Y-92095000D03*
X170220000Y-92095000D03*
X171520000Y-92095000D03*
X173470000Y-92095000D03*
X172170000Y-92095000D03*
X172820000Y-92095000D03*
X165020000Y-92095000D03*
X173470000Y-98695000D03*
X172820000Y-98695000D03*
X172170000Y-98695000D03*
X171520000Y-98695000D03*
X170870000Y-98695000D03*
X170220000Y-98695000D03*
X169570000Y-98695000D03*
X168920000Y-98695000D03*
X168270000Y-98695000D03*
X167620000Y-98695000D03*
X166970000Y-98695000D03*
X166320000Y-98695000D03*
X165670000Y-98695000D03*
X165020000Y-98695000D03*
%TD*%
D18*
%TO.C,U10*%
X150325000Y-80645000D03*
X150325000Y-79695000D03*
X150325000Y-81595000D03*
X148125000Y-81595000D03*
X148125000Y-80645000D03*
X148125000Y-79695000D03*
%TD*%
D21*
%TO.C,U9*%
X106045000Y-105410000D03*
X106045000Y-102870000D03*
X106045000Y-100330000D03*
X106045000Y-97790000D03*
X106045000Y-95250000D03*
X106045000Y-92710000D03*
X106045000Y-90170000D03*
X106045000Y-87630000D03*
X106045000Y-85090000D03*
X106045000Y-82550000D03*
X106045000Y-80010000D03*
X106045000Y-77470000D03*
X106045000Y-74930000D03*
D22*
X106045000Y-72390000D03*
%TD*%
D23*
%TO.C,U8*%
X208700000Y-126585000D03*
X210000000Y-126585000D03*
X211300000Y-126585000D03*
X207400000Y-126585000D03*
X206100000Y-126585000D03*
X204800000Y-126585000D03*
X203500000Y-126585000D03*
X202200000Y-126585000D03*
X200900000Y-126585000D03*
X199600000Y-126585000D03*
X198300000Y-126585000D03*
X197870000Y-109585000D03*
X199170000Y-109585000D03*
X200470000Y-109585000D03*
X201770000Y-109585000D03*
X203070000Y-109585000D03*
X204370000Y-109585000D03*
X205670000Y-109585000D03*
X206970000Y-109585000D03*
X208270000Y-109585000D03*
X209570000Y-109585000D03*
X210870000Y-109585000D03*
X212170000Y-109585000D03*
%TD*%
D24*
%TO.C,U6*%
X181100000Y-101854000D03*
D25*
X183400000Y-105965000D03*
X181100000Y-105965000D03*
X178800000Y-105965000D03*
%TD*%
D26*
%TO.C,U5*%
X156000000Y-64990000D03*
X156000000Y-65640000D03*
X156000000Y-66290000D03*
X156000000Y-66940000D03*
X156000000Y-67590000D03*
X156000000Y-68240000D03*
X156000000Y-68890000D03*
X156000000Y-69540000D03*
X156000000Y-70190000D03*
X156000000Y-70840000D03*
X156000000Y-71490000D03*
X156000000Y-72140000D03*
X156000000Y-72790000D03*
X156000000Y-73440000D03*
X148800000Y-73440000D03*
X148800000Y-72790000D03*
X148800000Y-72140000D03*
X148800000Y-71490000D03*
X148800000Y-70840000D03*
X148800000Y-70190000D03*
X148800000Y-69540000D03*
X148800000Y-68890000D03*
X148800000Y-68240000D03*
X148800000Y-67590000D03*
X148800000Y-66940000D03*
X148800000Y-66290000D03*
X148800000Y-65640000D03*
X148800000Y-64990000D03*
%TD*%
%TO.C,U2*%
G36*
G01*
X132170000Y-69365000D02*
X132170000Y-69065000D01*
G75*
G02*
X132320000Y-68915000I150000J0D01*
G01*
X133820000Y-68915000D01*
G75*
G02*
X133970000Y-69065000I0J-150000D01*
G01*
X133970000Y-69365000D01*
G75*
G02*
X133820000Y-69515000I-150000J0D01*
G01*
X132320000Y-69515000D01*
G75*
G02*
X132170000Y-69365000I0J150000D01*
G01*
G37*
G36*
G01*
X132170000Y-70635000D02*
X132170000Y-70335000D01*
G75*
G02*
X132320000Y-70185000I150000J0D01*
G01*
X133820000Y-70185000D01*
G75*
G02*
X133970000Y-70335000I0J-150000D01*
G01*
X133970000Y-70635000D01*
G75*
G02*
X133820000Y-70785000I-150000J0D01*
G01*
X132320000Y-70785000D01*
G75*
G02*
X132170000Y-70635000I0J150000D01*
G01*
G37*
G36*
G01*
X132170000Y-71905000D02*
X132170000Y-71605000D01*
G75*
G02*
X132320000Y-71455000I150000J0D01*
G01*
X133820000Y-71455000D01*
G75*
G02*
X133970000Y-71605000I0J-150000D01*
G01*
X133970000Y-71905000D01*
G75*
G02*
X133820000Y-72055000I-150000J0D01*
G01*
X132320000Y-72055000D01*
G75*
G02*
X132170000Y-71905000I0J150000D01*
G01*
G37*
G36*
G01*
X132170000Y-73175000D02*
X132170000Y-72875000D01*
G75*
G02*
X132320000Y-72725000I150000J0D01*
G01*
X133820000Y-72725000D01*
G75*
G02*
X133970000Y-72875000I0J-150000D01*
G01*
X133970000Y-73175000D01*
G75*
G02*
X133820000Y-73325000I-150000J0D01*
G01*
X132320000Y-73325000D01*
G75*
G02*
X132170000Y-73175000I0J150000D01*
G01*
G37*
G36*
G01*
X132170000Y-74445000D02*
X132170000Y-74145000D01*
G75*
G02*
X132320000Y-73995000I150000J0D01*
G01*
X133820000Y-73995000D01*
G75*
G02*
X133970000Y-74145000I0J-150000D01*
G01*
X133970000Y-74445000D01*
G75*
G02*
X133820000Y-74595000I-150000J0D01*
G01*
X132320000Y-74595000D01*
G75*
G02*
X132170000Y-74445000I0J150000D01*
G01*
G37*
G36*
G01*
X132170000Y-75715000D02*
X132170000Y-75415000D01*
G75*
G02*
X132320000Y-75265000I150000J0D01*
G01*
X133820000Y-75265000D01*
G75*
G02*
X133970000Y-75415000I0J-150000D01*
G01*
X133970000Y-75715000D01*
G75*
G02*
X133820000Y-75865000I-150000J0D01*
G01*
X132320000Y-75865000D01*
G75*
G02*
X132170000Y-75715000I0J150000D01*
G01*
G37*
G36*
G01*
X132170000Y-76985000D02*
X132170000Y-76685000D01*
G75*
G02*
X132320000Y-76535000I150000J0D01*
G01*
X133820000Y-76535000D01*
G75*
G02*
X133970000Y-76685000I0J-150000D01*
G01*
X133970000Y-76985000D01*
G75*
G02*
X133820000Y-77135000I-150000J0D01*
G01*
X132320000Y-77135000D01*
G75*
G02*
X132170000Y-76985000I0J150000D01*
G01*
G37*
G36*
G01*
X132170000Y-78255000D02*
X132170000Y-77955000D01*
G75*
G02*
X132320000Y-77805000I150000J0D01*
G01*
X133820000Y-77805000D01*
G75*
G02*
X133970000Y-77955000I0J-150000D01*
G01*
X133970000Y-78255000D01*
G75*
G02*
X133820000Y-78405000I-150000J0D01*
G01*
X132320000Y-78405000D01*
G75*
G02*
X132170000Y-78255000I0J150000D01*
G01*
G37*
G36*
G01*
X132170000Y-79525000D02*
X132170000Y-79225000D01*
G75*
G02*
X132320000Y-79075000I150000J0D01*
G01*
X133820000Y-79075000D01*
G75*
G02*
X133970000Y-79225000I0J-150000D01*
G01*
X133970000Y-79525000D01*
G75*
G02*
X133820000Y-79675000I-150000J0D01*
G01*
X132320000Y-79675000D01*
G75*
G02*
X132170000Y-79525000I0J150000D01*
G01*
G37*
G36*
G01*
X132170000Y-80795000D02*
X132170000Y-80495000D01*
G75*
G02*
X132320000Y-80345000I150000J0D01*
G01*
X133820000Y-80345000D01*
G75*
G02*
X133970000Y-80495000I0J-150000D01*
G01*
X133970000Y-80795000D01*
G75*
G02*
X133820000Y-80945000I-150000J0D01*
G01*
X132320000Y-80945000D01*
G75*
G02*
X132170000Y-80795000I0J150000D01*
G01*
G37*
G36*
G01*
X132170000Y-82065000D02*
X132170000Y-81765000D01*
G75*
G02*
X132320000Y-81615000I150000J0D01*
G01*
X133820000Y-81615000D01*
G75*
G02*
X133970000Y-81765000I0J-150000D01*
G01*
X133970000Y-82065000D01*
G75*
G02*
X133820000Y-82215000I-150000J0D01*
G01*
X132320000Y-82215000D01*
G75*
G02*
X132170000Y-82065000I0J150000D01*
G01*
G37*
G36*
G01*
X132170000Y-83335000D02*
X132170000Y-83035000D01*
G75*
G02*
X132320000Y-82885000I150000J0D01*
G01*
X133820000Y-82885000D01*
G75*
G02*
X133970000Y-83035000I0J-150000D01*
G01*
X133970000Y-83335000D01*
G75*
G02*
X133820000Y-83485000I-150000J0D01*
G01*
X132320000Y-83485000D01*
G75*
G02*
X132170000Y-83335000I0J150000D01*
G01*
G37*
G36*
G01*
X132170000Y-84605000D02*
X132170000Y-84305000D01*
G75*
G02*
X132320000Y-84155000I150000J0D01*
G01*
X133820000Y-84155000D01*
G75*
G02*
X133970000Y-84305000I0J-150000D01*
G01*
X133970000Y-84605000D01*
G75*
G02*
X133820000Y-84755000I-150000J0D01*
G01*
X132320000Y-84755000D01*
G75*
G02*
X132170000Y-84605000I0J150000D01*
G01*
G37*
G36*
G01*
X132170000Y-85875000D02*
X132170000Y-85575000D01*
G75*
G02*
X132320000Y-85425000I150000J0D01*
G01*
X133820000Y-85425000D01*
G75*
G02*
X133970000Y-85575000I0J-150000D01*
G01*
X133970000Y-85875000D01*
G75*
G02*
X133820000Y-86025000I-150000J0D01*
G01*
X132320000Y-86025000D01*
G75*
G02*
X132170000Y-85875000I0J150000D01*
G01*
G37*
G36*
G01*
X122570000Y-85875000D02*
X122570000Y-85575000D01*
G75*
G02*
X122720000Y-85425000I150000J0D01*
G01*
X124220000Y-85425000D01*
G75*
G02*
X124370000Y-85575000I0J-150000D01*
G01*
X124370000Y-85875000D01*
G75*
G02*
X124220000Y-86025000I-150000J0D01*
G01*
X122720000Y-86025000D01*
G75*
G02*
X122570000Y-85875000I0J150000D01*
G01*
G37*
G36*
G01*
X122570000Y-84605000D02*
X122570000Y-84305000D01*
G75*
G02*
X122720000Y-84155000I150000J0D01*
G01*
X124220000Y-84155000D01*
G75*
G02*
X124370000Y-84305000I0J-150000D01*
G01*
X124370000Y-84605000D01*
G75*
G02*
X124220000Y-84755000I-150000J0D01*
G01*
X122720000Y-84755000D01*
G75*
G02*
X122570000Y-84605000I0J150000D01*
G01*
G37*
G36*
G01*
X122570000Y-83335000D02*
X122570000Y-83035000D01*
G75*
G02*
X122720000Y-82885000I150000J0D01*
G01*
X124220000Y-82885000D01*
G75*
G02*
X124370000Y-83035000I0J-150000D01*
G01*
X124370000Y-83335000D01*
G75*
G02*
X124220000Y-83485000I-150000J0D01*
G01*
X122720000Y-83485000D01*
G75*
G02*
X122570000Y-83335000I0J150000D01*
G01*
G37*
G36*
G01*
X122570000Y-82065000D02*
X122570000Y-81765000D01*
G75*
G02*
X122720000Y-81615000I150000J0D01*
G01*
X124220000Y-81615000D01*
G75*
G02*
X124370000Y-81765000I0J-150000D01*
G01*
X124370000Y-82065000D01*
G75*
G02*
X124220000Y-82215000I-150000J0D01*
G01*
X122720000Y-82215000D01*
G75*
G02*
X122570000Y-82065000I0J150000D01*
G01*
G37*
G36*
G01*
X122570000Y-80795000D02*
X122570000Y-80495000D01*
G75*
G02*
X122720000Y-80345000I150000J0D01*
G01*
X124220000Y-80345000D01*
G75*
G02*
X124370000Y-80495000I0J-150000D01*
G01*
X124370000Y-80795000D01*
G75*
G02*
X124220000Y-80945000I-150000J0D01*
G01*
X122720000Y-80945000D01*
G75*
G02*
X122570000Y-80795000I0J150000D01*
G01*
G37*
G36*
G01*
X122570000Y-79525000D02*
X122570000Y-79225000D01*
G75*
G02*
X122720000Y-79075000I150000J0D01*
G01*
X124220000Y-79075000D01*
G75*
G02*
X124370000Y-79225000I0J-150000D01*
G01*
X124370000Y-79525000D01*
G75*
G02*
X124220000Y-79675000I-150000J0D01*
G01*
X122720000Y-79675000D01*
G75*
G02*
X122570000Y-79525000I0J150000D01*
G01*
G37*
G36*
G01*
X122570000Y-78255000D02*
X122570000Y-77955000D01*
G75*
G02*
X122720000Y-77805000I150000J0D01*
G01*
X124220000Y-77805000D01*
G75*
G02*
X124370000Y-77955000I0J-150000D01*
G01*
X124370000Y-78255000D01*
G75*
G02*
X124220000Y-78405000I-150000J0D01*
G01*
X122720000Y-78405000D01*
G75*
G02*
X122570000Y-78255000I0J150000D01*
G01*
G37*
G36*
G01*
X122570000Y-76985000D02*
X122570000Y-76685000D01*
G75*
G02*
X122720000Y-76535000I150000J0D01*
G01*
X124220000Y-76535000D01*
G75*
G02*
X124370000Y-76685000I0J-150000D01*
G01*
X124370000Y-76985000D01*
G75*
G02*
X124220000Y-77135000I-150000J0D01*
G01*
X122720000Y-77135000D01*
G75*
G02*
X122570000Y-76985000I0J150000D01*
G01*
G37*
G36*
G01*
X122570000Y-75715000D02*
X122570000Y-75415000D01*
G75*
G02*
X122720000Y-75265000I150000J0D01*
G01*
X124220000Y-75265000D01*
G75*
G02*
X124370000Y-75415000I0J-150000D01*
G01*
X124370000Y-75715000D01*
G75*
G02*
X124220000Y-75865000I-150000J0D01*
G01*
X122720000Y-75865000D01*
G75*
G02*
X122570000Y-75715000I0J150000D01*
G01*
G37*
G36*
G01*
X122570000Y-74445000D02*
X122570000Y-74145000D01*
G75*
G02*
X122720000Y-73995000I150000J0D01*
G01*
X124220000Y-73995000D01*
G75*
G02*
X124370000Y-74145000I0J-150000D01*
G01*
X124370000Y-74445000D01*
G75*
G02*
X124220000Y-74595000I-150000J0D01*
G01*
X122720000Y-74595000D01*
G75*
G02*
X122570000Y-74445000I0J150000D01*
G01*
G37*
G36*
G01*
X122570000Y-73175000D02*
X122570000Y-72875000D01*
G75*
G02*
X122720000Y-72725000I150000J0D01*
G01*
X124220000Y-72725000D01*
G75*
G02*
X124370000Y-72875000I0J-150000D01*
G01*
X124370000Y-73175000D01*
G75*
G02*
X124220000Y-73325000I-150000J0D01*
G01*
X122720000Y-73325000D01*
G75*
G02*
X122570000Y-73175000I0J150000D01*
G01*
G37*
G36*
G01*
X122570000Y-71905000D02*
X122570000Y-71605000D01*
G75*
G02*
X122720000Y-71455000I150000J0D01*
G01*
X124220000Y-71455000D01*
G75*
G02*
X124370000Y-71605000I0J-150000D01*
G01*
X124370000Y-71905000D01*
G75*
G02*
X124220000Y-72055000I-150000J0D01*
G01*
X122720000Y-72055000D01*
G75*
G02*
X122570000Y-71905000I0J150000D01*
G01*
G37*
G36*
G01*
X122570000Y-70635000D02*
X122570000Y-70335000D01*
G75*
G02*
X122720000Y-70185000I150000J0D01*
G01*
X124220000Y-70185000D01*
G75*
G02*
X124370000Y-70335000I0J-150000D01*
G01*
X124370000Y-70635000D01*
G75*
G02*
X124220000Y-70785000I-150000J0D01*
G01*
X122720000Y-70785000D01*
G75*
G02*
X122570000Y-70635000I0J150000D01*
G01*
G37*
G36*
G01*
X122570000Y-69365000D02*
X122570000Y-69065000D01*
G75*
G02*
X122720000Y-68915000I150000J0D01*
G01*
X124220000Y-68915000D01*
G75*
G02*
X124370000Y-69065000I0J-150000D01*
G01*
X124370000Y-69365000D01*
G75*
G02*
X124220000Y-69515000I-150000J0D01*
G01*
X122720000Y-69515000D01*
G75*
G02*
X122570000Y-69365000I0J150000D01*
G01*
G37*
%TD*%
D12*
%TO.C,TP7*%
X116840000Y-57785000D03*
%TD*%
%TO.C,TP6*%
X121285000Y-57785000D03*
%TD*%
%TO.C,TP2*%
X125730000Y-57785000D03*
%TD*%
D27*
%TO.C,SW9*%
X195580000Y-55920000D03*
G36*
G01*
X196330000Y-59270000D02*
X194830000Y-59270000D01*
G75*
G02*
X194580000Y-59020000I0J250000D01*
G01*
X194580000Y-57820000D01*
G75*
G02*
X194830000Y-57570000I250000J0D01*
G01*
X196330000Y-57570000D01*
G75*
G02*
X196580000Y-57820000I0J-250000D01*
G01*
X196580000Y-59020000D01*
G75*
G02*
X196330000Y-59270000I-250000J0D01*
G01*
G37*
%TD*%
D28*
%TO.C,SW7*%
X167790000Y-116205000D03*
X167790000Y-120705000D03*
X161290000Y-116205000D03*
X161290000Y-120705000D03*
%TD*%
%TO.C,SW6*%
X124610000Y-116205000D03*
X124610000Y-120705000D03*
X118110000Y-116205000D03*
X118110000Y-120705000D03*
%TD*%
%TO.C,SW5*%
X135405000Y-116205000D03*
X135405000Y-120705000D03*
X128905000Y-116205000D03*
X128905000Y-120705000D03*
%TD*%
%TO.C,SW4*%
X146200000Y-116205000D03*
X146200000Y-120705000D03*
X139700000Y-116205000D03*
X139700000Y-120705000D03*
%TD*%
%TO.C,SW3*%
X156995000Y-116205000D03*
X156995000Y-120705000D03*
X150495000Y-116205000D03*
X150495000Y-120705000D03*
%TD*%
%TO.C,SW1*%
X106830000Y-116205000D03*
X106830000Y-120705000D03*
X100330000Y-116205000D03*
X100330000Y-120705000D03*
%TD*%
%TO.C,R37*%
G36*
G01*
X166605000Y-70034999D02*
X166605000Y-70935001D01*
G75*
G02*
X166355001Y-71185000I-249999J0D01*
G01*
X165654999Y-71185000D01*
G75*
G02*
X165405000Y-70935001I0J249999D01*
G01*
X165405000Y-70034999D01*
G75*
G02*
X165654999Y-69785000I249999J0D01*
G01*
X166355001Y-69785000D01*
G75*
G02*
X166605000Y-70034999I0J-249999D01*
G01*
G37*
G36*
G01*
X168605000Y-70034999D02*
X168605000Y-70935001D01*
G75*
G02*
X168355001Y-71185000I-249999J0D01*
G01*
X167654999Y-71185000D01*
G75*
G02*
X167405000Y-70935001I0J249999D01*
G01*
X167405000Y-70034999D01*
G75*
G02*
X167654999Y-69785000I249999J0D01*
G01*
X168355001Y-69785000D01*
G75*
G02*
X168605000Y-70034999I0J-249999D01*
G01*
G37*
%TD*%
%TO.C,R36*%
G36*
G01*
X171050000Y-70034999D02*
X171050000Y-70935001D01*
G75*
G02*
X170800001Y-71185000I-249999J0D01*
G01*
X170099999Y-71185000D01*
G75*
G02*
X169850000Y-70935001I0J249999D01*
G01*
X169850000Y-70034999D01*
G75*
G02*
X170099999Y-69785000I249999J0D01*
G01*
X170800001Y-69785000D01*
G75*
G02*
X171050000Y-70034999I0J-249999D01*
G01*
G37*
G36*
G01*
X173050000Y-70034999D02*
X173050000Y-70935001D01*
G75*
G02*
X172800001Y-71185000I-249999J0D01*
G01*
X172099999Y-71185000D01*
G75*
G02*
X171850000Y-70935001I0J249999D01*
G01*
X171850000Y-70034999D01*
G75*
G02*
X172099999Y-69785000I249999J0D01*
G01*
X172800001Y-69785000D01*
G75*
G02*
X173050000Y-70034999I0J-249999D01*
G01*
G37*
%TD*%
%TO.C,R32*%
G36*
G01*
X163595000Y-67125001D02*
X163595000Y-66224999D01*
G75*
G02*
X163844999Y-65975000I249999J0D01*
G01*
X164545001Y-65975000D01*
G75*
G02*
X164795000Y-66224999I0J-249999D01*
G01*
X164795000Y-67125001D01*
G75*
G02*
X164545001Y-67375000I-249999J0D01*
G01*
X163844999Y-67375000D01*
G75*
G02*
X163595000Y-67125001I0J249999D01*
G01*
G37*
G36*
G01*
X161595000Y-67125001D02*
X161595000Y-66224999D01*
G75*
G02*
X161844999Y-65975000I249999J0D01*
G01*
X162545001Y-65975000D01*
G75*
G02*
X162795000Y-66224999I0J-249999D01*
G01*
X162795000Y-67125001D01*
G75*
G02*
X162545001Y-67375000I-249999J0D01*
G01*
X161844999Y-67375000D01*
G75*
G02*
X161595000Y-67125001I0J249999D01*
G01*
G37*
%TD*%
%TO.C,R31*%
G36*
G01*
X116389999Y-74695000D02*
X117290001Y-74695000D01*
G75*
G02*
X117540000Y-74944999I0J-249999D01*
G01*
X117540000Y-75645001D01*
G75*
G02*
X117290001Y-75895000I-249999J0D01*
G01*
X116389999Y-75895000D01*
G75*
G02*
X116140000Y-75645001I0J249999D01*
G01*
X116140000Y-74944999D01*
G75*
G02*
X116389999Y-74695000I249999J0D01*
G01*
G37*
G36*
G01*
X116389999Y-72695000D02*
X117290001Y-72695000D01*
G75*
G02*
X117540000Y-72944999I0J-249999D01*
G01*
X117540000Y-73645001D01*
G75*
G02*
X117290001Y-73895000I-249999J0D01*
G01*
X116389999Y-73895000D01*
G75*
G02*
X116140000Y-73645001I0J249999D01*
G01*
X116140000Y-72944999D01*
G75*
G02*
X116389999Y-72695000I249999J0D01*
G01*
G37*
%TD*%
%TO.C,R30*%
G36*
G01*
X118929999Y-70250000D02*
X119830001Y-70250000D01*
G75*
G02*
X120080000Y-70499999I0J-249999D01*
G01*
X120080000Y-71200001D01*
G75*
G02*
X119830001Y-71450000I-249999J0D01*
G01*
X118929999Y-71450000D01*
G75*
G02*
X118680000Y-71200001I0J249999D01*
G01*
X118680000Y-70499999D01*
G75*
G02*
X118929999Y-70250000I249999J0D01*
G01*
G37*
G36*
G01*
X118929999Y-68250000D02*
X119830001Y-68250000D01*
G75*
G02*
X120080000Y-68499999I0J-249999D01*
G01*
X120080000Y-69200001D01*
G75*
G02*
X119830001Y-69450000I-249999J0D01*
G01*
X118929999Y-69450000D01*
G75*
G02*
X118680000Y-69200001I0J249999D01*
G01*
X118680000Y-68499999D01*
G75*
G02*
X118929999Y-68250000I249999J0D01*
G01*
G37*
%TD*%
%TO.C,R29*%
G36*
G01*
X180524999Y-95650000D02*
X181425001Y-95650000D01*
G75*
G02*
X181675000Y-95899999I0J-249999D01*
G01*
X181675000Y-96600001D01*
G75*
G02*
X181425001Y-96850000I-249999J0D01*
G01*
X180524999Y-96850000D01*
G75*
G02*
X180275000Y-96600001I0J249999D01*
G01*
X180275000Y-95899999D01*
G75*
G02*
X180524999Y-95650000I249999J0D01*
G01*
G37*
G36*
G01*
X180524999Y-93650000D02*
X181425001Y-93650000D01*
G75*
G02*
X181675000Y-93899999I0J-249999D01*
G01*
X181675000Y-94600001D01*
G75*
G02*
X181425001Y-94850000I-249999J0D01*
G01*
X180524999Y-94850000D01*
G75*
G02*
X180275000Y-94600001I0J249999D01*
G01*
X180275000Y-93899999D01*
G75*
G02*
X180524999Y-93650000I249999J0D01*
G01*
G37*
%TD*%
%TO.C,R28*%
G36*
G01*
X161525000Y-98609999D02*
X161525000Y-99510001D01*
G75*
G02*
X161275001Y-99760000I-249999J0D01*
G01*
X160574999Y-99760000D01*
G75*
G02*
X160325000Y-99510001I0J249999D01*
G01*
X160325000Y-98609999D01*
G75*
G02*
X160574999Y-98360000I249999J0D01*
G01*
X161275001Y-98360000D01*
G75*
G02*
X161525000Y-98609999I0J-249999D01*
G01*
G37*
G36*
G01*
X163525000Y-98609999D02*
X163525000Y-99510001D01*
G75*
G02*
X163275001Y-99760000I-249999J0D01*
G01*
X162574999Y-99760000D01*
G75*
G02*
X162325000Y-99510001I0J249999D01*
G01*
X162325000Y-98609999D01*
G75*
G02*
X162574999Y-98360000I249999J0D01*
G01*
X163275001Y-98360000D01*
G75*
G02*
X163525000Y-98609999I0J-249999D01*
G01*
G37*
%TD*%
%TO.C,R27*%
G36*
G01*
X172904999Y-102635000D02*
X173805001Y-102635000D01*
G75*
G02*
X174055000Y-102884999I0J-249999D01*
G01*
X174055000Y-103585001D01*
G75*
G02*
X173805001Y-103835000I-249999J0D01*
G01*
X172904999Y-103835000D01*
G75*
G02*
X172655000Y-103585001I0J249999D01*
G01*
X172655000Y-102884999D01*
G75*
G02*
X172904999Y-102635000I249999J0D01*
G01*
G37*
G36*
G01*
X172904999Y-100635000D02*
X173805001Y-100635000D01*
G75*
G02*
X174055000Y-100884999I0J-249999D01*
G01*
X174055000Y-101585001D01*
G75*
G02*
X173805001Y-101835000I-249999J0D01*
G01*
X172904999Y-101835000D01*
G75*
G02*
X172655000Y-101585001I0J249999D01*
G01*
X172655000Y-100884999D01*
G75*
G02*
X172904999Y-100635000I249999J0D01*
G01*
G37*
%TD*%
%TO.C,R26*%
G36*
G01*
X167824999Y-102635000D02*
X168725001Y-102635000D01*
G75*
G02*
X168975000Y-102884999I0J-249999D01*
G01*
X168975000Y-103585001D01*
G75*
G02*
X168725001Y-103835000I-249999J0D01*
G01*
X167824999Y-103835000D01*
G75*
G02*
X167575000Y-103585001I0J249999D01*
G01*
X167575000Y-102884999D01*
G75*
G02*
X167824999Y-102635000I249999J0D01*
G01*
G37*
G36*
G01*
X167824999Y-100635000D02*
X168725001Y-100635000D01*
G75*
G02*
X168975000Y-100884999I0J-249999D01*
G01*
X168975000Y-101585001D01*
G75*
G02*
X168725001Y-101835000I-249999J0D01*
G01*
X167824999Y-101835000D01*
G75*
G02*
X167575000Y-101585001I0J249999D01*
G01*
X167575000Y-100884999D01*
G75*
G02*
X167824999Y-100635000I249999J0D01*
G01*
G37*
%TD*%
%TO.C,R25*%
G36*
G01*
X171265001Y-101835000D02*
X170364999Y-101835000D01*
G75*
G02*
X170115000Y-101585001I0J249999D01*
G01*
X170115000Y-100884999D01*
G75*
G02*
X170364999Y-100635000I249999J0D01*
G01*
X171265001Y-100635000D01*
G75*
G02*
X171515000Y-100884999I0J-249999D01*
G01*
X171515000Y-101585001D01*
G75*
G02*
X171265001Y-101835000I-249999J0D01*
G01*
G37*
G36*
G01*
X171265001Y-103835000D02*
X170364999Y-103835000D01*
G75*
G02*
X170115000Y-103585001I0J249999D01*
G01*
X170115000Y-102884999D01*
G75*
G02*
X170364999Y-102635000I249999J0D01*
G01*
X171265001Y-102635000D01*
G75*
G02*
X171515000Y-102884999I0J-249999D01*
G01*
X171515000Y-103585001D01*
G75*
G02*
X171265001Y-103835000I-249999J0D01*
G01*
G37*
%TD*%
%TO.C,R24*%
G36*
G01*
X170364999Y-107080000D02*
X171265001Y-107080000D01*
G75*
G02*
X171515000Y-107329999I0J-249999D01*
G01*
X171515000Y-108030001D01*
G75*
G02*
X171265001Y-108280000I-249999J0D01*
G01*
X170364999Y-108280000D01*
G75*
G02*
X170115000Y-108030001I0J249999D01*
G01*
X170115000Y-107329999D01*
G75*
G02*
X170364999Y-107080000I249999J0D01*
G01*
G37*
G36*
G01*
X170364999Y-105080000D02*
X171265001Y-105080000D01*
G75*
G02*
X171515000Y-105329999I0J-249999D01*
G01*
X171515000Y-106030001D01*
G75*
G02*
X171265001Y-106280000I-249999J0D01*
G01*
X170364999Y-106280000D01*
G75*
G02*
X170115000Y-106030001I0J249999D01*
G01*
X170115000Y-105329999D01*
G75*
G02*
X170364999Y-105080000I249999J0D01*
G01*
G37*
%TD*%
%TO.C,R23*%
G36*
G01*
X167824999Y-107080000D02*
X168725001Y-107080000D01*
G75*
G02*
X168975000Y-107329999I0J-249999D01*
G01*
X168975000Y-108030001D01*
G75*
G02*
X168725001Y-108280000I-249999J0D01*
G01*
X167824999Y-108280000D01*
G75*
G02*
X167575000Y-108030001I0J249999D01*
G01*
X167575000Y-107329999D01*
G75*
G02*
X167824999Y-107080000I249999J0D01*
G01*
G37*
G36*
G01*
X167824999Y-105080000D02*
X168725001Y-105080000D01*
G75*
G02*
X168975000Y-105329999I0J-249999D01*
G01*
X168975000Y-106030001D01*
G75*
G02*
X168725001Y-106280000I-249999J0D01*
G01*
X167824999Y-106280000D01*
G75*
G02*
X167575000Y-106030001I0J249999D01*
G01*
X167575000Y-105329999D01*
G75*
G02*
X167824999Y-105080000I249999J0D01*
G01*
G37*
%TD*%
%TO.C,R22*%
G36*
G01*
X164865000Y-110305001D02*
X164865000Y-109404999D01*
G75*
G02*
X165114999Y-109155000I249999J0D01*
G01*
X165815001Y-109155000D01*
G75*
G02*
X166065000Y-109404999I0J-249999D01*
G01*
X166065000Y-110305001D01*
G75*
G02*
X165815001Y-110555000I-249999J0D01*
G01*
X165114999Y-110555000D01*
G75*
G02*
X164865000Y-110305001I0J249999D01*
G01*
G37*
G36*
G01*
X162865000Y-110305001D02*
X162865000Y-109404999D01*
G75*
G02*
X163114999Y-109155000I249999J0D01*
G01*
X163815001Y-109155000D01*
G75*
G02*
X164065000Y-109404999I0J-249999D01*
G01*
X164065000Y-110305001D01*
G75*
G02*
X163815001Y-110555000I-249999J0D01*
G01*
X163114999Y-110555000D01*
G75*
G02*
X162865000Y-110305001I0J249999D01*
G01*
G37*
%TD*%
%TO.C,R20*%
G36*
G01*
X121685000Y-110305001D02*
X121685000Y-109404999D01*
G75*
G02*
X121934999Y-109155000I249999J0D01*
G01*
X122635001Y-109155000D01*
G75*
G02*
X122885000Y-109404999I0J-249999D01*
G01*
X122885000Y-110305001D01*
G75*
G02*
X122635001Y-110555000I-249999J0D01*
G01*
X121934999Y-110555000D01*
G75*
G02*
X121685000Y-110305001I0J249999D01*
G01*
G37*
G36*
G01*
X119685000Y-110305001D02*
X119685000Y-109404999D01*
G75*
G02*
X119934999Y-109155000I249999J0D01*
G01*
X120635001Y-109155000D01*
G75*
G02*
X120885000Y-109404999I0J-249999D01*
G01*
X120885000Y-110305001D01*
G75*
G02*
X120635001Y-110555000I-249999J0D01*
G01*
X119934999Y-110555000D01*
G75*
G02*
X119685000Y-110305001I0J249999D01*
G01*
G37*
%TD*%
%TO.C,R16*%
G36*
G01*
X132480000Y-110305001D02*
X132480000Y-109404999D01*
G75*
G02*
X132729999Y-109155000I249999J0D01*
G01*
X133430001Y-109155000D01*
G75*
G02*
X133680000Y-109404999I0J-249999D01*
G01*
X133680000Y-110305001D01*
G75*
G02*
X133430001Y-110555000I-249999J0D01*
G01*
X132729999Y-110555000D01*
G75*
G02*
X132480000Y-110305001I0J249999D01*
G01*
G37*
G36*
G01*
X130480000Y-110305001D02*
X130480000Y-109404999D01*
G75*
G02*
X130729999Y-109155000I249999J0D01*
G01*
X131430001Y-109155000D01*
G75*
G02*
X131680000Y-109404999I0J-249999D01*
G01*
X131680000Y-110305001D01*
G75*
G02*
X131430001Y-110555000I-249999J0D01*
G01*
X130729999Y-110555000D01*
G75*
G02*
X130480000Y-110305001I0J249999D01*
G01*
G37*
%TD*%
%TO.C,R14*%
G36*
G01*
X181210000Y-52254999D02*
X181210000Y-53155001D01*
G75*
G02*
X180960001Y-53405000I-249999J0D01*
G01*
X180259999Y-53405000D01*
G75*
G02*
X180010000Y-53155001I0J249999D01*
G01*
X180010000Y-52254999D01*
G75*
G02*
X180259999Y-52005000I249999J0D01*
G01*
X180960001Y-52005000D01*
G75*
G02*
X181210000Y-52254999I0J-249999D01*
G01*
G37*
G36*
G01*
X183210000Y-52254999D02*
X183210000Y-53155001D01*
G75*
G02*
X182960001Y-53405000I-249999J0D01*
G01*
X182259999Y-53405000D01*
G75*
G02*
X182010000Y-53155001I0J249999D01*
G01*
X182010000Y-52254999D01*
G75*
G02*
X182259999Y-52005000I249999J0D01*
G01*
X182960001Y-52005000D01*
G75*
G02*
X183210000Y-52254999I0J-249999D01*
G01*
G37*
%TD*%
%TO.C,R13*%
G36*
G01*
X143275000Y-110305001D02*
X143275000Y-109404999D01*
G75*
G02*
X143524999Y-109155000I249999J0D01*
G01*
X144225001Y-109155000D01*
G75*
G02*
X144475000Y-109404999I0J-249999D01*
G01*
X144475000Y-110305001D01*
G75*
G02*
X144225001Y-110555000I-249999J0D01*
G01*
X143524999Y-110555000D01*
G75*
G02*
X143275000Y-110305001I0J249999D01*
G01*
G37*
G36*
G01*
X141275000Y-110305001D02*
X141275000Y-109404999D01*
G75*
G02*
X141524999Y-109155000I249999J0D01*
G01*
X142225001Y-109155000D01*
G75*
G02*
X142475000Y-109404999I0J-249999D01*
G01*
X142475000Y-110305001D01*
G75*
G02*
X142225001Y-110555000I-249999J0D01*
G01*
X141524999Y-110555000D01*
G75*
G02*
X141275000Y-110305001I0J249999D01*
G01*
G37*
%TD*%
%TO.C,R11*%
G36*
G01*
X154070000Y-110305001D02*
X154070000Y-109404999D01*
G75*
G02*
X154319999Y-109155000I249999J0D01*
G01*
X155020001Y-109155000D01*
G75*
G02*
X155270000Y-109404999I0J-249999D01*
G01*
X155270000Y-110305001D01*
G75*
G02*
X155020001Y-110555000I-249999J0D01*
G01*
X154319999Y-110555000D01*
G75*
G02*
X154070000Y-110305001I0J249999D01*
G01*
G37*
G36*
G01*
X152070000Y-110305001D02*
X152070000Y-109404999D01*
G75*
G02*
X152319999Y-109155000I249999J0D01*
G01*
X153020001Y-109155000D01*
G75*
G02*
X153270000Y-109404999I0J-249999D01*
G01*
X153270000Y-110305001D01*
G75*
G02*
X153020001Y-110555000I-249999J0D01*
G01*
X152319999Y-110555000D01*
G75*
G02*
X152070000Y-110305001I0J249999D01*
G01*
G37*
%TD*%
%TO.C,R7*%
G36*
G01*
X110674999Y-86125000D02*
X111575001Y-86125000D01*
G75*
G02*
X111825000Y-86374999I0J-249999D01*
G01*
X111825000Y-87075001D01*
G75*
G02*
X111575001Y-87325000I-249999J0D01*
G01*
X110674999Y-87325000D01*
G75*
G02*
X110425000Y-87075001I0J249999D01*
G01*
X110425000Y-86374999D01*
G75*
G02*
X110674999Y-86125000I249999J0D01*
G01*
G37*
G36*
G01*
X110674999Y-84125000D02*
X111575001Y-84125000D01*
G75*
G02*
X111825000Y-84374999I0J-249999D01*
G01*
X111825000Y-85075001D01*
G75*
G02*
X111575001Y-85325000I-249999J0D01*
G01*
X110674999Y-85325000D01*
G75*
G02*
X110425000Y-85075001I0J249999D01*
G01*
X110425000Y-84374999D01*
G75*
G02*
X110674999Y-84125000I249999J0D01*
G01*
G37*
%TD*%
%TO.C,R6*%
G36*
G01*
X110674999Y-76600000D02*
X111575001Y-76600000D01*
G75*
G02*
X111825000Y-76849999I0J-249999D01*
G01*
X111825000Y-77550001D01*
G75*
G02*
X111575001Y-77800000I-249999J0D01*
G01*
X110674999Y-77800000D01*
G75*
G02*
X110425000Y-77550001I0J249999D01*
G01*
X110425000Y-76849999D01*
G75*
G02*
X110674999Y-76600000I249999J0D01*
G01*
G37*
G36*
G01*
X110674999Y-74600000D02*
X111575001Y-74600000D01*
G75*
G02*
X111825000Y-74849999I0J-249999D01*
G01*
X111825000Y-75550001D01*
G75*
G02*
X111575001Y-75800000I-249999J0D01*
G01*
X110674999Y-75800000D01*
G75*
G02*
X110425000Y-75550001I0J249999D01*
G01*
X110425000Y-74849999D01*
G75*
G02*
X110674999Y-74600000I249999J0D01*
G01*
G37*
%TD*%
%TO.C,R4*%
G36*
G01*
X110674999Y-100095000D02*
X111575001Y-100095000D01*
G75*
G02*
X111825000Y-100344999I0J-249999D01*
G01*
X111825000Y-101045001D01*
G75*
G02*
X111575001Y-101295000I-249999J0D01*
G01*
X110674999Y-101295000D01*
G75*
G02*
X110425000Y-101045001I0J249999D01*
G01*
X110425000Y-100344999D01*
G75*
G02*
X110674999Y-100095000I249999J0D01*
G01*
G37*
G36*
G01*
X110674999Y-98095000D02*
X111575001Y-98095000D01*
G75*
G02*
X111825000Y-98344999I0J-249999D01*
G01*
X111825000Y-99045001D01*
G75*
G02*
X111575001Y-99295000I-249999J0D01*
G01*
X110674999Y-99295000D01*
G75*
G02*
X110425000Y-99045001I0J249999D01*
G01*
X110425000Y-98344999D01*
G75*
G02*
X110674999Y-98095000I249999J0D01*
G01*
G37*
%TD*%
%TO.C,R2*%
G36*
G01*
X110674999Y-104540000D02*
X111575001Y-104540000D01*
G75*
G02*
X111825000Y-104789999I0J-249999D01*
G01*
X111825000Y-105490001D01*
G75*
G02*
X111575001Y-105740000I-249999J0D01*
G01*
X110674999Y-105740000D01*
G75*
G02*
X110425000Y-105490001I0J249999D01*
G01*
X110425000Y-104789999D01*
G75*
G02*
X110674999Y-104540000I249999J0D01*
G01*
G37*
G36*
G01*
X110674999Y-102540000D02*
X111575001Y-102540000D01*
G75*
G02*
X111825000Y-102789999I0J-249999D01*
G01*
X111825000Y-103490001D01*
G75*
G02*
X111575001Y-103740000I-249999J0D01*
G01*
X110674999Y-103740000D01*
G75*
G02*
X110425000Y-103490001I0J249999D01*
G01*
X110425000Y-102789999D01*
G75*
G02*
X110674999Y-102540000I249999J0D01*
G01*
G37*
%TD*%
%TO.C,R1*%
G36*
G01*
X186655000Y-52254999D02*
X186655000Y-53155001D01*
G75*
G02*
X186405001Y-53405000I-249999J0D01*
G01*
X185704999Y-53405000D01*
G75*
G02*
X185455000Y-53155001I0J249999D01*
G01*
X185455000Y-52254999D01*
G75*
G02*
X185704999Y-52005000I249999J0D01*
G01*
X186405001Y-52005000D01*
G75*
G02*
X186655000Y-52254999I0J-249999D01*
G01*
G37*
G36*
G01*
X188655000Y-52254999D02*
X188655000Y-53155001D01*
G75*
G02*
X188405001Y-53405000I-249999J0D01*
G01*
X187704999Y-53405000D01*
G75*
G02*
X187455000Y-53155001I0J249999D01*
G01*
X187455000Y-52254999D01*
G75*
G02*
X187704999Y-52005000I249999J0D01*
G01*
X188405001Y-52005000D01*
G75*
G02*
X188655000Y-52254999I0J-249999D01*
G01*
G37*
%TD*%
D21*
%TO.C,LS2*%
X175895000Y-71755000D03*
D22*
X175895000Y-69215000D03*
%TD*%
D21*
%TO.C,LS1*%
X162560000Y-69850000D03*
D22*
X162560000Y-72390000D03*
%TD*%
%TO.C,L6*%
G36*
G01*
X168080000Y-53835000D02*
X165930000Y-53835000D01*
G75*
G02*
X165680000Y-53585000I0J250000D01*
G01*
X165680000Y-52660000D01*
G75*
G02*
X165930000Y-52410000I250000J0D01*
G01*
X168080000Y-52410000D01*
G75*
G02*
X168330000Y-52660000I0J-250000D01*
G01*
X168330000Y-53585000D01*
G75*
G02*
X168080000Y-53835000I-250000J0D01*
G01*
G37*
G36*
G01*
X168080000Y-56810000D02*
X165930000Y-56810000D01*
G75*
G02*
X165680000Y-56560000I0J250000D01*
G01*
X165680000Y-55635000D01*
G75*
G02*
X165930000Y-55385000I250000J0D01*
G01*
X168080000Y-55385000D01*
G75*
G02*
X168330000Y-55635000I0J-250000D01*
G01*
X168330000Y-56560000D01*
G75*
G02*
X168080000Y-56810000I-250000J0D01*
G01*
G37*
%TD*%
%TO.C,L4*%
G36*
G01*
X173170001Y-78925000D02*
X172269999Y-78925000D01*
G75*
G02*
X172020000Y-78675001I0J249999D01*
G01*
X172020000Y-78024999D01*
G75*
G02*
X172269999Y-77775000I249999J0D01*
G01*
X173170001Y-77775000D01*
G75*
G02*
X173420000Y-78024999I0J-249999D01*
G01*
X173420000Y-78675001D01*
G75*
G02*
X173170001Y-78925000I-249999J0D01*
G01*
G37*
G36*
G01*
X173170001Y-80975000D02*
X172269999Y-80975000D01*
G75*
G02*
X172020000Y-80725001I0J249999D01*
G01*
X172020000Y-80074999D01*
G75*
G02*
X172269999Y-79825000I249999J0D01*
G01*
X173170001Y-79825000D01*
G75*
G02*
X173420000Y-80074999I0J-249999D01*
G01*
X173420000Y-80725001D01*
G75*
G02*
X173170001Y-80975000I-249999J0D01*
G01*
G37*
%TD*%
%TO.C,L3*%
G36*
G01*
X170630001Y-78925000D02*
X169729999Y-78925000D01*
G75*
G02*
X169480000Y-78675001I0J249999D01*
G01*
X169480000Y-78024999D01*
G75*
G02*
X169729999Y-77775000I249999J0D01*
G01*
X170630001Y-77775000D01*
G75*
G02*
X170880000Y-78024999I0J-249999D01*
G01*
X170880000Y-78675001D01*
G75*
G02*
X170630001Y-78925000I-249999J0D01*
G01*
G37*
G36*
G01*
X170630001Y-80975000D02*
X169729999Y-80975000D01*
G75*
G02*
X169480000Y-80725001I0J249999D01*
G01*
X169480000Y-80074999D01*
G75*
G02*
X169729999Y-79825000I249999J0D01*
G01*
X170630001Y-79825000D01*
G75*
G02*
X170880000Y-80074999I0J-249999D01*
G01*
X170880000Y-80725001D01*
G75*
G02*
X170630001Y-80975000I-249999J0D01*
G01*
G37*
%TD*%
%TO.C,L2*%
G36*
G01*
X168090001Y-78925000D02*
X167189999Y-78925000D01*
G75*
G02*
X166940000Y-78675001I0J249999D01*
G01*
X166940000Y-78024999D01*
G75*
G02*
X167189999Y-77775000I249999J0D01*
G01*
X168090001Y-77775000D01*
G75*
G02*
X168340000Y-78024999I0J-249999D01*
G01*
X168340000Y-78675001D01*
G75*
G02*
X168090001Y-78925000I-249999J0D01*
G01*
G37*
G36*
G01*
X168090001Y-80975000D02*
X167189999Y-80975000D01*
G75*
G02*
X166940000Y-80725001I0J249999D01*
G01*
X166940000Y-80074999D01*
G75*
G02*
X167189999Y-79825000I249999J0D01*
G01*
X168090001Y-79825000D01*
G75*
G02*
X168340000Y-80074999I0J-249999D01*
G01*
X168340000Y-80725001D01*
G75*
G02*
X168090001Y-80975000I-249999J0D01*
G01*
G37*
%TD*%
%TO.C,L1*%
G36*
G01*
X165550001Y-78925000D02*
X164649999Y-78925000D01*
G75*
G02*
X164400000Y-78675001I0J249999D01*
G01*
X164400000Y-78024999D01*
G75*
G02*
X164649999Y-77775000I249999J0D01*
G01*
X165550001Y-77775000D01*
G75*
G02*
X165800000Y-78024999I0J-249999D01*
G01*
X165800000Y-78675001D01*
G75*
G02*
X165550001Y-78925000I-249999J0D01*
G01*
G37*
G36*
G01*
X165550001Y-80975000D02*
X164649999Y-80975000D01*
G75*
G02*
X164400000Y-80725001I0J249999D01*
G01*
X164400000Y-80074999D01*
G75*
G02*
X164649999Y-79825000I249999J0D01*
G01*
X165550001Y-79825000D01*
G75*
G02*
X165800000Y-80074999I0J-249999D01*
G01*
X165800000Y-80725001D01*
G75*
G02*
X165550001Y-80975000I-249999J0D01*
G01*
G37*
%TD*%
D29*
%TO.C,JP1*%
G36*
X105395000Y-110604398D02*
G01*
X105370466Y-110604398D01*
X105321635Y-110599588D01*
X105273510Y-110590016D01*
X105226555Y-110575772D01*
X105181222Y-110556995D01*
X105137949Y-110533864D01*
X105097150Y-110506604D01*
X105059221Y-110475476D01*
X105024524Y-110440779D01*
X104993396Y-110402850D01*
X104966136Y-110362051D01*
X104943005Y-110318778D01*
X104924228Y-110273445D01*
X104909984Y-110226490D01*
X104900412Y-110178365D01*
X104895602Y-110129534D01*
X104895602Y-110105000D01*
X104895000Y-110105000D01*
X104895000Y-109605000D01*
X104895602Y-109605000D01*
X104895602Y-109580466D01*
X104900412Y-109531635D01*
X104909984Y-109483510D01*
X104924228Y-109436555D01*
X104943005Y-109391222D01*
X104966136Y-109347949D01*
X104993396Y-109307150D01*
X105024524Y-109269221D01*
X105059221Y-109234524D01*
X105097150Y-109203396D01*
X105137949Y-109176136D01*
X105181222Y-109153005D01*
X105226555Y-109134228D01*
X105273510Y-109119984D01*
X105321635Y-109110412D01*
X105370466Y-109105602D01*
X105395000Y-109105602D01*
X105395000Y-109105000D01*
X105895000Y-109105000D01*
X105895000Y-110605000D01*
X105395000Y-110605000D01*
X105395000Y-110604398D01*
G37*
G36*
X106195000Y-109105000D02*
G01*
X106695000Y-109105000D01*
X106695000Y-109105602D01*
X106719534Y-109105602D01*
X106768365Y-109110412D01*
X106816490Y-109119984D01*
X106863445Y-109134228D01*
X106908778Y-109153005D01*
X106952051Y-109176136D01*
X106992850Y-109203396D01*
X107030779Y-109234524D01*
X107065476Y-109269221D01*
X107096604Y-109307150D01*
X107123864Y-109347949D01*
X107146995Y-109391222D01*
X107165772Y-109436555D01*
X107180016Y-109483510D01*
X107189588Y-109531635D01*
X107194398Y-109580466D01*
X107194398Y-109605000D01*
X107195000Y-109605000D01*
X107195000Y-110105000D01*
X107194398Y-110105000D01*
X107194398Y-110129534D01*
X107189588Y-110178365D01*
X107180016Y-110226490D01*
X107165772Y-110273445D01*
X107146995Y-110318778D01*
X107123864Y-110362051D01*
X107096604Y-110402850D01*
X107065476Y-110440779D01*
X107030779Y-110475476D01*
X106992850Y-110506604D01*
X106952051Y-110533864D01*
X106908778Y-110556995D01*
X106863445Y-110575772D01*
X106816490Y-110590016D01*
X106768365Y-110599588D01*
X106719534Y-110604398D01*
X106695000Y-110604398D01*
X106695000Y-110605000D01*
X106195000Y-110605000D01*
X106195000Y-109105000D01*
G37*
%TD*%
D22*
%TO.C,J1*%
X144780000Y-59055000D03*
D21*
X142240000Y-59055000D03*
X139700000Y-59055000D03*
X137160000Y-59055000D03*
X134620000Y-59055000D03*
%TD*%
D30*
%TO.C,D25*%
X92800000Y-68250000D03*
X92800000Y-71450000D03*
X97700000Y-68250000D03*
X97700000Y-71450000D03*
%TD*%
%TO.C,D24*%
X83275000Y-68250000D03*
X83275000Y-71450000D03*
X88175000Y-68250000D03*
X88175000Y-71450000D03*
%TD*%
%TO.C,D23*%
X204560000Y-68250000D03*
X204560000Y-71450000D03*
X209460000Y-68250000D03*
X209460000Y-71450000D03*
%TD*%
%TO.C,D22*%
X195035000Y-68250000D03*
X195035000Y-71450000D03*
X199935000Y-68250000D03*
X199935000Y-71450000D03*
%TD*%
%TO.C,D21*%
X92890000Y-75565000D03*
X92890000Y-78765000D03*
X97790000Y-75565000D03*
X97790000Y-78765000D03*
%TD*%
%TO.C,D20*%
X83275000Y-75235000D03*
X83275000Y-78435000D03*
X88175000Y-75235000D03*
X88175000Y-78435000D03*
%TD*%
%TO.C,D19*%
X204560000Y-75235000D03*
X204560000Y-78435000D03*
X209460000Y-75235000D03*
X209460000Y-78435000D03*
%TD*%
%TO.C,D18*%
X195035000Y-75235000D03*
X195035000Y-78435000D03*
X199935000Y-75235000D03*
X199935000Y-78435000D03*
%TD*%
%TO.C,D17*%
X92800000Y-82220000D03*
X92800000Y-85420000D03*
X97700000Y-82220000D03*
X97700000Y-85420000D03*
%TD*%
%TO.C,D16*%
X83275000Y-82220000D03*
X83275000Y-85420000D03*
X88175000Y-82220000D03*
X88175000Y-85420000D03*
%TD*%
%TO.C,D15*%
X204560000Y-82220000D03*
X204560000Y-85420000D03*
X209460000Y-82220000D03*
X209460000Y-85420000D03*
%TD*%
%TO.C,D14*%
X195035000Y-82220000D03*
X195035000Y-85420000D03*
X199935000Y-82220000D03*
X199935000Y-85420000D03*
%TD*%
%TO.C,D13*%
X92800000Y-89205000D03*
X92800000Y-92405000D03*
X97700000Y-89205000D03*
X97700000Y-92405000D03*
%TD*%
%TO.C,D12*%
X83275000Y-89205000D03*
X83275000Y-92405000D03*
X88175000Y-89205000D03*
X88175000Y-92405000D03*
%TD*%
%TO.C,D11*%
X204560000Y-89205000D03*
X204560000Y-92405000D03*
X209460000Y-89205000D03*
X209460000Y-92405000D03*
%TD*%
%TO.C,D10*%
X195035000Y-89205000D03*
X195035000Y-92405000D03*
X199935000Y-89205000D03*
X199935000Y-92405000D03*
%TD*%
%TO.C,D9*%
X92800000Y-96190000D03*
X92800000Y-99390000D03*
X97700000Y-96190000D03*
X97700000Y-99390000D03*
%TD*%
%TO.C,D8*%
X83275000Y-96190000D03*
X83275000Y-99390000D03*
X88175000Y-96190000D03*
X88175000Y-99390000D03*
%TD*%
%TO.C,D7*%
X204560000Y-96190000D03*
X204560000Y-99390000D03*
X209460000Y-96190000D03*
X209460000Y-99390000D03*
%TD*%
%TO.C,D6*%
X195035000Y-96190000D03*
X195035000Y-99390000D03*
X199935000Y-96190000D03*
X199935000Y-99390000D03*
%TD*%
%TO.C,D5*%
X92800000Y-103175000D03*
X92800000Y-106375000D03*
X97700000Y-103175000D03*
X97700000Y-106375000D03*
%TD*%
%TO.C,D4*%
X83275000Y-103175000D03*
X83275000Y-106375000D03*
X88175000Y-103175000D03*
X88175000Y-106375000D03*
%TD*%
%TO.C,D3*%
X204560000Y-103175000D03*
X204560000Y-106375000D03*
X209460000Y-103175000D03*
X209460000Y-106375000D03*
%TD*%
%TO.C,D2*%
X195035000Y-103175000D03*
X195035000Y-106375000D03*
X199935000Y-103175000D03*
X199935000Y-106375000D03*
%TD*%
D31*
%TO.C,D1*%
X183515000Y-57150000D03*
D32*
X180975000Y-57150000D03*
%TD*%
%TO.C,C47*%
G36*
G01*
X174440000Y-76040000D02*
X174440000Y-75090000D01*
G75*
G02*
X174690000Y-74840000I250000J0D01*
G01*
X175365000Y-74840000D01*
G75*
G02*
X175615000Y-75090000I0J-250000D01*
G01*
X175615000Y-76040000D01*
G75*
G02*
X175365000Y-76290000I-250000J0D01*
G01*
X174690000Y-76290000D01*
G75*
G02*
X174440000Y-76040000I0J250000D01*
G01*
G37*
G36*
G01*
X172365000Y-76040000D02*
X172365000Y-75090000D01*
G75*
G02*
X172615000Y-74840000I250000J0D01*
G01*
X173290000Y-74840000D01*
G75*
G02*
X173540000Y-75090000I0J-250000D01*
G01*
X173540000Y-76040000D01*
G75*
G02*
X173290000Y-76290000I-250000J0D01*
G01*
X172615000Y-76290000D01*
G75*
G02*
X172365000Y-76040000I0J250000D01*
G01*
G37*
%TD*%
%TO.C,C46*%
G36*
G01*
X169705000Y-75380000D02*
X170655000Y-75380000D01*
G75*
G02*
X170905000Y-75630000I0J-250000D01*
G01*
X170905000Y-76305000D01*
G75*
G02*
X170655000Y-76555000I-250000J0D01*
G01*
X169705000Y-76555000D01*
G75*
G02*
X169455000Y-76305000I0J250000D01*
G01*
X169455000Y-75630000D01*
G75*
G02*
X169705000Y-75380000I250000J0D01*
G01*
G37*
G36*
G01*
X169705000Y-73305000D02*
X170655000Y-73305000D01*
G75*
G02*
X170905000Y-73555000I0J-250000D01*
G01*
X170905000Y-74230000D01*
G75*
G02*
X170655000Y-74480000I-250000J0D01*
G01*
X169705000Y-74480000D01*
G75*
G02*
X169455000Y-74230000I0J250000D01*
G01*
X169455000Y-73555000D01*
G75*
G02*
X169705000Y-73305000I250000J0D01*
G01*
G37*
%TD*%
%TO.C,C45*%
G36*
G01*
X168115000Y-74480000D02*
X167165000Y-74480000D01*
G75*
G02*
X166915000Y-74230000I0J250000D01*
G01*
X166915000Y-73555000D01*
G75*
G02*
X167165000Y-73305000I250000J0D01*
G01*
X168115000Y-73305000D01*
G75*
G02*
X168365000Y-73555000I0J-250000D01*
G01*
X168365000Y-74230000D01*
G75*
G02*
X168115000Y-74480000I-250000J0D01*
G01*
G37*
G36*
G01*
X168115000Y-76555000D02*
X167165000Y-76555000D01*
G75*
G02*
X166915000Y-76305000I0J250000D01*
G01*
X166915000Y-75630000D01*
G75*
G02*
X167165000Y-75380000I250000J0D01*
G01*
X168115000Y-75380000D01*
G75*
G02*
X168365000Y-75630000I0J-250000D01*
G01*
X168365000Y-76305000D01*
G75*
G02*
X168115000Y-76555000I-250000J0D01*
G01*
G37*
%TD*%
%TO.C,C44*%
G36*
G01*
X163877500Y-76040000D02*
X163877500Y-75090000D01*
G75*
G02*
X164127500Y-74840000I250000J0D01*
G01*
X164802500Y-74840000D01*
G75*
G02*
X165052500Y-75090000I0J-250000D01*
G01*
X165052500Y-76040000D01*
G75*
G02*
X164802500Y-76290000I-250000J0D01*
G01*
X164127500Y-76290000D01*
G75*
G02*
X163877500Y-76040000I0J250000D01*
G01*
G37*
G36*
G01*
X161802500Y-76040000D02*
X161802500Y-75090000D01*
G75*
G02*
X162052500Y-74840000I250000J0D01*
G01*
X162727500Y-74840000D01*
G75*
G02*
X162977500Y-75090000I0J-250000D01*
G01*
X162977500Y-76040000D01*
G75*
G02*
X162727500Y-76290000I-250000J0D01*
G01*
X162052500Y-76290000D01*
G75*
G02*
X161802500Y-76040000I0J250000D01*
G01*
G37*
%TD*%
%TO.C,C43*%
G36*
G01*
X160525000Y-83985000D02*
X160525000Y-82385000D01*
G75*
G02*
X160775000Y-82135000I250000J0D01*
G01*
X164775000Y-82135000D01*
G75*
G02*
X165025000Y-82385000I0J-250000D01*
G01*
X165025000Y-83985000D01*
G75*
G02*
X164775000Y-84235000I-250000J0D01*
G01*
X160775000Y-84235000D01*
G75*
G02*
X160525000Y-83985000I0J250000D01*
G01*
G37*
G36*
G01*
X153325000Y-83985000D02*
X153325000Y-82385000D01*
G75*
G02*
X153575000Y-82135000I250000J0D01*
G01*
X157575000Y-82135000D01*
G75*
G02*
X157825000Y-82385000I0J-250000D01*
G01*
X157825000Y-83985000D01*
G75*
G02*
X157575000Y-84235000I-250000J0D01*
G01*
X153575000Y-84235000D01*
G75*
G02*
X153325000Y-83985000I0J250000D01*
G01*
G37*
%TD*%
%TO.C,C42*%
G36*
G01*
X177720000Y-82385000D02*
X177720000Y-83985000D01*
G75*
G02*
X177470000Y-84235000I-250000J0D01*
G01*
X173470000Y-84235000D01*
G75*
G02*
X173220000Y-83985000I0J250000D01*
G01*
X173220000Y-82385000D01*
G75*
G02*
X173470000Y-82135000I250000J0D01*
G01*
X177470000Y-82135000D01*
G75*
G02*
X177720000Y-82385000I0J-250000D01*
G01*
G37*
G36*
G01*
X184920000Y-82385000D02*
X184920000Y-83985000D01*
G75*
G02*
X184670000Y-84235000I-250000J0D01*
G01*
X180670000Y-84235000D01*
G75*
G02*
X180420000Y-83985000I0J250000D01*
G01*
X180420000Y-82385000D01*
G75*
G02*
X180670000Y-82135000I250000J0D01*
G01*
X184670000Y-82135000D01*
G75*
G02*
X184920000Y-82385000I0J-250000D01*
G01*
G37*
%TD*%
%TO.C,C41*%
G36*
G01*
X159835000Y-89375000D02*
X159835000Y-88425000D01*
G75*
G02*
X160085000Y-88175000I250000J0D01*
G01*
X160760000Y-88175000D01*
G75*
G02*
X161010000Y-88425000I0J-250000D01*
G01*
X161010000Y-89375000D01*
G75*
G02*
X160760000Y-89625000I-250000J0D01*
G01*
X160085000Y-89625000D01*
G75*
G02*
X159835000Y-89375000I0J250000D01*
G01*
G37*
G36*
G01*
X157760000Y-89375000D02*
X157760000Y-88425000D01*
G75*
G02*
X158010000Y-88175000I250000J0D01*
G01*
X158685000Y-88175000D01*
G75*
G02*
X158935000Y-88425000I0J-250000D01*
G01*
X158935000Y-89375000D01*
G75*
G02*
X158685000Y-89625000I-250000J0D01*
G01*
X158010000Y-89625000D01*
G75*
G02*
X157760000Y-89375000I0J250000D01*
G01*
G37*
%TD*%
%TO.C,C40*%
G36*
G01*
X178620000Y-88425000D02*
X178620000Y-89375000D01*
G75*
G02*
X178370000Y-89625000I-250000J0D01*
G01*
X177695000Y-89625000D01*
G75*
G02*
X177445000Y-89375000I0J250000D01*
G01*
X177445000Y-88425000D01*
G75*
G02*
X177695000Y-88175000I250000J0D01*
G01*
X178370000Y-88175000D01*
G75*
G02*
X178620000Y-88425000I0J-250000D01*
G01*
G37*
G36*
G01*
X180695000Y-88425000D02*
X180695000Y-89375000D01*
G75*
G02*
X180445000Y-89625000I-250000J0D01*
G01*
X179770000Y-89625000D01*
G75*
G02*
X179520000Y-89375000I0J250000D01*
G01*
X179520000Y-88425000D01*
G75*
G02*
X179770000Y-88175000I250000J0D01*
G01*
X180445000Y-88175000D01*
G75*
G02*
X180695000Y-88425000I0J-250000D01*
G01*
G37*
%TD*%
%TO.C,C39*%
G36*
G01*
X159835000Y-91915000D02*
X159835000Y-90965000D01*
G75*
G02*
X160085000Y-90715000I250000J0D01*
G01*
X160760000Y-90715000D01*
G75*
G02*
X161010000Y-90965000I0J-250000D01*
G01*
X161010000Y-91915000D01*
G75*
G02*
X160760000Y-92165000I-250000J0D01*
G01*
X160085000Y-92165000D01*
G75*
G02*
X159835000Y-91915000I0J250000D01*
G01*
G37*
G36*
G01*
X157760000Y-91915000D02*
X157760000Y-90965000D01*
G75*
G02*
X158010000Y-90715000I250000J0D01*
G01*
X158685000Y-90715000D01*
G75*
G02*
X158935000Y-90965000I0J-250000D01*
G01*
X158935000Y-91915000D01*
G75*
G02*
X158685000Y-92165000I-250000J0D01*
G01*
X158010000Y-92165000D01*
G75*
G02*
X157760000Y-91915000I0J250000D01*
G01*
G37*
%TD*%
%TO.C,C38*%
G36*
G01*
X164915000Y-89375000D02*
X164915000Y-88425000D01*
G75*
G02*
X165165000Y-88175000I250000J0D01*
G01*
X165840000Y-88175000D01*
G75*
G02*
X166090000Y-88425000I0J-250000D01*
G01*
X166090000Y-89375000D01*
G75*
G02*
X165840000Y-89625000I-250000J0D01*
G01*
X165165000Y-89625000D01*
G75*
G02*
X164915000Y-89375000I0J250000D01*
G01*
G37*
G36*
G01*
X162840000Y-89375000D02*
X162840000Y-88425000D01*
G75*
G02*
X163090000Y-88175000I250000J0D01*
G01*
X163765000Y-88175000D01*
G75*
G02*
X164015000Y-88425000I0J-250000D01*
G01*
X164015000Y-89375000D01*
G75*
G02*
X163765000Y-89625000I-250000J0D01*
G01*
X163090000Y-89625000D01*
G75*
G02*
X162840000Y-89375000I0J250000D01*
G01*
G37*
%TD*%
%TO.C,C37*%
G36*
G01*
X173540000Y-88425000D02*
X173540000Y-89375000D01*
G75*
G02*
X173290000Y-89625000I-250000J0D01*
G01*
X172615000Y-89625000D01*
G75*
G02*
X172365000Y-89375000I0J250000D01*
G01*
X172365000Y-88425000D01*
G75*
G02*
X172615000Y-88175000I250000J0D01*
G01*
X173290000Y-88175000D01*
G75*
G02*
X173540000Y-88425000I0J-250000D01*
G01*
G37*
G36*
G01*
X175615000Y-88425000D02*
X175615000Y-89375000D01*
G75*
G02*
X175365000Y-89625000I-250000J0D01*
G01*
X174690000Y-89625000D01*
G75*
G02*
X174440000Y-89375000I0J250000D01*
G01*
X174440000Y-88425000D01*
G75*
G02*
X174690000Y-88175000I250000J0D01*
G01*
X175365000Y-88175000D01*
G75*
G02*
X175615000Y-88425000I0J-250000D01*
G01*
G37*
%TD*%
%TO.C,C36*%
G36*
G01*
X171900000Y-86835000D02*
X171900000Y-85885000D01*
G75*
G02*
X172150000Y-85635000I250000J0D01*
G01*
X172825000Y-85635000D01*
G75*
G02*
X173075000Y-85885000I0J-250000D01*
G01*
X173075000Y-86835000D01*
G75*
G02*
X172825000Y-87085000I-250000J0D01*
G01*
X172150000Y-87085000D01*
G75*
G02*
X171900000Y-86835000I0J250000D01*
G01*
G37*
G36*
G01*
X169825000Y-86835000D02*
X169825000Y-85885000D01*
G75*
G02*
X170075000Y-85635000I250000J0D01*
G01*
X170750000Y-85635000D01*
G75*
G02*
X171000000Y-85885000I0J-250000D01*
G01*
X171000000Y-86835000D01*
G75*
G02*
X170750000Y-87085000I-250000J0D01*
G01*
X170075000Y-87085000D01*
G75*
G02*
X169825000Y-86835000I0J250000D01*
G01*
G37*
%TD*%
%TO.C,C35*%
G36*
G01*
X166555000Y-85885000D02*
X166555000Y-86835000D01*
G75*
G02*
X166305000Y-87085000I-250000J0D01*
G01*
X165630000Y-87085000D01*
G75*
G02*
X165380000Y-86835000I0J250000D01*
G01*
X165380000Y-85885000D01*
G75*
G02*
X165630000Y-85635000I250000J0D01*
G01*
X166305000Y-85635000D01*
G75*
G02*
X166555000Y-85885000I0J-250000D01*
G01*
G37*
G36*
G01*
X168630000Y-85885000D02*
X168630000Y-86835000D01*
G75*
G02*
X168380000Y-87085000I-250000J0D01*
G01*
X167705000Y-87085000D01*
G75*
G02*
X167455000Y-86835000I0J250000D01*
G01*
X167455000Y-85885000D01*
G75*
G02*
X167705000Y-85635000I250000J0D01*
G01*
X168380000Y-85635000D01*
G75*
G02*
X168630000Y-85885000I0J-250000D01*
G01*
G37*
%TD*%
%TO.C,C34*%
G36*
G01*
X178852500Y-90965000D02*
X178852500Y-91915000D01*
G75*
G02*
X178602500Y-92165000I-250000J0D01*
G01*
X177927500Y-92165000D01*
G75*
G02*
X177677500Y-91915000I0J250000D01*
G01*
X177677500Y-90965000D01*
G75*
G02*
X177927500Y-90715000I250000J0D01*
G01*
X178602500Y-90715000D01*
G75*
G02*
X178852500Y-90965000I0J-250000D01*
G01*
G37*
G36*
G01*
X180927500Y-90965000D02*
X180927500Y-91915000D01*
G75*
G02*
X180677500Y-92165000I-250000J0D01*
G01*
X180002500Y-92165000D01*
G75*
G02*
X179752500Y-91915000I0J250000D01*
G01*
X179752500Y-90965000D01*
G75*
G02*
X180002500Y-90715000I250000J0D01*
G01*
X180677500Y-90715000D01*
G75*
G02*
X180927500Y-90965000I0J-250000D01*
G01*
G37*
%TD*%
%TO.C,C33*%
G36*
G01*
X178910000Y-94800000D02*
X177960000Y-94800000D01*
G75*
G02*
X177710000Y-94550000I0J250000D01*
G01*
X177710000Y-93875000D01*
G75*
G02*
X177960000Y-93625000I250000J0D01*
G01*
X178910000Y-93625000D01*
G75*
G02*
X179160000Y-93875000I0J-250000D01*
G01*
X179160000Y-94550000D01*
G75*
G02*
X178910000Y-94800000I-250000J0D01*
G01*
G37*
G36*
G01*
X178910000Y-96875000D02*
X177960000Y-96875000D01*
G75*
G02*
X177710000Y-96625000I0J250000D01*
G01*
X177710000Y-95950000D01*
G75*
G02*
X177960000Y-95700000I250000J0D01*
G01*
X178910000Y-95700000D01*
G75*
G02*
X179160000Y-95950000I0J-250000D01*
G01*
X179160000Y-96625000D01*
G75*
G02*
X178910000Y-96875000I-250000J0D01*
G01*
G37*
%TD*%
%TO.C,C32*%
G36*
G01*
X175420000Y-95700000D02*
X176370000Y-95700000D01*
G75*
G02*
X176620000Y-95950000I0J-250000D01*
G01*
X176620000Y-96625000D01*
G75*
G02*
X176370000Y-96875000I-250000J0D01*
G01*
X175420000Y-96875000D01*
G75*
G02*
X175170000Y-96625000I0J250000D01*
G01*
X175170000Y-95950000D01*
G75*
G02*
X175420000Y-95700000I250000J0D01*
G01*
G37*
G36*
G01*
X175420000Y-93625000D02*
X176370000Y-93625000D01*
G75*
G02*
X176620000Y-93875000I0J-250000D01*
G01*
X176620000Y-94550000D01*
G75*
G02*
X176370000Y-94800000I-250000J0D01*
G01*
X175420000Y-94800000D01*
G75*
G02*
X175170000Y-94550000I0J250000D01*
G01*
X175170000Y-93875000D01*
G75*
G02*
X175420000Y-93625000I250000J0D01*
G01*
G37*
%TD*%
%TO.C,C31*%
G36*
G01*
X177615000Y-99535000D02*
X177615000Y-98585000D01*
G75*
G02*
X177865000Y-98335000I250000J0D01*
G01*
X178540000Y-98335000D01*
G75*
G02*
X178790000Y-98585000I0J-250000D01*
G01*
X178790000Y-99535000D01*
G75*
G02*
X178540000Y-99785000I-250000J0D01*
G01*
X177865000Y-99785000D01*
G75*
G02*
X177615000Y-99535000I0J250000D01*
G01*
G37*
G36*
G01*
X175540000Y-99535000D02*
X175540000Y-98585000D01*
G75*
G02*
X175790000Y-98335000I250000J0D01*
G01*
X176465000Y-98335000D01*
G75*
G02*
X176715000Y-98585000I0J-250000D01*
G01*
X176715000Y-99535000D01*
G75*
G02*
X176465000Y-99785000I-250000J0D01*
G01*
X175790000Y-99785000D01*
G75*
G02*
X175540000Y-99535000I0J250000D01*
G01*
G37*
%TD*%
%TO.C,C30*%
G36*
G01*
X162720000Y-102685000D02*
X163670000Y-102685000D01*
G75*
G02*
X163920000Y-102935000I0J-250000D01*
G01*
X163920000Y-103610000D01*
G75*
G02*
X163670000Y-103860000I-250000J0D01*
G01*
X162720000Y-103860000D01*
G75*
G02*
X162470000Y-103610000I0J250000D01*
G01*
X162470000Y-102935000D01*
G75*
G02*
X162720000Y-102685000I250000J0D01*
G01*
G37*
G36*
G01*
X162720000Y-100610000D02*
X163670000Y-100610000D01*
G75*
G02*
X163920000Y-100860000I0J-250000D01*
G01*
X163920000Y-101535000D01*
G75*
G02*
X163670000Y-101785000I-250000J0D01*
G01*
X162720000Y-101785000D01*
G75*
G02*
X162470000Y-101535000I0J250000D01*
G01*
X162470000Y-100860000D01*
G75*
G02*
X162720000Y-100610000I250000J0D01*
G01*
G37*
%TD*%
%TO.C,C29*%
G36*
G01*
X175420000Y-102685000D02*
X176370000Y-102685000D01*
G75*
G02*
X176620000Y-102935000I0J-250000D01*
G01*
X176620000Y-103610000D01*
G75*
G02*
X176370000Y-103860000I-250000J0D01*
G01*
X175420000Y-103860000D01*
G75*
G02*
X175170000Y-103610000I0J250000D01*
G01*
X175170000Y-102935000D01*
G75*
G02*
X175420000Y-102685000I250000J0D01*
G01*
G37*
G36*
G01*
X175420000Y-100610000D02*
X176370000Y-100610000D01*
G75*
G02*
X176620000Y-100860000I0J-250000D01*
G01*
X176620000Y-101535000D01*
G75*
G02*
X176370000Y-101785000I-250000J0D01*
G01*
X175420000Y-101785000D01*
G75*
G02*
X175170000Y-101535000I0J250000D01*
G01*
X175170000Y-100860000D01*
G75*
G02*
X175420000Y-100610000I250000J0D01*
G01*
G37*
%TD*%
%TO.C,C28*%
G36*
G01*
X165260000Y-102685000D02*
X166210000Y-102685000D01*
G75*
G02*
X166460000Y-102935000I0J-250000D01*
G01*
X166460000Y-103610000D01*
G75*
G02*
X166210000Y-103860000I-250000J0D01*
G01*
X165260000Y-103860000D01*
G75*
G02*
X165010000Y-103610000I0J250000D01*
G01*
X165010000Y-102935000D01*
G75*
G02*
X165260000Y-102685000I250000J0D01*
G01*
G37*
G36*
G01*
X165260000Y-100610000D02*
X166210000Y-100610000D01*
G75*
G02*
X166460000Y-100860000I0J-250000D01*
G01*
X166460000Y-101535000D01*
G75*
G02*
X166210000Y-101785000I-250000J0D01*
G01*
X165260000Y-101785000D01*
G75*
G02*
X165010000Y-101535000I0J250000D01*
G01*
X165010000Y-100860000D01*
G75*
G02*
X165260000Y-100610000I250000J0D01*
G01*
G37*
%TD*%
%TO.C,C27*%
G36*
G01*
X99855000Y-70300000D02*
X100805000Y-70300000D01*
G75*
G02*
X101055000Y-70550000I0J-250000D01*
G01*
X101055000Y-71225000D01*
G75*
G02*
X100805000Y-71475000I-250000J0D01*
G01*
X99855000Y-71475000D01*
G75*
G02*
X99605000Y-71225000I0J250000D01*
G01*
X99605000Y-70550000D01*
G75*
G02*
X99855000Y-70300000I250000J0D01*
G01*
G37*
G36*
G01*
X99855000Y-68225000D02*
X100805000Y-68225000D01*
G75*
G02*
X101055000Y-68475000I0J-250000D01*
G01*
X101055000Y-69150000D01*
G75*
G02*
X100805000Y-69400000I-250000J0D01*
G01*
X99855000Y-69400000D01*
G75*
G02*
X99605000Y-69150000I0J250000D01*
G01*
X99605000Y-68475000D01*
G75*
G02*
X99855000Y-68225000I250000J0D01*
G01*
G37*
%TD*%
%TO.C,C26*%
G36*
G01*
X80170000Y-70300000D02*
X81120000Y-70300000D01*
G75*
G02*
X81370000Y-70550000I0J-250000D01*
G01*
X81370000Y-71225000D01*
G75*
G02*
X81120000Y-71475000I-250000J0D01*
G01*
X80170000Y-71475000D01*
G75*
G02*
X79920000Y-71225000I0J250000D01*
G01*
X79920000Y-70550000D01*
G75*
G02*
X80170000Y-70300000I250000J0D01*
G01*
G37*
G36*
G01*
X80170000Y-68225000D02*
X81120000Y-68225000D01*
G75*
G02*
X81370000Y-68475000I0J-250000D01*
G01*
X81370000Y-69150000D01*
G75*
G02*
X81120000Y-69400000I-250000J0D01*
G01*
X80170000Y-69400000D01*
G75*
G02*
X79920000Y-69150000I0J250000D01*
G01*
X79920000Y-68475000D01*
G75*
G02*
X80170000Y-68225000I250000J0D01*
G01*
G37*
%TD*%
%TO.C,C25*%
G36*
G01*
X211615000Y-70300000D02*
X212565000Y-70300000D01*
G75*
G02*
X212815000Y-70550000I0J-250000D01*
G01*
X212815000Y-71225000D01*
G75*
G02*
X212565000Y-71475000I-250000J0D01*
G01*
X211615000Y-71475000D01*
G75*
G02*
X211365000Y-71225000I0J250000D01*
G01*
X211365000Y-70550000D01*
G75*
G02*
X211615000Y-70300000I250000J0D01*
G01*
G37*
G36*
G01*
X211615000Y-68225000D02*
X212565000Y-68225000D01*
G75*
G02*
X212815000Y-68475000I0J-250000D01*
G01*
X212815000Y-69150000D01*
G75*
G02*
X212565000Y-69400000I-250000J0D01*
G01*
X211615000Y-69400000D01*
G75*
G02*
X211365000Y-69150000I0J250000D01*
G01*
X211365000Y-68475000D01*
G75*
G02*
X211615000Y-68225000I250000J0D01*
G01*
G37*
%TD*%
%TO.C,C24*%
G36*
G01*
X191930000Y-70300000D02*
X192880000Y-70300000D01*
G75*
G02*
X193130000Y-70550000I0J-250000D01*
G01*
X193130000Y-71225000D01*
G75*
G02*
X192880000Y-71475000I-250000J0D01*
G01*
X191930000Y-71475000D01*
G75*
G02*
X191680000Y-71225000I0J250000D01*
G01*
X191680000Y-70550000D01*
G75*
G02*
X191930000Y-70300000I250000J0D01*
G01*
G37*
G36*
G01*
X191930000Y-68225000D02*
X192880000Y-68225000D01*
G75*
G02*
X193130000Y-68475000I0J-250000D01*
G01*
X193130000Y-69150000D01*
G75*
G02*
X192880000Y-69400000I-250000J0D01*
G01*
X191930000Y-69400000D01*
G75*
G02*
X191680000Y-69150000I0J250000D01*
G01*
X191680000Y-68475000D01*
G75*
G02*
X191930000Y-68225000I250000J0D01*
G01*
G37*
%TD*%
%TO.C,C23*%
G36*
G01*
X99855000Y-77920000D02*
X100805000Y-77920000D01*
G75*
G02*
X101055000Y-78170000I0J-250000D01*
G01*
X101055000Y-78845000D01*
G75*
G02*
X100805000Y-79095000I-250000J0D01*
G01*
X99855000Y-79095000D01*
G75*
G02*
X99605000Y-78845000I0J250000D01*
G01*
X99605000Y-78170000D01*
G75*
G02*
X99855000Y-77920000I250000J0D01*
G01*
G37*
G36*
G01*
X99855000Y-75845000D02*
X100805000Y-75845000D01*
G75*
G02*
X101055000Y-76095000I0J-250000D01*
G01*
X101055000Y-76770000D01*
G75*
G02*
X100805000Y-77020000I-250000J0D01*
G01*
X99855000Y-77020000D01*
G75*
G02*
X99605000Y-76770000I0J250000D01*
G01*
X99605000Y-76095000D01*
G75*
G02*
X99855000Y-75845000I250000J0D01*
G01*
G37*
%TD*%
%TO.C,C22*%
G36*
G01*
X80170000Y-77285000D02*
X81120000Y-77285000D01*
G75*
G02*
X81370000Y-77535000I0J-250000D01*
G01*
X81370000Y-78210000D01*
G75*
G02*
X81120000Y-78460000I-250000J0D01*
G01*
X80170000Y-78460000D01*
G75*
G02*
X79920000Y-78210000I0J250000D01*
G01*
X79920000Y-77535000D01*
G75*
G02*
X80170000Y-77285000I250000J0D01*
G01*
G37*
G36*
G01*
X80170000Y-75210000D02*
X81120000Y-75210000D01*
G75*
G02*
X81370000Y-75460000I0J-250000D01*
G01*
X81370000Y-76135000D01*
G75*
G02*
X81120000Y-76385000I-250000J0D01*
G01*
X80170000Y-76385000D01*
G75*
G02*
X79920000Y-76135000I0J250000D01*
G01*
X79920000Y-75460000D01*
G75*
G02*
X80170000Y-75210000I250000J0D01*
G01*
G37*
%TD*%
%TO.C,C21*%
G36*
G01*
X211615000Y-77285000D02*
X212565000Y-77285000D01*
G75*
G02*
X212815000Y-77535000I0J-250000D01*
G01*
X212815000Y-78210000D01*
G75*
G02*
X212565000Y-78460000I-250000J0D01*
G01*
X211615000Y-78460000D01*
G75*
G02*
X211365000Y-78210000I0J250000D01*
G01*
X211365000Y-77535000D01*
G75*
G02*
X211615000Y-77285000I250000J0D01*
G01*
G37*
G36*
G01*
X211615000Y-75210000D02*
X212565000Y-75210000D01*
G75*
G02*
X212815000Y-75460000I0J-250000D01*
G01*
X212815000Y-76135000D01*
G75*
G02*
X212565000Y-76385000I-250000J0D01*
G01*
X211615000Y-76385000D01*
G75*
G02*
X211365000Y-76135000I0J250000D01*
G01*
X211365000Y-75460000D01*
G75*
G02*
X211615000Y-75210000I250000J0D01*
G01*
G37*
%TD*%
%TO.C,C20*%
G36*
G01*
X191930000Y-77285000D02*
X192880000Y-77285000D01*
G75*
G02*
X193130000Y-77535000I0J-250000D01*
G01*
X193130000Y-78210000D01*
G75*
G02*
X192880000Y-78460000I-250000J0D01*
G01*
X191930000Y-78460000D01*
G75*
G02*
X191680000Y-78210000I0J250000D01*
G01*
X191680000Y-77535000D01*
G75*
G02*
X191930000Y-77285000I250000J0D01*
G01*
G37*
G36*
G01*
X191930000Y-75210000D02*
X192880000Y-75210000D01*
G75*
G02*
X193130000Y-75460000I0J-250000D01*
G01*
X193130000Y-76135000D01*
G75*
G02*
X192880000Y-76385000I-250000J0D01*
G01*
X191930000Y-76385000D01*
G75*
G02*
X191680000Y-76135000I0J250000D01*
G01*
X191680000Y-75460000D01*
G75*
G02*
X191930000Y-75210000I250000J0D01*
G01*
G37*
%TD*%
%TO.C,C19*%
G36*
G01*
X191930000Y-84270000D02*
X192880000Y-84270000D01*
G75*
G02*
X193130000Y-84520000I0J-250000D01*
G01*
X193130000Y-85195000D01*
G75*
G02*
X192880000Y-85445000I-250000J0D01*
G01*
X191930000Y-85445000D01*
G75*
G02*
X191680000Y-85195000I0J250000D01*
G01*
X191680000Y-84520000D01*
G75*
G02*
X191930000Y-84270000I250000J0D01*
G01*
G37*
G36*
G01*
X191930000Y-82195000D02*
X192880000Y-82195000D01*
G75*
G02*
X193130000Y-82445000I0J-250000D01*
G01*
X193130000Y-83120000D01*
G75*
G02*
X192880000Y-83370000I-250000J0D01*
G01*
X191930000Y-83370000D01*
G75*
G02*
X191680000Y-83120000I0J250000D01*
G01*
X191680000Y-82445000D01*
G75*
G02*
X191930000Y-82195000I250000J0D01*
G01*
G37*
%TD*%
%TO.C,C18*%
G36*
G01*
X99855000Y-84270000D02*
X100805000Y-84270000D01*
G75*
G02*
X101055000Y-84520000I0J-250000D01*
G01*
X101055000Y-85195000D01*
G75*
G02*
X100805000Y-85445000I-250000J0D01*
G01*
X99855000Y-85445000D01*
G75*
G02*
X99605000Y-85195000I0J250000D01*
G01*
X99605000Y-84520000D01*
G75*
G02*
X99855000Y-84270000I250000J0D01*
G01*
G37*
G36*
G01*
X99855000Y-82195000D02*
X100805000Y-82195000D01*
G75*
G02*
X101055000Y-82445000I0J-250000D01*
G01*
X101055000Y-83120000D01*
G75*
G02*
X100805000Y-83370000I-250000J0D01*
G01*
X99855000Y-83370000D01*
G75*
G02*
X99605000Y-83120000I0J250000D01*
G01*
X99605000Y-82445000D01*
G75*
G02*
X99855000Y-82195000I250000J0D01*
G01*
G37*
%TD*%
%TO.C,C17*%
G36*
G01*
X80170000Y-84270000D02*
X81120000Y-84270000D01*
G75*
G02*
X81370000Y-84520000I0J-250000D01*
G01*
X81370000Y-85195000D01*
G75*
G02*
X81120000Y-85445000I-250000J0D01*
G01*
X80170000Y-85445000D01*
G75*
G02*
X79920000Y-85195000I0J250000D01*
G01*
X79920000Y-84520000D01*
G75*
G02*
X80170000Y-84270000I250000J0D01*
G01*
G37*
G36*
G01*
X80170000Y-82195000D02*
X81120000Y-82195000D01*
G75*
G02*
X81370000Y-82445000I0J-250000D01*
G01*
X81370000Y-83120000D01*
G75*
G02*
X81120000Y-83370000I-250000J0D01*
G01*
X80170000Y-83370000D01*
G75*
G02*
X79920000Y-83120000I0J250000D01*
G01*
X79920000Y-82445000D01*
G75*
G02*
X80170000Y-82195000I250000J0D01*
G01*
G37*
%TD*%
%TO.C,C16*%
G36*
G01*
X211615000Y-84270000D02*
X212565000Y-84270000D01*
G75*
G02*
X212815000Y-84520000I0J-250000D01*
G01*
X212815000Y-85195000D01*
G75*
G02*
X212565000Y-85445000I-250000J0D01*
G01*
X211615000Y-85445000D01*
G75*
G02*
X211365000Y-85195000I0J250000D01*
G01*
X211365000Y-84520000D01*
G75*
G02*
X211615000Y-84270000I250000J0D01*
G01*
G37*
G36*
G01*
X211615000Y-82195000D02*
X212565000Y-82195000D01*
G75*
G02*
X212815000Y-82445000I0J-250000D01*
G01*
X212815000Y-83120000D01*
G75*
G02*
X212565000Y-83370000I-250000J0D01*
G01*
X211615000Y-83370000D01*
G75*
G02*
X211365000Y-83120000I0J250000D01*
G01*
X211365000Y-82445000D01*
G75*
G02*
X211615000Y-82195000I250000J0D01*
G01*
G37*
%TD*%
%TO.C,C15*%
G36*
G01*
X99855000Y-91255000D02*
X100805000Y-91255000D01*
G75*
G02*
X101055000Y-91505000I0J-250000D01*
G01*
X101055000Y-92180000D01*
G75*
G02*
X100805000Y-92430000I-250000J0D01*
G01*
X99855000Y-92430000D01*
G75*
G02*
X99605000Y-92180000I0J250000D01*
G01*
X99605000Y-91505000D01*
G75*
G02*
X99855000Y-91255000I250000J0D01*
G01*
G37*
G36*
G01*
X99855000Y-89180000D02*
X100805000Y-89180000D01*
G75*
G02*
X101055000Y-89430000I0J-250000D01*
G01*
X101055000Y-90105000D01*
G75*
G02*
X100805000Y-90355000I-250000J0D01*
G01*
X99855000Y-90355000D01*
G75*
G02*
X99605000Y-90105000I0J250000D01*
G01*
X99605000Y-89430000D01*
G75*
G02*
X99855000Y-89180000I250000J0D01*
G01*
G37*
%TD*%
%TO.C,C14*%
G36*
G01*
X80170000Y-91255000D02*
X81120000Y-91255000D01*
G75*
G02*
X81370000Y-91505000I0J-250000D01*
G01*
X81370000Y-92180000D01*
G75*
G02*
X81120000Y-92430000I-250000J0D01*
G01*
X80170000Y-92430000D01*
G75*
G02*
X79920000Y-92180000I0J250000D01*
G01*
X79920000Y-91505000D01*
G75*
G02*
X80170000Y-91255000I250000J0D01*
G01*
G37*
G36*
G01*
X80170000Y-89180000D02*
X81120000Y-89180000D01*
G75*
G02*
X81370000Y-89430000I0J-250000D01*
G01*
X81370000Y-90105000D01*
G75*
G02*
X81120000Y-90355000I-250000J0D01*
G01*
X80170000Y-90355000D01*
G75*
G02*
X79920000Y-90105000I0J250000D01*
G01*
X79920000Y-89430000D01*
G75*
G02*
X80170000Y-89180000I250000J0D01*
G01*
G37*
%TD*%
%TO.C,C13*%
G36*
G01*
X211615000Y-91255000D02*
X212565000Y-91255000D01*
G75*
G02*
X212815000Y-91505000I0J-250000D01*
G01*
X212815000Y-92180000D01*
G75*
G02*
X212565000Y-92430000I-250000J0D01*
G01*
X211615000Y-92430000D01*
G75*
G02*
X211365000Y-92180000I0J250000D01*
G01*
X211365000Y-91505000D01*
G75*
G02*
X211615000Y-91255000I250000J0D01*
G01*
G37*
G36*
G01*
X211615000Y-89180000D02*
X212565000Y-89180000D01*
G75*
G02*
X212815000Y-89430000I0J-250000D01*
G01*
X212815000Y-90105000D01*
G75*
G02*
X212565000Y-90355000I-250000J0D01*
G01*
X211615000Y-90355000D01*
G75*
G02*
X211365000Y-90105000I0J250000D01*
G01*
X211365000Y-89430000D01*
G75*
G02*
X211615000Y-89180000I250000J0D01*
G01*
G37*
%TD*%
%TO.C,C12*%
G36*
G01*
X191930000Y-91255000D02*
X192880000Y-91255000D01*
G75*
G02*
X193130000Y-91505000I0J-250000D01*
G01*
X193130000Y-92180000D01*
G75*
G02*
X192880000Y-92430000I-250000J0D01*
G01*
X191930000Y-92430000D01*
G75*
G02*
X191680000Y-92180000I0J250000D01*
G01*
X191680000Y-91505000D01*
G75*
G02*
X191930000Y-91255000I250000J0D01*
G01*
G37*
G36*
G01*
X191930000Y-89180000D02*
X192880000Y-89180000D01*
G75*
G02*
X193130000Y-89430000I0J-250000D01*
G01*
X193130000Y-90105000D01*
G75*
G02*
X192880000Y-90355000I-250000J0D01*
G01*
X191930000Y-90355000D01*
G75*
G02*
X191680000Y-90105000I0J250000D01*
G01*
X191680000Y-89430000D01*
G75*
G02*
X191930000Y-89180000I250000J0D01*
G01*
G37*
%TD*%
%TO.C,C11*%
G36*
G01*
X99855000Y-98240000D02*
X100805000Y-98240000D01*
G75*
G02*
X101055000Y-98490000I0J-250000D01*
G01*
X101055000Y-99165000D01*
G75*
G02*
X100805000Y-99415000I-250000J0D01*
G01*
X99855000Y-99415000D01*
G75*
G02*
X99605000Y-99165000I0J250000D01*
G01*
X99605000Y-98490000D01*
G75*
G02*
X99855000Y-98240000I250000J0D01*
G01*
G37*
G36*
G01*
X99855000Y-96165000D02*
X100805000Y-96165000D01*
G75*
G02*
X101055000Y-96415000I0J-250000D01*
G01*
X101055000Y-97090000D01*
G75*
G02*
X100805000Y-97340000I-250000J0D01*
G01*
X99855000Y-97340000D01*
G75*
G02*
X99605000Y-97090000I0J250000D01*
G01*
X99605000Y-96415000D01*
G75*
G02*
X99855000Y-96165000I250000J0D01*
G01*
G37*
%TD*%
%TO.C,c10*%
G36*
G01*
X170340000Y-56330000D02*
X171290000Y-56330000D01*
G75*
G02*
X171540000Y-56580000I0J-250000D01*
G01*
X171540000Y-57255000D01*
G75*
G02*
X171290000Y-57505000I-250000J0D01*
G01*
X170340000Y-57505000D01*
G75*
G02*
X170090000Y-57255000I0J250000D01*
G01*
X170090000Y-56580000D01*
G75*
G02*
X170340000Y-56330000I250000J0D01*
G01*
G37*
G36*
G01*
X170340000Y-54255000D02*
X171290000Y-54255000D01*
G75*
G02*
X171540000Y-54505000I0J-250000D01*
G01*
X171540000Y-55180000D01*
G75*
G02*
X171290000Y-55430000I-250000J0D01*
G01*
X170340000Y-55430000D01*
G75*
G02*
X170090000Y-55180000I0J250000D01*
G01*
X170090000Y-54505000D01*
G75*
G02*
X170340000Y-54255000I250000J0D01*
G01*
G37*
%TD*%
%TO.C,C10*%
G36*
G01*
X80170000Y-98240000D02*
X81120000Y-98240000D01*
G75*
G02*
X81370000Y-98490000I0J-250000D01*
G01*
X81370000Y-99165000D01*
G75*
G02*
X81120000Y-99415000I-250000J0D01*
G01*
X80170000Y-99415000D01*
G75*
G02*
X79920000Y-99165000I0J250000D01*
G01*
X79920000Y-98490000D01*
G75*
G02*
X80170000Y-98240000I250000J0D01*
G01*
G37*
G36*
G01*
X80170000Y-96165000D02*
X81120000Y-96165000D01*
G75*
G02*
X81370000Y-96415000I0J-250000D01*
G01*
X81370000Y-97090000D01*
G75*
G02*
X81120000Y-97340000I-250000J0D01*
G01*
X80170000Y-97340000D01*
G75*
G02*
X79920000Y-97090000I0J250000D01*
G01*
X79920000Y-96415000D01*
G75*
G02*
X80170000Y-96165000I250000J0D01*
G01*
G37*
%TD*%
%TO.C,c9*%
G36*
G01*
X177615000Y-51275000D02*
X177615000Y-50325000D01*
G75*
G02*
X177865000Y-50075000I250000J0D01*
G01*
X178540000Y-50075000D01*
G75*
G02*
X178790000Y-50325000I0J-250000D01*
G01*
X178790000Y-51275000D01*
G75*
G02*
X178540000Y-51525000I-250000J0D01*
G01*
X177865000Y-51525000D01*
G75*
G02*
X177615000Y-51275000I0J250000D01*
G01*
G37*
G36*
G01*
X175540000Y-51275000D02*
X175540000Y-50325000D01*
G75*
G02*
X175790000Y-50075000I250000J0D01*
G01*
X176465000Y-50075000D01*
G75*
G02*
X176715000Y-50325000I0J-250000D01*
G01*
X176715000Y-51275000D01*
G75*
G02*
X176465000Y-51525000I-250000J0D01*
G01*
X175790000Y-51525000D01*
G75*
G02*
X175540000Y-51275000I0J250000D01*
G01*
G37*
%TD*%
%TO.C,C9*%
G36*
G01*
X211615000Y-98240000D02*
X212565000Y-98240000D01*
G75*
G02*
X212815000Y-98490000I0J-250000D01*
G01*
X212815000Y-99165000D01*
G75*
G02*
X212565000Y-99415000I-250000J0D01*
G01*
X211615000Y-99415000D01*
G75*
G02*
X211365000Y-99165000I0J250000D01*
G01*
X211365000Y-98490000D01*
G75*
G02*
X211615000Y-98240000I250000J0D01*
G01*
G37*
G36*
G01*
X211615000Y-96165000D02*
X212565000Y-96165000D01*
G75*
G02*
X212815000Y-96415000I0J-250000D01*
G01*
X212815000Y-97090000D01*
G75*
G02*
X212565000Y-97340000I-250000J0D01*
G01*
X211615000Y-97340000D01*
G75*
G02*
X211365000Y-97090000I0J250000D01*
G01*
X211365000Y-96415000D01*
G75*
G02*
X211615000Y-96165000I250000J0D01*
G01*
G37*
%TD*%
%TO.C,C8*%
G36*
G01*
X191930000Y-98240000D02*
X192880000Y-98240000D01*
G75*
G02*
X193130000Y-98490000I0J-250000D01*
G01*
X193130000Y-99165000D01*
G75*
G02*
X192880000Y-99415000I-250000J0D01*
G01*
X191930000Y-99415000D01*
G75*
G02*
X191680000Y-99165000I0J250000D01*
G01*
X191680000Y-98490000D01*
G75*
G02*
X191930000Y-98240000I250000J0D01*
G01*
G37*
G36*
G01*
X191930000Y-96165000D02*
X192880000Y-96165000D01*
G75*
G02*
X193130000Y-96415000I0J-250000D01*
G01*
X193130000Y-97090000D01*
G75*
G02*
X192880000Y-97340000I-250000J0D01*
G01*
X191930000Y-97340000D01*
G75*
G02*
X191680000Y-97090000I0J250000D01*
G01*
X191680000Y-96415000D01*
G75*
G02*
X191930000Y-96165000I250000J0D01*
G01*
G37*
%TD*%
%TO.C,c8*%
G36*
G01*
X171290000Y-50985000D02*
X170340000Y-50985000D01*
G75*
G02*
X170090000Y-50735000I0J250000D01*
G01*
X170090000Y-50060000D01*
G75*
G02*
X170340000Y-49810000I250000J0D01*
G01*
X171290000Y-49810000D01*
G75*
G02*
X171540000Y-50060000I0J-250000D01*
G01*
X171540000Y-50735000D01*
G75*
G02*
X171290000Y-50985000I-250000J0D01*
G01*
G37*
G36*
G01*
X171290000Y-53060000D02*
X170340000Y-53060000D01*
G75*
G02*
X170090000Y-52810000I0J250000D01*
G01*
X170090000Y-52135000D01*
G75*
G02*
X170340000Y-51885000I250000J0D01*
G01*
X171290000Y-51885000D01*
G75*
G02*
X171540000Y-52135000I0J-250000D01*
G01*
X171540000Y-52810000D01*
G75*
G02*
X171290000Y-53060000I-250000J0D01*
G01*
G37*
%TD*%
%TO.C,C7*%
G36*
G01*
X99855000Y-105225000D02*
X100805000Y-105225000D01*
G75*
G02*
X101055000Y-105475000I0J-250000D01*
G01*
X101055000Y-106150000D01*
G75*
G02*
X100805000Y-106400000I-250000J0D01*
G01*
X99855000Y-106400000D01*
G75*
G02*
X99605000Y-106150000I0J250000D01*
G01*
X99605000Y-105475000D01*
G75*
G02*
X99855000Y-105225000I250000J0D01*
G01*
G37*
G36*
G01*
X99855000Y-103150000D02*
X100805000Y-103150000D01*
G75*
G02*
X101055000Y-103400000I0J-250000D01*
G01*
X101055000Y-104075000D01*
G75*
G02*
X100805000Y-104325000I-250000J0D01*
G01*
X99855000Y-104325000D01*
G75*
G02*
X99605000Y-104075000I0J250000D01*
G01*
X99605000Y-103400000D01*
G75*
G02*
X99855000Y-103150000I250000J0D01*
G01*
G37*
%TD*%
%TO.C,c7*%
G36*
G01*
X176080000Y-57945000D02*
X176080000Y-58895000D01*
G75*
G02*
X175830000Y-59145000I-250000J0D01*
G01*
X175155000Y-59145000D01*
G75*
G02*
X174905000Y-58895000I0J250000D01*
G01*
X174905000Y-57945000D01*
G75*
G02*
X175155000Y-57695000I250000J0D01*
G01*
X175830000Y-57695000D01*
G75*
G02*
X176080000Y-57945000I0J-250000D01*
G01*
G37*
G36*
G01*
X178155000Y-57945000D02*
X178155000Y-58895000D01*
G75*
G02*
X177905000Y-59145000I-250000J0D01*
G01*
X177230000Y-59145000D01*
G75*
G02*
X176980000Y-58895000I0J250000D01*
G01*
X176980000Y-57945000D01*
G75*
G02*
X177230000Y-57695000I250000J0D01*
G01*
X177905000Y-57695000D01*
G75*
G02*
X178155000Y-57945000I0J-250000D01*
G01*
G37*
%TD*%
%TO.C,C6*%
G36*
G01*
X80170000Y-105225000D02*
X81120000Y-105225000D01*
G75*
G02*
X81370000Y-105475000I0J-250000D01*
G01*
X81370000Y-106150000D01*
G75*
G02*
X81120000Y-106400000I-250000J0D01*
G01*
X80170000Y-106400000D01*
G75*
G02*
X79920000Y-106150000I0J250000D01*
G01*
X79920000Y-105475000D01*
G75*
G02*
X80170000Y-105225000I250000J0D01*
G01*
G37*
G36*
G01*
X80170000Y-103150000D02*
X81120000Y-103150000D01*
G75*
G02*
X81370000Y-103400000I0J-250000D01*
G01*
X81370000Y-104075000D01*
G75*
G02*
X81120000Y-104325000I-250000J0D01*
G01*
X80170000Y-104325000D01*
G75*
G02*
X79920000Y-104075000I0J250000D01*
G01*
X79920000Y-103400000D01*
G75*
G02*
X80170000Y-103150000I250000J0D01*
G01*
G37*
%TD*%
%TO.C,C5*%
G36*
G01*
X211615000Y-105225000D02*
X212565000Y-105225000D01*
G75*
G02*
X212815000Y-105475000I0J-250000D01*
G01*
X212815000Y-106150000D01*
G75*
G02*
X212565000Y-106400000I-250000J0D01*
G01*
X211615000Y-106400000D01*
G75*
G02*
X211365000Y-106150000I0J250000D01*
G01*
X211365000Y-105475000D01*
G75*
G02*
X211615000Y-105225000I250000J0D01*
G01*
G37*
G36*
G01*
X211615000Y-103150000D02*
X212565000Y-103150000D01*
G75*
G02*
X212815000Y-103400000I0J-250000D01*
G01*
X212815000Y-104075000D01*
G75*
G02*
X212565000Y-104325000I-250000J0D01*
G01*
X211615000Y-104325000D01*
G75*
G02*
X211365000Y-104075000I0J250000D01*
G01*
X211365000Y-103400000D01*
G75*
G02*
X211615000Y-103150000I250000J0D01*
G01*
G37*
%TD*%
%TO.C,C4*%
G36*
G01*
X191930000Y-105225000D02*
X192880000Y-105225000D01*
G75*
G02*
X193130000Y-105475000I0J-250000D01*
G01*
X193130000Y-106150000D01*
G75*
G02*
X192880000Y-106400000I-250000J0D01*
G01*
X191930000Y-106400000D01*
G75*
G02*
X191680000Y-106150000I0J250000D01*
G01*
X191680000Y-105475000D01*
G75*
G02*
X191930000Y-105225000I250000J0D01*
G01*
G37*
G36*
G01*
X191930000Y-103150000D02*
X192880000Y-103150000D01*
G75*
G02*
X193130000Y-103400000I0J-250000D01*
G01*
X193130000Y-104075000D01*
G75*
G02*
X192880000Y-104325000I-250000J0D01*
G01*
X191930000Y-104325000D01*
G75*
G02*
X191680000Y-104075000I0J250000D01*
G01*
X191680000Y-103400000D01*
G75*
G02*
X191930000Y-103150000I250000J0D01*
G01*
G37*
%TD*%
%TO.C,C3*%
G36*
G01*
X144310000Y-87550000D02*
X142710000Y-87550000D01*
G75*
G02*
X142460000Y-87300000I0J250000D01*
G01*
X142460000Y-83300000D01*
G75*
G02*
X142710000Y-83050000I250000J0D01*
G01*
X144310000Y-83050000D01*
G75*
G02*
X144560000Y-83300000I0J-250000D01*
G01*
X144560000Y-87300000D01*
G75*
G02*
X144310000Y-87550000I-250000J0D01*
G01*
G37*
G36*
G01*
X144310000Y-94750000D02*
X142710000Y-94750000D01*
G75*
G02*
X142460000Y-94500000I0J250000D01*
G01*
X142460000Y-90500000D01*
G75*
G02*
X142710000Y-90250000I250000J0D01*
G01*
X144310000Y-90250000D01*
G75*
G02*
X144560000Y-90500000I0J-250000D01*
G01*
X144560000Y-94500000D01*
G75*
G02*
X144310000Y-94750000I-250000J0D01*
G01*
G37*
%TD*%
D33*
%TO.C,BT3*%
X189230000Y-58515000D03*
G36*
G01*
X188604999Y-55915000D02*
X189855001Y-55915000D01*
G75*
G02*
X190105000Y-56164999I0J-249999D01*
G01*
X190105000Y-56865001D01*
G75*
G02*
X189855001Y-57115000I-249999J0D01*
G01*
X188604999Y-57115000D01*
G75*
G02*
X188355000Y-56865001I0J249999D01*
G01*
X188355000Y-56164999D01*
G75*
G02*
X188604999Y-55915000I249999J0D01*
G01*
G37*
%TD*%
%TO.C,10uF11*%
G36*
G01*
X187800000Y-63685000D02*
X186850000Y-63685000D01*
G75*
G02*
X186600000Y-63435000I0J250000D01*
G01*
X186600000Y-62760000D01*
G75*
G02*
X186850000Y-62510000I250000J0D01*
G01*
X187800000Y-62510000D01*
G75*
G02*
X188050000Y-62760000I0J-250000D01*
G01*
X188050000Y-63435000D01*
G75*
G02*
X187800000Y-63685000I-250000J0D01*
G01*
G37*
G36*
G01*
X187800000Y-65760000D02*
X186850000Y-65760000D01*
G75*
G02*
X186600000Y-65510000I0J250000D01*
G01*
X186600000Y-64835000D01*
G75*
G02*
X186850000Y-64585000I250000J0D01*
G01*
X187800000Y-64585000D01*
G75*
G02*
X188050000Y-64835000I0J-250000D01*
G01*
X188050000Y-65510000D01*
G75*
G02*
X187800000Y-65760000I-250000J0D01*
G01*
G37*
%TD*%
%TO.C,10uF10*%
G36*
G01*
X184625000Y-63685000D02*
X183675000Y-63685000D01*
G75*
G02*
X183425000Y-63435000I0J250000D01*
G01*
X183425000Y-62760000D01*
G75*
G02*
X183675000Y-62510000I250000J0D01*
G01*
X184625000Y-62510000D01*
G75*
G02*
X184875000Y-62760000I0J-250000D01*
G01*
X184875000Y-63435000D01*
G75*
G02*
X184625000Y-63685000I-250000J0D01*
G01*
G37*
G36*
G01*
X184625000Y-65760000D02*
X183675000Y-65760000D01*
G75*
G02*
X183425000Y-65510000I0J250000D01*
G01*
X183425000Y-64835000D01*
G75*
G02*
X183675000Y-64585000I250000J0D01*
G01*
X184625000Y-64585000D01*
G75*
G02*
X184875000Y-64835000I0J-250000D01*
G01*
X184875000Y-65510000D01*
G75*
G02*
X184625000Y-65760000I-250000J0D01*
G01*
G37*
%TD*%
%TO.C,10uF9*%
G36*
G01*
X166555000Y-57945000D02*
X166555000Y-58895000D01*
G75*
G02*
X166305000Y-59145000I-250000J0D01*
G01*
X165630000Y-59145000D01*
G75*
G02*
X165380000Y-58895000I0J250000D01*
G01*
X165380000Y-57945000D01*
G75*
G02*
X165630000Y-57695000I250000J0D01*
G01*
X166305000Y-57695000D01*
G75*
G02*
X166555000Y-57945000I0J-250000D01*
G01*
G37*
G36*
G01*
X168630000Y-57945000D02*
X168630000Y-58895000D01*
G75*
G02*
X168380000Y-59145000I-250000J0D01*
G01*
X167705000Y-59145000D01*
G75*
G02*
X167455000Y-58895000I0J250000D01*
G01*
X167455000Y-57945000D01*
G75*
G02*
X167705000Y-57695000I250000J0D01*
G01*
X168380000Y-57695000D01*
G75*
G02*
X168630000Y-57945000I0J-250000D01*
G01*
G37*
%TD*%
%TO.C,10uF8*%
G36*
G01*
X159225000Y-63050000D02*
X158275000Y-63050000D01*
G75*
G02*
X158025000Y-62800000I0J250000D01*
G01*
X158025000Y-62125000D01*
G75*
G02*
X158275000Y-61875000I250000J0D01*
G01*
X159225000Y-61875000D01*
G75*
G02*
X159475000Y-62125000I0J-250000D01*
G01*
X159475000Y-62800000D01*
G75*
G02*
X159225000Y-63050000I-250000J0D01*
G01*
G37*
G36*
G01*
X159225000Y-65125000D02*
X158275000Y-65125000D01*
G75*
G02*
X158025000Y-64875000I0J250000D01*
G01*
X158025000Y-64200000D01*
G75*
G02*
X158275000Y-63950000I250000J0D01*
G01*
X159225000Y-63950000D01*
G75*
G02*
X159475000Y-64200000I0J-250000D01*
G01*
X159475000Y-64875000D01*
G75*
G02*
X159225000Y-65125000I-250000J0D01*
G01*
G37*
%TD*%
%TO.C,10uF7*%
G36*
G01*
X155125000Y-61755000D02*
X155125000Y-62705000D01*
G75*
G02*
X154875000Y-62955000I-250000J0D01*
G01*
X154200000Y-62955000D01*
G75*
G02*
X153950000Y-62705000I0J250000D01*
G01*
X153950000Y-61755000D01*
G75*
G02*
X154200000Y-61505000I250000J0D01*
G01*
X154875000Y-61505000D01*
G75*
G02*
X155125000Y-61755000I0J-250000D01*
G01*
G37*
G36*
G01*
X157200000Y-61755000D02*
X157200000Y-62705000D01*
G75*
G02*
X156950000Y-62955000I-250000J0D01*
G01*
X156275000Y-62955000D01*
G75*
G02*
X156025000Y-62705000I0J250000D01*
G01*
X156025000Y-61755000D01*
G75*
G02*
X156275000Y-61505000I250000J0D01*
G01*
X156950000Y-61505000D01*
G75*
G02*
X157200000Y-61755000I0J-250000D01*
G01*
G37*
%TD*%
%TO.C,10uF1*%
G36*
G01*
X180525000Y-108745000D02*
X180525000Y-109695000D01*
G75*
G02*
X180275000Y-109945000I-250000J0D01*
G01*
X179600000Y-109945000D01*
G75*
G02*
X179350000Y-109695000I0J250000D01*
G01*
X179350000Y-108745000D01*
G75*
G02*
X179600000Y-108495000I250000J0D01*
G01*
X180275000Y-108495000D01*
G75*
G02*
X180525000Y-108745000I0J-250000D01*
G01*
G37*
G36*
G01*
X182600000Y-108745000D02*
X182600000Y-109695000D01*
G75*
G02*
X182350000Y-109945000I-250000J0D01*
G01*
X181675000Y-109945000D01*
G75*
G02*
X181425000Y-109695000I0J250000D01*
G01*
X181425000Y-108745000D01*
G75*
G02*
X181675000Y-108495000I250000J0D01*
G01*
X182350000Y-108495000D01*
G75*
G02*
X182600000Y-108745000I0J-250000D01*
G01*
G37*
%TD*%
%TO.C,100nF7*%
G36*
G01*
X175420000Y-107130000D02*
X176370000Y-107130000D01*
G75*
G02*
X176620000Y-107380000I0J-250000D01*
G01*
X176620000Y-108055000D01*
G75*
G02*
X176370000Y-108305000I-250000J0D01*
G01*
X175420000Y-108305000D01*
G75*
G02*
X175170000Y-108055000I0J250000D01*
G01*
X175170000Y-107380000D01*
G75*
G02*
X175420000Y-107130000I250000J0D01*
G01*
G37*
G36*
G01*
X175420000Y-105055000D02*
X176370000Y-105055000D01*
G75*
G02*
X176620000Y-105305000I0J-250000D01*
G01*
X176620000Y-105980000D01*
G75*
G02*
X176370000Y-106230000I-250000J0D01*
G01*
X175420000Y-106230000D01*
G75*
G02*
X175170000Y-105980000I0J250000D01*
G01*
X175170000Y-105305000D01*
G75*
G02*
X175420000Y-105055000I250000J0D01*
G01*
G37*
%TD*%
%TO.C,100nF5*%
G36*
G01*
X159225000Y-71305000D02*
X158275000Y-71305000D01*
G75*
G02*
X158025000Y-71055000I0J250000D01*
G01*
X158025000Y-70380000D01*
G75*
G02*
X158275000Y-70130000I250000J0D01*
G01*
X159225000Y-70130000D01*
G75*
G02*
X159475000Y-70380000I0J-250000D01*
G01*
X159475000Y-71055000D01*
G75*
G02*
X159225000Y-71305000I-250000J0D01*
G01*
G37*
G36*
G01*
X159225000Y-73380000D02*
X158275000Y-73380000D01*
G75*
G02*
X158025000Y-73130000I0J250000D01*
G01*
X158025000Y-72455000D01*
G75*
G02*
X158275000Y-72205000I250000J0D01*
G01*
X159225000Y-72205000D01*
G75*
G02*
X159475000Y-72455000I0J-250000D01*
G01*
X159475000Y-73130000D01*
G75*
G02*
X159225000Y-73380000I-250000J0D01*
G01*
G37*
%TD*%
%TO.C,100nF3*%
G36*
G01*
X100805000Y-108770000D02*
X99855000Y-108770000D01*
G75*
G02*
X99605000Y-108520000I0J250000D01*
G01*
X99605000Y-107845000D01*
G75*
G02*
X99855000Y-107595000I250000J0D01*
G01*
X100805000Y-107595000D01*
G75*
G02*
X101055000Y-107845000I0J-250000D01*
G01*
X101055000Y-108520000D01*
G75*
G02*
X100805000Y-108770000I-250000J0D01*
G01*
G37*
G36*
G01*
X100805000Y-110845000D02*
X99855000Y-110845000D01*
G75*
G02*
X99605000Y-110595000I0J250000D01*
G01*
X99605000Y-109920000D01*
G75*
G02*
X99855000Y-109670000I250000J0D01*
G01*
X100805000Y-109670000D01*
G75*
G02*
X101055000Y-109920000I0J-250000D01*
G01*
X101055000Y-110595000D01*
G75*
G02*
X100805000Y-110845000I-250000J0D01*
G01*
G37*
%TD*%
%TO.C,100nF2*%
G36*
G01*
X137320000Y-80460000D02*
X138270000Y-80460000D01*
G75*
G02*
X138520000Y-80710000I0J-250000D01*
G01*
X138520000Y-81385000D01*
G75*
G02*
X138270000Y-81635000I-250000J0D01*
G01*
X137320000Y-81635000D01*
G75*
G02*
X137070000Y-81385000I0J250000D01*
G01*
X137070000Y-80710000D01*
G75*
G02*
X137320000Y-80460000I250000J0D01*
G01*
G37*
G36*
G01*
X137320000Y-78385000D02*
X138270000Y-78385000D01*
G75*
G02*
X138520000Y-78635000I0J-250000D01*
G01*
X138520000Y-79310000D01*
G75*
G02*
X138270000Y-79560000I-250000J0D01*
G01*
X137320000Y-79560000D01*
G75*
G02*
X137070000Y-79310000I0J250000D01*
G01*
X137070000Y-78635000D01*
G75*
G02*
X137320000Y-78385000I250000J0D01*
G01*
G37*
%TD*%
%TO.C,100nF1*%
G36*
G01*
X118905000Y-74745000D02*
X119855000Y-74745000D01*
G75*
G02*
X120105000Y-74995000I0J-250000D01*
G01*
X120105000Y-75670000D01*
G75*
G02*
X119855000Y-75920000I-250000J0D01*
G01*
X118905000Y-75920000D01*
G75*
G02*
X118655000Y-75670000I0J250000D01*
G01*
X118655000Y-74995000D01*
G75*
G02*
X118905000Y-74745000I250000J0D01*
G01*
G37*
G36*
G01*
X118905000Y-72670000D02*
X119855000Y-72670000D01*
G75*
G02*
X120105000Y-72920000I0J-250000D01*
G01*
X120105000Y-73595000D01*
G75*
G02*
X119855000Y-73845000I-250000J0D01*
G01*
X118905000Y-73845000D01*
G75*
G02*
X118655000Y-73595000I0J250000D01*
G01*
X118655000Y-72920000D01*
G75*
G02*
X118905000Y-72670000I250000J0D01*
G01*
G37*
%TD*%
M02*
