%TF.GenerationSoftware,KiCad,Pcbnew,(5.1.8)-1*%
%TF.CreationDate,2021-03-09T15:18:23+01:00*%
%TF.ProjectId,schema_v1,73636865-6d61-45f7-9631-2e6b69636164,rev?*%
%TF.SameCoordinates,Original*%
%TF.FileFunction,Copper,L4,Bot*%
%TF.FilePolarity,Positive*%
%FSLAX46Y46*%
G04 Gerber Fmt 4.6, Leading zero omitted, Abs format (unit mm)*
G04 Created by KiCad (PCBNEW (5.1.8)-1) date 2021-03-09 15:18:23*
%MOMM*%
%LPD*%
G01*
G04 APERTURE LIST*
%TA.AperFunction,ComponentPad*%
%ADD10O,1.700000X1.700000*%
%TD*%
%TA.AperFunction,ComponentPad*%
%ADD11R,1.700000X1.700000*%
%TD*%
%TA.AperFunction,ComponentPad*%
%ADD12O,2.000000X1.700000*%
%TD*%
%TA.AperFunction,ComponentPad*%
%ADD13C,2.000000*%
%TD*%
%TA.AperFunction,ComponentPad*%
%ADD14C,1.800000*%
%TD*%
%TA.AperFunction,ComponentPad*%
%ADD15R,1.800000X1.800000*%
%TD*%
%TA.AperFunction,ComponentPad*%
%ADD16O,1.750000X1.200000*%
%TD*%
%TA.AperFunction,ViaPad*%
%ADD17C,0.800000*%
%TD*%
%TA.AperFunction,Conductor*%
%ADD18C,0.700000*%
%TD*%
%TA.AperFunction,Conductor*%
%ADD19C,0.250000*%
%TD*%
G04 APERTURE END LIST*
D10*
%TO.P,U9,14*%
%TO.N,LCD_T_Irq*%
X106045000Y-105410000D03*
%TO.P,U9,13*%
%TO.N,LCD_SDO*%
X106045000Y-102870000D03*
%TO.P,U9,12*%
%TO.N,LCD_SDI*%
X106045000Y-100330000D03*
%TO.P,U9,11*%
%TO.N,LCD_T_CS*%
X106045000Y-97790000D03*
%TO.P,U9,10*%
%TO.N,LCD_SCK*%
X106045000Y-95250000D03*
%TO.P,U9,9*%
%TO.N,LCD_SDO*%
X106045000Y-92710000D03*
%TO.P,U9,8*%
%TO.N,LCD_LED*%
X106045000Y-90170000D03*
%TO.P,U9,7*%
%TO.N,LCD_SCK*%
X106045000Y-87630000D03*
%TO.P,U9,6*%
%TO.N,LCD_SDI*%
X106045000Y-85090000D03*
%TO.P,U9,5*%
%TO.N,LCD_DC*%
X106045000Y-82550000D03*
%TO.P,U9,4*%
%TO.N,LCS_rst*%
X106045000Y-80010000D03*
%TO.P,U9,3*%
%TO.N,LCD_CS*%
X106045000Y-77470000D03*
%TO.P,U9,2*%
%TO.N,GND*%
X106045000Y-74930000D03*
D11*
%TO.P,U9,1*%
%TO.N,+3V3*%
X106045000Y-72390000D03*
%TD*%
D12*
%TO.P,SW9,2*%
%TO.N,Net-(BT3-Pad1)*%
X195580000Y-55920000D03*
%TO.P,SW9,1*%
%TO.N,Vbat*%
%TA.AperFunction,ComponentPad*%
G36*
G01*
X196330000Y-59270000D02*
X194830000Y-59270000D01*
G75*
G02*
X194580000Y-59020000I0J250000D01*
G01*
X194580000Y-57820000D01*
G75*
G02*
X194830000Y-57570000I250000J0D01*
G01*
X196330000Y-57570000D01*
G75*
G02*
X196580000Y-57820000I0J-250000D01*
G01*
X196580000Y-59020000D01*
G75*
G02*
X196330000Y-59270000I-250000J0D01*
G01*
G37*
%TD.AperFunction*%
%TD*%
D13*
%TO.P,SW7,1*%
%TO.N,pp*%
X167790000Y-116205000D03*
%TO.P,SW7,2*%
%TO.N,+3V3*%
X167790000Y-120705000D03*
%TO.P,SW7,1*%
%TO.N,pp*%
X161290000Y-116205000D03*
%TO.P,SW7,2*%
%TO.N,+3V3*%
X161290000Y-120705000D03*
%TD*%
%TO.P,SW6,1*%
%TO.N,prev*%
X124610000Y-116205000D03*
%TO.P,SW6,2*%
%TO.N,+3V3*%
X124610000Y-120705000D03*
%TO.P,SW6,1*%
%TO.N,prev*%
X118110000Y-116205000D03*
%TO.P,SW6,2*%
%TO.N,+3V3*%
X118110000Y-120705000D03*
%TD*%
%TO.P,SW5,1*%
%TO.N,next*%
X135405000Y-116205000D03*
%TO.P,SW5,2*%
%TO.N,+3V3*%
X135405000Y-120705000D03*
%TO.P,SW5,1*%
%TO.N,next*%
X128905000Y-116205000D03*
%TO.P,SW5,2*%
%TO.N,+3V3*%
X128905000Y-120705000D03*
%TD*%
%TO.P,SW4,1*%
%TO.N,vol-*%
X146200000Y-116205000D03*
%TO.P,SW4,2*%
%TO.N,+3V3*%
X146200000Y-120705000D03*
%TO.P,SW4,1*%
%TO.N,vol-*%
X139700000Y-116205000D03*
%TO.P,SW4,2*%
%TO.N,+3V3*%
X139700000Y-120705000D03*
%TD*%
%TO.P,SW3,1*%
%TO.N,vol+*%
X156995000Y-116205000D03*
%TO.P,SW3,2*%
%TO.N,+3V3*%
X156995000Y-120705000D03*
%TO.P,SW3,1*%
%TO.N,vol+*%
X150495000Y-116205000D03*
%TO.P,SW3,2*%
%TO.N,+3V3*%
X150495000Y-120705000D03*
%TD*%
%TO.P,SW1,1*%
%TO.N,Net-(100nF3-Pad1)*%
X106830000Y-116205000D03*
%TO.P,SW1,2*%
%TO.N,Net-(R2-Pad2)*%
X106830000Y-120705000D03*
%TO.P,SW1,1*%
%TO.N,Net-(100nF3-Pad1)*%
X100330000Y-116205000D03*
%TO.P,SW1,2*%
%TO.N,Net-(R2-Pad2)*%
X100330000Y-120705000D03*
%TD*%
D10*
%TO.P,LS2,2*%
%TO.N,Net-(C47-Pad1)*%
X175895000Y-71755000D03*
D11*
%TO.P,LS2,1*%
%TO.N,Net-(C46-Pad2)*%
X175895000Y-69215000D03*
%TD*%
D10*
%TO.P,LS1,2*%
%TO.N,Net-(C45-Pad1)*%
X162560000Y-69850000D03*
D11*
%TO.P,LS1,1*%
%TO.N,Net-(C44-Pad2)*%
X162560000Y-72390000D03*
%TD*%
%TO.P,J1,1*%
%TO.N,Reset*%
X144780000Y-59055000D03*
D10*
%TO.P,J1,2*%
%TO.N,+3V3*%
X142240000Y-59055000D03*
%TO.P,J1,3*%
%TO.N,GND*%
X139700000Y-59055000D03*
%TO.P,J1,4*%
%TO.N,PGD*%
X137160000Y-59055000D03*
%TO.P,J1,5*%
%TO.N,PGC*%
X134620000Y-59055000D03*
%TD*%
D14*
%TO.P,D1,2*%
%TO.N,Net-(D1-Pad2)*%
X183515000Y-57150000D03*
D15*
%TO.P,D1,1*%
%TO.N,Net-(D1-Pad1)*%
X180975000Y-57150000D03*
%TD*%
D16*
%TO.P,BT3,2*%
%TO.N,GND*%
X189230000Y-58515000D03*
%TO.P,BT3,1*%
%TO.N,Net-(BT3-Pad1)*%
%TA.AperFunction,ComponentPad*%
G36*
G01*
X188604999Y-55915000D02*
X189855001Y-55915000D01*
G75*
G02*
X190105000Y-56164999I0J-249999D01*
G01*
X190105000Y-56865001D01*
G75*
G02*
X189855001Y-57115000I-249999J0D01*
G01*
X188604999Y-57115000D01*
G75*
G02*
X188355000Y-56865001I0J249999D01*
G01*
X188355000Y-56164999D01*
G75*
G02*
X188604999Y-55915000I249999J0D01*
G01*
G37*
%TD.AperFunction*%
%TD*%
D17*
%TO.N,GND*%
X189484000Y-111252000D03*
X193040000Y-111252000D03*
X104140000Y-60960000D03*
X201930000Y-111125000D03*
X161925000Y-91440000D03*
X176530000Y-91440000D03*
X177165000Y-75565000D03*
X159385000Y-76200000D03*
X189865000Y-62865000D03*
X173355000Y-58420000D03*
X161925000Y-60960000D03*
X152400000Y-62230000D03*
X114935000Y-75565000D03*
X100330000Y-72390000D03*
X100330000Y-80010000D03*
X100330000Y-86360000D03*
X100330000Y-93345000D03*
X100330000Y-100330000D03*
X97790000Y-108585000D03*
X90170000Y-106680000D03*
X90170000Y-99695000D03*
X90170000Y-92710000D03*
X90170000Y-85725000D03*
X90170000Y-78740000D03*
X90170000Y-71755000D03*
X80645000Y-72390000D03*
X80645000Y-79375000D03*
X80645000Y-86360000D03*
X80645000Y-93345000D03*
X80645000Y-100330000D03*
X80645000Y-107315000D03*
X131445000Y-80645000D03*
X125095000Y-78105000D03*
X137795000Y-82550000D03*
X154305000Y-69215000D03*
X150495000Y-68580000D03*
X154305000Y-71755000D03*
X154305000Y-66675000D03*
X122555000Y-107950000D03*
X158750000Y-69215000D03*
X146050000Y-80645000D03*
X172720000Y-50165000D03*
X165735000Y-73025000D03*
X167640000Y-93345000D03*
X170815000Y-93345000D03*
X172720000Y-97155000D03*
X170815000Y-97155000D03*
X184150000Y-53340000D03*
X172720000Y-55245000D03*
X179705000Y-50800000D03*
X192405000Y-100330000D03*
X192405000Y-93345000D03*
X192405000Y-86360000D03*
X192405000Y-79375000D03*
X192405000Y-72390000D03*
X173990000Y-95250000D03*
X212090000Y-72390000D03*
X212090000Y-79375000D03*
X212090000Y-86360000D03*
X212090000Y-93345000D03*
X212090000Y-100330000D03*
X212090000Y-107315000D03*
X133350000Y-107950000D03*
X144145000Y-107950000D03*
X154940000Y-107950000D03*
X163830000Y-107950000D03*
X170815000Y-109220000D03*
X175895000Y-109220000D03*
X192405000Y-107315000D03*
X201930000Y-106045000D03*
X201930000Y-99060000D03*
X201930000Y-92075000D03*
X201930000Y-85090000D03*
X201930000Y-78105000D03*
X201930000Y-71120000D03*
%TO.N,+3V3*%
X131445000Y-79375000D03*
X137795000Y-77470000D03*
X154305000Y-70485000D03*
X125730000Y-61595000D03*
X199390000Y-111125000D03*
X111125000Y-97155000D03*
X150495000Y-66675000D03*
X111125000Y-83185000D03*
X147955000Y-78105000D03*
X189865000Y-52705000D03*
X180975000Y-99695000D03*
X152400000Y-81280000D03*
X185928000Y-104394000D03*
X185928000Y-107188000D03*
%TO.N,+5V*%
X174625000Y-92075000D03*
X182880000Y-91440000D03*
X140335000Y-69850000D03*
X135255000Y-66040000D03*
X130810000Y-62865000D03*
X116840000Y-62230000D03*
%TO.N,Vbat*%
X119380000Y-67310000D03*
X159385000Y-66675000D03*
X195580000Y-63500000D03*
%TO.N,Net-(10uF9-Pad1)*%
X160655000Y-63500000D03*
X170815000Y-64770000D03*
%TO.N,Net-(BT3-Pad1)*%
X191770000Y-53340000D03*
X172720000Y-52705000D03*
%TO.N,DataLeds*%
X201930000Y-104140000D03*
X150495000Y-93345000D03*
%TO.N,Vusb*%
X161925000Y-59055000D03*
X174244000Y-63500000D03*
%TO.N,/Class d amplifier/Agnd*%
X165735000Y-104775000D03*
X173990000Y-106045000D03*
X211455000Y-113665000D03*
X173990000Y-108585000D03*
%TO.N,/Class d amplifier/Aleft*%
X207645000Y-111760000D03*
X177165000Y-110490000D03*
X172085000Y-110490000D03*
X163195000Y-105410000D03*
%TO.N,VoL_Measure*%
X177800000Y-101600000D03*
X189230000Y-107950000D03*
%TO.N,Net-(C33-Pad1)*%
X174625000Y-98425000D03*
X180340000Y-98425000D03*
%TO.N,Net-(D1-Pad1)*%
X173228000Y-61595000D03*
X181864000Y-61468000D03*
%TO.N,Net-(D22-Pad2)*%
X189230000Y-80010000D03*
X212090000Y-101600000D03*
%TO.N,Net-(D23-Pad2)*%
X207010000Y-65405000D03*
X90805000Y-104140000D03*
%TO.N,Net-(D24-Pad2)*%
X85725000Y-65405000D03*
X95250000Y-109220000D03*
%TO.N,PGD*%
X137160000Y-62865000D03*
%TO.N,Reset*%
X113665000Y-99695000D03*
X123190000Y-66675000D03*
%TO.N,Net-(J2-Pad2)*%
X153670000Y-72715000D03*
X151130000Y-65405000D03*
X148590000Y-60325000D03*
X160020000Y-60325000D03*
%TO.N,Net-(J2-Pad3)*%
X149860000Y-61595000D03*
X158115000Y-60960000D03*
%TO.N,Net-(L6-Pad2)*%
X172351763Y-54315267D03*
X168275000Y-50800000D03*
%TO.N,vol+*%
X192405000Y-125095000D03*
%TO.N,vol-*%
X194945000Y-127000000D03*
%TO.N,next*%
X207010000Y-128905000D03*
%TO.N,prev*%
X208280000Y-130810000D03*
%TO.N,pp*%
X196850000Y-123825000D03*
%TO.N,Net-(R24-Pad1)*%
X168345000Y-99695000D03*
X166735003Y-104775000D03*
X167005000Y-111125000D03*
X172720000Y-109220000D03*
%TO.N,Net-(R25-Pad1)*%
X169545000Y-109220000D03*
X172720000Y-107315000D03*
X168345000Y-97155000D03*
%TO.N,Net-(R32-Pad2)*%
X165735000Y-68580000D03*
X170180000Y-68580000D03*
X172085000Y-59055000D03*
X165735000Y-60325000D03*
%TO.N,Vol_spkr*%
X126365000Y-74295000D03*
X139700000Y-96520000D03*
X160655000Y-106045000D03*
X167005000Y-112395000D03*
X183896000Y-109728000D03*
X189484000Y-109728000D03*
%TO.N,LCD_T_Irq*%
X127635000Y-75565000D03*
%TO.N,LCD_T_CS*%
X115570000Y-90805000D03*
%TO.N,D_LEDS*%
X135255000Y-78105000D03*
X147955000Y-83185000D03*
%TO.N,LCD_SCK*%
X113665000Y-86995000D03*
X108585000Y-86995000D03*
%TO.N,LCD_SDI*%
X108585000Y-85090000D03*
X113665000Y-85090000D03*
%TO.N,LCD_CS*%
X113665000Y-83185000D03*
X108585000Y-77470000D03*
%TO.N,RX*%
X125730000Y-73025000D03*
X146685000Y-65405000D03*
%TO.N,TX*%
X125730000Y-71755000D03*
X145415000Y-67310000D03*
%TO.N,Net-(R5-Pad2)*%
X191516000Y-111252000D03*
X190500000Y-107188000D03*
%TD*%
D18*
%TO.N,+3V3*%
X185928000Y-104394000D02*
X185928000Y-107188000D01*
%TO.N,+5V*%
X174625000Y-92075000D02*
X174625000Y-91440000D01*
X174625000Y-91440000D02*
X175895000Y-90170000D01*
X181610000Y-90170000D02*
X182880000Y-91440000D01*
X175895000Y-90170000D02*
X181610000Y-90170000D01*
X139065000Y-69850000D02*
X135255000Y-66040000D01*
X140335000Y-69850000D02*
X139065000Y-69850000D01*
X117475000Y-62865000D02*
X116840000Y-62230000D01*
X130810000Y-62865000D02*
X117475000Y-62865000D01*
%TO.N,Vbat*%
X119380000Y-67310000D02*
X120965001Y-65724999D01*
X120965001Y-65724999D02*
X122555000Y-64135000D01*
X156845000Y-64135000D02*
X159385000Y-66675000D01*
X122555000Y-64135000D02*
X156845000Y-64135000D01*
X192405000Y-66675000D02*
X195580000Y-63500000D01*
X159385000Y-66675000D02*
X192405000Y-66675000D01*
%TO.N,Net-(10uF9-Pad1)*%
X161925000Y-64770000D02*
X170815000Y-64770000D01*
X160655000Y-63500000D02*
X161925000Y-64770000D01*
%TO.N,Net-(BT3-Pad1)*%
X191770000Y-53340000D02*
X190500000Y-54610000D01*
X190500000Y-54610000D02*
X173990000Y-54610000D01*
X173990000Y-54610000D02*
X172720000Y-53340000D01*
X172720000Y-53340000D02*
X172720000Y-52705000D01*
%TO.N,DataLeds*%
X201930000Y-104140000D02*
X187960000Y-104140000D01*
X187960000Y-104140000D02*
X177165000Y-93345000D01*
X177165000Y-93345000D02*
X173355000Y-93345000D01*
X173355000Y-93345000D02*
X171450000Y-91440000D01*
X171450000Y-91440000D02*
X165100000Y-91440000D01*
X165100000Y-91440000D02*
X163195000Y-93345000D01*
X163195000Y-93345000D02*
X150495000Y-93345000D01*
D19*
%TO.N,Vusb*%
X161925000Y-59055000D02*
X166370000Y-63500000D01*
X174244000Y-63500000D02*
X166370000Y-63500000D01*
%TO.N,/Class d amplifier/Agnd*%
X165735000Y-104775000D02*
X165735000Y-105410000D01*
X166370000Y-106045000D02*
X172720000Y-106045000D01*
X165735000Y-105410000D02*
X166370000Y-106045000D01*
X172720000Y-106045000D02*
X173990000Y-106045000D01*
D18*
X174625000Y-109220000D02*
X173990000Y-108585000D01*
X174625000Y-111125000D02*
X174625000Y-109220000D01*
X177165000Y-113665000D02*
X174625000Y-111125000D01*
X211455000Y-113665000D02*
X177165000Y-113665000D01*
%TO.N,/Class d amplifier/Aleft*%
X207645000Y-111760000D02*
X206375000Y-111760000D01*
X206375000Y-111760000D02*
X205740000Y-112395000D01*
X179070000Y-112395000D02*
X177165000Y-110490000D01*
X205740000Y-112395000D02*
X179070000Y-112395000D01*
X169408998Y-110490000D02*
X167640000Y-108721002D01*
X172085000Y-110490000D02*
X169408998Y-110490000D01*
X167640000Y-108721002D02*
X166506002Y-108721002D01*
X166506002Y-108721002D02*
X163195000Y-105410000D01*
%TO.N,VoL_Measure*%
X188914999Y-108265001D02*
X189230000Y-107950000D01*
X184465001Y-108265001D02*
X188914999Y-108265001D01*
X177800000Y-101600000D02*
X184465001Y-108265001D01*
D19*
%TO.N,Net-(C33-Pad1)*%
X174625000Y-98425000D02*
X175260000Y-97790000D01*
X179705000Y-97790000D02*
X180340000Y-98425000D01*
X175260000Y-97790000D02*
X179705000Y-97790000D01*
%TO.N,Net-(D1-Pad1)*%
X173228000Y-61595000D02*
X174625000Y-61595000D01*
X174752000Y-61468000D02*
X174625000Y-61595000D01*
X181864000Y-61468000D02*
X174752000Y-61468000D01*
D18*
%TO.N,Net-(D22-Pad2)*%
X191271002Y-80010000D02*
X197485000Y-86223998D01*
X189230000Y-80010000D02*
X191271002Y-80010000D01*
X197485000Y-86223998D02*
X197485000Y-99060000D01*
X200025000Y-101600000D02*
X212090000Y-101600000D01*
X197485000Y-99060000D02*
X200025000Y-101600000D01*
%TO.N,Net-(D23-Pad2)*%
X200796002Y-65405000D02*
X179206002Y-86995000D01*
X207010000Y-65405000D02*
X200796002Y-65405000D01*
X179206002Y-86995000D02*
X154305000Y-86995000D01*
X154305000Y-86995000D02*
X136525000Y-104775000D01*
X136525000Y-104775000D02*
X117475000Y-104775000D01*
X117475000Y-104775000D02*
X115439999Y-106810001D01*
X115439999Y-106810001D02*
X112395000Y-109855000D01*
X112395000Y-109855000D02*
X104140000Y-109855000D01*
X98425000Y-104140000D02*
X90805000Y-104140000D01*
X104140000Y-109855000D02*
X98425000Y-104140000D01*
%TO.N,Net-(D24-Pad2)*%
X85725000Y-65405000D02*
X85725000Y-107315000D01*
X87630000Y-109220000D02*
X95250000Y-109220000D01*
X85725000Y-107315000D02*
X87630000Y-109220000D01*
%TO.N,PGD*%
X137160000Y-62865000D02*
X137160000Y-59055000D01*
%TO.N,Reset*%
X123190000Y-90170000D02*
X123190000Y-66675000D01*
X113665000Y-99695000D02*
X123190000Y-90170000D01*
D19*
%TO.N,Net-(J2-Pad2)*%
X153270001Y-67545001D02*
X151130000Y-65405000D01*
X153270001Y-72315001D02*
X153270001Y-67545001D01*
X153670000Y-72715000D02*
X153270001Y-72315001D01*
X148590000Y-60325000D02*
X157480000Y-60325000D01*
X157480000Y-60325000D02*
X157570001Y-60234999D01*
X157570001Y-60234999D02*
X158115000Y-59690000D01*
X159385000Y-59690000D02*
X160020000Y-60325000D01*
X158115000Y-59690000D02*
X159385000Y-59690000D01*
%TO.N,Net-(J2-Pad3)*%
X149860000Y-61595000D02*
X150495000Y-60960000D01*
X150495000Y-60960000D02*
X158115000Y-60960000D01*
D18*
%TO.N,Net-(L6-Pad2)*%
X168836496Y-50800000D02*
X168275000Y-50800000D01*
X172351763Y-54315267D02*
X168836496Y-50800000D01*
%TO.N,vol+*%
X156995000Y-116205000D02*
X154305000Y-118895000D01*
X154305000Y-118895000D02*
X154305000Y-123825000D01*
X155575000Y-125095000D02*
X192405000Y-125095000D01*
X154305000Y-123825000D02*
X155575000Y-125095000D01*
%TO.N,vol-*%
X146200000Y-116205000D02*
X142875000Y-119530000D01*
X142875000Y-119530000D02*
X142875000Y-125730000D01*
X144145000Y-127000000D02*
X194945000Y-127000000D01*
X142875000Y-125730000D02*
X144145000Y-127000000D01*
%TO.N,next*%
X135405000Y-116205000D02*
X132715000Y-118895000D01*
X132715000Y-118895000D02*
X132715000Y-126365000D01*
X135255000Y-128905000D02*
X207010000Y-128905000D01*
X132715000Y-126365000D02*
X135255000Y-128905000D01*
%TO.N,prev*%
X124610000Y-116205000D02*
X121920000Y-118895000D01*
X121920000Y-118895000D02*
X121920000Y-128905000D01*
X123825000Y-130810000D02*
X208280000Y-130810000D01*
X121920000Y-128905000D02*
X123825000Y-130810000D01*
%TO.N,pp*%
X189230000Y-116205000D02*
X196850000Y-123825000D01*
X167790000Y-116205000D02*
X189230000Y-116205000D01*
D19*
%TO.N,Net-(R24-Pad1)*%
X168345000Y-103165003D02*
X166735003Y-104775000D01*
X168345000Y-99695000D02*
X168345000Y-103165003D01*
D18*
X167005000Y-111125000D02*
X168275000Y-111125000D01*
X168275000Y-111125000D02*
X170180000Y-113030000D01*
X170180000Y-113030000D02*
X172085000Y-113030000D01*
X172085000Y-113030000D02*
X173355000Y-111760000D01*
X173355000Y-111760000D02*
X173355000Y-109855000D01*
X173355000Y-109855000D02*
X172720000Y-109220000D01*
D19*
%TO.N,Net-(R25-Pad1)*%
X169545000Y-109220000D02*
X169545000Y-107950000D01*
X170180000Y-107315000D02*
X172720000Y-107315000D01*
X169545000Y-107950000D02*
X170180000Y-107315000D01*
X172720000Y-107315000D02*
X173793002Y-107315000D01*
X173793002Y-107315000D02*
X174625000Y-107315000D01*
X174625000Y-107315000D02*
X175260000Y-106680000D01*
X175260000Y-106680000D02*
X175260000Y-105410000D01*
X168345000Y-98495000D02*
X168345000Y-97155000D01*
X175260000Y-105410000D02*
X168345000Y-98495000D01*
D18*
%TO.N,Net-(R32-Pad2)*%
X165735000Y-68580000D02*
X170180000Y-68580000D01*
X167005000Y-59055000D02*
X165735000Y-60325000D01*
X172085000Y-59055000D02*
X167005000Y-59055000D01*
%TO.N,Vol_spkr*%
X126365000Y-74295000D02*
X129540000Y-74295000D01*
X129540000Y-74295000D02*
X130175000Y-74930000D01*
X130175000Y-74930000D02*
X130175000Y-86995000D01*
X130175000Y-86995000D02*
X139700000Y-96520000D01*
X167005000Y-112395000D02*
X163195000Y-112395000D01*
X160655000Y-109855000D02*
X160655000Y-106045000D01*
X163195000Y-112395000D02*
X160655000Y-109855000D01*
X183896000Y-109728000D02*
X189484000Y-109728000D01*
%TO.N,LCD_T_Irq*%
X106045000Y-105410000D02*
X113030000Y-105410000D01*
X113030000Y-105410000D02*
X124460000Y-93980000D01*
X124460000Y-93980000D02*
X127635000Y-90805000D01*
X127635000Y-90805000D02*
X127635000Y-75565000D01*
%TO.N,LCD_T_CS*%
X106045000Y-97790000D02*
X108585000Y-97790000D01*
X108585000Y-97790000D02*
X115570000Y-90805000D01*
%TO.N,D_LEDS*%
X135255000Y-78105000D02*
X138430000Y-81280000D01*
X138430000Y-81280000D02*
X142875000Y-81280000D01*
X144780000Y-83185000D02*
X147955000Y-83185000D01*
X142875000Y-81280000D02*
X144780000Y-83185000D01*
%TO.N,LCD_SCK*%
X113665000Y-86995000D02*
X108585000Y-86995000D01*
X106045000Y-95250000D02*
X107950000Y-95250000D01*
X108585000Y-94615000D02*
X108585000Y-86995000D01*
X107950000Y-95250000D02*
X108585000Y-94615000D01*
%TO.N,LCD_SDI*%
X108585000Y-85090000D02*
X113665000Y-85090000D01*
%TO.N,LCD_CS*%
X113665000Y-83185000D02*
X112714999Y-82234999D01*
X108585000Y-78105000D02*
X108585000Y-77470000D01*
X112714999Y-82234999D02*
X108585000Y-78105000D01*
D19*
%TO.N,RX*%
X125730000Y-73025000D02*
X142240000Y-73025000D01*
X146685000Y-68580000D02*
X146685000Y-65405000D01*
X142240000Y-73025000D02*
X146685000Y-68580000D01*
%TO.N,TX*%
X140970000Y-71755000D02*
X145415000Y-67310000D01*
X125730000Y-71755000D02*
X140970000Y-71755000D01*
D18*
%TO.N,Net-(R5-Pad2)*%
X190500000Y-107188000D02*
X190500000Y-108204000D01*
X191516000Y-109220000D02*
X191516000Y-111252000D01*
X190500000Y-108204000D02*
X191516000Y-109220000D01*
%TD*%
M02*
