M48
; DRILL file {KiCad (5.1.8)-1} date 03/09/21 15:20:02
; FORMAT={-:-/ absolute / inch / decimal}
; #@! TF.CreationDate,2021-03-09T15:20:02+01:00
; #@! TF.GenerationSoftware,Kicad,Pcbnew,(5.1.8)-1
FMAT,2
INCH
T1C0.0157
T2C0.0295
T3C0.0354
T4C0.0394
T5C0.0433
T6C0.1260
%
G90
G05
T1
X3.175Y-2.85
X3.175Y-3.125
X3.175Y-3.4
X3.175Y-3.675
X3.175Y-3.95
X3.175Y-4.225
X3.375Y-2.575
X3.55Y-2.825
X3.55Y-3.1
X3.55Y-3.375
X3.55Y-3.65
X3.55Y-3.925
X3.55Y-4.2
X3.575Y-4.1
X3.75Y-4.3
X3.85Y-4.275
X3.95Y-2.85
X3.95Y-3.15
X3.95Y-3.4
X3.95Y-3.675
X3.95Y-3.95
X4.1Y-2.4
X4.275Y-3.05
X4.275Y-3.35
X4.275Y-3.425
X4.375Y-3.275
X4.375Y-3.825
X4.475Y-3.275
X4.475Y-3.35
X4.475Y-3.425
X4.475Y-3.925
X4.525Y-2.975
X4.55Y-3.575
X4.6Y-2.45
X4.7Y-2.65
X4.825Y-4.25
X4.85Y-2.625
X4.925Y-3.075
X4.95Y-2.425
X4.95Y-2.825
X4.95Y-2.875
X4.975Y-2.925
X5.025Y-2.975
X5.15Y-2.475
X5.175Y-3.125
X5.175Y-3.175
X5.25Y-4.25
X5.325Y-2.6
X5.325Y-3.075
X5.4Y-2.475
X5.425Y-3.05
X5.425Y-3.25
X5.5Y-3.8
X5.525Y-2.75
X5.675Y-4.25
X5.725Y-2.65
X5.75Y-3.175
X5.775Y-2.575
X5.825Y-3.075
X5.825Y-3.275
X5.85Y-2.375
X5.9Y-2.425
X5.925Y-2.625
X5.925Y-2.7
X5.925Y-3.675
X5.95Y-2.575
X6.0Y-2.45
X6.0Y-3.2
X6.05Y-2.8628
X6.075Y-2.625
X6.075Y-2.725
X6.075Y-2.775
X6.075Y-2.825
X6.1Y-4.25
X6.225Y-2.4
X6.25Y-2.725
X6.275Y-2.625
X6.275Y-3.0
X6.3Y-2.375
X6.325Y-2.5
X6.325Y-4.175
X6.375Y-2.325
X6.375Y-2.4
X6.375Y-3.6
X6.425Y-4.15
X6.45Y-4.25
X6.525Y-2.375
X6.525Y-2.7
X6.525Y-2.875
X6.525Y-4.125
X6.5644Y-4.125
X6.575Y-4.375
X6.575Y-4.425
X6.6Y-3.675
X6.625Y-2.0
X6.6278Y-3.825
X6.6278Y-3.925
X6.675Y-4.3
X6.7Y-2.7
X6.725Y-2.55
X6.725Y-3.675
X6.725Y-3.825
X6.725Y-4.3
X6.775Y-2.325
X6.775Y-4.35
X6.7855Y-2.1384
X6.8Y-1.975
X6.8Y-2.075
X6.8Y-2.175
X6.8Y-3.825
X6.8Y-4.225
X6.8Y-4.3
X6.82Y-2.425
X6.825Y-2.3
X6.85Y-3.75
X6.85Y-4.175
X6.85Y-4.275
X6.86Y-2.5
X6.875Y-3.625
X6.875Y-3.875
X6.925Y-4.3
X6.95Y-3.6
X6.975Y-2.975
X6.975Y-4.35
X7.0Y-4.0
X7.075Y-2.0
X7.1Y-3.875
X7.125Y-3.925
X7.16Y-2.42
X7.2Y-3.6
X7.24Y-4.32
X7.25Y-2.1
X7.32Y-4.11
X7.32Y-4.22
X7.45Y-3.15
X7.45Y-4.25
X7.46Y-4.32
X7.46Y-4.38
X7.475Y-2.075
X7.475Y-2.475
X7.5Y-4.22
X7.54Y-4.38
X7.55Y-2.1
X7.575Y-2.85
X7.575Y-3.125
X7.575Y-3.4
X7.575Y-3.675
X7.575Y-3.95
X7.575Y-4.225
X7.575Y-4.925
X7.6Y-4.38
X7.675Y-5.0
X7.7Y-2.5
X7.75Y-4.875
X7.85Y-4.375
X7.95Y-2.8
X7.95Y-3.075
X7.95Y-3.35
X7.95Y-3.625
X7.95Y-3.9
X7.95Y-4.1
X7.95Y-4.175
X7.95Y-4.375
X8.15Y-2.575
X8.15Y-5.075
X8.175Y-4.4
X8.2Y-5.15
X8.325Y-4.475
X8.35Y-2.85
X8.35Y-3.125
X8.35Y-3.4
X8.35Y-3.675
X8.35Y-3.95
X8.35Y-4.0
X8.35Y-4.225
T2
X7.45Y-2.225
X7.45Y-2.3037
T3
X7.125Y-2.25
X7.225Y-2.25
T4
X6.4Y-2.75
X6.4Y-2.85
X4.175Y-2.85
X4.175Y-2.95
X4.175Y-3.05
X4.175Y-3.15
X4.175Y-3.25
X4.175Y-3.35
X4.175Y-3.45
X4.175Y-3.55
X4.175Y-3.65
X4.175Y-3.75
X4.175Y-3.85
X4.175Y-3.95
X4.175Y-4.05
X4.175Y-4.15
X7.7Y-2.2016
X7.7Y-2.3
X5.3Y-2.325
X5.4Y-2.325
X5.5Y-2.325
X5.6Y-2.325
X5.7Y-2.325
X6.925Y-2.725
X6.925Y-2.825
T5
X5.5Y-4.575
X5.5Y-4.7522
X5.7559Y-4.575
X5.7559Y-4.7522
X5.075Y-4.575
X5.075Y-4.7522
X5.3309Y-4.575
X5.3309Y-4.7522
X6.35Y-4.575
X6.35Y-4.7522
X6.6059Y-4.575
X6.6059Y-4.7522
X4.65Y-4.575
X4.65Y-4.7522
X4.9059Y-4.575
X4.9059Y-4.7522
X5.925Y-4.575
X5.925Y-4.7522
X6.1809Y-4.575
X6.1809Y-4.7522
X3.95Y-4.575
X3.95Y-4.7522
X4.2059Y-4.575
X4.2059Y-4.7522
T6
X3.2Y-5.175
X8.4Y-2.075
X8.4Y-5.175
X3.2Y-2.075
T0
M30
