%TF.GenerationSoftware,KiCad,Pcbnew,(5.1.8)-1*%
%TF.CreationDate,2021-03-21T17:29:55+01:00*%
%TF.ProjectId,schema_v1,73636865-6d61-45f7-9631-2e6b69636164,rev?*%
%TF.SameCoordinates,Original*%
%TF.FileFunction,Soldermask,Bot*%
%TF.FilePolarity,Negative*%
%FSLAX46Y46*%
G04 Gerber Fmt 4.6, Leading zero omitted, Abs format (unit mm)*
G04 Created by KiCad (PCBNEW (5.1.8)-1) date 2021-03-21 17:29:55*
%MOMM*%
%LPD*%
G01*
G04 APERTURE LIST*
%ADD10C,4.000000*%
%ADD11O,1.700000X1.700000*%
%ADD12R,1.700000X1.700000*%
%ADD13O,1.700000X2.000000*%
%ADD14C,2.000000*%
%ADD15O,1.200000X1.750000*%
G04 APERTURE END LIST*
D10*
%TO.C,.*%
X213360000Y-114808000D03*
%TD*%
%TO.C,.*%
X213360000Y-56388000D03*
%TD*%
%TO.C,.*%
X82804000Y-56388000D03*
%TD*%
%TO.C,.*%
X82804000Y-114808000D03*
%TD*%
D11*
%TO.C,U9*%
X108204000Y-97536000D03*
X108204000Y-94996000D03*
X108204000Y-92456000D03*
X108204000Y-89916000D03*
X108204000Y-87376000D03*
X108204000Y-84836000D03*
X108204000Y-82296000D03*
X108204000Y-79756000D03*
X108204000Y-77216000D03*
X108204000Y-74676000D03*
X108204000Y-72136000D03*
X108204000Y-69596000D03*
X108204000Y-67056000D03*
D12*
X108204000Y-64516000D03*
%TD*%
D13*
%TO.C,SW9*%
X174204000Y-56896000D03*
G36*
G01*
X170854000Y-57646000D02*
X170854000Y-56146000D01*
G75*
G02*
X171104000Y-55896000I250000J0D01*
G01*
X172304000Y-55896000D01*
G75*
G02*
X172554000Y-56146000I0J-250000D01*
G01*
X172554000Y-57646000D01*
G75*
G02*
X172304000Y-57896000I-250000J0D01*
G01*
X171104000Y-57896000D01*
G75*
G02*
X170854000Y-57646000I0J250000D01*
G01*
G37*
%TD*%
D14*
%TO.C,SW6*%
X180744000Y-84328000D03*
X180744000Y-88828000D03*
X174244000Y-84328000D03*
X174244000Y-88828000D03*
%TD*%
%TO.C,SW5*%
X172616000Y-92456000D03*
X172616000Y-96956000D03*
X166116000Y-92456000D03*
X166116000Y-96956000D03*
%TD*%
%TO.C,SW4*%
X172616000Y-100076000D03*
X172616000Y-104576000D03*
X166116000Y-100076000D03*
X166116000Y-104576000D03*
%TD*%
%TO.C,SW3*%
X171092000Y-84328000D03*
X171092000Y-88828000D03*
X164592000Y-84328000D03*
X164592000Y-88828000D03*
%TD*%
%TO.C,SW2*%
X183792000Y-104140000D03*
X183792000Y-108640000D03*
X177292000Y-104140000D03*
X177292000Y-108640000D03*
%TD*%
%TO.C,SW1*%
X143256000Y-87780000D03*
X138756000Y-87780000D03*
X143256000Y-81280000D03*
X138756000Y-81280000D03*
%TD*%
D11*
%TO.C,LS2*%
X136144000Y-64008000D03*
D12*
X138684000Y-64008000D03*
%TD*%
D11*
%TO.C,LS1*%
X117856000Y-64008000D03*
D12*
X115316000Y-64008000D03*
%TD*%
D11*
%TO.C,JP8*%
X157988000Y-83312000D03*
D12*
X160528000Y-83312000D03*
%TD*%
D11*
%TO.C,JP6*%
X162560000Y-112776000D03*
D12*
X165100000Y-112776000D03*
%TD*%
D11*
%TO.C,JP5*%
X169672000Y-112776000D03*
D12*
X172212000Y-112776000D03*
%TD*%
D11*
%TO.C,J3*%
X116332000Y-108712000D03*
X118872000Y-108712000D03*
X121412000Y-108712000D03*
X123952000Y-108712000D03*
D12*
X126492000Y-108712000D03*
%TD*%
D11*
%TO.C,J1*%
X171196000Y-108712000D03*
X168656000Y-108712000D03*
X166116000Y-108712000D03*
D12*
X163576000Y-108712000D03*
%TD*%
D15*
%TO.C,BT3*%
X182340000Y-56896000D03*
G36*
G01*
X179740000Y-57521001D02*
X179740000Y-56270999D01*
G75*
G02*
X179989999Y-56021000I249999J0D01*
G01*
X180690001Y-56021000D01*
G75*
G02*
X180940000Y-56270999I0J-249999D01*
G01*
X180940000Y-57521001D01*
G75*
G02*
X180690001Y-57771000I-249999J0D01*
G01*
X179989999Y-57771000D01*
G75*
G02*
X179740000Y-57521001I0J249999D01*
G01*
G37*
%TD*%
M02*
