M48
; DRILL file {KiCad (5.1.8)-1} date 03/23/21 10:09:47
; FORMAT={-:-/ absolute / inch / decimal}
; #@! TF.CreationDate,2021-03-23T10:09:47+01:00
; #@! TF.GenerationSoftware,Kicad,Pcbnew,(5.1.8)-1
FMAT,2
INCH
T1C0.0157
T2C0.0295
T3C0.0354
T4C0.0394
T5C0.0433
T6C0.0827
%
G90
G05
T1
X3.3Y-2.56
X3.3Y-2.84
X3.3Y-3.12
X3.3Y-3.4
X3.3Y-3.68
X3.3Y-3.96
X3.46Y-2.76
X3.46Y-3.04
X3.46Y-3.32
X3.46Y-3.6
X3.48Y-3.88
X3.52Y-2.6
X3.52Y-2.88
X3.52Y-3.16
X3.52Y-3.72
X3.54Y-3.44
X3.6Y-4.0
X3.72Y-3.12
X3.74Y-3.4
X3.78Y-2.5
X3.78Y-2.78
X3.78Y-3.64
X3.84Y-3.86
X3.94Y-2.46
X3.94Y-2.74
X3.94Y-3.02
X3.94Y-3.32
X3.94Y-3.6
X3.94Y-3.92
X4.04Y-2.6
X4.04Y-2.88
X4.04Y-3.16
X4.04Y-3.44
X4.04Y-3.72
X4.08Y-4.06
X4.1Y-2.3
X4.12Y-3.98
X4.16Y-2.36
X4.2Y-2.42
X4.22Y-4.06
X4.3Y-2.42
X4.34Y-2.64
X4.38Y-2.98
X4.38Y-3.32
X4.46Y-2.78
X4.46Y-3.18
X4.48Y-3.46
X4.48Y-3.96
X4.5Y-3.16
X4.54Y-2.8
X4.6Y-3.18
X4.62Y-2.88
X4.62Y-3.42
X4.76Y-2.6
X4.78Y-3.46
X4.78Y-3.76
X4.815Y-4.17
X4.82Y-3.86
X4.8778Y-3.3893
X4.9278Y-3.54
X4.96Y-3.435
X4.9671Y-3.54
X4.98Y-2.44
X5.0Y-2.84
X5.02Y-3.49
X5.06Y-3.38
X5.0602Y-3.5485
X5.12Y-3.5485
X5.14Y-3.4
X5.2Y-2.64
X5.2Y-3.92
X5.22Y-2.46
X5.28Y-4.3
X5.2864Y-2.6664
X5.34Y-3.0017
X5.36Y-2.86
X5.36Y-3.36
X5.38Y-3.0017
X5.38Y-3.6
X5.38Y-3.76
X5.41Y-3.555
X5.48Y-2.7
X5.52Y-2.26
X5.54Y-3.66
X5.56Y-2.7
X5.58Y-3.82
X5.6Y-2.8
X5.6Y-2.9
X5.6Y-2.96
X5.6Y-3.12
X5.6278Y-2.9322
X5.64Y-3.54
X5.68Y-2.84
X5.68Y-3.38
X5.7Y-2.74
X5.7002Y-2.9998
X5.72Y-2.48
X5.72Y-2.52
X5.72Y-2.62
X5.72Y-4.46
X5.74Y-2.98
X5.78Y-2.68
X5.8Y-3.64
X5.8078Y-2.6515
X5.82Y-2.76
X5.82Y-3.12
X5.82Y-3.22
X5.8216Y-3.415
X5.8216Y-3.5951
X5.86Y-3.14
X5.86Y-3.2
X5.88Y-3.28
X5.8878Y-3.1678
X5.9Y-3.12
X5.9Y-4.34
X5.9Y-4.56
X5.92Y-3.44
X5.92Y-3.88
X5.94Y-2.96
X5.94Y-3.56
X5.9478Y-3.4122
X5.9483Y-3.1913
X5.9508Y-2.2492
X5.96Y-2.84
X5.96Y-2.88
X5.96Y-3.92
X5.975Y-3.66
X5.98Y-3.72
X5.9908Y-2.2492
X6.0Y-2.62
X6.0Y-2.74
X6.0Y-4.2
X6.0198Y-3.4198
X6.02Y-3.08
X6.02Y-3.12
X6.02Y-3.16
X6.02Y-3.28
X6.02Y-3.46
X6.04Y-2.24
X6.04Y-2.66
X6.04Y-3.5
X6.04Y-3.9
X6.04Y-3.96
X6.04Y-4.02
X6.04Y-4.08
X6.06Y-2.88
X6.065Y-3.74
X6.08Y-2.4
X6.1Y-3.34
X6.105Y-3.745
X6.14Y-2.36
X6.14Y-3.1
X6.16Y-3.4
X6.18Y-2.5
X6.2Y-3.44
X6.22Y-2.7
X6.26Y-3.38
X6.28Y-2.86
X6.28Y-3.0
X6.28Y-4.28
X6.32Y-3.38
X6.34Y-3.12
X6.34Y-3.18
X6.38Y-2.5
X6.38Y-2.8
X6.3892Y-2.9408
X6.42Y-2.16
X6.42Y-2.36
X6.42Y-3.445
X6.4292Y-2.9408
X6.5Y-2.56
X6.56Y-2.94
X6.58Y-2.4
X6.58Y-2.78
X6.6Y-2.6
X6.6Y-3.18
X6.6Y-3.36
X6.6Y-3.4598
X6.62Y-2.38
X6.66Y-2.62
X6.72Y-2.6
X6.72Y-3.06
X6.84Y-3.18
X6.86Y-3.0
X6.94Y-2.38
X6.94Y-2.76
X6.965Y-2.64
X6.98Y-4.46
X7.0Y-3.06
X7.1Y-4.34
X7.12Y-2.8
X7.14Y-2.76
X7.2Y-3.54
X7.22Y-2.94
X7.26Y-3.44
X7.3Y-2.36
X7.32Y-2.88
X7.335Y-2.26
X7.34Y-3.7
X7.42Y-3.56
X7.44Y-2.62
X7.46Y-2.56
X7.48Y-2.64
X7.6Y-2.36
X7.6Y-2.64
X7.6Y-2.84
X7.6Y-3.12
X7.6Y-3.4
X7.6Y-3.74
X7.6Y-3.96
X7.64Y-2.58
X7.76Y-2.48
X7.76Y-2.76
X7.76Y-3.04
X7.76Y-3.32
X7.76Y-3.6
X7.78Y-3.96
X7.82Y-2.52
X7.82Y-2.8
X7.82Y-3.08
X7.82Y-3.36
X7.82Y-3.64
X7.82Y-3.92
X7.86Y-3.76
X7.9Y-2.46
X7.9Y-2.74
X7.9Y-3.02
X7.9Y-3.3
X7.9Y-3.58
X8.06Y-2.56
X8.06Y-2.84
X8.08Y-3.14
X8.08Y-3.42
X8.08Y-3.7
X8.2Y-2.76
X8.2Y-3.04
X8.2Y-3.32
X8.2Y-3.6
X8.2Y-3.88
X8.22Y-2.54
X8.26Y-2.4
X8.26Y-3.86
X8.26Y-4.0
X8.34Y-2.74
X8.34Y-2.88
X8.34Y-3.02
X8.34Y-3.16
X8.34Y-3.3
X8.34Y-3.44
X8.34Y-3.58
X8.34Y-3.72
X8.36Y-2.6
T2
X7.1Y-2.24
X7.1787Y-2.24
T3
X7.4106Y-2.24
X7.5106Y-2.24
T4
X6.44Y-4.28
X6.54Y-4.28
X6.64Y-4.28
X6.74Y-4.28
X6.4Y-4.44
X6.5Y-4.44
X4.26Y-2.54
X4.26Y-2.64
X4.26Y-2.74
X4.26Y-2.84
X4.26Y-2.94
X4.26Y-3.04
X4.26Y-3.14
X4.26Y-3.24
X4.26Y-3.34
X4.26Y-3.44
X4.26Y-3.54
X4.26Y-3.64
X4.26Y-3.74
X4.26Y-3.84
X5.36Y-2.52
X5.46Y-2.52
X6.22Y-3.28
X6.32Y-3.28
X6.76Y-2.24
X6.8584Y-2.24
X4.58Y-4.28
X4.68Y-4.28
X4.78Y-4.28
X4.88Y-4.28
X4.98Y-4.28
X4.54Y-2.52
X4.64Y-2.52
X6.68Y-4.44
X6.78Y-4.44
T5
X6.98Y-4.1
X6.98Y-4.2772
X7.2359Y-4.1
X7.2359Y-4.2772
X5.4628Y-3.2
X5.4628Y-3.4559
X5.64Y-3.2
X5.64Y-3.4559
X6.48Y-3.32
X6.48Y-3.4972
X6.7359Y-3.32
X6.7359Y-3.4972
X6.54Y-3.64
X6.54Y-3.8172
X6.7959Y-3.64
X6.7959Y-3.8172
X6.54Y-3.94
X6.54Y-4.1172
X6.7959Y-3.94
X6.7959Y-4.1172
X6.86Y-3.32
X6.86Y-3.4972
X7.1159Y-3.32
X7.1159Y-3.4972
T6
X3.26Y-4.52
X8.4Y-4.52
X8.4Y-2.22
X3.26Y-2.22
T0
M30
