%TF.GenerationSoftware,KiCad,Pcbnew,(5.1.8)-1*%
%TF.CreationDate,2021-03-23T10:09:45+01:00*%
%TF.ProjectId,schema_v1,73636865-6d61-45f7-9631-2e6b69636164,rev?*%
%TF.SameCoordinates,Original*%
%TF.FileFunction,Legend,Top*%
%TF.FilePolarity,Positive*%
%FSLAX46Y46*%
G04 Gerber Fmt 4.6, Leading zero omitted, Abs format (unit mm)*
G04 Created by KiCad (PCBNEW (5.1.8)-1) date 2021-03-23 10:09:45*
%MOMM*%
%LPD*%
G01*
G04 APERTURE LIST*
%ADD10C,0.300000*%
%ADD11C,0.120000*%
%ADD12C,0.150000*%
G04 APERTURE END LIST*
D10*
X87018142Y-115105571D02*
X86518142Y-114391285D01*
X86160999Y-115105571D02*
X86160999Y-113605571D01*
X86732428Y-113605571D01*
X86875285Y-113677000D01*
X86946714Y-113748428D01*
X87018142Y-113891285D01*
X87018142Y-114105571D01*
X86946714Y-114248428D01*
X86875285Y-114319857D01*
X86732428Y-114391285D01*
X86160999Y-114391285D01*
X87875285Y-115105571D02*
X87732428Y-115034142D01*
X87660999Y-114962714D01*
X87589571Y-114819857D01*
X87589571Y-114391285D01*
X87660999Y-114248428D01*
X87732428Y-114177000D01*
X87875285Y-114105571D01*
X88089571Y-114105571D01*
X88232428Y-114177000D01*
X88303857Y-114248428D01*
X88375285Y-114391285D01*
X88375285Y-114819857D01*
X88303857Y-114962714D01*
X88232428Y-115034142D01*
X88089571Y-115105571D01*
X87875285Y-115105571D01*
X89018142Y-115105571D02*
X89018142Y-113605571D01*
X89018142Y-114177000D02*
X89160999Y-114105571D01*
X89446714Y-114105571D01*
X89589571Y-114177000D01*
X89660999Y-114248428D01*
X89732428Y-114391285D01*
X89732428Y-114819857D01*
X89660999Y-114962714D01*
X89589571Y-115034142D01*
X89446714Y-115105571D01*
X89160999Y-115105571D01*
X89018142Y-115034142D01*
X90375285Y-115105571D02*
X90375285Y-113605571D01*
X90375285Y-114177000D02*
X90518142Y-114105571D01*
X90803857Y-114105571D01*
X90946714Y-114177000D01*
X91018142Y-114248428D01*
X91089571Y-114391285D01*
X91089571Y-114819857D01*
X91018142Y-114962714D01*
X90946714Y-115034142D01*
X90803857Y-115105571D01*
X90518142Y-115105571D01*
X90375285Y-115034142D01*
X92303857Y-115034142D02*
X92160999Y-115105571D01*
X91875285Y-115105571D01*
X91732428Y-115034142D01*
X91660999Y-114891285D01*
X91660999Y-114319857D01*
X91732428Y-114177000D01*
X91875285Y-114105571D01*
X92160999Y-114105571D01*
X92303857Y-114177000D01*
X92375285Y-114319857D01*
X92375285Y-114462714D01*
X91660999Y-114605571D01*
X94589571Y-113605571D02*
X94589571Y-114677000D01*
X94518142Y-114891285D01*
X94375285Y-115034142D01*
X94160999Y-115105571D01*
X94018142Y-115105571D01*
X95946714Y-115105571D02*
X95946714Y-114319857D01*
X95875285Y-114177000D01*
X95732428Y-114105571D01*
X95446714Y-114105571D01*
X95303857Y-114177000D01*
X95946714Y-115034142D02*
X95803857Y-115105571D01*
X95446714Y-115105571D01*
X95303857Y-115034142D01*
X95232428Y-114891285D01*
X95232428Y-114748428D01*
X95303857Y-114605571D01*
X95446714Y-114534142D01*
X95803857Y-114534142D01*
X95946714Y-114462714D01*
X96660999Y-114105571D02*
X96660999Y-115105571D01*
X96660999Y-114248428D02*
X96732428Y-114177000D01*
X96875285Y-114105571D01*
X97089571Y-114105571D01*
X97232428Y-114177000D01*
X97303857Y-114319857D01*
X97303857Y-115105571D01*
X97946714Y-115034142D02*
X98089571Y-115105571D01*
X98375285Y-115105571D01*
X98518142Y-115034142D01*
X98589571Y-114891285D01*
X98589571Y-114819857D01*
X98518142Y-114677000D01*
X98375285Y-114605571D01*
X98160999Y-114605571D01*
X98018142Y-114534142D01*
X97946714Y-114391285D01*
X97946714Y-114319857D01*
X98018142Y-114177000D01*
X98160999Y-114105571D01*
X98375285Y-114105571D01*
X98518142Y-114177000D01*
X99160999Y-115034142D02*
X99303857Y-115105571D01*
X99589571Y-115105571D01*
X99732428Y-115034142D01*
X99803857Y-114891285D01*
X99803857Y-114819857D01*
X99732428Y-114677000D01*
X99589571Y-114605571D01*
X99375285Y-114605571D01*
X99232428Y-114534142D01*
X99160999Y-114391285D01*
X99160999Y-114319857D01*
X99232428Y-114177000D01*
X99375285Y-114105571D01*
X99589571Y-114105571D01*
X99732428Y-114177000D01*
X101018142Y-115034142D02*
X100875285Y-115105571D01*
X100589571Y-115105571D01*
X100446714Y-115034142D01*
X100375285Y-114891285D01*
X100375285Y-114319857D01*
X100446714Y-114177000D01*
X100589571Y-114105571D01*
X100875285Y-114105571D01*
X101018142Y-114177000D01*
X101089571Y-114319857D01*
X101089571Y-114462714D01*
X100375285Y-114605571D01*
X101732428Y-114105571D02*
X101732428Y-115105571D01*
X101732428Y-114248428D02*
X101803857Y-114177000D01*
X101946714Y-114105571D01*
X102160999Y-114105571D01*
X102303857Y-114177000D01*
X102375285Y-114319857D01*
X102375285Y-115105571D01*
X103018142Y-115034142D02*
X103160999Y-115105571D01*
X103446714Y-115105571D01*
X103589571Y-115034142D01*
X103660999Y-114891285D01*
X103660999Y-114819857D01*
X103589571Y-114677000D01*
X103446714Y-114605571D01*
X103232428Y-114605571D01*
X103089571Y-114534142D01*
X103018142Y-114391285D01*
X103018142Y-114319857D01*
X103089571Y-114177000D01*
X103232428Y-114105571D01*
X103446714Y-114105571D01*
X103589571Y-114177000D01*
X106518142Y-113534142D02*
X105232428Y-115462714D01*
X108089571Y-113534142D02*
X106803857Y-115462714D01*
X109660999Y-113534142D02*
X108375285Y-115462714D01*
X111303857Y-115105571D02*
X111303857Y-113605571D01*
X111875285Y-113605571D01*
X112018142Y-113677000D01*
X112089571Y-113748428D01*
X112160999Y-113891285D01*
X112160999Y-114105571D01*
X112089571Y-114248428D01*
X112018142Y-114319857D01*
X111875285Y-114391285D01*
X111303857Y-114391285D01*
X112803857Y-114319857D02*
X113303857Y-114319857D01*
X113518142Y-115105571D02*
X112803857Y-115105571D01*
X112803857Y-113605571D01*
X113518142Y-113605571D01*
X115232428Y-113748428D02*
X115303857Y-113677000D01*
X115446714Y-113605571D01*
X115803857Y-113605571D01*
X115946714Y-113677000D01*
X116018142Y-113748428D01*
X116089571Y-113891285D01*
X116089571Y-114034142D01*
X116018142Y-114248428D01*
X115160999Y-115105571D01*
X116089571Y-115105571D01*
X117018142Y-113605571D02*
X117160999Y-113605571D01*
X117303857Y-113677000D01*
X117375285Y-113748428D01*
X117446714Y-113891285D01*
X117518142Y-114177000D01*
X117518142Y-114534142D01*
X117446714Y-114819857D01*
X117375285Y-114962714D01*
X117303857Y-115034142D01*
X117160999Y-115105571D01*
X117018142Y-115105571D01*
X116875285Y-115034142D01*
X116803857Y-114962714D01*
X116732428Y-114819857D01*
X116660999Y-114534142D01*
X116660999Y-114177000D01*
X116732428Y-113891285D01*
X116803857Y-113748428D01*
X116875285Y-113677000D01*
X117018142Y-113605571D01*
X118089571Y-113748428D02*
X118160999Y-113677000D01*
X118303857Y-113605571D01*
X118660999Y-113605571D01*
X118803857Y-113677000D01*
X118875285Y-113748428D01*
X118946714Y-113891285D01*
X118946714Y-114034142D01*
X118875285Y-114248428D01*
X118018142Y-115105571D01*
X118946714Y-115105571D01*
X119875285Y-113605571D02*
X120018142Y-113605571D01*
X120160999Y-113677000D01*
X120232428Y-113748428D01*
X120303857Y-113891285D01*
X120375285Y-114177000D01*
X120375285Y-114534142D01*
X120303857Y-114819857D01*
X120232428Y-114962714D01*
X120160999Y-115034142D01*
X120018142Y-115105571D01*
X119875285Y-115105571D01*
X119732428Y-115034142D01*
X119660999Y-114962714D01*
X119589571Y-114819857D01*
X119518142Y-114534142D01*
X119518142Y-114177000D01*
X119589571Y-113891285D01*
X119660999Y-113748428D01*
X119732428Y-113677000D01*
X119875285Y-113605571D01*
X121018142Y-114534142D02*
X122160999Y-114534142D01*
X122803857Y-113748428D02*
X122875285Y-113677000D01*
X123018142Y-113605571D01*
X123375285Y-113605571D01*
X123518142Y-113677000D01*
X123589571Y-113748428D01*
X123660999Y-113891285D01*
X123660999Y-114034142D01*
X123589571Y-114248428D01*
X122732428Y-115105571D01*
X123660999Y-115105571D01*
X124589571Y-113605571D02*
X124732428Y-113605571D01*
X124875285Y-113677000D01*
X124946714Y-113748428D01*
X125018142Y-113891285D01*
X125089571Y-114177000D01*
X125089571Y-114534142D01*
X125018142Y-114819857D01*
X124946714Y-114962714D01*
X124875285Y-115034142D01*
X124732428Y-115105571D01*
X124589571Y-115105571D01*
X124446714Y-115034142D01*
X124375285Y-114962714D01*
X124303857Y-114819857D01*
X124232428Y-114534142D01*
X124232428Y-114177000D01*
X124303857Y-113891285D01*
X124375285Y-113748428D01*
X124446714Y-113677000D01*
X124589571Y-113605571D01*
X125660999Y-113748428D02*
X125732428Y-113677000D01*
X125875285Y-113605571D01*
X126232428Y-113605571D01*
X126375285Y-113677000D01*
X126446714Y-113748428D01*
X126518142Y-113891285D01*
X126518142Y-114034142D01*
X126446714Y-114248428D01*
X125589571Y-115105571D01*
X126518142Y-115105571D01*
X127946714Y-115105571D02*
X127089571Y-115105571D01*
X127518142Y-115105571D02*
X127518142Y-113605571D01*
X127375285Y-113819857D01*
X127232428Y-113962714D01*
X127089571Y-114034142D01*
X130803857Y-113534142D02*
X129518142Y-115462714D01*
X132375285Y-113534142D02*
X131089571Y-115462714D01*
X133946714Y-113534142D02*
X132660999Y-115462714D01*
X135518142Y-113748428D02*
X135589571Y-113677000D01*
X135732428Y-113605571D01*
X136089571Y-113605571D01*
X136232428Y-113677000D01*
X136303857Y-113748428D01*
X136375285Y-113891285D01*
X136375285Y-114034142D01*
X136303857Y-114248428D01*
X135446714Y-115105571D01*
X136375285Y-115105571D01*
X137018142Y-114319857D02*
X137518142Y-114319857D01*
X137732428Y-115105571D02*
X137018142Y-115105571D01*
X137018142Y-113605571D01*
X137732428Y-113605571D01*
X138375285Y-115105571D02*
X138375285Y-113605571D01*
X138375285Y-114319857D02*
X139232428Y-114319857D01*
X139232428Y-115105571D02*
X139232428Y-113605571D01*
X140732428Y-115105571D02*
X139875285Y-115105571D01*
X140303857Y-115105571D02*
X140303857Y-113605571D01*
X140161000Y-113819857D01*
X140018142Y-113962714D01*
X139875285Y-114034142D01*
D11*
%TO.C,D1*%
X192488000Y-56895538D02*
G75*
G02*
X186938000Y-58440830I-2990000J-462D01*
G01*
X192488000Y-56896462D02*
G75*
G03*
X186938000Y-55351170I-2990000J462D01*
G01*
X191998000Y-56896000D02*
G75*
G03*
X191998000Y-56896000I-2500000J0D01*
G01*
X186938000Y-55351000D02*
X186938000Y-58441000D01*
%TO.C,.*%
X215610000Y-114808000D02*
G75*
G03*
X215610000Y-114808000I-2250000J0D01*
G01*
X215610000Y-56388000D02*
G75*
G03*
X215610000Y-56388000I-2250000J0D01*
G01*
X85054000Y-56388000D02*
G75*
G03*
X85054000Y-56388000I-2250000J0D01*
G01*
X85054000Y-114808000D02*
G75*
G03*
X85054000Y-114808000I-2250000J0D01*
G01*
%TO.C,U12*%
X179971000Y-63930000D02*
X179246000Y-63930000D01*
X183466000Y-68150000D02*
X183466000Y-67425000D01*
X182741000Y-68150000D02*
X183466000Y-68150000D01*
X179246000Y-68150000D02*
X179246000Y-67425000D01*
X179971000Y-68150000D02*
X179246000Y-68150000D01*
X183466000Y-63930000D02*
X183466000Y-64655000D01*
X182741000Y-63930000D02*
X183466000Y-63930000D01*
%TO.C,U11*%
X121793000Y-89789000D02*
X121158000Y-89789000D01*
X121793000Y-90424000D02*
X121793000Y-89789000D01*
X121158000Y-85915500D02*
X121158000Y-90424000D01*
X131000500Y-85915500D02*
X121158000Y-85915500D01*
X131000500Y-90424000D02*
X131000500Y-85915500D01*
X121158000Y-90424000D02*
X131000500Y-90424000D01*
%TO.C,U9*%
X106874000Y-63186000D02*
X108204000Y-63186000D01*
X106874000Y-64516000D02*
X106874000Y-63186000D01*
X106874000Y-65786000D02*
X109534000Y-65786000D01*
X109534000Y-65786000D02*
X109534000Y-98866000D01*
X106874000Y-65786000D02*
X106874000Y-98866000D01*
X106874000Y-98866000D02*
X109534000Y-98866000D01*
%TO.C,U7*%
X169078000Y-68188000D02*
X169078000Y-71138000D01*
X172298000Y-69988000D02*
X172298000Y-68188000D01*
%TO.C,U6*%
X168275000Y-80073500D02*
X168275000Y-77470000D01*
X161480500Y-80073500D02*
X168275000Y-80073500D01*
X161480500Y-77470000D02*
X161480500Y-80073500D01*
X168275000Y-77470000D02*
X161480500Y-77470000D01*
D12*
%TO.C,U5*%
X149687000Y-70282000D02*
X151287000Y-70282000D01*
X149687000Y-60207000D02*
X143937000Y-60207000D01*
X149687000Y-70857000D02*
X143937000Y-70857000D01*
X149687000Y-60207000D02*
X149687000Y-60857000D01*
X143937000Y-60207000D02*
X143937000Y-60857000D01*
X143937000Y-70857000D02*
X143937000Y-70207000D01*
X149687000Y-70857000D02*
X149687000Y-70282000D01*
D11*
%TO.C,U4*%
X153528000Y-77162000D02*
X153528000Y-75872000D01*
X153978000Y-77162000D02*
X153528000Y-77162000D01*
X153978000Y-77612000D02*
X153978000Y-77162000D01*
X153978000Y-84382000D02*
X153528000Y-84382000D01*
X153978000Y-83932000D02*
X153978000Y-84382000D01*
X146758000Y-77162000D02*
X147208000Y-77162000D01*
X146758000Y-77612000D02*
X146758000Y-77162000D01*
X146758000Y-84382000D02*
X147208000Y-84382000D01*
X146758000Y-83932000D02*
X146758000Y-84382000D01*
%TO.C,U3*%
X142964000Y-96520000D02*
X156464000Y-96520000D01*
X142964000Y-122428000D02*
X142964000Y-96520000D01*
X156464000Y-122428000D02*
X142964000Y-122428000D01*
X156464000Y-96520000D02*
X156464000Y-122428000D01*
%TO.C,U2*%
X186236000Y-88240000D02*
X183786000Y-88240000D01*
X184436000Y-91460000D02*
X186236000Y-91460000D01*
%TO.C,U1*%
X161564000Y-67564000D02*
X161564000Y-64114000D01*
X161564000Y-67564000D02*
X161564000Y-69514000D01*
X156444000Y-67564000D02*
X156444000Y-65614000D01*
X156444000Y-67564000D02*
X156444000Y-69514000D01*
%TO.C,TP6*%
X164666000Y-58854000D02*
X164666000Y-55954000D01*
X167566000Y-58854000D02*
X164666000Y-58854000D01*
X167566000Y-55954000D02*
X167566000Y-58854000D01*
X164666000Y-55954000D02*
X167566000Y-55954000D01*
%TO.C,SW9*%
X168854000Y-54146000D02*
X168854000Y-55396000D01*
X170104000Y-54146000D02*
X168854000Y-54146000D01*
X176004000Y-59646000D02*
X172954000Y-59646000D01*
X176004000Y-56696000D02*
X176004000Y-59646000D01*
X176754000Y-56696000D02*
X176004000Y-56696000D01*
X169904000Y-59646000D02*
X172954000Y-59646000D01*
X169904000Y-56696000D02*
X169904000Y-59646000D01*
X169154000Y-56696000D02*
X169904000Y-56696000D01*
X176754000Y-54446000D02*
X174954000Y-54446000D01*
X176754000Y-55196000D02*
X176754000Y-54446000D01*
X174954000Y-55196000D02*
X176754000Y-55196000D01*
X174954000Y-54446000D02*
X174954000Y-55196000D01*
X170954000Y-54446000D02*
X169154000Y-54446000D01*
X170954000Y-55196000D02*
X170954000Y-54446000D01*
X169154000Y-55196000D02*
X170954000Y-55196000D01*
X169154000Y-54446000D02*
X169154000Y-55196000D01*
X173454000Y-54446000D02*
X172454000Y-54446000D01*
X173454000Y-55196000D02*
X173454000Y-54446000D01*
X172454000Y-55196000D02*
X173454000Y-55196000D01*
X172454000Y-54446000D02*
X172454000Y-55196000D01*
X176764000Y-54436000D02*
X169144000Y-54436000D01*
X176764000Y-60406000D02*
X176764000Y-54436000D01*
X169144000Y-60406000D02*
X176764000Y-60406000D01*
X169144000Y-54436000D02*
X169144000Y-60406000D01*
%TO.C,SW6*%
X180994000Y-87328000D02*
X180994000Y-85828000D01*
X179744000Y-83328000D02*
X175244000Y-83328000D01*
X173994000Y-85828000D02*
X173994000Y-87328000D01*
X175244000Y-89828000D02*
X179744000Y-89828000D01*
%TO.C,SW5*%
X172866000Y-95456000D02*
X172866000Y-93956000D01*
X171616000Y-91456000D02*
X167116000Y-91456000D01*
X165866000Y-93956000D02*
X165866000Y-95456000D01*
X167116000Y-97956000D02*
X171616000Y-97956000D01*
%TO.C,SW4*%
X172866000Y-103076000D02*
X172866000Y-101576000D01*
X171616000Y-99076000D02*
X167116000Y-99076000D01*
X165866000Y-101576000D02*
X165866000Y-103076000D01*
X167116000Y-105576000D02*
X171616000Y-105576000D01*
%TO.C,SW3*%
X171342000Y-87328000D02*
X171342000Y-85828000D01*
X170092000Y-83328000D02*
X165592000Y-83328000D01*
X164342000Y-85828000D02*
X164342000Y-87328000D01*
X165592000Y-89828000D02*
X170092000Y-89828000D01*
%TO.C,SW2*%
X184042000Y-107140000D02*
X184042000Y-105640000D01*
X182792000Y-103140000D02*
X178292000Y-103140000D01*
X177042000Y-105640000D02*
X177042000Y-107140000D01*
X178292000Y-109640000D02*
X182792000Y-109640000D01*
%TO.C,SW1*%
X140256000Y-88030000D02*
X141756000Y-88030000D01*
X144256000Y-86780000D02*
X144256000Y-82280000D01*
X141756000Y-81030000D02*
X140256000Y-81030000D01*
X137756000Y-82280000D02*
X137756000Y-86780000D01*
%TO.C,R31*%
X173455000Y-63727064D02*
X173455000Y-63272936D01*
X171985000Y-63727064D02*
X171985000Y-63272936D01*
%TO.C,R30*%
X169445000Y-63272936D02*
X169445000Y-63727064D01*
X170915000Y-63272936D02*
X170915000Y-63727064D01*
%TO.C,R29*%
X132360936Y-83031000D02*
X132815064Y-83031000D01*
X132360936Y-81561000D02*
X132815064Y-81561000D01*
%TO.C,R28*%
X120115000Y-88619064D02*
X120115000Y-88164936D01*
X118645000Y-88619064D02*
X118645000Y-88164936D01*
%TO.C,R27*%
X133323000Y-92683064D02*
X133323000Y-92228936D01*
X131853000Y-92683064D02*
X131853000Y-92228936D01*
%TO.C,R26*%
X126773000Y-94260936D02*
X126773000Y-94715064D01*
X128243000Y-94260936D02*
X128243000Y-94715064D01*
%TO.C,R25*%
X133323000Y-88619064D02*
X133323000Y-88164936D01*
X131853000Y-88619064D02*
X131853000Y-88164936D01*
%TO.C,R24*%
X134393000Y-88164936D02*
X134393000Y-88619064D01*
X135863000Y-88164936D02*
X135863000Y-88619064D01*
%TO.C,R23*%
X124233000Y-94260936D02*
X124233000Y-94715064D01*
X125703000Y-94260936D02*
X125703000Y-94715064D01*
%TO.C,R18*%
X158723064Y-79529000D02*
X158268936Y-79529000D01*
X158723064Y-80999000D02*
X158268936Y-80999000D01*
%TO.C,R17*%
X127789000Y-60732936D02*
X127789000Y-61187064D01*
X129259000Y-60732936D02*
X129259000Y-61187064D01*
%TO.C,R16*%
X174471000Y-72871064D02*
X174471000Y-72416936D01*
X173001000Y-72871064D02*
X173001000Y-72416936D01*
%TO.C,R15*%
X170460936Y-73887000D02*
X170915064Y-73887000D01*
X170460936Y-72417000D02*
X170915064Y-72417000D01*
%TO.C,R14*%
X187225000Y-62256936D02*
X187225000Y-62711064D01*
X188695000Y-62256936D02*
X188695000Y-62711064D01*
%TO.C,R13*%
X139419064Y-102389000D02*
X138964936Y-102389000D01*
X139419064Y-103859000D02*
X138964936Y-103859000D01*
%TO.C,R12*%
X139419064Y-104421000D02*
X138964936Y-104421000D01*
X139419064Y-105891000D02*
X138964936Y-105891000D01*
%TO.C,R11*%
X164311000Y-68807064D02*
X164311000Y-68352936D01*
X162841000Y-68807064D02*
X162841000Y-68352936D01*
%TO.C,R10*%
X156183000Y-74903064D02*
X156183000Y-74448936D01*
X154713000Y-74903064D02*
X154713000Y-74448936D01*
%TO.C,R9*%
X157253000Y-73432936D02*
X157253000Y-73887064D01*
X158723000Y-73432936D02*
X158723000Y-73887064D01*
%TO.C,R8*%
X154205000Y-70384936D02*
X154205000Y-70839064D01*
X155675000Y-70384936D02*
X155675000Y-70839064D01*
%TO.C,R7*%
X112495064Y-81561000D02*
X112040936Y-81561000D01*
X112495064Y-83031000D02*
X112040936Y-83031000D01*
%TO.C,R6*%
X112495064Y-71401000D02*
X112040936Y-71401000D01*
X112495064Y-72871000D02*
X112040936Y-72871000D01*
%TO.C,R5*%
X155675000Y-66775064D02*
X155675000Y-66320936D01*
X154205000Y-66775064D02*
X154205000Y-66320936D01*
%TO.C,R4*%
X164311000Y-63727064D02*
X164311000Y-63272936D01*
X162841000Y-63727064D02*
X162841000Y-63272936D01*
%TO.C,R3*%
X161771000Y-61187064D02*
X161771000Y-60732936D01*
X160301000Y-61187064D02*
X160301000Y-60732936D01*
%TO.C,R2*%
X159231000Y-61187064D02*
X159231000Y-60732936D01*
X157761000Y-61187064D02*
X157761000Y-60732936D01*
%TO.C,R1*%
X191235000Y-62711064D02*
X191235000Y-62256936D01*
X189765000Y-62711064D02*
X189765000Y-62256936D01*
%TO.C,LS2*%
X140014000Y-62678000D02*
X140014000Y-64008000D01*
X138684000Y-62678000D02*
X140014000Y-62678000D01*
X137414000Y-62678000D02*
X137414000Y-65338000D01*
X137414000Y-65338000D02*
X134814000Y-65338000D01*
X137414000Y-62678000D02*
X134814000Y-62678000D01*
X134814000Y-62678000D02*
X134814000Y-65338000D01*
%TO.C,LS1*%
X113986000Y-65338000D02*
X113986000Y-64008000D01*
X115316000Y-65338000D02*
X113986000Y-65338000D01*
X116586000Y-65338000D02*
X116586000Y-62678000D01*
X116586000Y-62678000D02*
X119186000Y-62678000D01*
X116586000Y-65338000D02*
X119186000Y-65338000D01*
X119186000Y-65338000D02*
X119186000Y-62678000D01*
%TO.C,L6*%
X178144000Y-67658064D02*
X178144000Y-66453936D01*
X175424000Y-67658064D02*
X175424000Y-66453936D01*
%TO.C,L5*%
X187896500Y-69977000D02*
X187896500Y-76517500D01*
X178943000Y-69977000D02*
X187833000Y-69977000D01*
X178943000Y-76517500D02*
X178943000Y-69977000D01*
X187896500Y-76517500D02*
X178943000Y-76517500D01*
%TO.C,L4*%
X129742000Y-72397252D02*
X129742000Y-71874748D01*
X128322000Y-72397252D02*
X128322000Y-71874748D01*
%TO.C,L3*%
X129742000Y-76461252D02*
X129742000Y-75938748D01*
X128322000Y-76461252D02*
X128322000Y-75938748D01*
%TO.C,L2*%
X126186000Y-72397252D02*
X126186000Y-71874748D01*
X124766000Y-72397252D02*
X124766000Y-71874748D01*
%TO.C,L1*%
X126186000Y-76461252D02*
X126186000Y-75938748D01*
X124766000Y-76461252D02*
X124766000Y-75938748D01*
%TO.C,JP8*%
X161858000Y-83312000D02*
X161858000Y-84642000D01*
X161858000Y-84642000D02*
X160528000Y-84642000D01*
X159258000Y-84642000D02*
X156658000Y-84642000D01*
X156658000Y-81982000D02*
X156658000Y-84642000D01*
X159258000Y-81982000D02*
X156658000Y-81982000D01*
X159258000Y-81982000D02*
X159258000Y-84642000D01*
%TO.C,JP7*%
X165084000Y-71752000D02*
X165084000Y-74552000D01*
X165084000Y-74552000D02*
X163084000Y-74552000D01*
X163084000Y-74552000D02*
X163084000Y-71752000D01*
X163084000Y-71752000D02*
X165084000Y-71752000D01*
%TO.C,JP6*%
X166430000Y-112776000D02*
X166430000Y-114106000D01*
X166430000Y-114106000D02*
X165100000Y-114106000D01*
X163830000Y-114106000D02*
X161230000Y-114106000D01*
X161230000Y-111446000D02*
X161230000Y-114106000D01*
X163830000Y-111446000D02*
X161230000Y-111446000D01*
X163830000Y-111446000D02*
X163830000Y-114106000D01*
%TO.C,JP5*%
X173542000Y-112776000D02*
X173542000Y-114106000D01*
X173542000Y-114106000D02*
X172212000Y-114106000D01*
X170942000Y-114106000D02*
X168342000Y-114106000D01*
X168342000Y-111446000D02*
X168342000Y-114106000D01*
X170942000Y-111446000D02*
X168342000Y-111446000D01*
X170942000Y-111446000D02*
X170942000Y-114106000D01*
%TO.C,JP4*%
X154416000Y-90040000D02*
X154416000Y-92840000D01*
X154416000Y-92840000D02*
X152416000Y-92840000D01*
X152416000Y-92840000D02*
X152416000Y-90040000D01*
X152416000Y-90040000D02*
X154416000Y-90040000D01*
%TO.C,JP3*%
X156956000Y-90040000D02*
X156956000Y-92840000D01*
X156956000Y-92840000D02*
X154956000Y-92840000D01*
X154956000Y-92840000D02*
X154956000Y-90040000D01*
X154956000Y-90040000D02*
X156956000Y-90040000D01*
%TO.C,JP2*%
X159496000Y-90040000D02*
X159496000Y-92840000D01*
X159496000Y-92840000D02*
X157496000Y-92840000D01*
X157496000Y-92840000D02*
X157496000Y-90040000D01*
X157496000Y-90040000D02*
X159496000Y-90040000D01*
%TO.C,JP1*%
X162036000Y-90040000D02*
X162036000Y-92840000D01*
X162036000Y-92840000D02*
X160036000Y-92840000D01*
X160036000Y-92840000D02*
X160036000Y-90040000D01*
X160036000Y-90040000D02*
X162036000Y-90040000D01*
%TO.C,J3*%
X127822000Y-108712000D02*
X127822000Y-110042000D01*
X127822000Y-110042000D02*
X126492000Y-110042000D01*
X125222000Y-110042000D02*
X115002000Y-110042000D01*
X115002000Y-107382000D02*
X115002000Y-110042000D01*
X125222000Y-107382000D02*
X115002000Y-107382000D01*
X125222000Y-107382000D02*
X125222000Y-110042000D01*
%TO.C,J2*%
X148612000Y-57240000D02*
X148612000Y-57830000D01*
X142952000Y-51420000D02*
X142952000Y-53030000D01*
X150672000Y-51420000D02*
X142952000Y-51420000D01*
X150672000Y-55530000D02*
X150672000Y-57240000D01*
X150672000Y-57240000D02*
X148612000Y-57240000D01*
X142952000Y-55530000D02*
X142952000Y-57240000D01*
X142952000Y-57240000D02*
X145012000Y-57240000D01*
X150672000Y-51420000D02*
X150672000Y-53030000D01*
%TO.C,J1*%
X162246000Y-108712000D02*
X162246000Y-107382000D01*
X162246000Y-107382000D02*
X163576000Y-107382000D01*
X164846000Y-107382000D02*
X172526000Y-107382000D01*
X172526000Y-110042000D02*
X172526000Y-107382000D01*
X164846000Y-110042000D02*
X172526000Y-110042000D01*
X164846000Y-110042000D02*
X164846000Y-107382000D01*
%TO.C,D29*%
X127789000Y-55236000D02*
X127789000Y-57696000D01*
X129259000Y-55236000D02*
X127789000Y-55236000D01*
X129259000Y-57696000D02*
X129259000Y-55236000D01*
%TO.C,D28*%
X165772000Y-73184000D02*
X165772000Y-68204000D01*
X168492000Y-73184000D02*
X168492000Y-68204000D01*
X165772000Y-73184000D02*
X168492000Y-73184000D01*
%TO.C,D27*%
X129821000Y-107052000D02*
X129821000Y-109512000D01*
X131291000Y-107052000D02*
X129821000Y-107052000D01*
X131291000Y-109512000D02*
X131291000Y-107052000D01*
%TO.C,D26*%
X131853000Y-107052000D02*
X131853000Y-109512000D01*
X133323000Y-107052000D02*
X131853000Y-107052000D01*
X133323000Y-109512000D02*
X133323000Y-107052000D01*
%TO.C,D25*%
X92550000Y-65234000D02*
X92550000Y-64084000D01*
X85250000Y-65234000D02*
X92550000Y-65234000D01*
X85250000Y-59734000D02*
X92550000Y-59734000D01*
%TO.C,D24*%
X92550000Y-86699000D02*
X92550000Y-85549000D01*
X85250000Y-86699000D02*
X92550000Y-86699000D01*
X85250000Y-81199000D02*
X92550000Y-81199000D01*
%TO.C,D23*%
X205646000Y-59734000D02*
X212946000Y-59734000D01*
X205646000Y-65234000D02*
X212946000Y-65234000D01*
X212946000Y-65234000D02*
X212946000Y-64084000D01*
%TO.C,D22*%
X212946000Y-86570000D02*
X212946000Y-85420000D01*
X205646000Y-86570000D02*
X212946000Y-86570000D01*
X205646000Y-81070000D02*
X212946000Y-81070000D01*
%TO.C,D21*%
X103726000Y-65234000D02*
X103726000Y-64084000D01*
X96426000Y-65234000D02*
X103726000Y-65234000D01*
X96426000Y-59734000D02*
X103726000Y-59734000D01*
%TO.C,D20*%
X103726000Y-86699000D02*
X103726000Y-85549000D01*
X96426000Y-86699000D02*
X103726000Y-86699000D01*
X96426000Y-81199000D02*
X103726000Y-81199000D01*
%TO.C,D19*%
X201770000Y-65234000D02*
X201770000Y-64084000D01*
X194470000Y-65234000D02*
X201770000Y-65234000D01*
X194470000Y-59734000D02*
X201770000Y-59734000D01*
%TO.C,D18*%
X201770000Y-86570000D02*
X201770000Y-85420000D01*
X194470000Y-86570000D02*
X201770000Y-86570000D01*
X194470000Y-81070000D02*
X201770000Y-81070000D01*
%TO.C,D17*%
X92550000Y-72346000D02*
X92550000Y-71196000D01*
X85250000Y-72346000D02*
X92550000Y-72346000D01*
X85250000Y-66846000D02*
X92550000Y-66846000D01*
%TO.C,D16*%
X92550000Y-93682000D02*
X92550000Y-92532000D01*
X85250000Y-93682000D02*
X92550000Y-93682000D01*
X85250000Y-88182000D02*
X92550000Y-88182000D01*
%TO.C,D15*%
X212946000Y-72346000D02*
X212946000Y-71196000D01*
X205646000Y-72346000D02*
X212946000Y-72346000D01*
X205646000Y-66846000D02*
X212946000Y-66846000D01*
%TO.C,D14*%
X212946000Y-93682000D02*
X212946000Y-92532000D01*
X205646000Y-93682000D02*
X212946000Y-93682000D01*
X205646000Y-88182000D02*
X212946000Y-88182000D01*
%TO.C,D13*%
X103726000Y-72346000D02*
X103726000Y-71196000D01*
X96426000Y-72346000D02*
X103726000Y-72346000D01*
X96426000Y-66846000D02*
X103726000Y-66846000D01*
%TO.C,D12*%
X103726000Y-93682000D02*
X103726000Y-92532000D01*
X96426000Y-93682000D02*
X103726000Y-93682000D01*
X96426000Y-88182000D02*
X103726000Y-88182000D01*
%TO.C,D11*%
X201770000Y-72346000D02*
X201770000Y-71196000D01*
X194470000Y-72346000D02*
X201770000Y-72346000D01*
X194470000Y-66846000D02*
X201770000Y-66846000D01*
%TO.C,D10*%
X201770000Y-93682000D02*
X201770000Y-92532000D01*
X194470000Y-93682000D02*
X201770000Y-93682000D01*
X194470000Y-88182000D02*
X201770000Y-88182000D01*
%TO.C,D9*%
X92550000Y-79458000D02*
X92550000Y-78308000D01*
X85250000Y-79458000D02*
X92550000Y-79458000D01*
X85250000Y-73958000D02*
X92550000Y-73958000D01*
%TO.C,D8*%
X92550000Y-100794000D02*
X92550000Y-99644000D01*
X85250000Y-100794000D02*
X92550000Y-100794000D01*
X85250000Y-95294000D02*
X92550000Y-95294000D01*
%TO.C,D7*%
X212946000Y-79458000D02*
X212946000Y-78308000D01*
X205646000Y-79458000D02*
X212946000Y-79458000D01*
X205646000Y-73958000D02*
X212946000Y-73958000D01*
%TO.C,D6*%
X212946000Y-100794000D02*
X212946000Y-99644000D01*
X205646000Y-100794000D02*
X212946000Y-100794000D01*
X205646000Y-95294000D02*
X212946000Y-95294000D01*
%TO.C,D5*%
X103726000Y-79458000D02*
X103726000Y-78308000D01*
X96426000Y-79458000D02*
X103726000Y-79458000D01*
X96426000Y-73958000D02*
X103726000Y-73958000D01*
%TO.C,D4*%
X103726000Y-100794000D02*
X103726000Y-99644000D01*
X96426000Y-100794000D02*
X103726000Y-100794000D01*
X96426000Y-95294000D02*
X103726000Y-95294000D01*
%TO.C,D3*%
X201770000Y-79458000D02*
X201770000Y-78308000D01*
X194470000Y-79458000D02*
X201770000Y-79458000D01*
X194470000Y-73958000D02*
X201770000Y-73958000D01*
%TO.C,D2*%
X201770000Y-100794000D02*
X201770000Y-99644000D01*
X194470000Y-100794000D02*
X201770000Y-100794000D01*
X194470000Y-95294000D02*
X201770000Y-95294000D01*
%TO.C,C57*%
X168375000Y-63761252D02*
X168375000Y-63238748D01*
X166905000Y-63761252D02*
X166905000Y-63238748D01*
%TO.C,C56*%
X147073252Y-71401000D02*
X146550748Y-71401000D01*
X147073252Y-72871000D02*
X146550748Y-72871000D01*
%TO.C,C55*%
X154205000Y-87114748D02*
X154205000Y-87637252D01*
X155675000Y-87114748D02*
X155675000Y-87637252D01*
%TO.C,C54*%
X147073252Y-73433000D02*
X146550748Y-73433000D01*
X147073252Y-74903000D02*
X146550748Y-74903000D01*
%TO.C,C53*%
X158234748Y-78459000D02*
X158757252Y-78459000D01*
X158234748Y-76989000D02*
X158757252Y-76989000D01*
%TO.C,C52*%
X145061000Y-86606748D02*
X145061000Y-87129252D01*
X146531000Y-86606748D02*
X146531000Y-87129252D01*
%TO.C,C51*%
X153643000Y-73413252D02*
X153643000Y-72890748D01*
X152173000Y-73413252D02*
X152173000Y-72890748D01*
%TO.C,C50*%
X151103000Y-93225252D02*
X151103000Y-92702748D01*
X149633000Y-93225252D02*
X149633000Y-92702748D01*
%TO.C,C49*%
X139961252Y-66321000D02*
X139438748Y-66321000D01*
X139961252Y-67791000D02*
X139438748Y-67791000D01*
%TO.C,C48*%
X170426748Y-81507000D02*
X170949252Y-81507000D01*
X170426748Y-80037000D02*
X170949252Y-80037000D01*
%TO.C,C47*%
X129278748Y-66775000D02*
X129801252Y-66775000D01*
X129278748Y-65305000D02*
X129801252Y-65305000D01*
%TO.C,C46*%
X129801252Y-67845000D02*
X129278748Y-67845000D01*
X129801252Y-69315000D02*
X129278748Y-69315000D01*
%TO.C,C45*%
X124213252Y-65305000D02*
X123690748Y-65305000D01*
X124213252Y-66775000D02*
X123690748Y-66775000D01*
%TO.C,C44*%
X123690748Y-69315000D02*
X124213252Y-69315000D01*
X123690748Y-67845000D02*
X124213252Y-67845000D01*
%TO.C,C43*%
X122575563Y-78936000D02*
X123640000Y-77871563D01*
X116184437Y-78936000D02*
X115120000Y-77871563D01*
X116184437Y-78936000D02*
X118070000Y-78936000D01*
X122575563Y-78936000D02*
X120690000Y-78936000D01*
X123640000Y-77871563D02*
X123640000Y-70416000D01*
X115120000Y-77871563D02*
X115120000Y-70416000D01*
X115120000Y-70416000D02*
X118070000Y-70416000D01*
X123640000Y-70416000D02*
X120690000Y-70416000D01*
%TO.C,C42*%
X139339563Y-76904000D02*
X140404000Y-75839563D01*
X132948437Y-76904000D02*
X131884000Y-75839563D01*
X132948437Y-76904000D02*
X134834000Y-76904000D01*
X139339563Y-76904000D02*
X137454000Y-76904000D01*
X140404000Y-75839563D02*
X140404000Y-68384000D01*
X131884000Y-75839563D02*
X131884000Y-68384000D01*
X131884000Y-68384000D02*
X134834000Y-68384000D01*
X140404000Y-68384000D02*
X137454000Y-68384000D01*
%TO.C,C41*%
X118625252Y-81561000D02*
X118102748Y-81561000D01*
X118625252Y-83031000D02*
X118102748Y-83031000D01*
%TO.C,C40*%
X135409000Y-80510748D02*
X135409000Y-81033252D01*
X136879000Y-80510748D02*
X136879000Y-81033252D01*
%TO.C,C39*%
X118625252Y-84101000D02*
X118102748Y-84101000D01*
X118625252Y-85571000D02*
X118102748Y-85571000D01*
%TO.C,C38*%
X122166748Y-83031000D02*
X122689252Y-83031000D01*
X122166748Y-81561000D02*
X122689252Y-81561000D01*
%TO.C,C37*%
X128785252Y-79021000D02*
X128262748Y-79021000D01*
X128785252Y-80491000D02*
X128262748Y-80491000D01*
%TO.C,C36*%
X127754748Y-83031000D02*
X128277252Y-83031000D01*
X127754748Y-81561000D02*
X128277252Y-81561000D01*
%TO.C,C35*%
X124213252Y-79021000D02*
X123690748Y-79021000D01*
X124213252Y-80491000D02*
X123690748Y-80491000D01*
%TO.C,C34*%
X132348248Y-80491000D02*
X132870752Y-80491000D01*
X132348248Y-79021000D02*
X132870752Y-79021000D01*
%TO.C,C33*%
X133342748Y-85571000D02*
X133865252Y-85571000D01*
X133342748Y-84101000D02*
X133865252Y-84101000D01*
%TO.C,C32*%
X135863000Y-92717252D02*
X135863000Y-92194748D01*
X134393000Y-92717252D02*
X134393000Y-92194748D01*
%TO.C,C31*%
X133342748Y-96239000D02*
X133865252Y-96239000D01*
X133342748Y-94769000D02*
X133865252Y-94769000D01*
%TO.C,C30*%
X116105000Y-94226748D02*
X116105000Y-94749252D01*
X117575000Y-94226748D02*
X117575000Y-94749252D01*
%TO.C,C29*%
X129313000Y-94226748D02*
X129313000Y-94749252D01*
X130783000Y-94226748D02*
X130783000Y-94749252D01*
%TO.C,C28*%
X118645000Y-94226748D02*
X118645000Y-94749252D01*
X120115000Y-94226748D02*
X120115000Y-94749252D01*
%TO.C,C27*%
X83085000Y-62222748D02*
X83085000Y-62745252D01*
X84555000Y-62222748D02*
X84555000Y-62745252D01*
%TO.C,C26*%
X83085000Y-83558748D02*
X83085000Y-84081252D01*
X84555000Y-83558748D02*
X84555000Y-84081252D01*
%TO.C,C25*%
X202973000Y-62222748D02*
X202973000Y-62745252D01*
X204443000Y-62222748D02*
X204443000Y-62745252D01*
%TO.C,C24*%
X202973000Y-83558748D02*
X202973000Y-84081252D01*
X204443000Y-83558748D02*
X204443000Y-84081252D01*
%TO.C,C23*%
X93753000Y-62222748D02*
X93753000Y-62745252D01*
X95223000Y-62222748D02*
X95223000Y-62745252D01*
%TO.C,C22*%
X93753000Y-83558748D02*
X93753000Y-84081252D01*
X95223000Y-83558748D02*
X95223000Y-84081252D01*
%TO.C,C21*%
X192305000Y-62222748D02*
X192305000Y-62745252D01*
X193775000Y-62222748D02*
X193775000Y-62745252D01*
%TO.C,C20*%
X192305000Y-83558748D02*
X192305000Y-84081252D01*
X193775000Y-83558748D02*
X193775000Y-84081252D01*
%TO.C,C19*%
X202973000Y-90670748D02*
X202973000Y-91193252D01*
X204443000Y-90670748D02*
X204443000Y-91193252D01*
%TO.C,C18*%
X83085000Y-69334748D02*
X83085000Y-69857252D01*
X84555000Y-69334748D02*
X84555000Y-69857252D01*
%TO.C,C17*%
X83085000Y-90670748D02*
X83085000Y-91193252D01*
X84555000Y-90670748D02*
X84555000Y-91193252D01*
%TO.C,C16*%
X202973000Y-69334748D02*
X202973000Y-69857252D01*
X204443000Y-69334748D02*
X204443000Y-69857252D01*
%TO.C,C15*%
X93753000Y-69334748D02*
X93753000Y-69857252D01*
X95223000Y-69334748D02*
X95223000Y-69857252D01*
%TO.C,C14*%
X93753000Y-90670748D02*
X93753000Y-91193252D01*
X95223000Y-90670748D02*
X95223000Y-91193252D01*
%TO.C,C13*%
X192305000Y-69334748D02*
X192305000Y-69857252D01*
X193775000Y-69334748D02*
X193775000Y-69857252D01*
%TO.C,C12*%
X192305000Y-90670748D02*
X192305000Y-91193252D01*
X193775000Y-90670748D02*
X193775000Y-91193252D01*
%TO.C,C11*%
X83085000Y-76446748D02*
X83085000Y-76969252D01*
X84555000Y-76446748D02*
X84555000Y-76969252D01*
%TO.C,C10*%
X83085000Y-97782748D02*
X83085000Y-98305252D01*
X84555000Y-97782748D02*
X84555000Y-98305252D01*
%TO.C,c10*%
X181094748Y-62711000D02*
X181617252Y-62711000D01*
X181094748Y-61241000D02*
X181617252Y-61241000D01*
%TO.C,C9*%
X202973000Y-76468248D02*
X202973000Y-76990752D01*
X204443000Y-76468248D02*
X204443000Y-76990752D01*
%TO.C,c9*%
X186155000Y-62745252D02*
X186155000Y-62222748D01*
X184685000Y-62745252D02*
X184685000Y-62222748D01*
%TO.C,c8*%
X177553252Y-61241000D02*
X177030748Y-61241000D01*
X177553252Y-62711000D02*
X177030748Y-62711000D01*
%TO.C,C8*%
X202973000Y-97782748D02*
X202973000Y-98305252D01*
X204443000Y-97782748D02*
X204443000Y-98305252D01*
%TO.C,c7*%
X186174748Y-68299000D02*
X186697252Y-68299000D01*
X186174748Y-66829000D02*
X186697252Y-66829000D01*
%TO.C,C7*%
X93753000Y-76446748D02*
X93753000Y-76969252D01*
X95223000Y-76446748D02*
X95223000Y-76969252D01*
%TO.C,C6*%
X93753000Y-97782748D02*
X93753000Y-98305252D01*
X95223000Y-97782748D02*
X95223000Y-98305252D01*
%TO.C,C5*%
X192305000Y-76446748D02*
X192305000Y-76969252D01*
X193775000Y-76446748D02*
X193775000Y-76969252D01*
%TO.C,C4*%
X192305000Y-97782748D02*
X192305000Y-98305252D01*
X193775000Y-97782748D02*
X193775000Y-98305252D01*
%TO.C,C3*%
X189680000Y-93324437D02*
X188615563Y-92260000D01*
X189680000Y-99715563D02*
X188615563Y-100780000D01*
X189680000Y-99715563D02*
X189680000Y-97830000D01*
X189680000Y-93324437D02*
X189680000Y-95210000D01*
X188615563Y-92260000D02*
X181160000Y-92260000D01*
X188615563Y-100780000D02*
X181160000Y-100780000D01*
X181160000Y-100780000D02*
X181160000Y-97830000D01*
X181160000Y-92260000D02*
X181160000Y-95210000D01*
%TO.C,C2*%
X161771000Y-73921252D02*
X161771000Y-73398748D01*
X160301000Y-73921252D02*
X160301000Y-73398748D01*
%TO.C,c2*%
X170426748Y-75919000D02*
X170949252Y-75919000D01*
X170426748Y-74449000D02*
X170949252Y-74449000D01*
%TO.C,C1*%
X149125000Y-72890748D02*
X149125000Y-73413252D01*
X150595000Y-72890748D02*
X150595000Y-73413252D01*
%TO.C,c1*%
X173001000Y-68318748D02*
X173001000Y-68841252D01*
X174471000Y-68318748D02*
X174471000Y-68841252D01*
%TO.C,BT3*%
X177980000Y-54786000D02*
X177980000Y-56036000D01*
X179230000Y-54786000D02*
X177980000Y-54786000D01*
X181340000Y-59196000D02*
X181340000Y-58696000D01*
X181440000Y-58696000D02*
X181440000Y-59196000D01*
X181240000Y-58696000D02*
X181440000Y-58696000D01*
X181240000Y-59196000D02*
X181240000Y-58696000D01*
X184400000Y-57696000D02*
X183790000Y-57696000D01*
X184400000Y-56396000D02*
X183790000Y-56396000D01*
X178280000Y-57696000D02*
X178890000Y-57696000D01*
X178280000Y-56396000D02*
X178890000Y-56396000D01*
X181840000Y-55696000D02*
X181840000Y-55086000D01*
X183790000Y-55696000D02*
X181840000Y-55696000D01*
X183790000Y-59196000D02*
X183790000Y-55696000D01*
X178890000Y-59196000D02*
X183790000Y-59196000D01*
X178890000Y-55696000D02*
X178890000Y-59196000D01*
X180840000Y-55696000D02*
X178890000Y-55696000D01*
X180840000Y-55086000D02*
X180840000Y-55696000D01*
X180040000Y-54986000D02*
X179740000Y-54986000D01*
X179740000Y-54886000D02*
X179740000Y-55086000D01*
X180040000Y-54886000D02*
X179740000Y-54886000D01*
X180040000Y-55086000D02*
X180040000Y-54886000D01*
X184400000Y-55086000D02*
X178280000Y-55086000D01*
X184400000Y-59806000D02*
X184400000Y-55086000D01*
X178280000Y-59806000D02*
X184400000Y-59806000D01*
X178280000Y-55086000D02*
X178280000Y-59806000D01*
%TO.C,D1*%
D12*
X188759904Y-53388380D02*
X188759904Y-52388380D01*
X188998000Y-52388380D01*
X189140857Y-52436000D01*
X189236095Y-52531238D01*
X189283714Y-52626476D01*
X189331333Y-52816952D01*
X189331333Y-52959809D01*
X189283714Y-53150285D01*
X189236095Y-53245523D01*
X189140857Y-53340761D01*
X188998000Y-53388380D01*
X188759904Y-53388380D01*
X190283714Y-53388380D02*
X189712285Y-53388380D01*
X189998000Y-53388380D02*
X189998000Y-52388380D01*
X189902761Y-52531238D01*
X189807523Y-52626476D01*
X189712285Y-52674095D01*
%TO.C,.*%
X213360000Y-114911142D02*
X213407619Y-114958761D01*
X213360000Y-115006380D01*
X213312380Y-114958761D01*
X213360000Y-114911142D01*
X213360000Y-115006380D01*
X213360000Y-56745142D02*
X213407619Y-56792761D01*
X213360000Y-56840380D01*
X213312380Y-56792761D01*
X213360000Y-56745142D01*
X213360000Y-56840380D01*
X82804000Y-56745142D02*
X82851619Y-56792761D01*
X82804000Y-56840380D01*
X82756380Y-56792761D01*
X82804000Y-56745142D01*
X82804000Y-56840380D01*
X82804000Y-115165142D02*
X82851619Y-115212761D01*
X82804000Y-115260380D01*
X82756380Y-115212761D01*
X82804000Y-115165142D01*
X82804000Y-115260380D01*
%TO.C,U12*%
X180117904Y-68794380D02*
X180117904Y-69603904D01*
X180165523Y-69699142D01*
X180213142Y-69746761D01*
X180308380Y-69794380D01*
X180498857Y-69794380D01*
X180594095Y-69746761D01*
X180641714Y-69699142D01*
X180689333Y-69603904D01*
X180689333Y-68794380D01*
X181689333Y-69794380D02*
X181117904Y-69794380D01*
X181403619Y-69794380D02*
X181403619Y-68794380D01*
X181308380Y-68937238D01*
X181213142Y-69032476D01*
X181117904Y-69080095D01*
X182070285Y-68889619D02*
X182117904Y-68842000D01*
X182213142Y-68794380D01*
X182451238Y-68794380D01*
X182546476Y-68842000D01*
X182594095Y-68889619D01*
X182641714Y-68984857D01*
X182641714Y-69080095D01*
X182594095Y-69222952D01*
X182022666Y-69794380D01*
X182641714Y-69794380D01*
%TO.C,U11*%
X123023380Y-89503095D02*
X123832904Y-89503095D01*
X123928142Y-89455476D01*
X123975761Y-89407857D01*
X124023380Y-89312619D01*
X124023380Y-89122142D01*
X123975761Y-89026904D01*
X123928142Y-88979285D01*
X123832904Y-88931666D01*
X123023380Y-88931666D01*
X124023380Y-87931666D02*
X124023380Y-88503095D01*
X124023380Y-88217380D02*
X123023380Y-88217380D01*
X123166238Y-88312619D01*
X123261476Y-88407857D01*
X123309095Y-88503095D01*
X124023380Y-86979285D02*
X124023380Y-87550714D01*
X124023380Y-87265000D02*
X123023380Y-87265000D01*
X123166238Y-87360238D01*
X123261476Y-87455476D01*
X123309095Y-87550714D01*
%TO.C,U9*%
X107442095Y-61638380D02*
X107442095Y-62447904D01*
X107489714Y-62543142D01*
X107537333Y-62590761D01*
X107632571Y-62638380D01*
X107823047Y-62638380D01*
X107918285Y-62590761D01*
X107965904Y-62543142D01*
X108013523Y-62447904D01*
X108013523Y-61638380D01*
X108537333Y-62638380D02*
X108727809Y-62638380D01*
X108823047Y-62590761D01*
X108870666Y-62543142D01*
X108965904Y-62400285D01*
X109013523Y-62209809D01*
X109013523Y-61828857D01*
X108965904Y-61733619D01*
X108918285Y-61686000D01*
X108823047Y-61638380D01*
X108632571Y-61638380D01*
X108537333Y-61686000D01*
X108489714Y-61733619D01*
X108442095Y-61828857D01*
X108442095Y-62066952D01*
X108489714Y-62162190D01*
X108537333Y-62209809D01*
X108632571Y-62257428D01*
X108823047Y-62257428D01*
X108918285Y-62209809D01*
X108965904Y-62162190D01*
X109013523Y-62066952D01*
%TO.C,U7*%
X169926095Y-65619380D02*
X169926095Y-66428904D01*
X169973714Y-66524142D01*
X170021333Y-66571761D01*
X170116571Y-66619380D01*
X170307047Y-66619380D01*
X170402285Y-66571761D01*
X170449904Y-66524142D01*
X170497523Y-66428904D01*
X170497523Y-65619380D01*
X170878476Y-65619380D02*
X171545142Y-65619380D01*
X171116571Y-66619380D01*
%TO.C,U6*%
X167386095Y-80740380D02*
X167386095Y-81549904D01*
X167433714Y-81645142D01*
X167481333Y-81692761D01*
X167576571Y-81740380D01*
X167767047Y-81740380D01*
X167862285Y-81692761D01*
X167909904Y-81645142D01*
X167957523Y-81549904D01*
X167957523Y-80740380D01*
X168862285Y-80740380D02*
X168671809Y-80740380D01*
X168576571Y-80788000D01*
X168528952Y-80835619D01*
X168433714Y-80978476D01*
X168386095Y-81168952D01*
X168386095Y-81549904D01*
X168433714Y-81645142D01*
X168481333Y-81692761D01*
X168576571Y-81740380D01*
X168767047Y-81740380D01*
X168862285Y-81692761D01*
X168909904Y-81645142D01*
X168957523Y-81549904D01*
X168957523Y-81311809D01*
X168909904Y-81216571D01*
X168862285Y-81168952D01*
X168767047Y-81121333D01*
X168576571Y-81121333D01*
X168481333Y-81168952D01*
X168433714Y-81216571D01*
X168386095Y-81311809D01*
%TO.C,U5*%
X146177095Y-58761380D02*
X146177095Y-59570904D01*
X146224714Y-59666142D01*
X146272333Y-59713761D01*
X146367571Y-59761380D01*
X146558047Y-59761380D01*
X146653285Y-59713761D01*
X146700904Y-59666142D01*
X146748523Y-59570904D01*
X146748523Y-58761380D01*
X147700904Y-58761380D02*
X147224714Y-58761380D01*
X147177095Y-59237571D01*
X147224714Y-59189952D01*
X147319952Y-59142333D01*
X147558047Y-59142333D01*
X147653285Y-59189952D01*
X147700904Y-59237571D01*
X147748523Y-59332809D01*
X147748523Y-59570904D01*
X147700904Y-59666142D01*
X147653285Y-59713761D01*
X147558047Y-59761380D01*
X147319952Y-59761380D01*
X147224714Y-59713761D01*
X147177095Y-59666142D01*
%TO.C,U4*%
X155670380Y-81533904D02*
X156479904Y-81533904D01*
X156575142Y-81486285D01*
X156622761Y-81438666D01*
X156670380Y-81343428D01*
X156670380Y-81152952D01*
X156622761Y-81057714D01*
X156575142Y-81010095D01*
X156479904Y-80962476D01*
X155670380Y-80962476D01*
X156003714Y-80057714D02*
X156670380Y-80057714D01*
X155622761Y-80295809D02*
X156337047Y-80533904D01*
X156337047Y-79914857D01*
%TO.C,U3*%
X149098095Y-110704380D02*
X149098095Y-111513904D01*
X149145714Y-111609142D01*
X149193333Y-111656761D01*
X149288571Y-111704380D01*
X149479047Y-111704380D01*
X149574285Y-111656761D01*
X149621904Y-111609142D01*
X149669523Y-111513904D01*
X149669523Y-110704380D01*
X150050476Y-110704380D02*
X150669523Y-110704380D01*
X150336190Y-111085333D01*
X150479047Y-111085333D01*
X150574285Y-111132952D01*
X150621904Y-111180571D01*
X150669523Y-111275809D01*
X150669523Y-111513904D01*
X150621904Y-111609142D01*
X150574285Y-111656761D01*
X150479047Y-111704380D01*
X150193333Y-111704380D01*
X150098095Y-111656761D01*
X150050476Y-111609142D01*
%TO.C,U2*%
X184574095Y-86402380D02*
X184574095Y-87211904D01*
X184621714Y-87307142D01*
X184669333Y-87354761D01*
X184764571Y-87402380D01*
X184955047Y-87402380D01*
X185050285Y-87354761D01*
X185097904Y-87307142D01*
X185145523Y-87211904D01*
X185145523Y-86402380D01*
X185574095Y-86497619D02*
X185621714Y-86450000D01*
X185716952Y-86402380D01*
X185955047Y-86402380D01*
X186050285Y-86450000D01*
X186097904Y-86497619D01*
X186145523Y-86592857D01*
X186145523Y-86688095D01*
X186097904Y-86830952D01*
X185526476Y-87402380D01*
X186145523Y-87402380D01*
%TO.C,U1*%
X155027380Y-64007904D02*
X155836904Y-64007904D01*
X155932142Y-63960285D01*
X155979761Y-63912666D01*
X156027380Y-63817428D01*
X156027380Y-63626952D01*
X155979761Y-63531714D01*
X155932142Y-63484095D01*
X155836904Y-63436476D01*
X155027380Y-63436476D01*
X156027380Y-62436476D02*
X156027380Y-63007904D01*
X156027380Y-62722190D02*
X155027380Y-62722190D01*
X155170238Y-62817428D01*
X155265476Y-62912666D01*
X155313095Y-63007904D01*
%TO.C,TP6*%
X164854095Y-54708380D02*
X165425523Y-54708380D01*
X165139809Y-55708380D02*
X165139809Y-54708380D01*
X165758857Y-55708380D02*
X165758857Y-54708380D01*
X166139809Y-54708380D01*
X166235047Y-54756000D01*
X166282666Y-54803619D01*
X166330285Y-54898857D01*
X166330285Y-55041714D01*
X166282666Y-55136952D01*
X166235047Y-55184571D01*
X166139809Y-55232190D01*
X165758857Y-55232190D01*
X167187428Y-54708380D02*
X166996952Y-54708380D01*
X166901714Y-54756000D01*
X166854095Y-54803619D01*
X166758857Y-54946476D01*
X166711238Y-55136952D01*
X166711238Y-55517904D01*
X166758857Y-55613142D01*
X166806476Y-55660761D01*
X166901714Y-55708380D01*
X167092190Y-55708380D01*
X167187428Y-55660761D01*
X167235047Y-55613142D01*
X167282666Y-55517904D01*
X167282666Y-55279809D01*
X167235047Y-55184571D01*
X167187428Y-55136952D01*
X167092190Y-55089333D01*
X166901714Y-55089333D01*
X166806476Y-55136952D01*
X166758857Y-55184571D01*
X166711238Y-55279809D01*
%TO.C,SW9*%
X171620666Y-53750761D02*
X171763523Y-53798380D01*
X172001619Y-53798380D01*
X172096857Y-53750761D01*
X172144476Y-53703142D01*
X172192095Y-53607904D01*
X172192095Y-53512666D01*
X172144476Y-53417428D01*
X172096857Y-53369809D01*
X172001619Y-53322190D01*
X171811142Y-53274571D01*
X171715904Y-53226952D01*
X171668285Y-53179333D01*
X171620666Y-53084095D01*
X171620666Y-52988857D01*
X171668285Y-52893619D01*
X171715904Y-52846000D01*
X171811142Y-52798380D01*
X172049238Y-52798380D01*
X172192095Y-52846000D01*
X172525428Y-52798380D02*
X172763523Y-53798380D01*
X172954000Y-53084095D01*
X173144476Y-53798380D01*
X173382571Y-52798380D01*
X173811142Y-53798380D02*
X174001619Y-53798380D01*
X174096857Y-53750761D01*
X174144476Y-53703142D01*
X174239714Y-53560285D01*
X174287333Y-53369809D01*
X174287333Y-52988857D01*
X174239714Y-52893619D01*
X174192095Y-52846000D01*
X174096857Y-52798380D01*
X173906380Y-52798380D01*
X173811142Y-52846000D01*
X173763523Y-52893619D01*
X173715904Y-52988857D01*
X173715904Y-53226952D01*
X173763523Y-53322190D01*
X173811142Y-53369809D01*
X173906380Y-53417428D01*
X174096857Y-53417428D01*
X174192095Y-53369809D01*
X174239714Y-53322190D01*
X174287333Y-53226952D01*
%TO.C,SW6*%
X176160666Y-82732761D02*
X176303523Y-82780380D01*
X176541619Y-82780380D01*
X176636857Y-82732761D01*
X176684476Y-82685142D01*
X176732095Y-82589904D01*
X176732095Y-82494666D01*
X176684476Y-82399428D01*
X176636857Y-82351809D01*
X176541619Y-82304190D01*
X176351142Y-82256571D01*
X176255904Y-82208952D01*
X176208285Y-82161333D01*
X176160666Y-82066095D01*
X176160666Y-81970857D01*
X176208285Y-81875619D01*
X176255904Y-81828000D01*
X176351142Y-81780380D01*
X176589238Y-81780380D01*
X176732095Y-81828000D01*
X177065428Y-81780380D02*
X177303523Y-82780380D01*
X177494000Y-82066095D01*
X177684476Y-82780380D01*
X177922571Y-81780380D01*
X178732095Y-81780380D02*
X178541619Y-81780380D01*
X178446380Y-81828000D01*
X178398761Y-81875619D01*
X178303523Y-82018476D01*
X178255904Y-82208952D01*
X178255904Y-82589904D01*
X178303523Y-82685142D01*
X178351142Y-82732761D01*
X178446380Y-82780380D01*
X178636857Y-82780380D01*
X178732095Y-82732761D01*
X178779714Y-82685142D01*
X178827333Y-82589904D01*
X178827333Y-82351809D01*
X178779714Y-82256571D01*
X178732095Y-82208952D01*
X178636857Y-82161333D01*
X178446380Y-82161333D01*
X178351142Y-82208952D01*
X178303523Y-82256571D01*
X178255904Y-82351809D01*
%TO.C,SW5*%
X161607666Y-96797761D02*
X161750523Y-96845380D01*
X161988619Y-96845380D01*
X162083857Y-96797761D01*
X162131476Y-96750142D01*
X162179095Y-96654904D01*
X162179095Y-96559666D01*
X162131476Y-96464428D01*
X162083857Y-96416809D01*
X161988619Y-96369190D01*
X161798142Y-96321571D01*
X161702904Y-96273952D01*
X161655285Y-96226333D01*
X161607666Y-96131095D01*
X161607666Y-96035857D01*
X161655285Y-95940619D01*
X161702904Y-95893000D01*
X161798142Y-95845380D01*
X162036238Y-95845380D01*
X162179095Y-95893000D01*
X162512428Y-95845380D02*
X162750523Y-96845380D01*
X162941000Y-96131095D01*
X163131476Y-96845380D01*
X163369571Y-95845380D01*
X164226714Y-95845380D02*
X163750523Y-95845380D01*
X163702904Y-96321571D01*
X163750523Y-96273952D01*
X163845761Y-96226333D01*
X164083857Y-96226333D01*
X164179095Y-96273952D01*
X164226714Y-96321571D01*
X164274333Y-96416809D01*
X164274333Y-96654904D01*
X164226714Y-96750142D01*
X164179095Y-96797761D01*
X164083857Y-96845380D01*
X163845761Y-96845380D01*
X163750523Y-96797761D01*
X163702904Y-96750142D01*
%TO.C,SW4*%
X161607666Y-102639761D02*
X161750523Y-102687380D01*
X161988619Y-102687380D01*
X162083857Y-102639761D01*
X162131476Y-102592142D01*
X162179095Y-102496904D01*
X162179095Y-102401666D01*
X162131476Y-102306428D01*
X162083857Y-102258809D01*
X161988619Y-102211190D01*
X161798142Y-102163571D01*
X161702904Y-102115952D01*
X161655285Y-102068333D01*
X161607666Y-101973095D01*
X161607666Y-101877857D01*
X161655285Y-101782619D01*
X161702904Y-101735000D01*
X161798142Y-101687380D01*
X162036238Y-101687380D01*
X162179095Y-101735000D01*
X162512428Y-101687380D02*
X162750523Y-102687380D01*
X162941000Y-101973095D01*
X163131476Y-102687380D01*
X163369571Y-101687380D01*
X164179095Y-102020714D02*
X164179095Y-102687380D01*
X163941000Y-101639761D02*
X163702904Y-102354047D01*
X164321952Y-102354047D01*
%TO.C,SW3*%
X166508666Y-82732761D02*
X166651523Y-82780380D01*
X166889619Y-82780380D01*
X166984857Y-82732761D01*
X167032476Y-82685142D01*
X167080095Y-82589904D01*
X167080095Y-82494666D01*
X167032476Y-82399428D01*
X166984857Y-82351809D01*
X166889619Y-82304190D01*
X166699142Y-82256571D01*
X166603904Y-82208952D01*
X166556285Y-82161333D01*
X166508666Y-82066095D01*
X166508666Y-81970857D01*
X166556285Y-81875619D01*
X166603904Y-81828000D01*
X166699142Y-81780380D01*
X166937238Y-81780380D01*
X167080095Y-81828000D01*
X167413428Y-81780380D02*
X167651523Y-82780380D01*
X167842000Y-82066095D01*
X168032476Y-82780380D01*
X168270571Y-81780380D01*
X168556285Y-81780380D02*
X169175333Y-81780380D01*
X168842000Y-82161333D01*
X168984857Y-82161333D01*
X169080095Y-82208952D01*
X169127714Y-82256571D01*
X169175333Y-82351809D01*
X169175333Y-82589904D01*
X169127714Y-82685142D01*
X169080095Y-82732761D01*
X168984857Y-82780380D01*
X168699142Y-82780380D01*
X168603904Y-82732761D01*
X168556285Y-82685142D01*
%TO.C,SW2*%
X177609666Y-102004761D02*
X177752523Y-102052380D01*
X177990619Y-102052380D01*
X178085857Y-102004761D01*
X178133476Y-101957142D01*
X178181095Y-101861904D01*
X178181095Y-101766666D01*
X178133476Y-101671428D01*
X178085857Y-101623809D01*
X177990619Y-101576190D01*
X177800142Y-101528571D01*
X177704904Y-101480952D01*
X177657285Y-101433333D01*
X177609666Y-101338095D01*
X177609666Y-101242857D01*
X177657285Y-101147619D01*
X177704904Y-101100000D01*
X177800142Y-101052380D01*
X178038238Y-101052380D01*
X178181095Y-101100000D01*
X178514428Y-101052380D02*
X178752523Y-102052380D01*
X178943000Y-101338095D01*
X179133476Y-102052380D01*
X179371571Y-101052380D01*
X179704904Y-101147619D02*
X179752523Y-101100000D01*
X179847761Y-101052380D01*
X180085857Y-101052380D01*
X180181095Y-101100000D01*
X180228714Y-101147619D01*
X180276333Y-101242857D01*
X180276333Y-101338095D01*
X180228714Y-101480952D01*
X179657285Y-102052380D01*
X180276333Y-102052380D01*
%TO.C,SW1*%
X139890666Y-90701761D02*
X140033523Y-90749380D01*
X140271619Y-90749380D01*
X140366857Y-90701761D01*
X140414476Y-90654142D01*
X140462095Y-90558904D01*
X140462095Y-90463666D01*
X140414476Y-90368428D01*
X140366857Y-90320809D01*
X140271619Y-90273190D01*
X140081142Y-90225571D01*
X139985904Y-90177952D01*
X139938285Y-90130333D01*
X139890666Y-90035095D01*
X139890666Y-89939857D01*
X139938285Y-89844619D01*
X139985904Y-89797000D01*
X140081142Y-89749380D01*
X140319238Y-89749380D01*
X140462095Y-89797000D01*
X140795428Y-89749380D02*
X141033523Y-90749380D01*
X141224000Y-90035095D01*
X141414476Y-90749380D01*
X141652571Y-89749380D01*
X142557333Y-90749380D02*
X141985904Y-90749380D01*
X142271619Y-90749380D02*
X142271619Y-89749380D01*
X142176380Y-89892238D01*
X142081142Y-89987476D01*
X141985904Y-90035095D01*
%TO.C,R31*%
X174696380Y-64142857D02*
X174220190Y-64476190D01*
X174696380Y-64714285D02*
X173696380Y-64714285D01*
X173696380Y-64333333D01*
X173744000Y-64238095D01*
X173791619Y-64190476D01*
X173886857Y-64142857D01*
X174029714Y-64142857D01*
X174124952Y-64190476D01*
X174172571Y-64238095D01*
X174220190Y-64333333D01*
X174220190Y-64714285D01*
X173696380Y-63809523D02*
X173696380Y-63190476D01*
X174077333Y-63523809D01*
X174077333Y-63380952D01*
X174124952Y-63285714D01*
X174172571Y-63238095D01*
X174267809Y-63190476D01*
X174505904Y-63190476D01*
X174601142Y-63238095D01*
X174648761Y-63285714D01*
X174696380Y-63380952D01*
X174696380Y-63666666D01*
X174648761Y-63761904D01*
X174601142Y-63809523D01*
X174696380Y-62238095D02*
X174696380Y-62809523D01*
X174696380Y-62523809D02*
X173696380Y-62523809D01*
X173839238Y-62619047D01*
X173934476Y-62714285D01*
X173982095Y-62809523D01*
%TO.C,R30*%
X169537142Y-61285380D02*
X169203809Y-60809190D01*
X168965714Y-61285380D02*
X168965714Y-60285380D01*
X169346666Y-60285380D01*
X169441904Y-60333000D01*
X169489523Y-60380619D01*
X169537142Y-60475857D01*
X169537142Y-60618714D01*
X169489523Y-60713952D01*
X169441904Y-60761571D01*
X169346666Y-60809190D01*
X168965714Y-60809190D01*
X169870476Y-60285380D02*
X170489523Y-60285380D01*
X170156190Y-60666333D01*
X170299047Y-60666333D01*
X170394285Y-60713952D01*
X170441904Y-60761571D01*
X170489523Y-60856809D01*
X170489523Y-61094904D01*
X170441904Y-61190142D01*
X170394285Y-61237761D01*
X170299047Y-61285380D01*
X170013333Y-61285380D01*
X169918095Y-61237761D01*
X169870476Y-61190142D01*
X171108571Y-60285380D02*
X171203809Y-60285380D01*
X171299047Y-60333000D01*
X171346666Y-60380619D01*
X171394285Y-60475857D01*
X171441904Y-60666333D01*
X171441904Y-60904428D01*
X171394285Y-61094904D01*
X171346666Y-61190142D01*
X171299047Y-61237761D01*
X171203809Y-61285380D01*
X171108571Y-61285380D01*
X171013333Y-61237761D01*
X170965714Y-61190142D01*
X170918095Y-61094904D01*
X170870476Y-60904428D01*
X170870476Y-60666333D01*
X170918095Y-60475857D01*
X170965714Y-60380619D01*
X171013333Y-60333000D01*
X171108571Y-60285380D01*
%TO.C,R29*%
X131389380Y-85478857D02*
X130913190Y-85812190D01*
X131389380Y-86050285D02*
X130389380Y-86050285D01*
X130389380Y-85669333D01*
X130437000Y-85574095D01*
X130484619Y-85526476D01*
X130579857Y-85478857D01*
X130722714Y-85478857D01*
X130817952Y-85526476D01*
X130865571Y-85574095D01*
X130913190Y-85669333D01*
X130913190Y-86050285D01*
X130484619Y-85097904D02*
X130437000Y-85050285D01*
X130389380Y-84955047D01*
X130389380Y-84716952D01*
X130437000Y-84621714D01*
X130484619Y-84574095D01*
X130579857Y-84526476D01*
X130675095Y-84526476D01*
X130817952Y-84574095D01*
X131389380Y-85145523D01*
X131389380Y-84526476D01*
X131389380Y-84050285D02*
X131389380Y-83859809D01*
X131341761Y-83764571D01*
X131294142Y-83716952D01*
X131151285Y-83621714D01*
X130960809Y-83574095D01*
X130579857Y-83574095D01*
X130484619Y-83621714D01*
X130437000Y-83669333D01*
X130389380Y-83764571D01*
X130389380Y-83955047D01*
X130437000Y-84050285D01*
X130484619Y-84097904D01*
X130579857Y-84145523D01*
X130817952Y-84145523D01*
X130913190Y-84097904D01*
X130960809Y-84050285D01*
X131008428Y-83955047D01*
X131008428Y-83764571D01*
X130960809Y-83669333D01*
X130913190Y-83621714D01*
X130817952Y-83574095D01*
%TO.C,R28*%
X118182380Y-89034857D02*
X117706190Y-89368190D01*
X118182380Y-89606285D02*
X117182380Y-89606285D01*
X117182380Y-89225333D01*
X117230000Y-89130095D01*
X117277619Y-89082476D01*
X117372857Y-89034857D01*
X117515714Y-89034857D01*
X117610952Y-89082476D01*
X117658571Y-89130095D01*
X117706190Y-89225333D01*
X117706190Y-89606285D01*
X117277619Y-88653904D02*
X117230000Y-88606285D01*
X117182380Y-88511047D01*
X117182380Y-88272952D01*
X117230000Y-88177714D01*
X117277619Y-88130095D01*
X117372857Y-88082476D01*
X117468095Y-88082476D01*
X117610952Y-88130095D01*
X118182380Y-88701523D01*
X118182380Y-88082476D01*
X117610952Y-87511047D02*
X117563333Y-87606285D01*
X117515714Y-87653904D01*
X117420476Y-87701523D01*
X117372857Y-87701523D01*
X117277619Y-87653904D01*
X117230000Y-87606285D01*
X117182380Y-87511047D01*
X117182380Y-87320571D01*
X117230000Y-87225333D01*
X117277619Y-87177714D01*
X117372857Y-87130095D01*
X117420476Y-87130095D01*
X117515714Y-87177714D01*
X117563333Y-87225333D01*
X117610952Y-87320571D01*
X117610952Y-87511047D01*
X117658571Y-87606285D01*
X117706190Y-87653904D01*
X117801428Y-87701523D01*
X117991904Y-87701523D01*
X118087142Y-87653904D01*
X118134761Y-87606285D01*
X118182380Y-87511047D01*
X118182380Y-87320571D01*
X118134761Y-87225333D01*
X118087142Y-87177714D01*
X117991904Y-87130095D01*
X117801428Y-87130095D01*
X117706190Y-87177714D01*
X117658571Y-87225333D01*
X117610952Y-87320571D01*
%TO.C,R27*%
X129405142Y-92273380D02*
X129071809Y-91797190D01*
X128833714Y-92273380D02*
X128833714Y-91273380D01*
X129214666Y-91273380D01*
X129309904Y-91321000D01*
X129357523Y-91368619D01*
X129405142Y-91463857D01*
X129405142Y-91606714D01*
X129357523Y-91701952D01*
X129309904Y-91749571D01*
X129214666Y-91797190D01*
X128833714Y-91797190D01*
X129786095Y-91368619D02*
X129833714Y-91321000D01*
X129928952Y-91273380D01*
X130167047Y-91273380D01*
X130262285Y-91321000D01*
X130309904Y-91368619D01*
X130357523Y-91463857D01*
X130357523Y-91559095D01*
X130309904Y-91701952D01*
X129738476Y-92273380D01*
X130357523Y-92273380D01*
X130690857Y-91273380D02*
X131357523Y-91273380D01*
X130928952Y-92273380D01*
%TO.C,R26*%
X127960380Y-98559857D02*
X127484190Y-98893190D01*
X127960380Y-99131285D02*
X126960380Y-99131285D01*
X126960380Y-98750333D01*
X127008000Y-98655095D01*
X127055619Y-98607476D01*
X127150857Y-98559857D01*
X127293714Y-98559857D01*
X127388952Y-98607476D01*
X127436571Y-98655095D01*
X127484190Y-98750333D01*
X127484190Y-99131285D01*
X127055619Y-98178904D02*
X127008000Y-98131285D01*
X126960380Y-98036047D01*
X126960380Y-97797952D01*
X127008000Y-97702714D01*
X127055619Y-97655095D01*
X127150857Y-97607476D01*
X127246095Y-97607476D01*
X127388952Y-97655095D01*
X127960380Y-98226523D01*
X127960380Y-97607476D01*
X126960380Y-96750333D02*
X126960380Y-96940809D01*
X127008000Y-97036047D01*
X127055619Y-97083666D01*
X127198476Y-97178904D01*
X127388952Y-97226523D01*
X127769904Y-97226523D01*
X127865142Y-97178904D01*
X127912761Y-97131285D01*
X127960380Y-97036047D01*
X127960380Y-96845571D01*
X127912761Y-96750333D01*
X127865142Y-96702714D01*
X127769904Y-96655095D01*
X127531809Y-96655095D01*
X127436571Y-96702714D01*
X127388952Y-96750333D01*
X127341333Y-96845571D01*
X127341333Y-97036047D01*
X127388952Y-97131285D01*
X127436571Y-97178904D01*
X127531809Y-97226523D01*
%TO.C,R25*%
X131390380Y-89034857D02*
X130914190Y-89368190D01*
X131390380Y-89606285D02*
X130390380Y-89606285D01*
X130390380Y-89225333D01*
X130438000Y-89130095D01*
X130485619Y-89082476D01*
X130580857Y-89034857D01*
X130723714Y-89034857D01*
X130818952Y-89082476D01*
X130866571Y-89130095D01*
X130914190Y-89225333D01*
X130914190Y-89606285D01*
X130485619Y-88653904D02*
X130438000Y-88606285D01*
X130390380Y-88511047D01*
X130390380Y-88272952D01*
X130438000Y-88177714D01*
X130485619Y-88130095D01*
X130580857Y-88082476D01*
X130676095Y-88082476D01*
X130818952Y-88130095D01*
X131390380Y-88701523D01*
X131390380Y-88082476D01*
X130390380Y-87177714D02*
X130390380Y-87653904D01*
X130866571Y-87701523D01*
X130818952Y-87653904D01*
X130771333Y-87558666D01*
X130771333Y-87320571D01*
X130818952Y-87225333D01*
X130866571Y-87177714D01*
X130961809Y-87130095D01*
X131199904Y-87130095D01*
X131295142Y-87177714D01*
X131342761Y-87225333D01*
X131390380Y-87320571D01*
X131390380Y-87558666D01*
X131342761Y-87653904D01*
X131295142Y-87701523D01*
%TO.C,R24*%
X137230380Y-89034857D02*
X136754190Y-89368190D01*
X137230380Y-89606285D02*
X136230380Y-89606285D01*
X136230380Y-89225333D01*
X136278000Y-89130095D01*
X136325619Y-89082476D01*
X136420857Y-89034857D01*
X136563714Y-89034857D01*
X136658952Y-89082476D01*
X136706571Y-89130095D01*
X136754190Y-89225333D01*
X136754190Y-89606285D01*
X136325619Y-88653904D02*
X136278000Y-88606285D01*
X136230380Y-88511047D01*
X136230380Y-88272952D01*
X136278000Y-88177714D01*
X136325619Y-88130095D01*
X136420857Y-88082476D01*
X136516095Y-88082476D01*
X136658952Y-88130095D01*
X137230380Y-88701523D01*
X137230380Y-88082476D01*
X136563714Y-87225333D02*
X137230380Y-87225333D01*
X136182761Y-87463428D02*
X136897047Y-87701523D01*
X136897047Y-87082476D01*
%TO.C,R23*%
X125420380Y-98559857D02*
X124944190Y-98893190D01*
X125420380Y-99131285D02*
X124420380Y-99131285D01*
X124420380Y-98750333D01*
X124468000Y-98655095D01*
X124515619Y-98607476D01*
X124610857Y-98559857D01*
X124753714Y-98559857D01*
X124848952Y-98607476D01*
X124896571Y-98655095D01*
X124944190Y-98750333D01*
X124944190Y-99131285D01*
X124515619Y-98178904D02*
X124468000Y-98131285D01*
X124420380Y-98036047D01*
X124420380Y-97797952D01*
X124468000Y-97702714D01*
X124515619Y-97655095D01*
X124610857Y-97607476D01*
X124706095Y-97607476D01*
X124848952Y-97655095D01*
X125420380Y-98226523D01*
X125420380Y-97607476D01*
X124420380Y-97274142D02*
X124420380Y-96655095D01*
X124801333Y-96988428D01*
X124801333Y-96845571D01*
X124848952Y-96750333D01*
X124896571Y-96702714D01*
X124991809Y-96655095D01*
X125229904Y-96655095D01*
X125325142Y-96702714D01*
X125372761Y-96750333D01*
X125420380Y-96845571D01*
X125420380Y-97131285D01*
X125372761Y-97226523D01*
X125325142Y-97274142D01*
%TO.C,R18*%
X157853142Y-82366380D02*
X157519809Y-81890190D01*
X157281714Y-82366380D02*
X157281714Y-81366380D01*
X157662666Y-81366380D01*
X157757904Y-81414000D01*
X157805523Y-81461619D01*
X157853142Y-81556857D01*
X157853142Y-81699714D01*
X157805523Y-81794952D01*
X157757904Y-81842571D01*
X157662666Y-81890190D01*
X157281714Y-81890190D01*
X158805523Y-82366380D02*
X158234095Y-82366380D01*
X158519809Y-82366380D02*
X158519809Y-81366380D01*
X158424571Y-81509238D01*
X158329333Y-81604476D01*
X158234095Y-81652095D01*
X159376952Y-81794952D02*
X159281714Y-81747333D01*
X159234095Y-81699714D01*
X159186476Y-81604476D01*
X159186476Y-81556857D01*
X159234095Y-81461619D01*
X159281714Y-81414000D01*
X159376952Y-81366380D01*
X159567428Y-81366380D01*
X159662666Y-81414000D01*
X159710285Y-81461619D01*
X159757904Y-81556857D01*
X159757904Y-81604476D01*
X159710285Y-81699714D01*
X159662666Y-81747333D01*
X159567428Y-81794952D01*
X159376952Y-81794952D01*
X159281714Y-81842571D01*
X159234095Y-81890190D01*
X159186476Y-81985428D01*
X159186476Y-82175904D01*
X159234095Y-82271142D01*
X159281714Y-82318761D01*
X159376952Y-82366380D01*
X159567428Y-82366380D01*
X159662666Y-82318761D01*
X159710285Y-82271142D01*
X159757904Y-82175904D01*
X159757904Y-81985428D01*
X159710285Y-81890190D01*
X159662666Y-81842571D01*
X159567428Y-81794952D01*
%TO.C,R17*%
X130626380Y-61602857D02*
X130150190Y-61936190D01*
X130626380Y-62174285D02*
X129626380Y-62174285D01*
X129626380Y-61793333D01*
X129674000Y-61698095D01*
X129721619Y-61650476D01*
X129816857Y-61602857D01*
X129959714Y-61602857D01*
X130054952Y-61650476D01*
X130102571Y-61698095D01*
X130150190Y-61793333D01*
X130150190Y-62174285D01*
X130626380Y-60650476D02*
X130626380Y-61221904D01*
X130626380Y-60936190D02*
X129626380Y-60936190D01*
X129769238Y-61031428D01*
X129864476Y-61126666D01*
X129912095Y-61221904D01*
X129626380Y-60317142D02*
X129626380Y-59650476D01*
X130626380Y-60079047D01*
%TO.C,R16*%
X174315380Y-76588857D02*
X173839190Y-76922190D01*
X174315380Y-77160285D02*
X173315380Y-77160285D01*
X173315380Y-76779333D01*
X173363000Y-76684095D01*
X173410619Y-76636476D01*
X173505857Y-76588857D01*
X173648714Y-76588857D01*
X173743952Y-76636476D01*
X173791571Y-76684095D01*
X173839190Y-76779333D01*
X173839190Y-77160285D01*
X174315380Y-75636476D02*
X174315380Y-76207904D01*
X174315380Y-75922190D02*
X173315380Y-75922190D01*
X173458238Y-76017428D01*
X173553476Y-76112666D01*
X173601095Y-76207904D01*
X173315380Y-74779333D02*
X173315380Y-74969809D01*
X173363000Y-75065047D01*
X173410619Y-75112666D01*
X173553476Y-75207904D01*
X173743952Y-75255523D01*
X174124904Y-75255523D01*
X174220142Y-75207904D01*
X174267761Y-75160285D01*
X174315380Y-75065047D01*
X174315380Y-74874571D01*
X174267761Y-74779333D01*
X174220142Y-74731714D01*
X174124904Y-74684095D01*
X173886809Y-74684095D01*
X173791571Y-74731714D01*
X173743952Y-74779333D01*
X173696333Y-74874571D01*
X173696333Y-75065047D01*
X173743952Y-75160285D01*
X173791571Y-75207904D01*
X173886809Y-75255523D01*
%TO.C,R15*%
X170045142Y-71954380D02*
X169711809Y-71478190D01*
X169473714Y-71954380D02*
X169473714Y-70954380D01*
X169854666Y-70954380D01*
X169949904Y-71002000D01*
X169997523Y-71049619D01*
X170045142Y-71144857D01*
X170045142Y-71287714D01*
X169997523Y-71382952D01*
X169949904Y-71430571D01*
X169854666Y-71478190D01*
X169473714Y-71478190D01*
X170997523Y-71954380D02*
X170426095Y-71954380D01*
X170711809Y-71954380D02*
X170711809Y-70954380D01*
X170616571Y-71097238D01*
X170521333Y-71192476D01*
X170426095Y-71240095D01*
X171902285Y-70954380D02*
X171426095Y-70954380D01*
X171378476Y-71430571D01*
X171426095Y-71382952D01*
X171521333Y-71335333D01*
X171759428Y-71335333D01*
X171854666Y-71382952D01*
X171902285Y-71430571D01*
X171949904Y-71525809D01*
X171949904Y-71763904D01*
X171902285Y-71859142D01*
X171854666Y-71906761D01*
X171759428Y-71954380D01*
X171521333Y-71954380D01*
X171426095Y-71906761D01*
X171378476Y-71859142D01*
%TO.C,R14*%
X188412380Y-59824857D02*
X187936190Y-60158190D01*
X188412380Y-60396285D02*
X187412380Y-60396285D01*
X187412380Y-60015333D01*
X187460000Y-59920095D01*
X187507619Y-59872476D01*
X187602857Y-59824857D01*
X187745714Y-59824857D01*
X187840952Y-59872476D01*
X187888571Y-59920095D01*
X187936190Y-60015333D01*
X187936190Y-60396285D01*
X188412380Y-58872476D02*
X188412380Y-59443904D01*
X188412380Y-59158190D02*
X187412380Y-59158190D01*
X187555238Y-59253428D01*
X187650476Y-59348666D01*
X187698095Y-59443904D01*
X187745714Y-58015333D02*
X188412380Y-58015333D01*
X187364761Y-58253428D02*
X188079047Y-58491523D01*
X188079047Y-57872476D01*
%TO.C,R13*%
X138549142Y-101925380D02*
X138215809Y-101449190D01*
X137977714Y-101925380D02*
X137977714Y-100925380D01*
X138358666Y-100925380D01*
X138453904Y-100973000D01*
X138501523Y-101020619D01*
X138549142Y-101115857D01*
X138549142Y-101258714D01*
X138501523Y-101353952D01*
X138453904Y-101401571D01*
X138358666Y-101449190D01*
X137977714Y-101449190D01*
X139501523Y-101925380D02*
X138930095Y-101925380D01*
X139215809Y-101925380D02*
X139215809Y-100925380D01*
X139120571Y-101068238D01*
X139025333Y-101163476D01*
X138930095Y-101211095D01*
X139834857Y-100925380D02*
X140453904Y-100925380D01*
X140120571Y-101306333D01*
X140263428Y-101306333D01*
X140358666Y-101353952D01*
X140406285Y-101401571D01*
X140453904Y-101496809D01*
X140453904Y-101734904D01*
X140406285Y-101830142D01*
X140358666Y-101877761D01*
X140263428Y-101925380D01*
X139977714Y-101925380D01*
X139882476Y-101877761D01*
X139834857Y-101830142D01*
%TO.C,R12*%
X138549142Y-107258380D02*
X138215809Y-106782190D01*
X137977714Y-107258380D02*
X137977714Y-106258380D01*
X138358666Y-106258380D01*
X138453904Y-106306000D01*
X138501523Y-106353619D01*
X138549142Y-106448857D01*
X138549142Y-106591714D01*
X138501523Y-106686952D01*
X138453904Y-106734571D01*
X138358666Y-106782190D01*
X137977714Y-106782190D01*
X139501523Y-107258380D02*
X138930095Y-107258380D01*
X139215809Y-107258380D02*
X139215809Y-106258380D01*
X139120571Y-106401238D01*
X139025333Y-106496476D01*
X138930095Y-106544095D01*
X139882476Y-106353619D02*
X139930095Y-106306000D01*
X140025333Y-106258380D01*
X140263428Y-106258380D01*
X140358666Y-106306000D01*
X140406285Y-106353619D01*
X140453904Y-106448857D01*
X140453904Y-106544095D01*
X140406285Y-106686952D01*
X139834857Y-107258380D01*
X140453904Y-107258380D01*
%TO.C,R11*%
X162378380Y-69222857D02*
X161902190Y-69556190D01*
X162378380Y-69794285D02*
X161378380Y-69794285D01*
X161378380Y-69413333D01*
X161426000Y-69318095D01*
X161473619Y-69270476D01*
X161568857Y-69222857D01*
X161711714Y-69222857D01*
X161806952Y-69270476D01*
X161854571Y-69318095D01*
X161902190Y-69413333D01*
X161902190Y-69794285D01*
X162378380Y-68270476D02*
X162378380Y-68841904D01*
X162378380Y-68556190D02*
X161378380Y-68556190D01*
X161521238Y-68651428D01*
X161616476Y-68746666D01*
X161664095Y-68841904D01*
X162378380Y-67318095D02*
X162378380Y-67889523D01*
X162378380Y-67603809D02*
X161378380Y-67603809D01*
X161521238Y-67699047D01*
X161616476Y-67794285D01*
X161664095Y-67889523D01*
%TO.C,R10*%
X154503380Y-76842857D02*
X154027190Y-77176190D01*
X154503380Y-77414285D02*
X153503380Y-77414285D01*
X153503380Y-77033333D01*
X153551000Y-76938095D01*
X153598619Y-76890476D01*
X153693857Y-76842857D01*
X153836714Y-76842857D01*
X153931952Y-76890476D01*
X153979571Y-76938095D01*
X154027190Y-77033333D01*
X154027190Y-77414285D01*
X154503380Y-75890476D02*
X154503380Y-76461904D01*
X154503380Y-76176190D02*
X153503380Y-76176190D01*
X153646238Y-76271428D01*
X153741476Y-76366666D01*
X153789095Y-76461904D01*
X153503380Y-75271428D02*
X153503380Y-75176190D01*
X153551000Y-75080952D01*
X153598619Y-75033333D01*
X153693857Y-74985714D01*
X153884333Y-74938095D01*
X154122428Y-74938095D01*
X154312904Y-74985714D01*
X154408142Y-75033333D01*
X154455761Y-75080952D01*
X154503380Y-75176190D01*
X154503380Y-75271428D01*
X154455761Y-75366666D01*
X154408142Y-75414285D01*
X154312904Y-75461904D01*
X154122428Y-75509523D01*
X153884333Y-75509523D01*
X153693857Y-75461904D01*
X153598619Y-75414285D01*
X153551000Y-75366666D01*
X153503380Y-75271428D01*
%TO.C,R9*%
X157297380Y-73826666D02*
X156821190Y-74160000D01*
X157297380Y-74398095D02*
X156297380Y-74398095D01*
X156297380Y-74017142D01*
X156345000Y-73921904D01*
X156392619Y-73874285D01*
X156487857Y-73826666D01*
X156630714Y-73826666D01*
X156725952Y-73874285D01*
X156773571Y-73921904D01*
X156821190Y-74017142D01*
X156821190Y-74398095D01*
X157297380Y-73350476D02*
X157297380Y-73160000D01*
X157249761Y-73064761D01*
X157202142Y-73017142D01*
X157059285Y-72921904D01*
X156868809Y-72874285D01*
X156487857Y-72874285D01*
X156392619Y-72921904D01*
X156345000Y-72969523D01*
X156297380Y-73064761D01*
X156297380Y-73255238D01*
X156345000Y-73350476D01*
X156392619Y-73398095D01*
X156487857Y-73445714D01*
X156725952Y-73445714D01*
X156821190Y-73398095D01*
X156868809Y-73350476D01*
X156916428Y-73255238D01*
X156916428Y-73064761D01*
X156868809Y-72969523D01*
X156821190Y-72921904D01*
X156725952Y-72874285D01*
%TO.C,R8*%
X157042380Y-70778666D02*
X156566190Y-71112000D01*
X157042380Y-71350095D02*
X156042380Y-71350095D01*
X156042380Y-70969142D01*
X156090000Y-70873904D01*
X156137619Y-70826285D01*
X156232857Y-70778666D01*
X156375714Y-70778666D01*
X156470952Y-70826285D01*
X156518571Y-70873904D01*
X156566190Y-70969142D01*
X156566190Y-71350095D01*
X156470952Y-70207238D02*
X156423333Y-70302476D01*
X156375714Y-70350095D01*
X156280476Y-70397714D01*
X156232857Y-70397714D01*
X156137619Y-70350095D01*
X156090000Y-70302476D01*
X156042380Y-70207238D01*
X156042380Y-70016761D01*
X156090000Y-69921523D01*
X156137619Y-69873904D01*
X156232857Y-69826285D01*
X156280476Y-69826285D01*
X156375714Y-69873904D01*
X156423333Y-69921523D01*
X156470952Y-70016761D01*
X156470952Y-70207238D01*
X156518571Y-70302476D01*
X156566190Y-70350095D01*
X156661428Y-70397714D01*
X156851904Y-70397714D01*
X156947142Y-70350095D01*
X156994761Y-70302476D01*
X157042380Y-70207238D01*
X157042380Y-70016761D01*
X156994761Y-69921523D01*
X156947142Y-69873904D01*
X156851904Y-69826285D01*
X156661428Y-69826285D01*
X156566190Y-69873904D01*
X156518571Y-69921523D01*
X156470952Y-70016761D01*
%TO.C,R7*%
X112101333Y-84398380D02*
X111768000Y-83922190D01*
X111529904Y-84398380D02*
X111529904Y-83398380D01*
X111910857Y-83398380D01*
X112006095Y-83446000D01*
X112053714Y-83493619D01*
X112101333Y-83588857D01*
X112101333Y-83731714D01*
X112053714Y-83826952D01*
X112006095Y-83874571D01*
X111910857Y-83922190D01*
X111529904Y-83922190D01*
X112434666Y-83398380D02*
X113101333Y-83398380D01*
X112672761Y-84398380D01*
%TO.C,R6*%
X112101333Y-74238380D02*
X111768000Y-73762190D01*
X111529904Y-74238380D02*
X111529904Y-73238380D01*
X111910857Y-73238380D01*
X112006095Y-73286000D01*
X112053714Y-73333619D01*
X112101333Y-73428857D01*
X112101333Y-73571714D01*
X112053714Y-73666952D01*
X112006095Y-73714571D01*
X111910857Y-73762190D01*
X111529904Y-73762190D01*
X112958476Y-73238380D02*
X112768000Y-73238380D01*
X112672761Y-73286000D01*
X112625142Y-73333619D01*
X112529904Y-73476476D01*
X112482285Y-73666952D01*
X112482285Y-74047904D01*
X112529904Y-74143142D01*
X112577523Y-74190761D01*
X112672761Y-74238380D01*
X112863238Y-74238380D01*
X112958476Y-74190761D01*
X113006095Y-74143142D01*
X113053714Y-74047904D01*
X113053714Y-73809809D01*
X113006095Y-73714571D01*
X112958476Y-73666952D01*
X112863238Y-73619333D01*
X112672761Y-73619333D01*
X112577523Y-73666952D01*
X112529904Y-73714571D01*
X112482285Y-73809809D01*
%TO.C,R5*%
X153742380Y-66714666D02*
X153266190Y-67048000D01*
X153742380Y-67286095D02*
X152742380Y-67286095D01*
X152742380Y-66905142D01*
X152790000Y-66809904D01*
X152837619Y-66762285D01*
X152932857Y-66714666D01*
X153075714Y-66714666D01*
X153170952Y-66762285D01*
X153218571Y-66809904D01*
X153266190Y-66905142D01*
X153266190Y-67286095D01*
X152742380Y-65809904D02*
X152742380Y-66286095D01*
X153218571Y-66333714D01*
X153170952Y-66286095D01*
X153123333Y-66190857D01*
X153123333Y-65952761D01*
X153170952Y-65857523D01*
X153218571Y-65809904D01*
X153313809Y-65762285D01*
X153551904Y-65762285D01*
X153647142Y-65809904D01*
X153694761Y-65857523D01*
X153742380Y-65952761D01*
X153742380Y-66190857D01*
X153694761Y-66286095D01*
X153647142Y-66333714D01*
%TO.C,R4*%
X162378380Y-63666666D02*
X161902190Y-64000000D01*
X162378380Y-64238095D02*
X161378380Y-64238095D01*
X161378380Y-63857142D01*
X161426000Y-63761904D01*
X161473619Y-63714285D01*
X161568857Y-63666666D01*
X161711714Y-63666666D01*
X161806952Y-63714285D01*
X161854571Y-63761904D01*
X161902190Y-63857142D01*
X161902190Y-64238095D01*
X161711714Y-62809523D02*
X162378380Y-62809523D01*
X161330761Y-63047619D02*
X162045047Y-63285714D01*
X162045047Y-62666666D01*
%TO.C,R3*%
X161488380Y-58078666D02*
X161012190Y-58412000D01*
X161488380Y-58650095D02*
X160488380Y-58650095D01*
X160488380Y-58269142D01*
X160536000Y-58173904D01*
X160583619Y-58126285D01*
X160678857Y-58078666D01*
X160821714Y-58078666D01*
X160916952Y-58126285D01*
X160964571Y-58173904D01*
X161012190Y-58269142D01*
X161012190Y-58650095D01*
X160488380Y-57745333D02*
X160488380Y-57126285D01*
X160869333Y-57459619D01*
X160869333Y-57316761D01*
X160916952Y-57221523D01*
X160964571Y-57173904D01*
X161059809Y-57126285D01*
X161297904Y-57126285D01*
X161393142Y-57173904D01*
X161440761Y-57221523D01*
X161488380Y-57316761D01*
X161488380Y-57602476D01*
X161440761Y-57697714D01*
X161393142Y-57745333D01*
%TO.C,R2*%
X158948380Y-58078666D02*
X158472190Y-58412000D01*
X158948380Y-58650095D02*
X157948380Y-58650095D01*
X157948380Y-58269142D01*
X157996000Y-58173904D01*
X158043619Y-58126285D01*
X158138857Y-58078666D01*
X158281714Y-58078666D01*
X158376952Y-58126285D01*
X158424571Y-58173904D01*
X158472190Y-58269142D01*
X158472190Y-58650095D01*
X158043619Y-57697714D02*
X157996000Y-57650095D01*
X157948380Y-57554857D01*
X157948380Y-57316761D01*
X157996000Y-57221523D01*
X158043619Y-57173904D01*
X158138857Y-57126285D01*
X158234095Y-57126285D01*
X158376952Y-57173904D01*
X158948380Y-57745333D01*
X158948380Y-57126285D01*
%TO.C,R1*%
X190952380Y-59856666D02*
X190476190Y-60190000D01*
X190952380Y-60428095D02*
X189952380Y-60428095D01*
X189952380Y-60047142D01*
X190000000Y-59951904D01*
X190047619Y-59904285D01*
X190142857Y-59856666D01*
X190285714Y-59856666D01*
X190380952Y-59904285D01*
X190428571Y-59951904D01*
X190476190Y-60047142D01*
X190476190Y-60428095D01*
X190952380Y-58904285D02*
X190952380Y-59475714D01*
X190952380Y-59190000D02*
X189952380Y-59190000D01*
X190095238Y-59285238D01*
X190190476Y-59380476D01*
X190238095Y-59475714D01*
%TO.C,LS2*%
X141466380Y-64650857D02*
X141466380Y-65127047D01*
X140466380Y-65127047D01*
X141418761Y-64365142D02*
X141466380Y-64222285D01*
X141466380Y-63984190D01*
X141418761Y-63888952D01*
X141371142Y-63841333D01*
X141275904Y-63793714D01*
X141180666Y-63793714D01*
X141085428Y-63841333D01*
X141037809Y-63888952D01*
X140990190Y-63984190D01*
X140942571Y-64174666D01*
X140894952Y-64269904D01*
X140847333Y-64317523D01*
X140752095Y-64365142D01*
X140656857Y-64365142D01*
X140561619Y-64317523D01*
X140514000Y-64269904D01*
X140466380Y-64174666D01*
X140466380Y-63936571D01*
X140514000Y-63793714D01*
X140561619Y-63412761D02*
X140514000Y-63365142D01*
X140466380Y-63269904D01*
X140466380Y-63031809D01*
X140514000Y-62936571D01*
X140561619Y-62888952D01*
X140656857Y-62841333D01*
X140752095Y-62841333D01*
X140894952Y-62888952D01*
X141466380Y-63460380D01*
X141466380Y-62841333D01*
%TO.C,LS1*%
X113438380Y-64650857D02*
X113438380Y-65127047D01*
X112438380Y-65127047D01*
X113390761Y-64365142D02*
X113438380Y-64222285D01*
X113438380Y-63984190D01*
X113390761Y-63888952D01*
X113343142Y-63841333D01*
X113247904Y-63793714D01*
X113152666Y-63793714D01*
X113057428Y-63841333D01*
X113009809Y-63888952D01*
X112962190Y-63984190D01*
X112914571Y-64174666D01*
X112866952Y-64269904D01*
X112819333Y-64317523D01*
X112724095Y-64365142D01*
X112628857Y-64365142D01*
X112533619Y-64317523D01*
X112486000Y-64269904D01*
X112438380Y-64174666D01*
X112438380Y-63936571D01*
X112486000Y-63793714D01*
X113438380Y-62841333D02*
X113438380Y-63412761D01*
X113438380Y-63127047D02*
X112438380Y-63127047D01*
X112581238Y-63222285D01*
X112676476Y-63317523D01*
X112724095Y-63412761D01*
%TO.C,L6*%
X175077380Y-65952666D02*
X175077380Y-66428857D01*
X174077380Y-66428857D01*
X174077380Y-65190761D02*
X174077380Y-65381238D01*
X174125000Y-65476476D01*
X174172619Y-65524095D01*
X174315476Y-65619333D01*
X174505952Y-65666952D01*
X174886904Y-65666952D01*
X174982142Y-65619333D01*
X175029761Y-65571714D01*
X175077380Y-65476476D01*
X175077380Y-65286000D01*
X175029761Y-65190761D01*
X174982142Y-65143142D01*
X174886904Y-65095523D01*
X174648809Y-65095523D01*
X174553571Y-65143142D01*
X174505952Y-65190761D01*
X174458333Y-65286000D01*
X174458333Y-65476476D01*
X174505952Y-65571714D01*
X174553571Y-65619333D01*
X174648809Y-65666952D01*
%TO.C,L5*%
X190841333Y-79065380D02*
X190365142Y-79065380D01*
X190365142Y-78065380D01*
X191650857Y-78065380D02*
X191174666Y-78065380D01*
X191127047Y-78541571D01*
X191174666Y-78493952D01*
X191269904Y-78446333D01*
X191508000Y-78446333D01*
X191603238Y-78493952D01*
X191650857Y-78541571D01*
X191698476Y-78636809D01*
X191698476Y-78874904D01*
X191650857Y-78970142D01*
X191603238Y-79017761D01*
X191508000Y-79065380D01*
X191269904Y-79065380D01*
X191174666Y-79017761D01*
X191127047Y-78970142D01*
%TO.C,L4*%
X127834380Y-72302666D02*
X127834380Y-72778857D01*
X126834380Y-72778857D01*
X127167714Y-71540761D02*
X127834380Y-71540761D01*
X126786761Y-71778857D02*
X127501047Y-72016952D01*
X127501047Y-71397904D01*
%TO.C,L3*%
X131135380Y-76366666D02*
X131135380Y-76842857D01*
X130135380Y-76842857D01*
X130135380Y-76128571D02*
X130135380Y-75509523D01*
X130516333Y-75842857D01*
X130516333Y-75700000D01*
X130563952Y-75604761D01*
X130611571Y-75557142D01*
X130706809Y-75509523D01*
X130944904Y-75509523D01*
X131040142Y-75557142D01*
X131087761Y-75604761D01*
X131135380Y-75700000D01*
X131135380Y-75985714D01*
X131087761Y-76080952D01*
X131040142Y-76128571D01*
%TO.C,L2*%
X124278380Y-72302666D02*
X124278380Y-72778857D01*
X123278380Y-72778857D01*
X123373619Y-72016952D02*
X123326000Y-71969333D01*
X123278380Y-71874095D01*
X123278380Y-71636000D01*
X123326000Y-71540761D01*
X123373619Y-71493142D01*
X123468857Y-71445523D01*
X123564095Y-71445523D01*
X123706952Y-71493142D01*
X124278380Y-72064571D01*
X124278380Y-71445523D01*
%TO.C,L1*%
X124278380Y-76366666D02*
X124278380Y-76842857D01*
X123278380Y-76842857D01*
X124278380Y-75509523D02*
X124278380Y-76080952D01*
X124278380Y-75795238D02*
X123278380Y-75795238D01*
X123421238Y-75890476D01*
X123516476Y-75985714D01*
X123564095Y-76080952D01*
%TO.C,JP8*%
X162750380Y-84145333D02*
X163464666Y-84145333D01*
X163607523Y-84192952D01*
X163702761Y-84288190D01*
X163750380Y-84431047D01*
X163750380Y-84526285D01*
X163750380Y-83669142D02*
X162750380Y-83669142D01*
X162750380Y-83288190D01*
X162798000Y-83192952D01*
X162845619Y-83145333D01*
X162940857Y-83097714D01*
X163083714Y-83097714D01*
X163178952Y-83145333D01*
X163226571Y-83192952D01*
X163274190Y-83288190D01*
X163274190Y-83669142D01*
X163178952Y-82526285D02*
X163131333Y-82621523D01*
X163083714Y-82669142D01*
X162988476Y-82716761D01*
X162940857Y-82716761D01*
X162845619Y-82669142D01*
X162798000Y-82621523D01*
X162750380Y-82526285D01*
X162750380Y-82335809D01*
X162798000Y-82240571D01*
X162845619Y-82192952D01*
X162940857Y-82145333D01*
X162988476Y-82145333D01*
X163083714Y-82192952D01*
X163131333Y-82240571D01*
X163178952Y-82335809D01*
X163178952Y-82526285D01*
X163226571Y-82621523D01*
X163274190Y-82669142D01*
X163369428Y-82716761D01*
X163559904Y-82716761D01*
X163655142Y-82669142D01*
X163702761Y-82621523D01*
X163750380Y-82526285D01*
X163750380Y-82335809D01*
X163702761Y-82240571D01*
X163655142Y-82192952D01*
X163559904Y-82145333D01*
X163369428Y-82145333D01*
X163274190Y-82192952D01*
X163226571Y-82240571D01*
X163178952Y-82335809D01*
%TO.C,JP7*%
X165336380Y-73985333D02*
X166050666Y-73985333D01*
X166193523Y-74032952D01*
X166288761Y-74128190D01*
X166336380Y-74271047D01*
X166336380Y-74366285D01*
X166336380Y-73509142D02*
X165336380Y-73509142D01*
X165336380Y-73128190D01*
X165384000Y-73032952D01*
X165431619Y-72985333D01*
X165526857Y-72937714D01*
X165669714Y-72937714D01*
X165764952Y-72985333D01*
X165812571Y-73032952D01*
X165860190Y-73128190D01*
X165860190Y-73509142D01*
X165336380Y-72604380D02*
X165336380Y-71937714D01*
X166336380Y-72366285D01*
%TO.C,JP6*%
X162996666Y-114768380D02*
X162996666Y-115482666D01*
X162949047Y-115625523D01*
X162853809Y-115720761D01*
X162710952Y-115768380D01*
X162615714Y-115768380D01*
X163472857Y-115768380D02*
X163472857Y-114768380D01*
X163853809Y-114768380D01*
X163949047Y-114816000D01*
X163996666Y-114863619D01*
X164044285Y-114958857D01*
X164044285Y-115101714D01*
X163996666Y-115196952D01*
X163949047Y-115244571D01*
X163853809Y-115292190D01*
X163472857Y-115292190D01*
X164901428Y-114768380D02*
X164710952Y-114768380D01*
X164615714Y-114816000D01*
X164568095Y-114863619D01*
X164472857Y-115006476D01*
X164425238Y-115196952D01*
X164425238Y-115577904D01*
X164472857Y-115673142D01*
X164520476Y-115720761D01*
X164615714Y-115768380D01*
X164806190Y-115768380D01*
X164901428Y-115720761D01*
X164949047Y-115673142D01*
X164996666Y-115577904D01*
X164996666Y-115339809D01*
X164949047Y-115244571D01*
X164901428Y-115196952D01*
X164806190Y-115149333D01*
X164615714Y-115149333D01*
X164520476Y-115196952D01*
X164472857Y-115244571D01*
X164425238Y-115339809D01*
%TO.C,JP5*%
X170235666Y-114768380D02*
X170235666Y-115482666D01*
X170188047Y-115625523D01*
X170092809Y-115720761D01*
X169949952Y-115768380D01*
X169854714Y-115768380D01*
X170711857Y-115768380D02*
X170711857Y-114768380D01*
X171092809Y-114768380D01*
X171188047Y-114816000D01*
X171235666Y-114863619D01*
X171283285Y-114958857D01*
X171283285Y-115101714D01*
X171235666Y-115196952D01*
X171188047Y-115244571D01*
X171092809Y-115292190D01*
X170711857Y-115292190D01*
X172188047Y-114768380D02*
X171711857Y-114768380D01*
X171664238Y-115244571D01*
X171711857Y-115196952D01*
X171807095Y-115149333D01*
X172045190Y-115149333D01*
X172140428Y-115196952D01*
X172188047Y-115244571D01*
X172235666Y-115339809D01*
X172235666Y-115577904D01*
X172188047Y-115673142D01*
X172140428Y-115720761D01*
X172045190Y-115768380D01*
X171807095Y-115768380D01*
X171711857Y-115720761D01*
X171664238Y-115673142D01*
%TO.C,JP4*%
X151185666Y-88606380D02*
X151185666Y-89320666D01*
X151138047Y-89463523D01*
X151042809Y-89558761D01*
X150899952Y-89606380D01*
X150804714Y-89606380D01*
X151661857Y-89606380D02*
X151661857Y-88606380D01*
X152042809Y-88606380D01*
X152138047Y-88654000D01*
X152185666Y-88701619D01*
X152233285Y-88796857D01*
X152233285Y-88939714D01*
X152185666Y-89034952D01*
X152138047Y-89082571D01*
X152042809Y-89130190D01*
X151661857Y-89130190D01*
X153090428Y-88939714D02*
X153090428Y-89606380D01*
X152852333Y-88558761D02*
X152614238Y-89273047D01*
X153233285Y-89273047D01*
%TO.C,JP3*%
X154995666Y-93432380D02*
X154995666Y-94146666D01*
X154948047Y-94289523D01*
X154852809Y-94384761D01*
X154709952Y-94432380D01*
X154614714Y-94432380D01*
X155471857Y-94432380D02*
X155471857Y-93432380D01*
X155852809Y-93432380D01*
X155948047Y-93480000D01*
X155995666Y-93527619D01*
X156043285Y-93622857D01*
X156043285Y-93765714D01*
X155995666Y-93860952D01*
X155948047Y-93908571D01*
X155852809Y-93956190D01*
X155471857Y-93956190D01*
X156376619Y-93432380D02*
X156995666Y-93432380D01*
X156662333Y-93813333D01*
X156805190Y-93813333D01*
X156900428Y-93860952D01*
X156948047Y-93908571D01*
X156995666Y-94003809D01*
X156995666Y-94241904D01*
X156948047Y-94337142D01*
X156900428Y-94384761D01*
X156805190Y-94432380D01*
X156519476Y-94432380D01*
X156424238Y-94384761D01*
X156376619Y-94337142D01*
%TO.C,JP2*%
X157662666Y-88479380D02*
X157662666Y-89193666D01*
X157615047Y-89336523D01*
X157519809Y-89431761D01*
X157376952Y-89479380D01*
X157281714Y-89479380D01*
X158138857Y-89479380D02*
X158138857Y-88479380D01*
X158519809Y-88479380D01*
X158615047Y-88527000D01*
X158662666Y-88574619D01*
X158710285Y-88669857D01*
X158710285Y-88812714D01*
X158662666Y-88907952D01*
X158615047Y-88955571D01*
X158519809Y-89003190D01*
X158138857Y-89003190D01*
X159091238Y-88574619D02*
X159138857Y-88527000D01*
X159234095Y-88479380D01*
X159472190Y-88479380D01*
X159567428Y-88527000D01*
X159615047Y-88574619D01*
X159662666Y-88669857D01*
X159662666Y-88765095D01*
X159615047Y-88907952D01*
X159043619Y-89479380D01*
X159662666Y-89479380D01*
%TO.C,JP1*%
X160329666Y-93432380D02*
X160329666Y-94146666D01*
X160282047Y-94289523D01*
X160186809Y-94384761D01*
X160043952Y-94432380D01*
X159948714Y-94432380D01*
X160805857Y-94432380D02*
X160805857Y-93432380D01*
X161186809Y-93432380D01*
X161282047Y-93480000D01*
X161329666Y-93527619D01*
X161377285Y-93622857D01*
X161377285Y-93765714D01*
X161329666Y-93860952D01*
X161282047Y-93908571D01*
X161186809Y-93956190D01*
X160805857Y-93956190D01*
X162329666Y-94432380D02*
X161758238Y-94432380D01*
X162043952Y-94432380D02*
X162043952Y-93432380D01*
X161948714Y-93575238D01*
X161853476Y-93670476D01*
X161758238Y-93718095D01*
%TO.C,J3*%
X120951666Y-110704380D02*
X120951666Y-111418666D01*
X120904047Y-111561523D01*
X120808809Y-111656761D01*
X120665952Y-111704380D01*
X120570714Y-111704380D01*
X121332619Y-110704380D02*
X121951666Y-110704380D01*
X121618333Y-111085333D01*
X121761190Y-111085333D01*
X121856428Y-111132952D01*
X121904047Y-111180571D01*
X121951666Y-111275809D01*
X121951666Y-111513904D01*
X121904047Y-111609142D01*
X121856428Y-111656761D01*
X121761190Y-111704380D01*
X121475476Y-111704380D01*
X121380238Y-111656761D01*
X121332619Y-111609142D01*
%TO.C,J2*%
X152955666Y-54951380D02*
X152955666Y-55665666D01*
X152908047Y-55808523D01*
X152812809Y-55903761D01*
X152669952Y-55951380D01*
X152574714Y-55951380D01*
X153384238Y-55046619D02*
X153431857Y-54999000D01*
X153527095Y-54951380D01*
X153765190Y-54951380D01*
X153860428Y-54999000D01*
X153908047Y-55046619D01*
X153955666Y-55141857D01*
X153955666Y-55237095D01*
X153908047Y-55379952D01*
X153336619Y-55951380D01*
X153955666Y-55951380D01*
%TO.C,J1*%
X160258380Y-109045333D02*
X160972666Y-109045333D01*
X161115523Y-109092952D01*
X161210761Y-109188190D01*
X161258380Y-109331047D01*
X161258380Y-109426285D01*
X161258380Y-108045333D02*
X161258380Y-108616761D01*
X161258380Y-108331047D02*
X160258380Y-108331047D01*
X160401238Y-108426285D01*
X160496476Y-108521523D01*
X160544095Y-108616761D01*
%TO.C,D29*%
X130406380Y-58110285D02*
X129406380Y-58110285D01*
X129406380Y-57872190D01*
X129454000Y-57729333D01*
X129549238Y-57634095D01*
X129644476Y-57586476D01*
X129834952Y-57538857D01*
X129977809Y-57538857D01*
X130168285Y-57586476D01*
X130263523Y-57634095D01*
X130358761Y-57729333D01*
X130406380Y-57872190D01*
X130406380Y-58110285D01*
X129501619Y-57157904D02*
X129454000Y-57110285D01*
X129406380Y-57015047D01*
X129406380Y-56776952D01*
X129454000Y-56681714D01*
X129501619Y-56634095D01*
X129596857Y-56586476D01*
X129692095Y-56586476D01*
X129834952Y-56634095D01*
X130406380Y-57205523D01*
X130406380Y-56586476D01*
X130406380Y-56110285D02*
X130406380Y-55919809D01*
X130358761Y-55824571D01*
X130311142Y-55776952D01*
X130168285Y-55681714D01*
X129977809Y-55634095D01*
X129596857Y-55634095D01*
X129501619Y-55681714D01*
X129454000Y-55729333D01*
X129406380Y-55824571D01*
X129406380Y-56015047D01*
X129454000Y-56110285D01*
X129501619Y-56157904D01*
X129596857Y-56205523D01*
X129834952Y-56205523D01*
X129930190Y-56157904D01*
X129977809Y-56110285D01*
X130025428Y-56015047D01*
X130025428Y-55824571D01*
X129977809Y-55729333D01*
X129930190Y-55681714D01*
X129834952Y-55634095D01*
%TO.C,D28*%
X165584380Y-71318285D02*
X164584380Y-71318285D01*
X164584380Y-71080190D01*
X164632000Y-70937333D01*
X164727238Y-70842095D01*
X164822476Y-70794476D01*
X165012952Y-70746857D01*
X165155809Y-70746857D01*
X165346285Y-70794476D01*
X165441523Y-70842095D01*
X165536761Y-70937333D01*
X165584380Y-71080190D01*
X165584380Y-71318285D01*
X164679619Y-70365904D02*
X164632000Y-70318285D01*
X164584380Y-70223047D01*
X164584380Y-69984952D01*
X164632000Y-69889714D01*
X164679619Y-69842095D01*
X164774857Y-69794476D01*
X164870095Y-69794476D01*
X165012952Y-69842095D01*
X165584380Y-70413523D01*
X165584380Y-69794476D01*
X165012952Y-69223047D02*
X164965333Y-69318285D01*
X164917714Y-69365904D01*
X164822476Y-69413523D01*
X164774857Y-69413523D01*
X164679619Y-69365904D01*
X164632000Y-69318285D01*
X164584380Y-69223047D01*
X164584380Y-69032571D01*
X164632000Y-68937333D01*
X164679619Y-68889714D01*
X164774857Y-68842095D01*
X164822476Y-68842095D01*
X164917714Y-68889714D01*
X164965333Y-68937333D01*
X165012952Y-69032571D01*
X165012952Y-69223047D01*
X165060571Y-69318285D01*
X165108190Y-69365904D01*
X165203428Y-69413523D01*
X165393904Y-69413523D01*
X165489142Y-69365904D01*
X165536761Y-69318285D01*
X165584380Y-69223047D01*
X165584380Y-69032571D01*
X165536761Y-68937333D01*
X165489142Y-68889714D01*
X165393904Y-68842095D01*
X165203428Y-68842095D01*
X165108190Y-68889714D01*
X165060571Y-68937333D01*
X165012952Y-69032571D01*
%TO.C,D27*%
X129595714Y-111831380D02*
X129595714Y-110831380D01*
X129833809Y-110831380D01*
X129976666Y-110879000D01*
X130071904Y-110974238D01*
X130119523Y-111069476D01*
X130167142Y-111259952D01*
X130167142Y-111402809D01*
X130119523Y-111593285D01*
X130071904Y-111688523D01*
X129976666Y-111783761D01*
X129833809Y-111831380D01*
X129595714Y-111831380D01*
X130548095Y-110926619D02*
X130595714Y-110879000D01*
X130690952Y-110831380D01*
X130929047Y-110831380D01*
X131024285Y-110879000D01*
X131071904Y-110926619D01*
X131119523Y-111021857D01*
X131119523Y-111117095D01*
X131071904Y-111259952D01*
X130500476Y-111831380D01*
X131119523Y-111831380D01*
X131452857Y-110831380D02*
X132119523Y-110831380D01*
X131690952Y-111831380D01*
%TO.C,D26*%
X133913714Y-108529380D02*
X133913714Y-107529380D01*
X134151809Y-107529380D01*
X134294666Y-107577000D01*
X134389904Y-107672238D01*
X134437523Y-107767476D01*
X134485142Y-107957952D01*
X134485142Y-108100809D01*
X134437523Y-108291285D01*
X134389904Y-108386523D01*
X134294666Y-108481761D01*
X134151809Y-108529380D01*
X133913714Y-108529380D01*
X134866095Y-107624619D02*
X134913714Y-107577000D01*
X135008952Y-107529380D01*
X135247047Y-107529380D01*
X135342285Y-107577000D01*
X135389904Y-107624619D01*
X135437523Y-107719857D01*
X135437523Y-107815095D01*
X135389904Y-107957952D01*
X134818476Y-108529380D01*
X135437523Y-108529380D01*
X136294666Y-107529380D02*
X136104190Y-107529380D01*
X136008952Y-107577000D01*
X135961333Y-107624619D01*
X135866095Y-107767476D01*
X135818476Y-107957952D01*
X135818476Y-108338904D01*
X135866095Y-108434142D01*
X135913714Y-108481761D01*
X136008952Y-108529380D01*
X136199428Y-108529380D01*
X136294666Y-108481761D01*
X136342285Y-108434142D01*
X136389904Y-108338904D01*
X136389904Y-108100809D01*
X136342285Y-108005571D01*
X136294666Y-107957952D01*
X136199428Y-107910333D01*
X136008952Y-107910333D01*
X135913714Y-107957952D01*
X135866095Y-108005571D01*
X135818476Y-108100809D01*
%TO.C,D25*%
X87685714Y-59436380D02*
X87685714Y-58436380D01*
X87923809Y-58436380D01*
X88066666Y-58484000D01*
X88161904Y-58579238D01*
X88209523Y-58674476D01*
X88257142Y-58864952D01*
X88257142Y-59007809D01*
X88209523Y-59198285D01*
X88161904Y-59293523D01*
X88066666Y-59388761D01*
X87923809Y-59436380D01*
X87685714Y-59436380D01*
X88638095Y-58531619D02*
X88685714Y-58484000D01*
X88780952Y-58436380D01*
X89019047Y-58436380D01*
X89114285Y-58484000D01*
X89161904Y-58531619D01*
X89209523Y-58626857D01*
X89209523Y-58722095D01*
X89161904Y-58864952D01*
X88590476Y-59436380D01*
X89209523Y-59436380D01*
X90114285Y-58436380D02*
X89638095Y-58436380D01*
X89590476Y-58912571D01*
X89638095Y-58864952D01*
X89733333Y-58817333D01*
X89971428Y-58817333D01*
X90066666Y-58864952D01*
X90114285Y-58912571D01*
X90161904Y-59007809D01*
X90161904Y-59245904D01*
X90114285Y-59341142D01*
X90066666Y-59388761D01*
X89971428Y-59436380D01*
X89733333Y-59436380D01*
X89638095Y-59388761D01*
X89590476Y-59341142D01*
X85035714Y-61336380D02*
X84464285Y-61336380D01*
X84750000Y-61336380D02*
X84750000Y-60336380D01*
X84654761Y-60479238D01*
X84559523Y-60574476D01*
X84464285Y-60622095D01*
%TO.C,D24*%
X87685714Y-80901380D02*
X87685714Y-79901380D01*
X87923809Y-79901380D01*
X88066666Y-79949000D01*
X88161904Y-80044238D01*
X88209523Y-80139476D01*
X88257142Y-80329952D01*
X88257142Y-80472809D01*
X88209523Y-80663285D01*
X88161904Y-80758523D01*
X88066666Y-80853761D01*
X87923809Y-80901380D01*
X87685714Y-80901380D01*
X88638095Y-79996619D02*
X88685714Y-79949000D01*
X88780952Y-79901380D01*
X89019047Y-79901380D01*
X89114285Y-79949000D01*
X89161904Y-79996619D01*
X89209523Y-80091857D01*
X89209523Y-80187095D01*
X89161904Y-80329952D01*
X88590476Y-80901380D01*
X89209523Y-80901380D01*
X90066666Y-80234714D02*
X90066666Y-80901380D01*
X89828571Y-79853761D02*
X89590476Y-80568047D01*
X90209523Y-80568047D01*
X85035714Y-82801380D02*
X84464285Y-82801380D01*
X84750000Y-82801380D02*
X84750000Y-81801380D01*
X84654761Y-81944238D01*
X84559523Y-82039476D01*
X84464285Y-82087095D01*
%TO.C,D23*%
X208081714Y-59436380D02*
X208081714Y-58436380D01*
X208319809Y-58436380D01*
X208462666Y-58484000D01*
X208557904Y-58579238D01*
X208605523Y-58674476D01*
X208653142Y-58864952D01*
X208653142Y-59007809D01*
X208605523Y-59198285D01*
X208557904Y-59293523D01*
X208462666Y-59388761D01*
X208319809Y-59436380D01*
X208081714Y-59436380D01*
X209034095Y-58531619D02*
X209081714Y-58484000D01*
X209176952Y-58436380D01*
X209415047Y-58436380D01*
X209510285Y-58484000D01*
X209557904Y-58531619D01*
X209605523Y-58626857D01*
X209605523Y-58722095D01*
X209557904Y-58864952D01*
X208986476Y-59436380D01*
X209605523Y-59436380D01*
X209938857Y-58436380D02*
X210557904Y-58436380D01*
X210224571Y-58817333D01*
X210367428Y-58817333D01*
X210462666Y-58864952D01*
X210510285Y-58912571D01*
X210557904Y-59007809D01*
X210557904Y-59245904D01*
X210510285Y-59341142D01*
X210462666Y-59388761D01*
X210367428Y-59436380D01*
X210081714Y-59436380D01*
X209986476Y-59388761D01*
X209938857Y-59341142D01*
X209708714Y-62809380D02*
X209137285Y-62809380D01*
X209423000Y-62809380D02*
X209423000Y-61809380D01*
X209327761Y-61952238D01*
X209232523Y-62047476D01*
X209137285Y-62095095D01*
%TO.C,D22*%
X208081714Y-80772380D02*
X208081714Y-79772380D01*
X208319809Y-79772380D01*
X208462666Y-79820000D01*
X208557904Y-79915238D01*
X208605523Y-80010476D01*
X208653142Y-80200952D01*
X208653142Y-80343809D01*
X208605523Y-80534285D01*
X208557904Y-80629523D01*
X208462666Y-80724761D01*
X208319809Y-80772380D01*
X208081714Y-80772380D01*
X209034095Y-79867619D02*
X209081714Y-79820000D01*
X209176952Y-79772380D01*
X209415047Y-79772380D01*
X209510285Y-79820000D01*
X209557904Y-79867619D01*
X209605523Y-79962857D01*
X209605523Y-80058095D01*
X209557904Y-80200952D01*
X208986476Y-80772380D01*
X209605523Y-80772380D01*
X209986476Y-79867619D02*
X210034095Y-79820000D01*
X210129333Y-79772380D01*
X210367428Y-79772380D01*
X210462666Y-79820000D01*
X210510285Y-79867619D01*
X210557904Y-79962857D01*
X210557904Y-80058095D01*
X210510285Y-80200952D01*
X209938857Y-80772380D01*
X210557904Y-80772380D01*
X209581714Y-84145380D02*
X209010285Y-84145380D01*
X209296000Y-84145380D02*
X209296000Y-83145380D01*
X209200761Y-83288238D01*
X209105523Y-83383476D01*
X209010285Y-83431095D01*
%TO.C,D21*%
X98861714Y-59436380D02*
X98861714Y-58436380D01*
X99099809Y-58436380D01*
X99242666Y-58484000D01*
X99337904Y-58579238D01*
X99385523Y-58674476D01*
X99433142Y-58864952D01*
X99433142Y-59007809D01*
X99385523Y-59198285D01*
X99337904Y-59293523D01*
X99242666Y-59388761D01*
X99099809Y-59436380D01*
X98861714Y-59436380D01*
X99814095Y-58531619D02*
X99861714Y-58484000D01*
X99956952Y-58436380D01*
X100195047Y-58436380D01*
X100290285Y-58484000D01*
X100337904Y-58531619D01*
X100385523Y-58626857D01*
X100385523Y-58722095D01*
X100337904Y-58864952D01*
X99766476Y-59436380D01*
X100385523Y-59436380D01*
X101337904Y-59436380D02*
X100766476Y-59436380D01*
X101052190Y-59436380D02*
X101052190Y-58436380D01*
X100956952Y-58579238D01*
X100861714Y-58674476D01*
X100766476Y-58722095D01*
X96211714Y-61336380D02*
X95640285Y-61336380D01*
X95926000Y-61336380D02*
X95926000Y-60336380D01*
X95830761Y-60479238D01*
X95735523Y-60574476D01*
X95640285Y-60622095D01*
%TO.C,D20*%
X98861714Y-80901380D02*
X98861714Y-79901380D01*
X99099809Y-79901380D01*
X99242666Y-79949000D01*
X99337904Y-80044238D01*
X99385523Y-80139476D01*
X99433142Y-80329952D01*
X99433142Y-80472809D01*
X99385523Y-80663285D01*
X99337904Y-80758523D01*
X99242666Y-80853761D01*
X99099809Y-80901380D01*
X98861714Y-80901380D01*
X99814095Y-79996619D02*
X99861714Y-79949000D01*
X99956952Y-79901380D01*
X100195047Y-79901380D01*
X100290285Y-79949000D01*
X100337904Y-79996619D01*
X100385523Y-80091857D01*
X100385523Y-80187095D01*
X100337904Y-80329952D01*
X99766476Y-80901380D01*
X100385523Y-80901380D01*
X101004571Y-79901380D02*
X101099809Y-79901380D01*
X101195047Y-79949000D01*
X101242666Y-79996619D01*
X101290285Y-80091857D01*
X101337904Y-80282333D01*
X101337904Y-80520428D01*
X101290285Y-80710904D01*
X101242666Y-80806142D01*
X101195047Y-80853761D01*
X101099809Y-80901380D01*
X101004571Y-80901380D01*
X100909333Y-80853761D01*
X100861714Y-80806142D01*
X100814095Y-80710904D01*
X100766476Y-80520428D01*
X100766476Y-80282333D01*
X100814095Y-80091857D01*
X100861714Y-79996619D01*
X100909333Y-79949000D01*
X101004571Y-79901380D01*
X96211714Y-82801380D02*
X95640285Y-82801380D01*
X95926000Y-82801380D02*
X95926000Y-81801380D01*
X95830761Y-81944238D01*
X95735523Y-82039476D01*
X95640285Y-82087095D01*
%TO.C,D19*%
X196905714Y-59436380D02*
X196905714Y-58436380D01*
X197143809Y-58436380D01*
X197286666Y-58484000D01*
X197381904Y-58579238D01*
X197429523Y-58674476D01*
X197477142Y-58864952D01*
X197477142Y-59007809D01*
X197429523Y-59198285D01*
X197381904Y-59293523D01*
X197286666Y-59388761D01*
X197143809Y-59436380D01*
X196905714Y-59436380D01*
X198429523Y-59436380D02*
X197858095Y-59436380D01*
X198143809Y-59436380D02*
X198143809Y-58436380D01*
X198048571Y-58579238D01*
X197953333Y-58674476D01*
X197858095Y-58722095D01*
X198905714Y-59436380D02*
X199096190Y-59436380D01*
X199191428Y-59388761D01*
X199239047Y-59341142D01*
X199334285Y-59198285D01*
X199381904Y-59007809D01*
X199381904Y-58626857D01*
X199334285Y-58531619D01*
X199286666Y-58484000D01*
X199191428Y-58436380D01*
X199000952Y-58436380D01*
X198905714Y-58484000D01*
X198858095Y-58531619D01*
X198810476Y-58626857D01*
X198810476Y-58864952D01*
X198858095Y-58960190D01*
X198905714Y-59007809D01*
X199000952Y-59055428D01*
X199191428Y-59055428D01*
X199286666Y-59007809D01*
X199334285Y-58960190D01*
X199381904Y-58864952D01*
X198405714Y-62936380D02*
X197834285Y-62936380D01*
X198120000Y-62936380D02*
X198120000Y-61936380D01*
X198024761Y-62079238D01*
X197929523Y-62174476D01*
X197834285Y-62222095D01*
%TO.C,D18*%
X196905714Y-80772380D02*
X196905714Y-79772380D01*
X197143809Y-79772380D01*
X197286666Y-79820000D01*
X197381904Y-79915238D01*
X197429523Y-80010476D01*
X197477142Y-80200952D01*
X197477142Y-80343809D01*
X197429523Y-80534285D01*
X197381904Y-80629523D01*
X197286666Y-80724761D01*
X197143809Y-80772380D01*
X196905714Y-80772380D01*
X198429523Y-80772380D02*
X197858095Y-80772380D01*
X198143809Y-80772380D02*
X198143809Y-79772380D01*
X198048571Y-79915238D01*
X197953333Y-80010476D01*
X197858095Y-80058095D01*
X199000952Y-80200952D02*
X198905714Y-80153333D01*
X198858095Y-80105714D01*
X198810476Y-80010476D01*
X198810476Y-79962857D01*
X198858095Y-79867619D01*
X198905714Y-79820000D01*
X199000952Y-79772380D01*
X199191428Y-79772380D01*
X199286666Y-79820000D01*
X199334285Y-79867619D01*
X199381904Y-79962857D01*
X199381904Y-80010476D01*
X199334285Y-80105714D01*
X199286666Y-80153333D01*
X199191428Y-80200952D01*
X199000952Y-80200952D01*
X198905714Y-80248571D01*
X198858095Y-80296190D01*
X198810476Y-80391428D01*
X198810476Y-80581904D01*
X198858095Y-80677142D01*
X198905714Y-80724761D01*
X199000952Y-80772380D01*
X199191428Y-80772380D01*
X199286666Y-80724761D01*
X199334285Y-80677142D01*
X199381904Y-80581904D01*
X199381904Y-80391428D01*
X199334285Y-80296190D01*
X199286666Y-80248571D01*
X199191428Y-80200952D01*
X198405714Y-84145380D02*
X197834285Y-84145380D01*
X198120000Y-84145380D02*
X198120000Y-83145380D01*
X198024761Y-83288238D01*
X197929523Y-83383476D01*
X197834285Y-83431095D01*
%TO.C,D17*%
X87685714Y-66548380D02*
X87685714Y-65548380D01*
X87923809Y-65548380D01*
X88066666Y-65596000D01*
X88161904Y-65691238D01*
X88209523Y-65786476D01*
X88257142Y-65976952D01*
X88257142Y-66119809D01*
X88209523Y-66310285D01*
X88161904Y-66405523D01*
X88066666Y-66500761D01*
X87923809Y-66548380D01*
X87685714Y-66548380D01*
X89209523Y-66548380D02*
X88638095Y-66548380D01*
X88923809Y-66548380D02*
X88923809Y-65548380D01*
X88828571Y-65691238D01*
X88733333Y-65786476D01*
X88638095Y-65834095D01*
X89542857Y-65548380D02*
X90209523Y-65548380D01*
X89780952Y-66548380D01*
X85035714Y-68448380D02*
X84464285Y-68448380D01*
X84750000Y-68448380D02*
X84750000Y-67448380D01*
X84654761Y-67591238D01*
X84559523Y-67686476D01*
X84464285Y-67734095D01*
%TO.C,D16*%
X87685714Y-87884380D02*
X87685714Y-86884380D01*
X87923809Y-86884380D01*
X88066666Y-86932000D01*
X88161904Y-87027238D01*
X88209523Y-87122476D01*
X88257142Y-87312952D01*
X88257142Y-87455809D01*
X88209523Y-87646285D01*
X88161904Y-87741523D01*
X88066666Y-87836761D01*
X87923809Y-87884380D01*
X87685714Y-87884380D01*
X89209523Y-87884380D02*
X88638095Y-87884380D01*
X88923809Y-87884380D02*
X88923809Y-86884380D01*
X88828571Y-87027238D01*
X88733333Y-87122476D01*
X88638095Y-87170095D01*
X90066666Y-86884380D02*
X89876190Y-86884380D01*
X89780952Y-86932000D01*
X89733333Y-86979619D01*
X89638095Y-87122476D01*
X89590476Y-87312952D01*
X89590476Y-87693904D01*
X89638095Y-87789142D01*
X89685714Y-87836761D01*
X89780952Y-87884380D01*
X89971428Y-87884380D01*
X90066666Y-87836761D01*
X90114285Y-87789142D01*
X90161904Y-87693904D01*
X90161904Y-87455809D01*
X90114285Y-87360571D01*
X90066666Y-87312952D01*
X89971428Y-87265333D01*
X89780952Y-87265333D01*
X89685714Y-87312952D01*
X89638095Y-87360571D01*
X89590476Y-87455809D01*
X85035714Y-89784380D02*
X84464285Y-89784380D01*
X84750000Y-89784380D02*
X84750000Y-88784380D01*
X84654761Y-88927238D01*
X84559523Y-89022476D01*
X84464285Y-89070095D01*
%TO.C,D15*%
X208081714Y-66548380D02*
X208081714Y-65548380D01*
X208319809Y-65548380D01*
X208462666Y-65596000D01*
X208557904Y-65691238D01*
X208605523Y-65786476D01*
X208653142Y-65976952D01*
X208653142Y-66119809D01*
X208605523Y-66310285D01*
X208557904Y-66405523D01*
X208462666Y-66500761D01*
X208319809Y-66548380D01*
X208081714Y-66548380D01*
X209605523Y-66548380D02*
X209034095Y-66548380D01*
X209319809Y-66548380D02*
X209319809Y-65548380D01*
X209224571Y-65691238D01*
X209129333Y-65786476D01*
X209034095Y-65834095D01*
X210510285Y-65548380D02*
X210034095Y-65548380D01*
X209986476Y-66024571D01*
X210034095Y-65976952D01*
X210129333Y-65929333D01*
X210367428Y-65929333D01*
X210462666Y-65976952D01*
X210510285Y-66024571D01*
X210557904Y-66119809D01*
X210557904Y-66357904D01*
X210510285Y-66453142D01*
X210462666Y-66500761D01*
X210367428Y-66548380D01*
X210129333Y-66548380D01*
X210034095Y-66500761D01*
X209986476Y-66453142D01*
X209581714Y-69921380D02*
X209010285Y-69921380D01*
X209296000Y-69921380D02*
X209296000Y-68921380D01*
X209200761Y-69064238D01*
X209105523Y-69159476D01*
X209010285Y-69207095D01*
%TO.C,D14*%
X208081714Y-87884380D02*
X208081714Y-86884380D01*
X208319809Y-86884380D01*
X208462666Y-86932000D01*
X208557904Y-87027238D01*
X208605523Y-87122476D01*
X208653142Y-87312952D01*
X208653142Y-87455809D01*
X208605523Y-87646285D01*
X208557904Y-87741523D01*
X208462666Y-87836761D01*
X208319809Y-87884380D01*
X208081714Y-87884380D01*
X209605523Y-87884380D02*
X209034095Y-87884380D01*
X209319809Y-87884380D02*
X209319809Y-86884380D01*
X209224571Y-87027238D01*
X209129333Y-87122476D01*
X209034095Y-87170095D01*
X210462666Y-87217714D02*
X210462666Y-87884380D01*
X210224571Y-86836761D02*
X209986476Y-87551047D01*
X210605523Y-87551047D01*
X209581714Y-91384380D02*
X209010285Y-91384380D01*
X209296000Y-91384380D02*
X209296000Y-90384380D01*
X209200761Y-90527238D01*
X209105523Y-90622476D01*
X209010285Y-90670095D01*
%TO.C,D13*%
X98861714Y-66548380D02*
X98861714Y-65548380D01*
X99099809Y-65548380D01*
X99242666Y-65596000D01*
X99337904Y-65691238D01*
X99385523Y-65786476D01*
X99433142Y-65976952D01*
X99433142Y-66119809D01*
X99385523Y-66310285D01*
X99337904Y-66405523D01*
X99242666Y-66500761D01*
X99099809Y-66548380D01*
X98861714Y-66548380D01*
X100385523Y-66548380D02*
X99814095Y-66548380D01*
X100099809Y-66548380D02*
X100099809Y-65548380D01*
X100004571Y-65691238D01*
X99909333Y-65786476D01*
X99814095Y-65834095D01*
X100718857Y-65548380D02*
X101337904Y-65548380D01*
X101004571Y-65929333D01*
X101147428Y-65929333D01*
X101242666Y-65976952D01*
X101290285Y-66024571D01*
X101337904Y-66119809D01*
X101337904Y-66357904D01*
X101290285Y-66453142D01*
X101242666Y-66500761D01*
X101147428Y-66548380D01*
X100861714Y-66548380D01*
X100766476Y-66500761D01*
X100718857Y-66453142D01*
X96211714Y-68448380D02*
X95640285Y-68448380D01*
X95926000Y-68448380D02*
X95926000Y-67448380D01*
X95830761Y-67591238D01*
X95735523Y-67686476D01*
X95640285Y-67734095D01*
%TO.C,D12*%
X98861714Y-87884380D02*
X98861714Y-86884380D01*
X99099809Y-86884380D01*
X99242666Y-86932000D01*
X99337904Y-87027238D01*
X99385523Y-87122476D01*
X99433142Y-87312952D01*
X99433142Y-87455809D01*
X99385523Y-87646285D01*
X99337904Y-87741523D01*
X99242666Y-87836761D01*
X99099809Y-87884380D01*
X98861714Y-87884380D01*
X100385523Y-87884380D02*
X99814095Y-87884380D01*
X100099809Y-87884380D02*
X100099809Y-86884380D01*
X100004571Y-87027238D01*
X99909333Y-87122476D01*
X99814095Y-87170095D01*
X100766476Y-86979619D02*
X100814095Y-86932000D01*
X100909333Y-86884380D01*
X101147428Y-86884380D01*
X101242666Y-86932000D01*
X101290285Y-86979619D01*
X101337904Y-87074857D01*
X101337904Y-87170095D01*
X101290285Y-87312952D01*
X100718857Y-87884380D01*
X101337904Y-87884380D01*
X96211714Y-89784380D02*
X95640285Y-89784380D01*
X95926000Y-89784380D02*
X95926000Y-88784380D01*
X95830761Y-88927238D01*
X95735523Y-89022476D01*
X95640285Y-89070095D01*
%TO.C,D11*%
X196905714Y-66548380D02*
X196905714Y-65548380D01*
X197143809Y-65548380D01*
X197286666Y-65596000D01*
X197381904Y-65691238D01*
X197429523Y-65786476D01*
X197477142Y-65976952D01*
X197477142Y-66119809D01*
X197429523Y-66310285D01*
X197381904Y-66405523D01*
X197286666Y-66500761D01*
X197143809Y-66548380D01*
X196905714Y-66548380D01*
X198429523Y-66548380D02*
X197858095Y-66548380D01*
X198143809Y-66548380D02*
X198143809Y-65548380D01*
X198048571Y-65691238D01*
X197953333Y-65786476D01*
X197858095Y-65834095D01*
X199381904Y-66548380D02*
X198810476Y-66548380D01*
X199096190Y-66548380D02*
X199096190Y-65548380D01*
X199000952Y-65691238D01*
X198905714Y-65786476D01*
X198810476Y-65834095D01*
X198405714Y-69921380D02*
X197834285Y-69921380D01*
X198120000Y-69921380D02*
X198120000Y-68921380D01*
X198024761Y-69064238D01*
X197929523Y-69159476D01*
X197834285Y-69207095D01*
%TO.C,D10*%
X196905714Y-87884380D02*
X196905714Y-86884380D01*
X197143809Y-86884380D01*
X197286666Y-86932000D01*
X197381904Y-87027238D01*
X197429523Y-87122476D01*
X197477142Y-87312952D01*
X197477142Y-87455809D01*
X197429523Y-87646285D01*
X197381904Y-87741523D01*
X197286666Y-87836761D01*
X197143809Y-87884380D01*
X196905714Y-87884380D01*
X198429523Y-87884380D02*
X197858095Y-87884380D01*
X198143809Y-87884380D02*
X198143809Y-86884380D01*
X198048571Y-87027238D01*
X197953333Y-87122476D01*
X197858095Y-87170095D01*
X199048571Y-86884380D02*
X199143809Y-86884380D01*
X199239047Y-86932000D01*
X199286666Y-86979619D01*
X199334285Y-87074857D01*
X199381904Y-87265333D01*
X199381904Y-87503428D01*
X199334285Y-87693904D01*
X199286666Y-87789142D01*
X199239047Y-87836761D01*
X199143809Y-87884380D01*
X199048571Y-87884380D01*
X198953333Y-87836761D01*
X198905714Y-87789142D01*
X198858095Y-87693904D01*
X198810476Y-87503428D01*
X198810476Y-87265333D01*
X198858095Y-87074857D01*
X198905714Y-86979619D01*
X198953333Y-86932000D01*
X199048571Y-86884380D01*
X198405714Y-91384380D02*
X197834285Y-91384380D01*
X198120000Y-91384380D02*
X198120000Y-90384380D01*
X198024761Y-90527238D01*
X197929523Y-90622476D01*
X197834285Y-90670095D01*
%TO.C,D9*%
X88161904Y-73660380D02*
X88161904Y-72660380D01*
X88400000Y-72660380D01*
X88542857Y-72708000D01*
X88638095Y-72803238D01*
X88685714Y-72898476D01*
X88733333Y-73088952D01*
X88733333Y-73231809D01*
X88685714Y-73422285D01*
X88638095Y-73517523D01*
X88542857Y-73612761D01*
X88400000Y-73660380D01*
X88161904Y-73660380D01*
X89209523Y-73660380D02*
X89400000Y-73660380D01*
X89495238Y-73612761D01*
X89542857Y-73565142D01*
X89638095Y-73422285D01*
X89685714Y-73231809D01*
X89685714Y-72850857D01*
X89638095Y-72755619D01*
X89590476Y-72708000D01*
X89495238Y-72660380D01*
X89304761Y-72660380D01*
X89209523Y-72708000D01*
X89161904Y-72755619D01*
X89114285Y-72850857D01*
X89114285Y-73088952D01*
X89161904Y-73184190D01*
X89209523Y-73231809D01*
X89304761Y-73279428D01*
X89495238Y-73279428D01*
X89590476Y-73231809D01*
X89638095Y-73184190D01*
X89685714Y-73088952D01*
X85035714Y-75560380D02*
X84464285Y-75560380D01*
X84750000Y-75560380D02*
X84750000Y-74560380D01*
X84654761Y-74703238D01*
X84559523Y-74798476D01*
X84464285Y-74846095D01*
%TO.C,D8*%
X88161904Y-94996380D02*
X88161904Y-93996380D01*
X88400000Y-93996380D01*
X88542857Y-94044000D01*
X88638095Y-94139238D01*
X88685714Y-94234476D01*
X88733333Y-94424952D01*
X88733333Y-94567809D01*
X88685714Y-94758285D01*
X88638095Y-94853523D01*
X88542857Y-94948761D01*
X88400000Y-94996380D01*
X88161904Y-94996380D01*
X89304761Y-94424952D02*
X89209523Y-94377333D01*
X89161904Y-94329714D01*
X89114285Y-94234476D01*
X89114285Y-94186857D01*
X89161904Y-94091619D01*
X89209523Y-94044000D01*
X89304761Y-93996380D01*
X89495238Y-93996380D01*
X89590476Y-94044000D01*
X89638095Y-94091619D01*
X89685714Y-94186857D01*
X89685714Y-94234476D01*
X89638095Y-94329714D01*
X89590476Y-94377333D01*
X89495238Y-94424952D01*
X89304761Y-94424952D01*
X89209523Y-94472571D01*
X89161904Y-94520190D01*
X89114285Y-94615428D01*
X89114285Y-94805904D01*
X89161904Y-94901142D01*
X89209523Y-94948761D01*
X89304761Y-94996380D01*
X89495238Y-94996380D01*
X89590476Y-94948761D01*
X89638095Y-94901142D01*
X89685714Y-94805904D01*
X89685714Y-94615428D01*
X89638095Y-94520190D01*
X89590476Y-94472571D01*
X89495238Y-94424952D01*
X85035714Y-96896380D02*
X84464285Y-96896380D01*
X84750000Y-96896380D02*
X84750000Y-95896380D01*
X84654761Y-96039238D01*
X84559523Y-96134476D01*
X84464285Y-96182095D01*
%TO.C,D7*%
X208557904Y-73660380D02*
X208557904Y-72660380D01*
X208796000Y-72660380D01*
X208938857Y-72708000D01*
X209034095Y-72803238D01*
X209081714Y-72898476D01*
X209129333Y-73088952D01*
X209129333Y-73231809D01*
X209081714Y-73422285D01*
X209034095Y-73517523D01*
X208938857Y-73612761D01*
X208796000Y-73660380D01*
X208557904Y-73660380D01*
X209462666Y-72660380D02*
X210129333Y-72660380D01*
X209700761Y-73660380D01*
X209581714Y-77033380D02*
X209010285Y-77033380D01*
X209296000Y-77033380D02*
X209296000Y-76033380D01*
X209200761Y-76176238D01*
X209105523Y-76271476D01*
X209010285Y-76319095D01*
%TO.C,D6*%
X208557904Y-94996380D02*
X208557904Y-93996380D01*
X208796000Y-93996380D01*
X208938857Y-94044000D01*
X209034095Y-94139238D01*
X209081714Y-94234476D01*
X209129333Y-94424952D01*
X209129333Y-94567809D01*
X209081714Y-94758285D01*
X209034095Y-94853523D01*
X208938857Y-94948761D01*
X208796000Y-94996380D01*
X208557904Y-94996380D01*
X209986476Y-93996380D02*
X209796000Y-93996380D01*
X209700761Y-94044000D01*
X209653142Y-94091619D01*
X209557904Y-94234476D01*
X209510285Y-94424952D01*
X209510285Y-94805904D01*
X209557904Y-94901142D01*
X209605523Y-94948761D01*
X209700761Y-94996380D01*
X209891238Y-94996380D01*
X209986476Y-94948761D01*
X210034095Y-94901142D01*
X210081714Y-94805904D01*
X210081714Y-94567809D01*
X210034095Y-94472571D01*
X209986476Y-94424952D01*
X209891238Y-94377333D01*
X209700761Y-94377333D01*
X209605523Y-94424952D01*
X209557904Y-94472571D01*
X209510285Y-94567809D01*
X209581714Y-98369380D02*
X209010285Y-98369380D01*
X209296000Y-98369380D02*
X209296000Y-97369380D01*
X209200761Y-97512238D01*
X209105523Y-97607476D01*
X209010285Y-97655095D01*
%TO.C,D5*%
X99337904Y-73660380D02*
X99337904Y-72660380D01*
X99576000Y-72660380D01*
X99718857Y-72708000D01*
X99814095Y-72803238D01*
X99861714Y-72898476D01*
X99909333Y-73088952D01*
X99909333Y-73231809D01*
X99861714Y-73422285D01*
X99814095Y-73517523D01*
X99718857Y-73612761D01*
X99576000Y-73660380D01*
X99337904Y-73660380D01*
X100814095Y-72660380D02*
X100337904Y-72660380D01*
X100290285Y-73136571D01*
X100337904Y-73088952D01*
X100433142Y-73041333D01*
X100671238Y-73041333D01*
X100766476Y-73088952D01*
X100814095Y-73136571D01*
X100861714Y-73231809D01*
X100861714Y-73469904D01*
X100814095Y-73565142D01*
X100766476Y-73612761D01*
X100671238Y-73660380D01*
X100433142Y-73660380D01*
X100337904Y-73612761D01*
X100290285Y-73565142D01*
X96211714Y-75560380D02*
X95640285Y-75560380D01*
X95926000Y-75560380D02*
X95926000Y-74560380D01*
X95830761Y-74703238D01*
X95735523Y-74798476D01*
X95640285Y-74846095D01*
%TO.C,D4*%
X103782904Y-98623380D02*
X103782904Y-97623380D01*
X104021000Y-97623380D01*
X104163857Y-97671000D01*
X104259095Y-97766238D01*
X104306714Y-97861476D01*
X104354333Y-98051952D01*
X104354333Y-98194809D01*
X104306714Y-98385285D01*
X104259095Y-98480523D01*
X104163857Y-98575761D01*
X104021000Y-98623380D01*
X103782904Y-98623380D01*
X105211476Y-97956714D02*
X105211476Y-98623380D01*
X104973380Y-97575761D02*
X104735285Y-98290047D01*
X105354333Y-98290047D01*
X96211714Y-96896380D02*
X95640285Y-96896380D01*
X95926000Y-96896380D02*
X95926000Y-95896380D01*
X95830761Y-96039238D01*
X95735523Y-96134476D01*
X95640285Y-96182095D01*
%TO.C,D3*%
X197381904Y-73660380D02*
X197381904Y-72660380D01*
X197620000Y-72660380D01*
X197762857Y-72708000D01*
X197858095Y-72803238D01*
X197905714Y-72898476D01*
X197953333Y-73088952D01*
X197953333Y-73231809D01*
X197905714Y-73422285D01*
X197858095Y-73517523D01*
X197762857Y-73612761D01*
X197620000Y-73660380D01*
X197381904Y-73660380D01*
X198286666Y-72660380D02*
X198905714Y-72660380D01*
X198572380Y-73041333D01*
X198715238Y-73041333D01*
X198810476Y-73088952D01*
X198858095Y-73136571D01*
X198905714Y-73231809D01*
X198905714Y-73469904D01*
X198858095Y-73565142D01*
X198810476Y-73612761D01*
X198715238Y-73660380D01*
X198429523Y-73660380D01*
X198334285Y-73612761D01*
X198286666Y-73565142D01*
X198405714Y-77033380D02*
X197834285Y-77033380D01*
X198120000Y-77033380D02*
X198120000Y-76033380D01*
X198024761Y-76176238D01*
X197929523Y-76271476D01*
X197834285Y-76319095D01*
%TO.C,D2*%
X197381904Y-94996380D02*
X197381904Y-93996380D01*
X197620000Y-93996380D01*
X197762857Y-94044000D01*
X197858095Y-94139238D01*
X197905714Y-94234476D01*
X197953333Y-94424952D01*
X197953333Y-94567809D01*
X197905714Y-94758285D01*
X197858095Y-94853523D01*
X197762857Y-94948761D01*
X197620000Y-94996380D01*
X197381904Y-94996380D01*
X198334285Y-94091619D02*
X198381904Y-94044000D01*
X198477142Y-93996380D01*
X198715238Y-93996380D01*
X198810476Y-94044000D01*
X198858095Y-94091619D01*
X198905714Y-94186857D01*
X198905714Y-94282095D01*
X198858095Y-94424952D01*
X198286666Y-94996380D01*
X198905714Y-94996380D01*
X198278714Y-98496380D02*
X197707285Y-98496380D01*
X197993000Y-98496380D02*
X197993000Y-97496380D01*
X197897761Y-97639238D01*
X197802523Y-97734476D01*
X197707285Y-97782095D01*
%TO.C,C57*%
X166317142Y-64142857D02*
X166364761Y-64190476D01*
X166412380Y-64333333D01*
X166412380Y-64428571D01*
X166364761Y-64571428D01*
X166269523Y-64666666D01*
X166174285Y-64714285D01*
X165983809Y-64761904D01*
X165840952Y-64761904D01*
X165650476Y-64714285D01*
X165555238Y-64666666D01*
X165460000Y-64571428D01*
X165412380Y-64428571D01*
X165412380Y-64333333D01*
X165460000Y-64190476D01*
X165507619Y-64142857D01*
X165412380Y-63238095D02*
X165412380Y-63714285D01*
X165888571Y-63761904D01*
X165840952Y-63714285D01*
X165793333Y-63619047D01*
X165793333Y-63380952D01*
X165840952Y-63285714D01*
X165888571Y-63238095D01*
X165983809Y-63190476D01*
X166221904Y-63190476D01*
X166317142Y-63238095D01*
X166364761Y-63285714D01*
X166412380Y-63380952D01*
X166412380Y-63619047D01*
X166364761Y-63714285D01*
X166317142Y-63761904D01*
X165412380Y-62857142D02*
X165412380Y-62190476D01*
X166412380Y-62619047D01*
%TO.C,C56*%
X142740142Y-72620142D02*
X142692523Y-72667761D01*
X142549666Y-72715380D01*
X142454428Y-72715380D01*
X142311571Y-72667761D01*
X142216333Y-72572523D01*
X142168714Y-72477285D01*
X142121095Y-72286809D01*
X142121095Y-72143952D01*
X142168714Y-71953476D01*
X142216333Y-71858238D01*
X142311571Y-71763000D01*
X142454428Y-71715380D01*
X142549666Y-71715380D01*
X142692523Y-71763000D01*
X142740142Y-71810619D01*
X143644904Y-71715380D02*
X143168714Y-71715380D01*
X143121095Y-72191571D01*
X143168714Y-72143952D01*
X143263952Y-72096333D01*
X143502047Y-72096333D01*
X143597285Y-72143952D01*
X143644904Y-72191571D01*
X143692523Y-72286809D01*
X143692523Y-72524904D01*
X143644904Y-72620142D01*
X143597285Y-72667761D01*
X143502047Y-72715380D01*
X143263952Y-72715380D01*
X143168714Y-72667761D01*
X143121095Y-72620142D01*
X144549666Y-71715380D02*
X144359190Y-71715380D01*
X144263952Y-71763000D01*
X144216333Y-71810619D01*
X144121095Y-71953476D01*
X144073476Y-72143952D01*
X144073476Y-72524904D01*
X144121095Y-72620142D01*
X144168714Y-72667761D01*
X144263952Y-72715380D01*
X144454428Y-72715380D01*
X144549666Y-72667761D01*
X144597285Y-72620142D01*
X144644904Y-72524904D01*
X144644904Y-72286809D01*
X144597285Y-72191571D01*
X144549666Y-72143952D01*
X144454428Y-72096333D01*
X144263952Y-72096333D01*
X144168714Y-72143952D01*
X144121095Y-72191571D01*
X144073476Y-72286809D01*
%TO.C,C55*%
X156977142Y-88018857D02*
X157024761Y-88066476D01*
X157072380Y-88209333D01*
X157072380Y-88304571D01*
X157024761Y-88447428D01*
X156929523Y-88542666D01*
X156834285Y-88590285D01*
X156643809Y-88637904D01*
X156500952Y-88637904D01*
X156310476Y-88590285D01*
X156215238Y-88542666D01*
X156120000Y-88447428D01*
X156072380Y-88304571D01*
X156072380Y-88209333D01*
X156120000Y-88066476D01*
X156167619Y-88018857D01*
X156072380Y-87114095D02*
X156072380Y-87590285D01*
X156548571Y-87637904D01*
X156500952Y-87590285D01*
X156453333Y-87495047D01*
X156453333Y-87256952D01*
X156500952Y-87161714D01*
X156548571Y-87114095D01*
X156643809Y-87066476D01*
X156881904Y-87066476D01*
X156977142Y-87114095D01*
X157024761Y-87161714D01*
X157072380Y-87256952D01*
X157072380Y-87495047D01*
X157024761Y-87590285D01*
X156977142Y-87637904D01*
X156072380Y-86161714D02*
X156072380Y-86637904D01*
X156548571Y-86685523D01*
X156500952Y-86637904D01*
X156453333Y-86542666D01*
X156453333Y-86304571D01*
X156500952Y-86209333D01*
X156548571Y-86161714D01*
X156643809Y-86114095D01*
X156881904Y-86114095D01*
X156977142Y-86161714D01*
X157024761Y-86209333D01*
X157072380Y-86304571D01*
X157072380Y-86542666D01*
X157024761Y-86637904D01*
X156977142Y-86685523D01*
%TO.C,C54*%
X142740142Y-74779142D02*
X142692523Y-74826761D01*
X142549666Y-74874380D01*
X142454428Y-74874380D01*
X142311571Y-74826761D01*
X142216333Y-74731523D01*
X142168714Y-74636285D01*
X142121095Y-74445809D01*
X142121095Y-74302952D01*
X142168714Y-74112476D01*
X142216333Y-74017238D01*
X142311571Y-73922000D01*
X142454428Y-73874380D01*
X142549666Y-73874380D01*
X142692523Y-73922000D01*
X142740142Y-73969619D01*
X143644904Y-73874380D02*
X143168714Y-73874380D01*
X143121095Y-74350571D01*
X143168714Y-74302952D01*
X143263952Y-74255333D01*
X143502047Y-74255333D01*
X143597285Y-74302952D01*
X143644904Y-74350571D01*
X143692523Y-74445809D01*
X143692523Y-74683904D01*
X143644904Y-74779142D01*
X143597285Y-74826761D01*
X143502047Y-74874380D01*
X143263952Y-74874380D01*
X143168714Y-74826761D01*
X143121095Y-74779142D01*
X144549666Y-74207714D02*
X144549666Y-74874380D01*
X144311571Y-73826761D02*
X144073476Y-74541047D01*
X144692523Y-74541047D01*
%TO.C,C53*%
X157853142Y-76401142D02*
X157805523Y-76448761D01*
X157662666Y-76496380D01*
X157567428Y-76496380D01*
X157424571Y-76448761D01*
X157329333Y-76353523D01*
X157281714Y-76258285D01*
X157234095Y-76067809D01*
X157234095Y-75924952D01*
X157281714Y-75734476D01*
X157329333Y-75639238D01*
X157424571Y-75544000D01*
X157567428Y-75496380D01*
X157662666Y-75496380D01*
X157805523Y-75544000D01*
X157853142Y-75591619D01*
X158757904Y-75496380D02*
X158281714Y-75496380D01*
X158234095Y-75972571D01*
X158281714Y-75924952D01*
X158376952Y-75877333D01*
X158615047Y-75877333D01*
X158710285Y-75924952D01*
X158757904Y-75972571D01*
X158805523Y-76067809D01*
X158805523Y-76305904D01*
X158757904Y-76401142D01*
X158710285Y-76448761D01*
X158615047Y-76496380D01*
X158376952Y-76496380D01*
X158281714Y-76448761D01*
X158234095Y-76401142D01*
X159138857Y-75496380D02*
X159757904Y-75496380D01*
X159424571Y-75877333D01*
X159567428Y-75877333D01*
X159662666Y-75924952D01*
X159710285Y-75972571D01*
X159757904Y-76067809D01*
X159757904Y-76305904D01*
X159710285Y-76401142D01*
X159662666Y-76448761D01*
X159567428Y-76496380D01*
X159281714Y-76496380D01*
X159186476Y-76448761D01*
X159138857Y-76401142D01*
%TO.C,C52*%
X147931142Y-88653857D02*
X147978761Y-88701476D01*
X148026380Y-88844333D01*
X148026380Y-88939571D01*
X147978761Y-89082428D01*
X147883523Y-89177666D01*
X147788285Y-89225285D01*
X147597809Y-89272904D01*
X147454952Y-89272904D01*
X147264476Y-89225285D01*
X147169238Y-89177666D01*
X147074000Y-89082428D01*
X147026380Y-88939571D01*
X147026380Y-88844333D01*
X147074000Y-88701476D01*
X147121619Y-88653857D01*
X147026380Y-87749095D02*
X147026380Y-88225285D01*
X147502571Y-88272904D01*
X147454952Y-88225285D01*
X147407333Y-88130047D01*
X147407333Y-87891952D01*
X147454952Y-87796714D01*
X147502571Y-87749095D01*
X147597809Y-87701476D01*
X147835904Y-87701476D01*
X147931142Y-87749095D01*
X147978761Y-87796714D01*
X148026380Y-87891952D01*
X148026380Y-88130047D01*
X147978761Y-88225285D01*
X147931142Y-88272904D01*
X147121619Y-87320523D02*
X147074000Y-87272904D01*
X147026380Y-87177666D01*
X147026380Y-86939571D01*
X147074000Y-86844333D01*
X147121619Y-86796714D01*
X147216857Y-86749095D01*
X147312095Y-86749095D01*
X147454952Y-86796714D01*
X148026380Y-87368142D01*
X148026380Y-86749095D01*
%TO.C,C51*%
X153265142Y-70492857D02*
X153312761Y-70540476D01*
X153360380Y-70683333D01*
X153360380Y-70778571D01*
X153312761Y-70921428D01*
X153217523Y-71016666D01*
X153122285Y-71064285D01*
X152931809Y-71111904D01*
X152788952Y-71111904D01*
X152598476Y-71064285D01*
X152503238Y-71016666D01*
X152408000Y-70921428D01*
X152360380Y-70778571D01*
X152360380Y-70683333D01*
X152408000Y-70540476D01*
X152455619Y-70492857D01*
X152360380Y-69588095D02*
X152360380Y-70064285D01*
X152836571Y-70111904D01*
X152788952Y-70064285D01*
X152741333Y-69969047D01*
X152741333Y-69730952D01*
X152788952Y-69635714D01*
X152836571Y-69588095D01*
X152931809Y-69540476D01*
X153169904Y-69540476D01*
X153265142Y-69588095D01*
X153312761Y-69635714D01*
X153360380Y-69730952D01*
X153360380Y-69969047D01*
X153312761Y-70064285D01*
X153265142Y-70111904D01*
X153360380Y-68588095D02*
X153360380Y-69159523D01*
X153360380Y-68873809D02*
X152360380Y-68873809D01*
X152503238Y-68969047D01*
X152598476Y-69064285D01*
X152646095Y-69159523D01*
%TO.C,C50*%
X149045142Y-93606857D02*
X149092761Y-93654476D01*
X149140380Y-93797333D01*
X149140380Y-93892571D01*
X149092761Y-94035428D01*
X148997523Y-94130666D01*
X148902285Y-94178285D01*
X148711809Y-94225904D01*
X148568952Y-94225904D01*
X148378476Y-94178285D01*
X148283238Y-94130666D01*
X148188000Y-94035428D01*
X148140380Y-93892571D01*
X148140380Y-93797333D01*
X148188000Y-93654476D01*
X148235619Y-93606857D01*
X148140380Y-92702095D02*
X148140380Y-93178285D01*
X148616571Y-93225904D01*
X148568952Y-93178285D01*
X148521333Y-93083047D01*
X148521333Y-92844952D01*
X148568952Y-92749714D01*
X148616571Y-92702095D01*
X148711809Y-92654476D01*
X148949904Y-92654476D01*
X149045142Y-92702095D01*
X149092761Y-92749714D01*
X149140380Y-92844952D01*
X149140380Y-93083047D01*
X149092761Y-93178285D01*
X149045142Y-93225904D01*
X148140380Y-92035428D02*
X148140380Y-91940190D01*
X148188000Y-91844952D01*
X148235619Y-91797333D01*
X148330857Y-91749714D01*
X148521333Y-91702095D01*
X148759428Y-91702095D01*
X148949904Y-91749714D01*
X149045142Y-91797333D01*
X149092761Y-91844952D01*
X149140380Y-91940190D01*
X149140380Y-92035428D01*
X149092761Y-92130666D01*
X149045142Y-92178285D01*
X148949904Y-92225904D01*
X148759428Y-92273523D01*
X148521333Y-92273523D01*
X148330857Y-92225904D01*
X148235619Y-92178285D01*
X148188000Y-92130666D01*
X148140380Y-92035428D01*
%TO.C,C49*%
X139057142Y-69093142D02*
X139009523Y-69140761D01*
X138866666Y-69188380D01*
X138771428Y-69188380D01*
X138628571Y-69140761D01*
X138533333Y-69045523D01*
X138485714Y-68950285D01*
X138438095Y-68759809D01*
X138438095Y-68616952D01*
X138485714Y-68426476D01*
X138533333Y-68331238D01*
X138628571Y-68236000D01*
X138771428Y-68188380D01*
X138866666Y-68188380D01*
X139009523Y-68236000D01*
X139057142Y-68283619D01*
X139914285Y-68521714D02*
X139914285Y-69188380D01*
X139676190Y-68140761D02*
X139438095Y-68855047D01*
X140057142Y-68855047D01*
X140485714Y-69188380D02*
X140676190Y-69188380D01*
X140771428Y-69140761D01*
X140819047Y-69093142D01*
X140914285Y-68950285D01*
X140961904Y-68759809D01*
X140961904Y-68378857D01*
X140914285Y-68283619D01*
X140866666Y-68236000D01*
X140771428Y-68188380D01*
X140580952Y-68188380D01*
X140485714Y-68236000D01*
X140438095Y-68283619D01*
X140390476Y-68378857D01*
X140390476Y-68616952D01*
X140438095Y-68712190D01*
X140485714Y-68759809D01*
X140580952Y-68807428D01*
X140771428Y-68807428D01*
X140866666Y-68759809D01*
X140914285Y-68712190D01*
X140961904Y-68616952D01*
%TO.C,C48*%
X170045142Y-79449142D02*
X169997523Y-79496761D01*
X169854666Y-79544380D01*
X169759428Y-79544380D01*
X169616571Y-79496761D01*
X169521333Y-79401523D01*
X169473714Y-79306285D01*
X169426095Y-79115809D01*
X169426095Y-78972952D01*
X169473714Y-78782476D01*
X169521333Y-78687238D01*
X169616571Y-78592000D01*
X169759428Y-78544380D01*
X169854666Y-78544380D01*
X169997523Y-78592000D01*
X170045142Y-78639619D01*
X170902285Y-78877714D02*
X170902285Y-79544380D01*
X170664190Y-78496761D02*
X170426095Y-79211047D01*
X171045142Y-79211047D01*
X171568952Y-78972952D02*
X171473714Y-78925333D01*
X171426095Y-78877714D01*
X171378476Y-78782476D01*
X171378476Y-78734857D01*
X171426095Y-78639619D01*
X171473714Y-78592000D01*
X171568952Y-78544380D01*
X171759428Y-78544380D01*
X171854666Y-78592000D01*
X171902285Y-78639619D01*
X171949904Y-78734857D01*
X171949904Y-78782476D01*
X171902285Y-78877714D01*
X171854666Y-78925333D01*
X171759428Y-78972952D01*
X171568952Y-78972952D01*
X171473714Y-79020571D01*
X171426095Y-79068190D01*
X171378476Y-79163428D01*
X171378476Y-79353904D01*
X171426095Y-79449142D01*
X171473714Y-79496761D01*
X171568952Y-79544380D01*
X171759428Y-79544380D01*
X171854666Y-79496761D01*
X171902285Y-79449142D01*
X171949904Y-79353904D01*
X171949904Y-79163428D01*
X171902285Y-79068190D01*
X171854666Y-79020571D01*
X171759428Y-78972952D01*
%TO.C,C47*%
X128897142Y-64717142D02*
X128849523Y-64764761D01*
X128706666Y-64812380D01*
X128611428Y-64812380D01*
X128468571Y-64764761D01*
X128373333Y-64669523D01*
X128325714Y-64574285D01*
X128278095Y-64383809D01*
X128278095Y-64240952D01*
X128325714Y-64050476D01*
X128373333Y-63955238D01*
X128468571Y-63860000D01*
X128611428Y-63812380D01*
X128706666Y-63812380D01*
X128849523Y-63860000D01*
X128897142Y-63907619D01*
X129754285Y-64145714D02*
X129754285Y-64812380D01*
X129516190Y-63764761D02*
X129278095Y-64479047D01*
X129897142Y-64479047D01*
X130182857Y-63812380D02*
X130849523Y-63812380D01*
X130420952Y-64812380D01*
%TO.C,C46*%
X127230142Y-69222857D02*
X127277761Y-69270476D01*
X127325380Y-69413333D01*
X127325380Y-69508571D01*
X127277761Y-69651428D01*
X127182523Y-69746666D01*
X127087285Y-69794285D01*
X126896809Y-69841904D01*
X126753952Y-69841904D01*
X126563476Y-69794285D01*
X126468238Y-69746666D01*
X126373000Y-69651428D01*
X126325380Y-69508571D01*
X126325380Y-69413333D01*
X126373000Y-69270476D01*
X126420619Y-69222857D01*
X126658714Y-68365714D02*
X127325380Y-68365714D01*
X126277761Y-68603809D02*
X126992047Y-68841904D01*
X126992047Y-68222857D01*
X126325380Y-67413333D02*
X126325380Y-67603809D01*
X126373000Y-67699047D01*
X126420619Y-67746666D01*
X126563476Y-67841904D01*
X126753952Y-67889523D01*
X127134904Y-67889523D01*
X127230142Y-67841904D01*
X127277761Y-67794285D01*
X127325380Y-67699047D01*
X127325380Y-67508571D01*
X127277761Y-67413333D01*
X127230142Y-67365714D01*
X127134904Y-67318095D01*
X126896809Y-67318095D01*
X126801571Y-67365714D01*
X126753952Y-67413333D01*
X126706333Y-67508571D01*
X126706333Y-67699047D01*
X126753952Y-67794285D01*
X126801571Y-67841904D01*
X126896809Y-67889523D01*
%TO.C,C45*%
X121642142Y-66682857D02*
X121689761Y-66730476D01*
X121737380Y-66873333D01*
X121737380Y-66968571D01*
X121689761Y-67111428D01*
X121594523Y-67206666D01*
X121499285Y-67254285D01*
X121308809Y-67301904D01*
X121165952Y-67301904D01*
X120975476Y-67254285D01*
X120880238Y-67206666D01*
X120785000Y-67111428D01*
X120737380Y-66968571D01*
X120737380Y-66873333D01*
X120785000Y-66730476D01*
X120832619Y-66682857D01*
X121070714Y-65825714D02*
X121737380Y-65825714D01*
X120689761Y-66063809D02*
X121404047Y-66301904D01*
X121404047Y-65682857D01*
X120737380Y-64825714D02*
X120737380Y-65301904D01*
X121213571Y-65349523D01*
X121165952Y-65301904D01*
X121118333Y-65206666D01*
X121118333Y-64968571D01*
X121165952Y-64873333D01*
X121213571Y-64825714D01*
X121308809Y-64778095D01*
X121546904Y-64778095D01*
X121642142Y-64825714D01*
X121689761Y-64873333D01*
X121737380Y-64968571D01*
X121737380Y-65206666D01*
X121689761Y-65301904D01*
X121642142Y-65349523D01*
%TO.C,C44*%
X121642142Y-69603857D02*
X121689761Y-69651476D01*
X121737380Y-69794333D01*
X121737380Y-69889571D01*
X121689761Y-70032428D01*
X121594523Y-70127666D01*
X121499285Y-70175285D01*
X121308809Y-70222904D01*
X121165952Y-70222904D01*
X120975476Y-70175285D01*
X120880238Y-70127666D01*
X120785000Y-70032428D01*
X120737380Y-69889571D01*
X120737380Y-69794333D01*
X120785000Y-69651476D01*
X120832619Y-69603857D01*
X121070714Y-68746714D02*
X121737380Y-68746714D01*
X120689761Y-68984809D02*
X121404047Y-69222904D01*
X121404047Y-68603857D01*
X121070714Y-67794333D02*
X121737380Y-67794333D01*
X120689761Y-68032428D02*
X121404047Y-68270523D01*
X121404047Y-67651476D01*
%TO.C,C43*%
X114537142Y-75318857D02*
X114584761Y-75366476D01*
X114632380Y-75509333D01*
X114632380Y-75604571D01*
X114584761Y-75747428D01*
X114489523Y-75842666D01*
X114394285Y-75890285D01*
X114203809Y-75937904D01*
X114060952Y-75937904D01*
X113870476Y-75890285D01*
X113775238Y-75842666D01*
X113680000Y-75747428D01*
X113632380Y-75604571D01*
X113632380Y-75509333D01*
X113680000Y-75366476D01*
X113727619Y-75318857D01*
X113965714Y-74461714D02*
X114632380Y-74461714D01*
X113584761Y-74699809D02*
X114299047Y-74937904D01*
X114299047Y-74318857D01*
X113632380Y-74033142D02*
X113632380Y-73414095D01*
X114013333Y-73747428D01*
X114013333Y-73604571D01*
X114060952Y-73509333D01*
X114108571Y-73461714D01*
X114203809Y-73414095D01*
X114441904Y-73414095D01*
X114537142Y-73461714D01*
X114584761Y-73509333D01*
X114632380Y-73604571D01*
X114632380Y-73890285D01*
X114584761Y-73985523D01*
X114537142Y-74033142D01*
%TO.C,C42*%
X131301142Y-73286857D02*
X131348761Y-73334476D01*
X131396380Y-73477333D01*
X131396380Y-73572571D01*
X131348761Y-73715428D01*
X131253523Y-73810666D01*
X131158285Y-73858285D01*
X130967809Y-73905904D01*
X130824952Y-73905904D01*
X130634476Y-73858285D01*
X130539238Y-73810666D01*
X130444000Y-73715428D01*
X130396380Y-73572571D01*
X130396380Y-73477333D01*
X130444000Y-73334476D01*
X130491619Y-73286857D01*
X130729714Y-72429714D02*
X131396380Y-72429714D01*
X130348761Y-72667809D02*
X131063047Y-72905904D01*
X131063047Y-72286857D01*
X130491619Y-71953523D02*
X130444000Y-71905904D01*
X130396380Y-71810666D01*
X130396380Y-71572571D01*
X130444000Y-71477333D01*
X130491619Y-71429714D01*
X130586857Y-71382095D01*
X130682095Y-71382095D01*
X130824952Y-71429714D01*
X131396380Y-72001142D01*
X131396380Y-71382095D01*
%TO.C,C41*%
X115689142Y-80875142D02*
X115641523Y-80922761D01*
X115498666Y-80970380D01*
X115403428Y-80970380D01*
X115260571Y-80922761D01*
X115165333Y-80827523D01*
X115117714Y-80732285D01*
X115070095Y-80541809D01*
X115070095Y-80398952D01*
X115117714Y-80208476D01*
X115165333Y-80113238D01*
X115260571Y-80018000D01*
X115403428Y-79970380D01*
X115498666Y-79970380D01*
X115641523Y-80018000D01*
X115689142Y-80065619D01*
X116546285Y-80303714D02*
X116546285Y-80970380D01*
X116308190Y-79922761D02*
X116070095Y-80637047D01*
X116689142Y-80637047D01*
X117593904Y-80970380D02*
X117022476Y-80970380D01*
X117308190Y-80970380D02*
X117308190Y-79970380D01*
X117212952Y-80113238D01*
X117117714Y-80208476D01*
X117022476Y-80256095D01*
%TO.C,C40*%
X138787142Y-79128857D02*
X138834761Y-79176476D01*
X138882380Y-79319333D01*
X138882380Y-79414571D01*
X138834761Y-79557428D01*
X138739523Y-79652666D01*
X138644285Y-79700285D01*
X138453809Y-79747904D01*
X138310952Y-79747904D01*
X138120476Y-79700285D01*
X138025238Y-79652666D01*
X137930000Y-79557428D01*
X137882380Y-79414571D01*
X137882380Y-79319333D01*
X137930000Y-79176476D01*
X137977619Y-79128857D01*
X138215714Y-78271714D02*
X138882380Y-78271714D01*
X137834761Y-78509809D02*
X138549047Y-78747904D01*
X138549047Y-78128857D01*
X137882380Y-77557428D02*
X137882380Y-77462190D01*
X137930000Y-77366952D01*
X137977619Y-77319333D01*
X138072857Y-77271714D01*
X138263333Y-77224095D01*
X138501428Y-77224095D01*
X138691904Y-77271714D01*
X138787142Y-77319333D01*
X138834761Y-77366952D01*
X138882380Y-77462190D01*
X138882380Y-77557428D01*
X138834761Y-77652666D01*
X138787142Y-77700285D01*
X138691904Y-77747904D01*
X138501428Y-77795523D01*
X138263333Y-77795523D01*
X138072857Y-77747904D01*
X137977619Y-77700285D01*
X137930000Y-77652666D01*
X137882380Y-77557428D01*
%TO.C,C39*%
X114292142Y-85193142D02*
X114244523Y-85240761D01*
X114101666Y-85288380D01*
X114006428Y-85288380D01*
X113863571Y-85240761D01*
X113768333Y-85145523D01*
X113720714Y-85050285D01*
X113673095Y-84859809D01*
X113673095Y-84716952D01*
X113720714Y-84526476D01*
X113768333Y-84431238D01*
X113863571Y-84336000D01*
X114006428Y-84288380D01*
X114101666Y-84288380D01*
X114244523Y-84336000D01*
X114292142Y-84383619D01*
X114625476Y-84288380D02*
X115244523Y-84288380D01*
X114911190Y-84669333D01*
X115054047Y-84669333D01*
X115149285Y-84716952D01*
X115196904Y-84764571D01*
X115244523Y-84859809D01*
X115244523Y-85097904D01*
X115196904Y-85193142D01*
X115149285Y-85240761D01*
X115054047Y-85288380D01*
X114768333Y-85288380D01*
X114673095Y-85240761D01*
X114625476Y-85193142D01*
X115720714Y-85288380D02*
X115911190Y-85288380D01*
X116006428Y-85240761D01*
X116054047Y-85193142D01*
X116149285Y-85050285D01*
X116196904Y-84859809D01*
X116196904Y-84478857D01*
X116149285Y-84383619D01*
X116101666Y-84336000D01*
X116006428Y-84288380D01*
X115815952Y-84288380D01*
X115720714Y-84336000D01*
X115673095Y-84383619D01*
X115625476Y-84478857D01*
X115625476Y-84716952D01*
X115673095Y-84812190D01*
X115720714Y-84859809D01*
X115815952Y-84907428D01*
X116006428Y-84907428D01*
X116101666Y-84859809D01*
X116149285Y-84812190D01*
X116196904Y-84716952D01*
%TO.C,C38*%
X122039142Y-78462142D02*
X121991523Y-78509761D01*
X121848666Y-78557380D01*
X121753428Y-78557380D01*
X121610571Y-78509761D01*
X121515333Y-78414523D01*
X121467714Y-78319285D01*
X121420095Y-78128809D01*
X121420095Y-77985952D01*
X121467714Y-77795476D01*
X121515333Y-77700238D01*
X121610571Y-77605000D01*
X121753428Y-77557380D01*
X121848666Y-77557380D01*
X121991523Y-77605000D01*
X122039142Y-77652619D01*
X122372476Y-77557380D02*
X122991523Y-77557380D01*
X122658190Y-77938333D01*
X122801047Y-77938333D01*
X122896285Y-77985952D01*
X122943904Y-78033571D01*
X122991523Y-78128809D01*
X122991523Y-78366904D01*
X122943904Y-78462142D01*
X122896285Y-78509761D01*
X122801047Y-78557380D01*
X122515333Y-78557380D01*
X122420095Y-78509761D01*
X122372476Y-78462142D01*
X123562952Y-77985952D02*
X123467714Y-77938333D01*
X123420095Y-77890714D01*
X123372476Y-77795476D01*
X123372476Y-77747857D01*
X123420095Y-77652619D01*
X123467714Y-77605000D01*
X123562952Y-77557380D01*
X123753428Y-77557380D01*
X123848666Y-77605000D01*
X123896285Y-77652619D01*
X123943904Y-77747857D01*
X123943904Y-77795476D01*
X123896285Y-77890714D01*
X123848666Y-77938333D01*
X123753428Y-77985952D01*
X123562952Y-77985952D01*
X123467714Y-78033571D01*
X123420095Y-78081190D01*
X123372476Y-78176428D01*
X123372476Y-78366904D01*
X123420095Y-78462142D01*
X123467714Y-78509761D01*
X123562952Y-78557380D01*
X123753428Y-78557380D01*
X123848666Y-78509761D01*
X123896285Y-78462142D01*
X123943904Y-78366904D01*
X123943904Y-78176428D01*
X123896285Y-78081190D01*
X123848666Y-78033571D01*
X123753428Y-77985952D01*
%TO.C,C37*%
X127738142Y-78112857D02*
X127785761Y-78160476D01*
X127833380Y-78303333D01*
X127833380Y-78398571D01*
X127785761Y-78541428D01*
X127690523Y-78636666D01*
X127595285Y-78684285D01*
X127404809Y-78731904D01*
X127261952Y-78731904D01*
X127071476Y-78684285D01*
X126976238Y-78636666D01*
X126881000Y-78541428D01*
X126833380Y-78398571D01*
X126833380Y-78303333D01*
X126881000Y-78160476D01*
X126928619Y-78112857D01*
X126833380Y-77779523D02*
X126833380Y-77160476D01*
X127214333Y-77493809D01*
X127214333Y-77350952D01*
X127261952Y-77255714D01*
X127309571Y-77208095D01*
X127404809Y-77160476D01*
X127642904Y-77160476D01*
X127738142Y-77208095D01*
X127785761Y-77255714D01*
X127833380Y-77350952D01*
X127833380Y-77636666D01*
X127785761Y-77731904D01*
X127738142Y-77779523D01*
X126833380Y-76827142D02*
X126833380Y-76160476D01*
X127833380Y-76589047D01*
%TO.C,C36*%
X127373142Y-84431142D02*
X127325523Y-84478761D01*
X127182666Y-84526380D01*
X127087428Y-84526380D01*
X126944571Y-84478761D01*
X126849333Y-84383523D01*
X126801714Y-84288285D01*
X126754095Y-84097809D01*
X126754095Y-83954952D01*
X126801714Y-83764476D01*
X126849333Y-83669238D01*
X126944571Y-83574000D01*
X127087428Y-83526380D01*
X127182666Y-83526380D01*
X127325523Y-83574000D01*
X127373142Y-83621619D01*
X127706476Y-83526380D02*
X128325523Y-83526380D01*
X127992190Y-83907333D01*
X128135047Y-83907333D01*
X128230285Y-83954952D01*
X128277904Y-84002571D01*
X128325523Y-84097809D01*
X128325523Y-84335904D01*
X128277904Y-84431142D01*
X128230285Y-84478761D01*
X128135047Y-84526380D01*
X127849333Y-84526380D01*
X127754095Y-84478761D01*
X127706476Y-84431142D01*
X129182666Y-83526380D02*
X128992190Y-83526380D01*
X128896952Y-83574000D01*
X128849333Y-83621619D01*
X128754095Y-83764476D01*
X128706476Y-83954952D01*
X128706476Y-84335904D01*
X128754095Y-84431142D01*
X128801714Y-84478761D01*
X128896952Y-84526380D01*
X129087428Y-84526380D01*
X129182666Y-84478761D01*
X129230285Y-84431142D01*
X129277904Y-84335904D01*
X129277904Y-84097809D01*
X129230285Y-84002571D01*
X129182666Y-83954952D01*
X129087428Y-83907333D01*
X128896952Y-83907333D01*
X128801714Y-83954952D01*
X128754095Y-84002571D01*
X128706476Y-84097809D01*
%TO.C,C35*%
X121912142Y-84431142D02*
X121864523Y-84478761D01*
X121721666Y-84526380D01*
X121626428Y-84526380D01*
X121483571Y-84478761D01*
X121388333Y-84383523D01*
X121340714Y-84288285D01*
X121293095Y-84097809D01*
X121293095Y-83954952D01*
X121340714Y-83764476D01*
X121388333Y-83669238D01*
X121483571Y-83574000D01*
X121626428Y-83526380D01*
X121721666Y-83526380D01*
X121864523Y-83574000D01*
X121912142Y-83621619D01*
X122245476Y-83526380D02*
X122864523Y-83526380D01*
X122531190Y-83907333D01*
X122674047Y-83907333D01*
X122769285Y-83954952D01*
X122816904Y-84002571D01*
X122864523Y-84097809D01*
X122864523Y-84335904D01*
X122816904Y-84431142D01*
X122769285Y-84478761D01*
X122674047Y-84526380D01*
X122388333Y-84526380D01*
X122293095Y-84478761D01*
X122245476Y-84431142D01*
X123769285Y-83526380D02*
X123293095Y-83526380D01*
X123245476Y-84002571D01*
X123293095Y-83954952D01*
X123388333Y-83907333D01*
X123626428Y-83907333D01*
X123721666Y-83954952D01*
X123769285Y-84002571D01*
X123816904Y-84097809D01*
X123816904Y-84335904D01*
X123769285Y-84431142D01*
X123721666Y-84478761D01*
X123626428Y-84526380D01*
X123388333Y-84526380D01*
X123293095Y-84478761D01*
X123245476Y-84431142D01*
%TO.C,C34*%
X131966642Y-78433142D02*
X131919023Y-78480761D01*
X131776166Y-78528380D01*
X131680928Y-78528380D01*
X131538071Y-78480761D01*
X131442833Y-78385523D01*
X131395214Y-78290285D01*
X131347595Y-78099809D01*
X131347595Y-77956952D01*
X131395214Y-77766476D01*
X131442833Y-77671238D01*
X131538071Y-77576000D01*
X131680928Y-77528380D01*
X131776166Y-77528380D01*
X131919023Y-77576000D01*
X131966642Y-77623619D01*
X132299976Y-77528380D02*
X132919023Y-77528380D01*
X132585690Y-77909333D01*
X132728547Y-77909333D01*
X132823785Y-77956952D01*
X132871404Y-78004571D01*
X132919023Y-78099809D01*
X132919023Y-78337904D01*
X132871404Y-78433142D01*
X132823785Y-78480761D01*
X132728547Y-78528380D01*
X132442833Y-78528380D01*
X132347595Y-78480761D01*
X132299976Y-78433142D01*
X133776166Y-77861714D02*
X133776166Y-78528380D01*
X133538071Y-77480761D02*
X133299976Y-78195047D01*
X133919023Y-78195047D01*
%TO.C,C33*%
X136755142Y-85351857D02*
X136802761Y-85399476D01*
X136850380Y-85542333D01*
X136850380Y-85637571D01*
X136802761Y-85780428D01*
X136707523Y-85875666D01*
X136612285Y-85923285D01*
X136421809Y-85970904D01*
X136278952Y-85970904D01*
X136088476Y-85923285D01*
X135993238Y-85875666D01*
X135898000Y-85780428D01*
X135850380Y-85637571D01*
X135850380Y-85542333D01*
X135898000Y-85399476D01*
X135945619Y-85351857D01*
X135850380Y-85018523D02*
X135850380Y-84399476D01*
X136231333Y-84732809D01*
X136231333Y-84589952D01*
X136278952Y-84494714D01*
X136326571Y-84447095D01*
X136421809Y-84399476D01*
X136659904Y-84399476D01*
X136755142Y-84447095D01*
X136802761Y-84494714D01*
X136850380Y-84589952D01*
X136850380Y-84875666D01*
X136802761Y-84970904D01*
X136755142Y-85018523D01*
X135850380Y-84066142D02*
X135850380Y-83447095D01*
X136231333Y-83780428D01*
X136231333Y-83637571D01*
X136278952Y-83542333D01*
X136326571Y-83494714D01*
X136421809Y-83447095D01*
X136659904Y-83447095D01*
X136755142Y-83494714D01*
X136802761Y-83542333D01*
X136850380Y-83637571D01*
X136850380Y-83923285D01*
X136802761Y-84018523D01*
X136755142Y-84066142D01*
%TO.C,C32*%
X137517142Y-93098857D02*
X137564761Y-93146476D01*
X137612380Y-93289333D01*
X137612380Y-93384571D01*
X137564761Y-93527428D01*
X137469523Y-93622666D01*
X137374285Y-93670285D01*
X137183809Y-93717904D01*
X137040952Y-93717904D01*
X136850476Y-93670285D01*
X136755238Y-93622666D01*
X136660000Y-93527428D01*
X136612380Y-93384571D01*
X136612380Y-93289333D01*
X136660000Y-93146476D01*
X136707619Y-93098857D01*
X136612380Y-92765523D02*
X136612380Y-92146476D01*
X136993333Y-92479809D01*
X136993333Y-92336952D01*
X137040952Y-92241714D01*
X137088571Y-92194095D01*
X137183809Y-92146476D01*
X137421904Y-92146476D01*
X137517142Y-92194095D01*
X137564761Y-92241714D01*
X137612380Y-92336952D01*
X137612380Y-92622666D01*
X137564761Y-92717904D01*
X137517142Y-92765523D01*
X136707619Y-91765523D02*
X136660000Y-91717904D01*
X136612380Y-91622666D01*
X136612380Y-91384571D01*
X136660000Y-91289333D01*
X136707619Y-91241714D01*
X136802857Y-91194095D01*
X136898095Y-91194095D01*
X137040952Y-91241714D01*
X137612380Y-91813142D01*
X137612380Y-91194095D01*
%TO.C,C31*%
X132961142Y-97893142D02*
X132913523Y-97940761D01*
X132770666Y-97988380D01*
X132675428Y-97988380D01*
X132532571Y-97940761D01*
X132437333Y-97845523D01*
X132389714Y-97750285D01*
X132342095Y-97559809D01*
X132342095Y-97416952D01*
X132389714Y-97226476D01*
X132437333Y-97131238D01*
X132532571Y-97036000D01*
X132675428Y-96988380D01*
X132770666Y-96988380D01*
X132913523Y-97036000D01*
X132961142Y-97083619D01*
X133294476Y-96988380D02*
X133913523Y-96988380D01*
X133580190Y-97369333D01*
X133723047Y-97369333D01*
X133818285Y-97416952D01*
X133865904Y-97464571D01*
X133913523Y-97559809D01*
X133913523Y-97797904D01*
X133865904Y-97893142D01*
X133818285Y-97940761D01*
X133723047Y-97988380D01*
X133437333Y-97988380D01*
X133342095Y-97940761D01*
X133294476Y-97893142D01*
X134865904Y-97988380D02*
X134294476Y-97988380D01*
X134580190Y-97988380D02*
X134580190Y-96988380D01*
X134484952Y-97131238D01*
X134389714Y-97226476D01*
X134294476Y-97274095D01*
%TO.C,C30*%
X115292142Y-95130857D02*
X115339761Y-95178476D01*
X115387380Y-95321333D01*
X115387380Y-95416571D01*
X115339761Y-95559428D01*
X115244523Y-95654666D01*
X115149285Y-95702285D01*
X114958809Y-95749904D01*
X114815952Y-95749904D01*
X114625476Y-95702285D01*
X114530238Y-95654666D01*
X114435000Y-95559428D01*
X114387380Y-95416571D01*
X114387380Y-95321333D01*
X114435000Y-95178476D01*
X114482619Y-95130857D01*
X114387380Y-94797523D02*
X114387380Y-94178476D01*
X114768333Y-94511809D01*
X114768333Y-94368952D01*
X114815952Y-94273714D01*
X114863571Y-94226095D01*
X114958809Y-94178476D01*
X115196904Y-94178476D01*
X115292142Y-94226095D01*
X115339761Y-94273714D01*
X115387380Y-94368952D01*
X115387380Y-94654666D01*
X115339761Y-94749904D01*
X115292142Y-94797523D01*
X114387380Y-93559428D02*
X114387380Y-93464190D01*
X114435000Y-93368952D01*
X114482619Y-93321333D01*
X114577857Y-93273714D01*
X114768333Y-93226095D01*
X115006428Y-93226095D01*
X115196904Y-93273714D01*
X115292142Y-93321333D01*
X115339761Y-93368952D01*
X115387380Y-93464190D01*
X115387380Y-93559428D01*
X115339761Y-93654666D01*
X115292142Y-93702285D01*
X115196904Y-93749904D01*
X115006428Y-93797523D01*
X114768333Y-93797523D01*
X114577857Y-93749904D01*
X114482619Y-93702285D01*
X114435000Y-93654666D01*
X114387380Y-93559428D01*
%TO.C,C29*%
X130405142Y-98559857D02*
X130452761Y-98607476D01*
X130500380Y-98750333D01*
X130500380Y-98845571D01*
X130452761Y-98988428D01*
X130357523Y-99083666D01*
X130262285Y-99131285D01*
X130071809Y-99178904D01*
X129928952Y-99178904D01*
X129738476Y-99131285D01*
X129643238Y-99083666D01*
X129548000Y-98988428D01*
X129500380Y-98845571D01*
X129500380Y-98750333D01*
X129548000Y-98607476D01*
X129595619Y-98559857D01*
X129595619Y-98178904D02*
X129548000Y-98131285D01*
X129500380Y-98036047D01*
X129500380Y-97797952D01*
X129548000Y-97702714D01*
X129595619Y-97655095D01*
X129690857Y-97607476D01*
X129786095Y-97607476D01*
X129928952Y-97655095D01*
X130500380Y-98226523D01*
X130500380Y-97607476D01*
X130500380Y-97131285D02*
X130500380Y-96940809D01*
X130452761Y-96845571D01*
X130405142Y-96797952D01*
X130262285Y-96702714D01*
X130071809Y-96655095D01*
X129690857Y-96655095D01*
X129595619Y-96702714D01*
X129548000Y-96750333D01*
X129500380Y-96845571D01*
X129500380Y-97036047D01*
X129548000Y-97131285D01*
X129595619Y-97178904D01*
X129690857Y-97226523D01*
X129928952Y-97226523D01*
X130024190Y-97178904D01*
X130071809Y-97131285D01*
X130119428Y-97036047D01*
X130119428Y-96845571D01*
X130071809Y-96750333D01*
X130024190Y-96702714D01*
X129928952Y-96655095D01*
%TO.C,C28*%
X121417142Y-95130857D02*
X121464761Y-95178476D01*
X121512380Y-95321333D01*
X121512380Y-95416571D01*
X121464761Y-95559428D01*
X121369523Y-95654666D01*
X121274285Y-95702285D01*
X121083809Y-95749904D01*
X120940952Y-95749904D01*
X120750476Y-95702285D01*
X120655238Y-95654666D01*
X120560000Y-95559428D01*
X120512380Y-95416571D01*
X120512380Y-95321333D01*
X120560000Y-95178476D01*
X120607619Y-95130857D01*
X120607619Y-94749904D02*
X120560000Y-94702285D01*
X120512380Y-94607047D01*
X120512380Y-94368952D01*
X120560000Y-94273714D01*
X120607619Y-94226095D01*
X120702857Y-94178476D01*
X120798095Y-94178476D01*
X120940952Y-94226095D01*
X121512380Y-94797523D01*
X121512380Y-94178476D01*
X120940952Y-93607047D02*
X120893333Y-93702285D01*
X120845714Y-93749904D01*
X120750476Y-93797523D01*
X120702857Y-93797523D01*
X120607619Y-93749904D01*
X120560000Y-93702285D01*
X120512380Y-93607047D01*
X120512380Y-93416571D01*
X120560000Y-93321333D01*
X120607619Y-93273714D01*
X120702857Y-93226095D01*
X120750476Y-93226095D01*
X120845714Y-93273714D01*
X120893333Y-93321333D01*
X120940952Y-93416571D01*
X120940952Y-93607047D01*
X120988571Y-93702285D01*
X121036190Y-93749904D01*
X121131428Y-93797523D01*
X121321904Y-93797523D01*
X121417142Y-93749904D01*
X121464761Y-93702285D01*
X121512380Y-93607047D01*
X121512380Y-93416571D01*
X121464761Y-93321333D01*
X121417142Y-93273714D01*
X121321904Y-93226095D01*
X121131428Y-93226095D01*
X121036190Y-93273714D01*
X120988571Y-93321333D01*
X120940952Y-93416571D01*
%TO.C,C27*%
X82399142Y-63126857D02*
X82446761Y-63174476D01*
X82494380Y-63317333D01*
X82494380Y-63412571D01*
X82446761Y-63555428D01*
X82351523Y-63650666D01*
X82256285Y-63698285D01*
X82065809Y-63745904D01*
X81922952Y-63745904D01*
X81732476Y-63698285D01*
X81637238Y-63650666D01*
X81542000Y-63555428D01*
X81494380Y-63412571D01*
X81494380Y-63317333D01*
X81542000Y-63174476D01*
X81589619Y-63126857D01*
X81589619Y-62745904D02*
X81542000Y-62698285D01*
X81494380Y-62603047D01*
X81494380Y-62364952D01*
X81542000Y-62269714D01*
X81589619Y-62222095D01*
X81684857Y-62174476D01*
X81780095Y-62174476D01*
X81922952Y-62222095D01*
X82494380Y-62793523D01*
X82494380Y-62174476D01*
X81494380Y-61841142D02*
X81494380Y-61174476D01*
X82494380Y-61603047D01*
%TO.C,C26*%
X82145142Y-84462857D02*
X82192761Y-84510476D01*
X82240380Y-84653333D01*
X82240380Y-84748571D01*
X82192761Y-84891428D01*
X82097523Y-84986666D01*
X82002285Y-85034285D01*
X81811809Y-85081904D01*
X81668952Y-85081904D01*
X81478476Y-85034285D01*
X81383238Y-84986666D01*
X81288000Y-84891428D01*
X81240380Y-84748571D01*
X81240380Y-84653333D01*
X81288000Y-84510476D01*
X81335619Y-84462857D01*
X81335619Y-84081904D02*
X81288000Y-84034285D01*
X81240380Y-83939047D01*
X81240380Y-83700952D01*
X81288000Y-83605714D01*
X81335619Y-83558095D01*
X81430857Y-83510476D01*
X81526095Y-83510476D01*
X81668952Y-83558095D01*
X82240380Y-84129523D01*
X82240380Y-83510476D01*
X81240380Y-82653333D02*
X81240380Y-82843809D01*
X81288000Y-82939047D01*
X81335619Y-82986666D01*
X81478476Y-83081904D01*
X81668952Y-83129523D01*
X82049904Y-83129523D01*
X82145142Y-83081904D01*
X82192761Y-83034285D01*
X82240380Y-82939047D01*
X82240380Y-82748571D01*
X82192761Y-82653333D01*
X82145142Y-82605714D01*
X82049904Y-82558095D01*
X81811809Y-82558095D01*
X81716571Y-82605714D01*
X81668952Y-82653333D01*
X81621333Y-82748571D01*
X81621333Y-82939047D01*
X81668952Y-83034285D01*
X81716571Y-83081904D01*
X81811809Y-83129523D01*
%TO.C,C25*%
X204192142Y-59697857D02*
X204239761Y-59745476D01*
X204287380Y-59888333D01*
X204287380Y-59983571D01*
X204239761Y-60126428D01*
X204144523Y-60221666D01*
X204049285Y-60269285D01*
X203858809Y-60316904D01*
X203715952Y-60316904D01*
X203525476Y-60269285D01*
X203430238Y-60221666D01*
X203335000Y-60126428D01*
X203287380Y-59983571D01*
X203287380Y-59888333D01*
X203335000Y-59745476D01*
X203382619Y-59697857D01*
X203382619Y-59316904D02*
X203335000Y-59269285D01*
X203287380Y-59174047D01*
X203287380Y-58935952D01*
X203335000Y-58840714D01*
X203382619Y-58793095D01*
X203477857Y-58745476D01*
X203573095Y-58745476D01*
X203715952Y-58793095D01*
X204287380Y-59364523D01*
X204287380Y-58745476D01*
X203287380Y-57840714D02*
X203287380Y-58316904D01*
X203763571Y-58364523D01*
X203715952Y-58316904D01*
X203668333Y-58221666D01*
X203668333Y-57983571D01*
X203715952Y-57888333D01*
X203763571Y-57840714D01*
X203858809Y-57793095D01*
X204096904Y-57793095D01*
X204192142Y-57840714D01*
X204239761Y-57888333D01*
X204287380Y-57983571D01*
X204287380Y-58221666D01*
X204239761Y-58316904D01*
X204192142Y-58364523D01*
%TO.C,C24*%
X204065142Y-81160857D02*
X204112761Y-81208476D01*
X204160380Y-81351333D01*
X204160380Y-81446571D01*
X204112761Y-81589428D01*
X204017523Y-81684666D01*
X203922285Y-81732285D01*
X203731809Y-81779904D01*
X203588952Y-81779904D01*
X203398476Y-81732285D01*
X203303238Y-81684666D01*
X203208000Y-81589428D01*
X203160380Y-81446571D01*
X203160380Y-81351333D01*
X203208000Y-81208476D01*
X203255619Y-81160857D01*
X203255619Y-80779904D02*
X203208000Y-80732285D01*
X203160380Y-80637047D01*
X203160380Y-80398952D01*
X203208000Y-80303714D01*
X203255619Y-80256095D01*
X203350857Y-80208476D01*
X203446095Y-80208476D01*
X203588952Y-80256095D01*
X204160380Y-80827523D01*
X204160380Y-80208476D01*
X203493714Y-79351333D02*
X204160380Y-79351333D01*
X203112761Y-79589428D02*
X203827047Y-79827523D01*
X203827047Y-79208476D01*
%TO.C,C23*%
X94972142Y-66555857D02*
X95019761Y-66603476D01*
X95067380Y-66746333D01*
X95067380Y-66841571D01*
X95019761Y-66984428D01*
X94924523Y-67079666D01*
X94829285Y-67127285D01*
X94638809Y-67174904D01*
X94495952Y-67174904D01*
X94305476Y-67127285D01*
X94210238Y-67079666D01*
X94115000Y-66984428D01*
X94067380Y-66841571D01*
X94067380Y-66746333D01*
X94115000Y-66603476D01*
X94162619Y-66555857D01*
X94162619Y-66174904D02*
X94115000Y-66127285D01*
X94067380Y-66032047D01*
X94067380Y-65793952D01*
X94115000Y-65698714D01*
X94162619Y-65651095D01*
X94257857Y-65603476D01*
X94353095Y-65603476D01*
X94495952Y-65651095D01*
X95067380Y-66222523D01*
X95067380Y-65603476D01*
X94067380Y-65270142D02*
X94067380Y-64651095D01*
X94448333Y-64984428D01*
X94448333Y-64841571D01*
X94495952Y-64746333D01*
X94543571Y-64698714D01*
X94638809Y-64651095D01*
X94876904Y-64651095D01*
X94972142Y-64698714D01*
X95019761Y-64746333D01*
X95067380Y-64841571D01*
X95067380Y-65127285D01*
X95019761Y-65222523D01*
X94972142Y-65270142D01*
%TO.C,C22*%
X93956142Y-88018857D02*
X94003761Y-88066476D01*
X94051380Y-88209333D01*
X94051380Y-88304571D01*
X94003761Y-88447428D01*
X93908523Y-88542666D01*
X93813285Y-88590285D01*
X93622809Y-88637904D01*
X93479952Y-88637904D01*
X93289476Y-88590285D01*
X93194238Y-88542666D01*
X93099000Y-88447428D01*
X93051380Y-88304571D01*
X93051380Y-88209333D01*
X93099000Y-88066476D01*
X93146619Y-88018857D01*
X93146619Y-87637904D02*
X93099000Y-87590285D01*
X93051380Y-87495047D01*
X93051380Y-87256952D01*
X93099000Y-87161714D01*
X93146619Y-87114095D01*
X93241857Y-87066476D01*
X93337095Y-87066476D01*
X93479952Y-87114095D01*
X94051380Y-87685523D01*
X94051380Y-87066476D01*
X93146619Y-86685523D02*
X93099000Y-86637904D01*
X93051380Y-86542666D01*
X93051380Y-86304571D01*
X93099000Y-86209333D01*
X93146619Y-86161714D01*
X93241857Y-86114095D01*
X93337095Y-86114095D01*
X93479952Y-86161714D01*
X94051380Y-86733142D01*
X94051380Y-86114095D01*
%TO.C,C21*%
X193397142Y-59824857D02*
X193444761Y-59872476D01*
X193492380Y-60015333D01*
X193492380Y-60110571D01*
X193444761Y-60253428D01*
X193349523Y-60348666D01*
X193254285Y-60396285D01*
X193063809Y-60443904D01*
X192920952Y-60443904D01*
X192730476Y-60396285D01*
X192635238Y-60348666D01*
X192540000Y-60253428D01*
X192492380Y-60110571D01*
X192492380Y-60015333D01*
X192540000Y-59872476D01*
X192587619Y-59824857D01*
X192587619Y-59443904D02*
X192540000Y-59396285D01*
X192492380Y-59301047D01*
X192492380Y-59062952D01*
X192540000Y-58967714D01*
X192587619Y-58920095D01*
X192682857Y-58872476D01*
X192778095Y-58872476D01*
X192920952Y-58920095D01*
X193492380Y-59491523D01*
X193492380Y-58872476D01*
X193492380Y-57920095D02*
X193492380Y-58491523D01*
X193492380Y-58205809D02*
X192492380Y-58205809D01*
X192635238Y-58301047D01*
X192730476Y-58396285D01*
X192778095Y-58491523D01*
%TO.C,C20*%
X191746142Y-84462857D02*
X191793761Y-84510476D01*
X191841380Y-84653333D01*
X191841380Y-84748571D01*
X191793761Y-84891428D01*
X191698523Y-84986666D01*
X191603285Y-85034285D01*
X191412809Y-85081904D01*
X191269952Y-85081904D01*
X191079476Y-85034285D01*
X190984238Y-84986666D01*
X190889000Y-84891428D01*
X190841380Y-84748571D01*
X190841380Y-84653333D01*
X190889000Y-84510476D01*
X190936619Y-84462857D01*
X190936619Y-84081904D02*
X190889000Y-84034285D01*
X190841380Y-83939047D01*
X190841380Y-83700952D01*
X190889000Y-83605714D01*
X190936619Y-83558095D01*
X191031857Y-83510476D01*
X191127095Y-83510476D01*
X191269952Y-83558095D01*
X191841380Y-84129523D01*
X191841380Y-83510476D01*
X190841380Y-82891428D02*
X190841380Y-82796190D01*
X190889000Y-82700952D01*
X190936619Y-82653333D01*
X191031857Y-82605714D01*
X191222333Y-82558095D01*
X191460428Y-82558095D01*
X191650904Y-82605714D01*
X191746142Y-82653333D01*
X191793761Y-82700952D01*
X191841380Y-82796190D01*
X191841380Y-82891428D01*
X191793761Y-82986666D01*
X191746142Y-83034285D01*
X191650904Y-83081904D01*
X191460428Y-83129523D01*
X191222333Y-83129523D01*
X191031857Y-83081904D01*
X190936619Y-83034285D01*
X190889000Y-82986666D01*
X190841380Y-82891428D01*
%TO.C,C19*%
X204065142Y-88272857D02*
X204112761Y-88320476D01*
X204160380Y-88463333D01*
X204160380Y-88558571D01*
X204112761Y-88701428D01*
X204017523Y-88796666D01*
X203922285Y-88844285D01*
X203731809Y-88891904D01*
X203588952Y-88891904D01*
X203398476Y-88844285D01*
X203303238Y-88796666D01*
X203208000Y-88701428D01*
X203160380Y-88558571D01*
X203160380Y-88463333D01*
X203208000Y-88320476D01*
X203255619Y-88272857D01*
X204160380Y-87320476D02*
X204160380Y-87891904D01*
X204160380Y-87606190D02*
X203160380Y-87606190D01*
X203303238Y-87701428D01*
X203398476Y-87796666D01*
X203446095Y-87891904D01*
X204160380Y-86844285D02*
X204160380Y-86653809D01*
X204112761Y-86558571D01*
X204065142Y-86510952D01*
X203922285Y-86415714D01*
X203731809Y-86368095D01*
X203350857Y-86368095D01*
X203255619Y-86415714D01*
X203208000Y-86463333D01*
X203160380Y-86558571D01*
X203160380Y-86749047D01*
X203208000Y-86844285D01*
X203255619Y-86891904D01*
X203350857Y-86939523D01*
X203588952Y-86939523D01*
X203684190Y-86891904D01*
X203731809Y-86844285D01*
X203779428Y-86749047D01*
X203779428Y-86558571D01*
X203731809Y-86463333D01*
X203684190Y-86415714D01*
X203588952Y-86368095D01*
%TO.C,C18*%
X82145142Y-70238857D02*
X82192761Y-70286476D01*
X82240380Y-70429333D01*
X82240380Y-70524571D01*
X82192761Y-70667428D01*
X82097523Y-70762666D01*
X82002285Y-70810285D01*
X81811809Y-70857904D01*
X81668952Y-70857904D01*
X81478476Y-70810285D01*
X81383238Y-70762666D01*
X81288000Y-70667428D01*
X81240380Y-70524571D01*
X81240380Y-70429333D01*
X81288000Y-70286476D01*
X81335619Y-70238857D01*
X82240380Y-69286476D02*
X82240380Y-69857904D01*
X82240380Y-69572190D02*
X81240380Y-69572190D01*
X81383238Y-69667428D01*
X81478476Y-69762666D01*
X81526095Y-69857904D01*
X81668952Y-68715047D02*
X81621333Y-68810285D01*
X81573714Y-68857904D01*
X81478476Y-68905523D01*
X81430857Y-68905523D01*
X81335619Y-68857904D01*
X81288000Y-68810285D01*
X81240380Y-68715047D01*
X81240380Y-68524571D01*
X81288000Y-68429333D01*
X81335619Y-68381714D01*
X81430857Y-68334095D01*
X81478476Y-68334095D01*
X81573714Y-68381714D01*
X81621333Y-68429333D01*
X81668952Y-68524571D01*
X81668952Y-68715047D01*
X81716571Y-68810285D01*
X81764190Y-68857904D01*
X81859428Y-68905523D01*
X82049904Y-68905523D01*
X82145142Y-68857904D01*
X82192761Y-68810285D01*
X82240380Y-68715047D01*
X82240380Y-68524571D01*
X82192761Y-68429333D01*
X82145142Y-68381714D01*
X82049904Y-68334095D01*
X81859428Y-68334095D01*
X81764190Y-68381714D01*
X81716571Y-68429333D01*
X81668952Y-68524571D01*
%TO.C,C17*%
X82145142Y-91574857D02*
X82192761Y-91622476D01*
X82240380Y-91765333D01*
X82240380Y-91860571D01*
X82192761Y-92003428D01*
X82097523Y-92098666D01*
X82002285Y-92146285D01*
X81811809Y-92193904D01*
X81668952Y-92193904D01*
X81478476Y-92146285D01*
X81383238Y-92098666D01*
X81288000Y-92003428D01*
X81240380Y-91860571D01*
X81240380Y-91765333D01*
X81288000Y-91622476D01*
X81335619Y-91574857D01*
X82240380Y-90622476D02*
X82240380Y-91193904D01*
X82240380Y-90908190D02*
X81240380Y-90908190D01*
X81383238Y-91003428D01*
X81478476Y-91098666D01*
X81526095Y-91193904D01*
X81240380Y-90289142D02*
X81240380Y-89622476D01*
X82240380Y-90051047D01*
%TO.C,C16*%
X204065142Y-66809857D02*
X204112761Y-66857476D01*
X204160380Y-67000333D01*
X204160380Y-67095571D01*
X204112761Y-67238428D01*
X204017523Y-67333666D01*
X203922285Y-67381285D01*
X203731809Y-67428904D01*
X203588952Y-67428904D01*
X203398476Y-67381285D01*
X203303238Y-67333666D01*
X203208000Y-67238428D01*
X203160380Y-67095571D01*
X203160380Y-67000333D01*
X203208000Y-66857476D01*
X203255619Y-66809857D01*
X204160380Y-65857476D02*
X204160380Y-66428904D01*
X204160380Y-66143190D02*
X203160380Y-66143190D01*
X203303238Y-66238428D01*
X203398476Y-66333666D01*
X203446095Y-66428904D01*
X203160380Y-65000333D02*
X203160380Y-65190809D01*
X203208000Y-65286047D01*
X203255619Y-65333666D01*
X203398476Y-65428904D01*
X203588952Y-65476523D01*
X203969904Y-65476523D01*
X204065142Y-65428904D01*
X204112761Y-65381285D01*
X204160380Y-65286047D01*
X204160380Y-65095571D01*
X204112761Y-65000333D01*
X204065142Y-64952714D01*
X203969904Y-64905095D01*
X203731809Y-64905095D01*
X203636571Y-64952714D01*
X203588952Y-65000333D01*
X203541333Y-65095571D01*
X203541333Y-65286047D01*
X203588952Y-65381285D01*
X203636571Y-65428904D01*
X203731809Y-65476523D01*
%TO.C,C15*%
X94845142Y-73540857D02*
X94892761Y-73588476D01*
X94940380Y-73731333D01*
X94940380Y-73826571D01*
X94892761Y-73969428D01*
X94797523Y-74064666D01*
X94702285Y-74112285D01*
X94511809Y-74159904D01*
X94368952Y-74159904D01*
X94178476Y-74112285D01*
X94083238Y-74064666D01*
X93988000Y-73969428D01*
X93940380Y-73826571D01*
X93940380Y-73731333D01*
X93988000Y-73588476D01*
X94035619Y-73540857D01*
X94940380Y-72588476D02*
X94940380Y-73159904D01*
X94940380Y-72874190D02*
X93940380Y-72874190D01*
X94083238Y-72969428D01*
X94178476Y-73064666D01*
X94226095Y-73159904D01*
X93940380Y-71683714D02*
X93940380Y-72159904D01*
X94416571Y-72207523D01*
X94368952Y-72159904D01*
X94321333Y-72064666D01*
X94321333Y-71826571D01*
X94368952Y-71731333D01*
X94416571Y-71683714D01*
X94511809Y-71636095D01*
X94749904Y-71636095D01*
X94845142Y-71683714D01*
X94892761Y-71731333D01*
X94940380Y-71826571D01*
X94940380Y-72064666D01*
X94892761Y-72159904D01*
X94845142Y-72207523D01*
%TO.C,C14*%
X94845142Y-95003857D02*
X94892761Y-95051476D01*
X94940380Y-95194333D01*
X94940380Y-95289571D01*
X94892761Y-95432428D01*
X94797523Y-95527666D01*
X94702285Y-95575285D01*
X94511809Y-95622904D01*
X94368952Y-95622904D01*
X94178476Y-95575285D01*
X94083238Y-95527666D01*
X93988000Y-95432428D01*
X93940380Y-95289571D01*
X93940380Y-95194333D01*
X93988000Y-95051476D01*
X94035619Y-95003857D01*
X94940380Y-94051476D02*
X94940380Y-94622904D01*
X94940380Y-94337190D02*
X93940380Y-94337190D01*
X94083238Y-94432428D01*
X94178476Y-94527666D01*
X94226095Y-94622904D01*
X94273714Y-93194333D02*
X94940380Y-93194333D01*
X93892761Y-93432428D02*
X94607047Y-93670523D01*
X94607047Y-93051476D01*
%TO.C,C13*%
X191746142Y-70238857D02*
X191793761Y-70286476D01*
X191841380Y-70429333D01*
X191841380Y-70524571D01*
X191793761Y-70667428D01*
X191698523Y-70762666D01*
X191603285Y-70810285D01*
X191412809Y-70857904D01*
X191269952Y-70857904D01*
X191079476Y-70810285D01*
X190984238Y-70762666D01*
X190889000Y-70667428D01*
X190841380Y-70524571D01*
X190841380Y-70429333D01*
X190889000Y-70286476D01*
X190936619Y-70238857D01*
X191841380Y-69286476D02*
X191841380Y-69857904D01*
X191841380Y-69572190D02*
X190841380Y-69572190D01*
X190984238Y-69667428D01*
X191079476Y-69762666D01*
X191127095Y-69857904D01*
X190841380Y-68953142D02*
X190841380Y-68334095D01*
X191222333Y-68667428D01*
X191222333Y-68524571D01*
X191269952Y-68429333D01*
X191317571Y-68381714D01*
X191412809Y-68334095D01*
X191650904Y-68334095D01*
X191746142Y-68381714D01*
X191793761Y-68429333D01*
X191841380Y-68524571D01*
X191841380Y-68810285D01*
X191793761Y-68905523D01*
X191746142Y-68953142D01*
%TO.C,C12*%
X191746142Y-91574857D02*
X191793761Y-91622476D01*
X191841380Y-91765333D01*
X191841380Y-91860571D01*
X191793761Y-92003428D01*
X191698523Y-92098666D01*
X191603285Y-92146285D01*
X191412809Y-92193904D01*
X191269952Y-92193904D01*
X191079476Y-92146285D01*
X190984238Y-92098666D01*
X190889000Y-92003428D01*
X190841380Y-91860571D01*
X190841380Y-91765333D01*
X190889000Y-91622476D01*
X190936619Y-91574857D01*
X191841380Y-90622476D02*
X191841380Y-91193904D01*
X191841380Y-90908190D02*
X190841380Y-90908190D01*
X190984238Y-91003428D01*
X191079476Y-91098666D01*
X191127095Y-91193904D01*
X190936619Y-90241523D02*
X190889000Y-90193904D01*
X190841380Y-90098666D01*
X190841380Y-89860571D01*
X190889000Y-89765333D01*
X190936619Y-89717714D01*
X191031857Y-89670095D01*
X191127095Y-89670095D01*
X191269952Y-89717714D01*
X191841380Y-90289142D01*
X191841380Y-89670095D01*
%TO.C,C11*%
X82272142Y-77350857D02*
X82319761Y-77398476D01*
X82367380Y-77541333D01*
X82367380Y-77636571D01*
X82319761Y-77779428D01*
X82224523Y-77874666D01*
X82129285Y-77922285D01*
X81938809Y-77969904D01*
X81795952Y-77969904D01*
X81605476Y-77922285D01*
X81510238Y-77874666D01*
X81415000Y-77779428D01*
X81367380Y-77636571D01*
X81367380Y-77541333D01*
X81415000Y-77398476D01*
X81462619Y-77350857D01*
X82367380Y-76398476D02*
X82367380Y-76969904D01*
X82367380Y-76684190D02*
X81367380Y-76684190D01*
X81510238Y-76779428D01*
X81605476Y-76874666D01*
X81653095Y-76969904D01*
X82367380Y-75446095D02*
X82367380Y-76017523D01*
X82367380Y-75731809D02*
X81367380Y-75731809D01*
X81510238Y-75827047D01*
X81605476Y-75922285D01*
X81653095Y-76017523D01*
%TO.C,C10*%
X82399142Y-98686857D02*
X82446761Y-98734476D01*
X82494380Y-98877333D01*
X82494380Y-98972571D01*
X82446761Y-99115428D01*
X82351523Y-99210666D01*
X82256285Y-99258285D01*
X82065809Y-99305904D01*
X81922952Y-99305904D01*
X81732476Y-99258285D01*
X81637238Y-99210666D01*
X81542000Y-99115428D01*
X81494380Y-98972571D01*
X81494380Y-98877333D01*
X81542000Y-98734476D01*
X81589619Y-98686857D01*
X82494380Y-97734476D02*
X82494380Y-98305904D01*
X82494380Y-98020190D02*
X81494380Y-98020190D01*
X81637238Y-98115428D01*
X81732476Y-98210666D01*
X81780095Y-98305904D01*
X81494380Y-97115428D02*
X81494380Y-97020190D01*
X81542000Y-96924952D01*
X81589619Y-96877333D01*
X81684857Y-96829714D01*
X81875333Y-96782095D01*
X82113428Y-96782095D01*
X82303904Y-96829714D01*
X82399142Y-96877333D01*
X82446761Y-96924952D01*
X82494380Y-97020190D01*
X82494380Y-97115428D01*
X82446761Y-97210666D01*
X82399142Y-97258285D01*
X82303904Y-97305904D01*
X82113428Y-97353523D01*
X81875333Y-97353523D01*
X81684857Y-97305904D01*
X81589619Y-97258285D01*
X81542000Y-97210666D01*
X81494380Y-97115428D01*
%TO.C,c10*%
X180641714Y-60700761D02*
X180546476Y-60748380D01*
X180356000Y-60748380D01*
X180260761Y-60700761D01*
X180213142Y-60653142D01*
X180165523Y-60557904D01*
X180165523Y-60272190D01*
X180213142Y-60176952D01*
X180260761Y-60129333D01*
X180356000Y-60081714D01*
X180546476Y-60081714D01*
X180641714Y-60129333D01*
X181594095Y-60748380D02*
X181022666Y-60748380D01*
X181308380Y-60748380D02*
X181308380Y-59748380D01*
X181213142Y-59891238D01*
X181117904Y-59986476D01*
X181022666Y-60034095D01*
X182213142Y-59748380D02*
X182308380Y-59748380D01*
X182403619Y-59796000D01*
X182451238Y-59843619D01*
X182498857Y-59938857D01*
X182546476Y-60129333D01*
X182546476Y-60367428D01*
X182498857Y-60557904D01*
X182451238Y-60653142D01*
X182403619Y-60700761D01*
X182308380Y-60748380D01*
X182213142Y-60748380D01*
X182117904Y-60700761D01*
X182070285Y-60653142D01*
X182022666Y-60557904D01*
X181975047Y-60367428D01*
X181975047Y-60129333D01*
X182022666Y-59938857D01*
X182070285Y-59843619D01*
X182117904Y-59796000D01*
X182213142Y-59748380D01*
%TO.C,C9*%
X204065142Y-73826666D02*
X204112761Y-73874285D01*
X204160380Y-74017142D01*
X204160380Y-74112380D01*
X204112761Y-74255238D01*
X204017523Y-74350476D01*
X203922285Y-74398095D01*
X203731809Y-74445714D01*
X203588952Y-74445714D01*
X203398476Y-74398095D01*
X203303238Y-74350476D01*
X203208000Y-74255238D01*
X203160380Y-74112380D01*
X203160380Y-74017142D01*
X203208000Y-73874285D01*
X203255619Y-73826666D01*
X204160380Y-73350476D02*
X204160380Y-73160000D01*
X204112761Y-73064761D01*
X204065142Y-73017142D01*
X203922285Y-72921904D01*
X203731809Y-72874285D01*
X203350857Y-72874285D01*
X203255619Y-72921904D01*
X203208000Y-72969523D01*
X203160380Y-73064761D01*
X203160380Y-73255238D01*
X203208000Y-73350476D01*
X203255619Y-73398095D01*
X203350857Y-73445714D01*
X203588952Y-73445714D01*
X203684190Y-73398095D01*
X203731809Y-73350476D01*
X203779428Y-73255238D01*
X203779428Y-73064761D01*
X203731809Y-72969523D01*
X203684190Y-72921904D01*
X203588952Y-72874285D01*
%TO.C,c9*%
X184144761Y-62722095D02*
X184192380Y-62817333D01*
X184192380Y-63007809D01*
X184144761Y-63103047D01*
X184097142Y-63150666D01*
X184001904Y-63198285D01*
X183716190Y-63198285D01*
X183620952Y-63150666D01*
X183573333Y-63103047D01*
X183525714Y-63007809D01*
X183525714Y-62817333D01*
X183573333Y-62722095D01*
X184192380Y-62245904D02*
X184192380Y-62055428D01*
X184144761Y-61960190D01*
X184097142Y-61912571D01*
X183954285Y-61817333D01*
X183763809Y-61769714D01*
X183382857Y-61769714D01*
X183287619Y-61817333D01*
X183240000Y-61864952D01*
X183192380Y-61960190D01*
X183192380Y-62150666D01*
X183240000Y-62245904D01*
X183287619Y-62293523D01*
X183382857Y-62341142D01*
X183620952Y-62341142D01*
X183716190Y-62293523D01*
X183763809Y-62245904D01*
X183811428Y-62150666D01*
X183811428Y-61960190D01*
X183763809Y-61864952D01*
X183716190Y-61817333D01*
X183620952Y-61769714D01*
%TO.C,c8*%
X177053904Y-64060761D02*
X176958666Y-64108380D01*
X176768190Y-64108380D01*
X176672952Y-64060761D01*
X176625333Y-64013142D01*
X176577714Y-63917904D01*
X176577714Y-63632190D01*
X176625333Y-63536952D01*
X176672952Y-63489333D01*
X176768190Y-63441714D01*
X176958666Y-63441714D01*
X177053904Y-63489333D01*
X177625333Y-63536952D02*
X177530095Y-63489333D01*
X177482476Y-63441714D01*
X177434857Y-63346476D01*
X177434857Y-63298857D01*
X177482476Y-63203619D01*
X177530095Y-63156000D01*
X177625333Y-63108380D01*
X177815809Y-63108380D01*
X177911047Y-63156000D01*
X177958666Y-63203619D01*
X178006285Y-63298857D01*
X178006285Y-63346476D01*
X177958666Y-63441714D01*
X177911047Y-63489333D01*
X177815809Y-63536952D01*
X177625333Y-63536952D01*
X177530095Y-63584571D01*
X177482476Y-63632190D01*
X177434857Y-63727428D01*
X177434857Y-63917904D01*
X177482476Y-64013142D01*
X177530095Y-64060761D01*
X177625333Y-64108380D01*
X177815809Y-64108380D01*
X177911047Y-64060761D01*
X177958666Y-64013142D01*
X178006285Y-63917904D01*
X178006285Y-63727428D01*
X177958666Y-63632190D01*
X177911047Y-63584571D01*
X177815809Y-63536952D01*
%TO.C,C8*%
X204065142Y-95289666D02*
X204112761Y-95337285D01*
X204160380Y-95480142D01*
X204160380Y-95575380D01*
X204112761Y-95718238D01*
X204017523Y-95813476D01*
X203922285Y-95861095D01*
X203731809Y-95908714D01*
X203588952Y-95908714D01*
X203398476Y-95861095D01*
X203303238Y-95813476D01*
X203208000Y-95718238D01*
X203160380Y-95575380D01*
X203160380Y-95480142D01*
X203208000Y-95337285D01*
X203255619Y-95289666D01*
X203588952Y-94718238D02*
X203541333Y-94813476D01*
X203493714Y-94861095D01*
X203398476Y-94908714D01*
X203350857Y-94908714D01*
X203255619Y-94861095D01*
X203208000Y-94813476D01*
X203160380Y-94718238D01*
X203160380Y-94527761D01*
X203208000Y-94432523D01*
X203255619Y-94384904D01*
X203350857Y-94337285D01*
X203398476Y-94337285D01*
X203493714Y-94384904D01*
X203541333Y-94432523D01*
X203588952Y-94527761D01*
X203588952Y-94718238D01*
X203636571Y-94813476D01*
X203684190Y-94861095D01*
X203779428Y-94908714D01*
X203969904Y-94908714D01*
X204065142Y-94861095D01*
X204112761Y-94813476D01*
X204160380Y-94718238D01*
X204160380Y-94527761D01*
X204112761Y-94432523D01*
X204065142Y-94384904D01*
X203969904Y-94337285D01*
X203779428Y-94337285D01*
X203684190Y-94384904D01*
X203636571Y-94432523D01*
X203588952Y-94527761D01*
%TO.C,c7*%
X186197904Y-66288761D02*
X186102666Y-66336380D01*
X185912190Y-66336380D01*
X185816952Y-66288761D01*
X185769333Y-66241142D01*
X185721714Y-66145904D01*
X185721714Y-65860190D01*
X185769333Y-65764952D01*
X185816952Y-65717333D01*
X185912190Y-65669714D01*
X186102666Y-65669714D01*
X186197904Y-65717333D01*
X186531238Y-65336380D02*
X187197904Y-65336380D01*
X186769333Y-66336380D01*
%TO.C,C7*%
X96115142Y-80049666D02*
X96162761Y-80097285D01*
X96210380Y-80240142D01*
X96210380Y-80335380D01*
X96162761Y-80478238D01*
X96067523Y-80573476D01*
X95972285Y-80621095D01*
X95781809Y-80668714D01*
X95638952Y-80668714D01*
X95448476Y-80621095D01*
X95353238Y-80573476D01*
X95258000Y-80478238D01*
X95210380Y-80335380D01*
X95210380Y-80240142D01*
X95258000Y-80097285D01*
X95305619Y-80049666D01*
X95210380Y-79716333D02*
X95210380Y-79049666D01*
X96210380Y-79478238D01*
%TO.C,C6*%
X94718142Y-101385666D02*
X94765761Y-101433285D01*
X94813380Y-101576142D01*
X94813380Y-101671380D01*
X94765761Y-101814238D01*
X94670523Y-101909476D01*
X94575285Y-101957095D01*
X94384809Y-102004714D01*
X94241952Y-102004714D01*
X94051476Y-101957095D01*
X93956238Y-101909476D01*
X93861000Y-101814238D01*
X93813380Y-101671380D01*
X93813380Y-101576142D01*
X93861000Y-101433285D01*
X93908619Y-101385666D01*
X93813380Y-100528523D02*
X93813380Y-100719000D01*
X93861000Y-100814238D01*
X93908619Y-100861857D01*
X94051476Y-100957095D01*
X94241952Y-101004714D01*
X94622904Y-101004714D01*
X94718142Y-100957095D01*
X94765761Y-100909476D01*
X94813380Y-100814238D01*
X94813380Y-100623761D01*
X94765761Y-100528523D01*
X94718142Y-100480904D01*
X94622904Y-100433285D01*
X94384809Y-100433285D01*
X94289571Y-100480904D01*
X94241952Y-100528523D01*
X94194333Y-100623761D01*
X94194333Y-100814238D01*
X94241952Y-100909476D01*
X94289571Y-100957095D01*
X94384809Y-101004714D01*
%TO.C,C5*%
X191746142Y-76874666D02*
X191793761Y-76922285D01*
X191841380Y-77065142D01*
X191841380Y-77160380D01*
X191793761Y-77303238D01*
X191698523Y-77398476D01*
X191603285Y-77446095D01*
X191412809Y-77493714D01*
X191269952Y-77493714D01*
X191079476Y-77446095D01*
X190984238Y-77398476D01*
X190889000Y-77303238D01*
X190841380Y-77160380D01*
X190841380Y-77065142D01*
X190889000Y-76922285D01*
X190936619Y-76874666D01*
X190841380Y-75969904D02*
X190841380Y-76446095D01*
X191317571Y-76493714D01*
X191269952Y-76446095D01*
X191222333Y-76350857D01*
X191222333Y-76112761D01*
X191269952Y-76017523D01*
X191317571Y-75969904D01*
X191412809Y-75922285D01*
X191650904Y-75922285D01*
X191746142Y-75969904D01*
X191793761Y-76017523D01*
X191841380Y-76112761D01*
X191841380Y-76350857D01*
X191793761Y-76446095D01*
X191746142Y-76493714D01*
%TO.C,C4*%
X193397142Y-95289666D02*
X193444761Y-95337285D01*
X193492380Y-95480142D01*
X193492380Y-95575380D01*
X193444761Y-95718238D01*
X193349523Y-95813476D01*
X193254285Y-95861095D01*
X193063809Y-95908714D01*
X192920952Y-95908714D01*
X192730476Y-95861095D01*
X192635238Y-95813476D01*
X192540000Y-95718238D01*
X192492380Y-95575380D01*
X192492380Y-95480142D01*
X192540000Y-95337285D01*
X192587619Y-95289666D01*
X192825714Y-94432523D02*
X193492380Y-94432523D01*
X192444761Y-94670619D02*
X193159047Y-94908714D01*
X193159047Y-94289666D01*
%TO.C,C3*%
X185253333Y-102077142D02*
X185205714Y-102124761D01*
X185062857Y-102172380D01*
X184967619Y-102172380D01*
X184824761Y-102124761D01*
X184729523Y-102029523D01*
X184681904Y-101934285D01*
X184634285Y-101743809D01*
X184634285Y-101600952D01*
X184681904Y-101410476D01*
X184729523Y-101315238D01*
X184824761Y-101220000D01*
X184967619Y-101172380D01*
X185062857Y-101172380D01*
X185205714Y-101220000D01*
X185253333Y-101267619D01*
X185586666Y-101172380D02*
X186205714Y-101172380D01*
X185872380Y-101553333D01*
X186015238Y-101553333D01*
X186110476Y-101600952D01*
X186158095Y-101648571D01*
X186205714Y-101743809D01*
X186205714Y-101981904D01*
X186158095Y-102077142D01*
X186110476Y-102124761D01*
X186015238Y-102172380D01*
X185729523Y-102172380D01*
X185634285Y-102124761D01*
X185586666Y-102077142D01*
%TO.C,C2*%
X159869142Y-73826666D02*
X159916761Y-73874285D01*
X159964380Y-74017142D01*
X159964380Y-74112380D01*
X159916761Y-74255238D01*
X159821523Y-74350476D01*
X159726285Y-74398095D01*
X159535809Y-74445714D01*
X159392952Y-74445714D01*
X159202476Y-74398095D01*
X159107238Y-74350476D01*
X159012000Y-74255238D01*
X158964380Y-74112380D01*
X158964380Y-74017142D01*
X159012000Y-73874285D01*
X159059619Y-73826666D01*
X159059619Y-73445714D02*
X159012000Y-73398095D01*
X158964380Y-73302857D01*
X158964380Y-73064761D01*
X159012000Y-72969523D01*
X159059619Y-72921904D01*
X159154857Y-72874285D01*
X159250095Y-72874285D01*
X159392952Y-72921904D01*
X159964380Y-73493333D01*
X159964380Y-72874285D01*
%TO.C,c2*%
X170449904Y-77239761D02*
X170354666Y-77287380D01*
X170164190Y-77287380D01*
X170068952Y-77239761D01*
X170021333Y-77192142D01*
X169973714Y-77096904D01*
X169973714Y-76811190D01*
X170021333Y-76715952D01*
X170068952Y-76668333D01*
X170164190Y-76620714D01*
X170354666Y-76620714D01*
X170449904Y-76668333D01*
X170830857Y-76382619D02*
X170878476Y-76335000D01*
X170973714Y-76287380D01*
X171211809Y-76287380D01*
X171307047Y-76335000D01*
X171354666Y-76382619D01*
X171402285Y-76477857D01*
X171402285Y-76573095D01*
X171354666Y-76715952D01*
X170783238Y-77287380D01*
X171402285Y-77287380D01*
%TO.C,C1*%
X151741142Y-73318666D02*
X151788761Y-73366285D01*
X151836380Y-73509142D01*
X151836380Y-73604380D01*
X151788761Y-73747238D01*
X151693523Y-73842476D01*
X151598285Y-73890095D01*
X151407809Y-73937714D01*
X151264952Y-73937714D01*
X151074476Y-73890095D01*
X150979238Y-73842476D01*
X150884000Y-73747238D01*
X150836380Y-73604380D01*
X150836380Y-73509142D01*
X150884000Y-73366285D01*
X150931619Y-73318666D01*
X151836380Y-72366285D02*
X151836380Y-72937714D01*
X151836380Y-72652000D02*
X150836380Y-72652000D01*
X150979238Y-72747238D01*
X151074476Y-72842476D01*
X151122095Y-72937714D01*
%TO.C,c1*%
X175537761Y-70342095D02*
X175585380Y-70437333D01*
X175585380Y-70627809D01*
X175537761Y-70723047D01*
X175490142Y-70770666D01*
X175394904Y-70818285D01*
X175109190Y-70818285D01*
X175013952Y-70770666D01*
X174966333Y-70723047D01*
X174918714Y-70627809D01*
X174918714Y-70437333D01*
X174966333Y-70342095D01*
X175585380Y-69389714D02*
X175585380Y-69961142D01*
X175585380Y-69675428D02*
X174585380Y-69675428D01*
X174728238Y-69770666D01*
X174823476Y-69865904D01*
X174871095Y-69961142D01*
%TO.C,BT3*%
X180554285Y-53924571D02*
X180697142Y-53972190D01*
X180744761Y-54019809D01*
X180792380Y-54115047D01*
X180792380Y-54257904D01*
X180744761Y-54353142D01*
X180697142Y-54400761D01*
X180601904Y-54448380D01*
X180220952Y-54448380D01*
X180220952Y-53448380D01*
X180554285Y-53448380D01*
X180649523Y-53496000D01*
X180697142Y-53543619D01*
X180744761Y-53638857D01*
X180744761Y-53734095D01*
X180697142Y-53829333D01*
X180649523Y-53876952D01*
X180554285Y-53924571D01*
X180220952Y-53924571D01*
X181078095Y-53448380D02*
X181649523Y-53448380D01*
X181363809Y-54448380D02*
X181363809Y-53448380D01*
X181887619Y-53448380D02*
X182506666Y-53448380D01*
X182173333Y-53829333D01*
X182316190Y-53829333D01*
X182411428Y-53876952D01*
X182459047Y-53924571D01*
X182506666Y-54019809D01*
X182506666Y-54257904D01*
X182459047Y-54353142D01*
X182411428Y-54400761D01*
X182316190Y-54448380D01*
X182030476Y-54448380D01*
X181935238Y-54400761D01*
X181887619Y-54353142D01*
%TD*%
M02*
